<svg width="1440" height="379" viewBox="0 0 1440 379" fill="none" xmlns="http://www.w3.org/2000/svg">
<ellipse cx="1362.5" cy="276.5" rx="138.5" ry="136.5" fill="white"/>
<ellipse cx="1362.5" cy="276.5" rx="138.5" ry="136.5" fill="white"/>
<ellipse cx="1362.5" cy="276.5" rx="138.5" ry="136.5" fill="white"/>
<ellipse cx="103.5" cy="339.5" rx="138.5" ry="136.5" fill="white"/>
<ellipse cx="103.5" cy="339.5" rx="138.5" ry="136.5" fill="white"/>
<ellipse cx="103.5" cy="339.5" rx="138.5" ry="136.5" fill="white"/>
<ellipse cx="1134.5" cy="367.5" rx="138.5" ry="136.5" fill="white"/>
<ellipse cx="1134.5" cy="367.5" rx="138.5" ry="136.5" fill="white"/>
<ellipse cx="1134.5" cy="367.5" rx="138.5" ry="136.5" fill="white"/>
<ellipse cx="941.5" cy="422.5" rx="138.5" ry="136.5" fill="white"/>
<ellipse cx="941.5" cy="422.5" rx="138.5" ry="136.5" fill="white"/>
<ellipse cx="941.5" cy="422.5" rx="138.5" ry="136.5" fill="white"/>
<ellipse cx="458.5" cy="360" rx="111.5" ry="110" fill="white"/>
<ellipse cx="458.5" cy="360" rx="111.5" ry="110" fill="white"/>
<ellipse cx="458.5" cy="360" rx="111.5" ry="110" fill="white"/>
<ellipse cx="2.5" cy="54" rx="54.5" ry="54" fill="white"/>
<ellipse cx="2.5" cy="54" rx="54.5" ry="54" fill="white"/>
<ellipse cx="2.5" cy="54" rx="54.5" ry="54" fill="white"/>
<ellipse cx="592.5" cy="342" rx="54.5" ry="54" fill="white"/>
<ellipse cx="592.5" cy="342" rx="54.5" ry="54" fill="white"/>
<ellipse cx="592.5" cy="342" rx="54.5" ry="54" fill="white"/>
<ellipse cx="688" cy="345.5" rx="66" ry="65.5" fill="white"/>
<ellipse cx="688" cy="345.5" rx="66" ry="65.5" fill="white"/>
<ellipse cx="688" cy="345.5" rx="66" ry="65.5" fill="white"/>
<ellipse cx="788" cy="345.5" rx="66" ry="65.5" fill="white"/>
<ellipse cx="788" cy="345.5" rx="66" ry="65.5" fill="white"/>
<ellipse cx="788" cy="345.5" rx="66" ry="65.5" fill="white"/>
<ellipse cx="57.5" cy="190.5" rx="138.5" ry="136.5" fill="white"/>
<ellipse cx="57.5" cy="190.5" rx="138.5" ry="136.5" fill="white"/>
<ellipse cx="57.5" cy="190.5" rx="138.5" ry="136.5" fill="white"/>
<ellipse cx="138.5" cy="136.5" rx="138.5" ry="136.5" transform="matrix(-1 0 0 1 1634 4)" fill="white"/>
<ellipse cx="138.5" cy="136.5" rx="138.5" ry="136.5" transform="matrix(-1 0 0 1 1634 4)" fill="white"/>
<ellipse cx="138.5" cy="136.5" rx="138.5" ry="136.5" transform="matrix(-1 0 0 1 1634 4)" fill="white"/>
<ellipse cx="252.5" cy="324.5" rx="138.5" ry="136.5" fill="white"/>
<ellipse cx="252.5" cy="324.5" rx="138.5" ry="136.5" fill="white"/>
<ellipse cx="252.5" cy="324.5" rx="138.5" ry="136.5" fill="white"/>
</svg>
