<svg width="280" height="318" viewBox="0 0 280 318" fill="none" xmlns="http://www.w3.org/2000/svg">
<path d="M152.731 252.965C151.932 254.52 151.229 253.75 151.117 253.78C149.93 254.135 149.07 254.61 147.89 253.78C147.718 254.89 147.644 255.222 147.083 256.226C146.628 259.034 150.042 259.661 152.118 258.672C154.046 257.751 154.531 253.871 154.74 253.38C154.509 252.474 153.209 254.618 152.723 252.972L152.731 252.965Z" fill="#723F32"/>
<path d="M146.687 253.78C142.997 258.09 139.83 263.216 136.207 267.625C136.259 267.677 136.983 268.779 137.013 268.847C139.068 265.534 145.701 258.709 147.091 256.226C147.651 255.222 147.726 254.897 147.898 253.78C147.92 253.652 147.898 253.508 147.898 253.372C147.539 253.282 146.844 253.591 146.687 253.78Z" fill="#2D2019"/>
<path d="M60.8461 255.411C62.2579 257.019 73.7473 268.327 74.5466 268.847C74.6437 268.908 74.8454 268.787 74.95 268.847C78.4909 270.931 77.1238 270.116 78.9765 268.032C76.2573 264.824 61.8396 249.077 61.242 247.877C61.1224 247.635 61.1374 246.813 61.6454 246.858C56.8793 244.571 52.8752 240.721 48.7516 237.49C52.1207 243.974 56.0277 249.923 60.8386 255.411H60.8461Z" fill="#392127"/>
<path d="M61.6529 246.858C61.1449 246.813 61.1299 247.635 61.2494 247.877C61.8471 249.085 76.2648 264.824 78.984 268.032C79.1857 267.798 79.604 267.451 79.7907 267.217C81.1429 265.541 82.2261 262.627 84.2206 261.518C85.3113 260.914 86.6335 260.393 87.4478 261.925C88.7252 259.223 87.7242 258.604 89.4648 257.041C93.5212 253.38 93.0431 257.215 93.8947 265.186C93.9097 265.352 94.8658 266.802 94.7015 268.447C95.8893 269.497 96.1134 270.486 95.9117 268.04C95.6203 264.575 93.6332 262.876 94.7015 255.011C94.709 254.95 94.2159 255.154 94.7015 253.788C83.1225 252.587 72.7238 252.18 61.6603 246.865L61.6529 246.858Z" fill="#1B161E"/>
<path d="M87.4478 287.991C87.8886 288.844 88.1351 290.324 88.658 291.252C90.7497 294.974 90.9215 295.027 93.4913 298.174C100.259 304.138 97.9287 301.881 104.368 298.99L99.5348 297.563C99.0567 296.302 112.279 288.844 116.866 290.845C115.462 284.949 118.621 288.233 117.673 292.068C117.71 292.098 117.546 292.626 118.48 292.475C118.793 286.798 115.663 283.764 110.217 281.884C102.217 279.129 92.5874 280.775 87.4478 287.991Z" fill="#392127"/>
<path d="M104.368 298.982C106.363 298.084 109.844 296.091 111.823 295.721C118.173 294.543 118.121 298.793 118.472 292.46C117.538 292.611 117.703 292.083 117.665 292.052C116.985 291.471 117.292 292.656 116.858 290.829C112.272 288.829 99.0492 296.287 99.5273 297.548L104.361 298.975L104.368 298.982Z" fill="#392127"/>
<path d="M116.866 290.837C117.299 292.664 116.993 291.479 117.673 292.06C118.621 288.225 115.462 284.941 116.866 290.837Z" fill="#C2AA99"/>
<path d="M167.642 250.119C167.477 269.414 155.951 294.294 134.399 295.729C129.125 296.083 118.487 293.864 120.295 289.214C132.232 293.23 142.183 279.484 137.021 268.855C136.991 268.787 136.266 267.685 136.214 267.632C136.154 267.564 135.474 268.296 134.399 267.224C133.136 265.971 131.859 264.779 130.574 263.563C127.534 264.62 122.521 265.39 120.496 262.544C120.467 260.77 128.52 261.238 128.96 261.117C130.641 260.665 136.378 255.645 143.468 252.972C137.484 253.75 131.597 255.539 125.531 255.826C118.457 256.158 111.405 255.056 104.376 254.603C103.987 256.392 106.004 256.128 106.393 257.456C106.535 257.947 106.871 266.553 106.796 267.64H108.006C107.946 266.349 108.312 265.964 108.41 265.194C108.611 263.533 108.32 259.064 110.628 259.087C113.676 260.204 114.52 264.816 114.453 267.64C121.034 268.04 112.653 282.103 110.023 274.562C103.449 272.78 89.4723 271.98 84.2356 276.6C83.6081 277.151 82.0767 279.265 82.2186 280.261C85.1395 281.997 85.5504 284.209 87.0519 287.183C87.1864 287.448 87.3208 287.735 87.4553 287.999C92.5949 280.782 102.224 279.136 110.225 281.892C115.671 283.764 118.801 286.806 118.487 292.483C118.136 298.809 118.188 294.566 111.838 295.744C109.859 296.114 106.378 298.107 104.383 299.005C97.9436 301.904 100.267 304.153 93.5063 298.19C110.673 319.175 140.711 324.754 163.219 308.781C180.431 296.567 188.058 273.384 189.41 252.995C188.954 252.769 188.29 251.629 187.797 251.364C187.543 251.229 187.244 251.1 186.99 250.957C186.131 250.481 184.315 249.402 184.166 249.326C182.844 248.685 183.023 248.541 182.956 248.511C178.339 246.488 178.862 248.956 176.307 249.326C173.693 249.704 170.234 250.134 167.642 250.142V250.119Z" fill="#1B161E"/>
<path d="M179.729 259.895C175.261 287.153 161.479 308.29 131.172 305.504C127.227 305.142 114.363 301.745 112.436 298.174C99.4377 301.3 123.963 310.585 127.548 311.204C161.8 317.107 182.47 287.032 185.376 256.03C186.855 252.497 180.326 259.132 179.736 259.895H179.729Z" fill="#392127"/>
<path d="M112.429 298.167C114.356 301.737 127.22 305.134 131.164 305.497C161.471 308.282 175.254 287.153 179.721 259.887C172.707 268.946 163.593 304.025 128.744 301.013C123.455 300.56 117.434 296.959 112.421 298.159L112.429 298.167Z" fill="#553E40"/>
<path d="M130.566 263.556C129.58 262.62 128.131 262.061 128.953 261.11C128.52 261.231 120.467 260.763 120.489 262.537C122.506 265.383 127.519 264.613 130.566 263.556Z" fill="#392127"/>
<path d="M83.4139 276.585C81.9572 276.879 82.1663 277.483 81.8003 278.623C81.6583 279.069 81.1952 279.446 81.3969 280.661L82.2037 280.254C82.0617 279.257 83.5857 277.144 84.2207 276.592C83.9592 276.615 83.6604 276.54 83.4139 276.592V276.585Z" fill="#EAB48C"/>
<path d="M128.751 268.032C119.197 266.9 121.453 282.654 126.331 283.915C135.28 286.232 136.588 268.961 128.751 268.032Z" fill="#392127"/>
<path d="M127.944 273.331L125.322 273.943C124.232 287.599 137.656 280.095 127.944 273.331Z" fill="#553E40"/>
<path d="M206.323 232.606C207.329 234.644 208.337 236.68 209.348 238.713L207.937 232.198C207.862 232.228 208.557 231.655 206.323 232.606Z" fill="#23462B"/>
<path d="M152.731 252.965C153.216 254.61 154.516 252.467 154.748 253.372C155.487 251.629 156.787 250.081 156.765 248.081C150.863 251.063 154.143 250.247 152.738 252.965L152.731 252.965Z" fill="#A3D5DE"/>
<path d="M147.89 252.157C147.233 253.025 147.905 252.942 147.89 253.38C147.89 253.516 147.913 253.659 147.89 253.788C149.063 254.618 149.922 254.142 151.117 253.788C153.015 248.035 148.264 252.082 147.89 252.157Z" fill="#99DFF5"/>
<path d="M146.284 252.157L146.687 253.788C146.844 253.606 147.539 253.289 147.898 253.38C147.913 252.942 147.24 253.025 147.898 252.157C147.644 252.21 147.793 251.749 146.284 252.157Z" fill="#216160"/>
<path d="M47.5489 59.95C46.7421 66.4671 45.9353 72.9817 45.1285 79.4938C45.2854 79.6599 47.8477 82.9511 47.9523 83.1549C48.3557 75.42 48.7591 67.6825 49.1625 59.9424C49.0803 59.9424 48.2212 59.9198 47.5489 59.9424V59.95Z" fill="#874F3C"/>
<path d="M31.8313 68.0951C32.5634 68.8425 33.0639 69.3935 33.8483 70.1333C33.7139 65.5185 33.5794 60.9037 33.4449 56.2888C33.2133 56.1379 32.9145 55.9491 32.6381 55.8812C32.8398 58.561 31.3831 64.4642 31.8313 68.0951Z" fill="#80583E"/>
<path d="M91.4743 0.0881594C80.351 0.375013 74.2851 1.71115 64.0732 5.78749C62.5418 11.1773 62.0264 16.5143 61.6529 22.0778C62.0189 22.5005 63.2216 24.0706 63.2664 24.3197C63.5652 26.1013 59.9421 34.9182 58.4331 36.3299V36.7375C64.5886 32.7065 73.934 29.7851 76.1677 39.5909C84.5867 25.8069 88.5983 9.72795 103.165 0.699609C103.113 -0.304379 92.6247 0.0579643 91.4818 0.0881594H91.4743Z" fill="#CCD477"/>
<path d="M52.3896 11.8944C45.8232 16.4162 43.0816 20.3113 42.3122 20.8549C44.2545 25.4445 43.3132 33.4311 43.9258 38.7757C44.232 41.4781 45.0314 44.3467 45.9427 46.9208C50.156 42.0896 53.4056 39.9382 57.828 35.9298C58.2688 35.5372 58.4032 36.3601 58.4331 36.3374C59.9421 34.9258 63.5652 26.1088 63.2664 24.3273C63.2291 24.0857 62.0189 22.508 61.6529 22.0853C59.5761 19.6999 55.7064 18.0618 52.7856 19.8433C54.2946 18.7336 54.1228 10.9584 52.3822 11.902L52.3896 11.8944Z" fill="#A8BE53"/>
<path d="M31.032 44.8826C31.0096 45.1544 31.0395 45.4261 31.032 45.6979C30.9872 47.185 30.905 49.1628 31.032 50.582C31.159 52.0162 32.4663 53.5033 32.6456 55.8737C32.922 55.9416 33.2209 56.1303 33.4524 56.2813C35.9176 57.8514 35.559 60.3425 47.5564 59.9424C48.2212 59.9198 49.0878 59.9424 49.1699 59.9424C59.4117 59.1045 67.0016 52.8768 72.948 44.8751C72.9928 44.0145 71.9992 45.2601 70.5275 46.5056C63.1394 52.756 48.7441 59.3083 45.9428 51.3897C45.6664 52.0238 43.3207 50.6876 46.3461 57.2928C45.1658 59.8519 36.2538 59.8066 37.0755 56.8852C43.7017 53.4127 45.4946 47.419 45.9428 46.9057C45.0314 44.3316 44.2395 41.4706 43.9258 38.7606C37.8151 39.9986 33.3478 45.947 31.032 44.8675V44.8826Z" fill="#6D882C"/>
<path d="M41.5054 21.2625C36.3808 28.079 31.6371 36.0958 31.0246 44.8826C33.3404 45.9546 37.8076 40.0137 43.9183 38.7757C43.3057 33.4311 44.247 25.4445 42.3047 20.8549C42.118 20.9907 41.722 21.1417 41.4979 21.2625H41.5054Z" fill="#99AB42"/>
<path d="M52.3896 11.8944C54.1302 10.9509 54.302 18.7261 52.793 19.8358C55.7139 18.0543 59.5835 19.6923 61.6603 22.0778C62.0338 16.5143 62.5418 11.1773 64.0807 5.78749C58.8739 7.8634 57.0735 8.67867 52.3971 11.8945L52.3896 11.8944Z" fill="#CCD477"/>
<path d="M58.4331 36.7375C56.7672 37.8321 50.6267 44.2712 49.1625 46.1055C56.446 47.2454 63.6026 44.0749 70.3184 45.6979L70.5201 46.5132C71.9918 45.2676 72.9853 44.0221 72.9405 44.8826C73.6203 43.9692 74.4868 43.3502 74.554 43.2521C74.823 42.852 75.8315 40.1345 76.1677 39.5909C73.9415 29.7851 64.5961 32.7064 58.4331 36.7375Z" fill="#A8BE53"/>
<path d="M45.9427 46.9208C45.4945 47.4341 43.7017 53.4203 37.0755 56.9003C36.2463 59.8217 45.1658 59.867 46.3461 57.3079C43.3207 50.7027 45.6664 52.0389 45.9428 51.4048C47.1081 48.7401 47.28 48.4834 49.1699 46.1131C50.6266 44.2787 56.7672 37.8396 58.4406 36.745V36.3374C58.4406 36.3374 58.2762 35.5372 57.8355 35.9298C53.4056 39.9382 50.156 42.0896 45.9503 46.9208L45.9427 46.9208Z" fill="#56661C"/>
<path d="M49.1625 46.1055C47.2725 48.4758 47.1007 48.7325 45.9353 51.3972C48.7366 59.3159 63.1245 52.7636 70.5201 46.5132L70.3184 45.6979C63.6026 44.0749 56.446 47.2454 49.1625 46.1055Z" fill="#99AB42"/>
<path d="M253.476 115.735C254.551 121.518 252.101 127.859 248.642 132.433C244.616 137.748 238.4 141.416 231.715 140.579C231.132 141.484 230.347 142.564 229.698 143.432C235.031 143.485 237.863 143.825 242.995 142.209C243.488 142.051 247.611 140.322 247.828 140.171C248.65 139.612 254.223 133.264 255.082 132.026C255.104 131.988 255.082 131.822 255.485 131.21C258.227 123.964 260.938 119.774 257.502 112.074L256.292 111.871C258.062 115.101 255.664 114.52 253.468 115.735H253.476Z" fill="#B55A2B"/>
<path d="M241.389 114.105C239.872 122.175 237.347 130.961 233.328 138.133C237.332 138.261 246.58 132.562 247.432 128.765C248.209 125.292 245.856 114.898 241.389 114.105Z" fill="#D1793A"/>
<path d="M243.398 94.9688C243.413 97.4674 243.211 102.721 242.995 105.152C249.591 104.714 254.581 105.537 257.502 112.074C260.938 119.774 258.227 123.971 255.485 131.21C257.607 127.934 259.833 123.609 260.722 119.812C261.148 117.985 262.066 109.795 261.932 108.006C260.139 108.345 259.347 105.499 256.897 103.529C249.501 97.5656 240.627 99.2716 248.231 96.1992C250.562 93.5194 245.393 94.6065 243.398 94.9763V94.9688Z" fill="#FAC287"/>
<path d="M242.188 110.851C242.151 111.116 242.233 111.402 242.188 111.667C253.132 114.996 248.896 125.036 248.231 129.588C248.097 130.501 248.127 131.603 248.635 132.441C252.094 127.866 254.551 121.533 253.468 115.743C252.415 110.081 246.969 108.194 242.188 110.859V110.851Z" fill="#D1793A"/>
<path d="M242.995 105.152C242.92 106.028 242.39 109.508 242.188 110.851C246.969 108.187 252.415 110.074 253.468 115.735C255.664 114.52 258.062 115.094 256.292 111.871L257.502 112.074C254.581 105.537 249.591 104.714 242.995 105.152Z" fill="#9D4C2F"/>
<path d="M233.328 138.133C232.857 138.971 232.237 139.763 231.715 140.579C238.393 141.416 244.616 137.748 248.642 132.433C248.134 131.603 248.104 130.493 248.239 129.58L247.432 128.765C246.58 132.562 237.332 138.261 233.328 138.133Z" fill="#E29150"/>
<path d="M242.188 111.667C242.166 111.795 241.486 113.546 241.381 114.113C245.848 114.905 248.201 125.3 247.425 128.772L248.231 129.588C248.896 125.036 253.124 115.003 242.188 111.667Z" fill="#FAC287"/>
<path d="M248.239 96.1917C240.634 99.2641 249.501 97.558 256.904 103.522C259.355 105.492 260.147 108.338 261.939 107.998C261.424 101.061 255.769 93.1495 248.239 96.1917Z" fill="#E8E2D7"/>
<path d="M16.928 95.7841C15.0381 108.617 19.3186 104.684 26.1987 114.309C32.3543 122.929 35.813 136.351 36.2762 146.889C36.9336 161.934 32.9071 156.959 32.2497 159.103C32.1376 159.466 33.6167 162.545 33.8633 163.376C35.3051 168.305 38.8983 176.186 39.5034 180.685C40.1234 185.313 39.5557 199.897 40.3102 207.967C41.4457 220.113 43.2161 226.808 48.774 237.49C52.8976 240.721 56.9017 244.571 61.6678 246.858C72.7388 252.172 83.1374 252.58 94.709 253.78C97.9511 254.12 101.133 254.384 104.383 254.595C111.42 255.048 118.465 256.15 125.539 255.818C131.605 255.531 137.484 253.75 143.475 252.965C144.416 252.61 145.335 252.414 146.299 252.15C147.808 251.742 147.659 252.202 147.913 252.15C148.279 252.074 153.03 248.02 151.14 253.78C151.252 253.75 151.947 254.52 152.753 252.965C154.158 250.24 150.878 251.055 156.78 248.081C158.401 247.265 159.925 246.065 160.806 246.858C160.844 243.031 161.621 238.864 161.613 234.236C161.613 231.934 162.33 231.504 161.613 228.537C148.503 225.714 135.064 228.62 121.722 228.537C120.937 230.364 124.994 229.73 128.975 230.167C144.409 231.843 165.475 233.527 147.307 240.758C127.294 248.73 75.9958 243.974 60.8684 226.71C51.5529 216.081 47.3098 183.863 46.7645 169.702C46.2714 156.861 48.7665 140.677 47.5713 132.849C47.1828 130.327 45.8232 127.897 45.1509 125.519C35.8827 114.93 26.6145 104.342 17.3464 93.7534C16.5471 93.912 17.0251 95.2481 16.943 95.7916L16.928 95.7841Z" fill="#723F32"/>
<path d="M6.85062 43.2521C9.54739 47.2303 18.1382 63.7017 18.9376 64.6302C21.7464 67.8687 28.4697 69.084 34.2517 78.6785C42.6633 92.6438 47.8253 117.087 49.9693 133.249C52.1282 149.486 52.6137 162.817 56.0127 180.285C64.2525 222.566 69.8702 231.36 115.656 231.187L114.446 229.352C112.944 229.141 110.419 229.08 110.822 228.129C98.4292 226.929 80.5154 222.09 73.7473 210.412C67.7411 200.055 66.4338 171.332 64.4766 157.677C63.356 149.856 62.37 142.013 60.8535 134.26C59.7703 128.727 49.1401 85.5026 47.9598 83.155C47.8552 82.9511 45.2928 79.6599 45.136 79.4938C42.0657 76.1648 37.1801 73.2812 33.8558 70.1258C33.0714 69.386 32.5709 68.8425 31.8388 68.0876C25.9373 62.0335 20.708 55.1112 15.7179 48.1362C13.7233 46.5056 10.0853 41.2139 9.47272 41.2139C9.30835 41.2139 8.02344 42.6633 6.85062 43.2521Z" fill="#DA9D76"/>
<path d="M7.65744 59.1347C8.0459 59.8217 10.5933 64.3434 10.4812 64.6302C8.06583 65.0379 5.64792 65.4455 3.22754 65.8532C3.22754 66.8119 8.84521 66.6533 10.2795 67.2799C11.0266 67.6045 20.8201 77.6821 21.7614 78.8823C26.3855 84.7779 28.6714 91.4813 30.6286 98.63C31.7193 99.4452 40.9376 113.237 41.9088 115.328C39.6752 106.503 37.0381 93.5798 33.0415 85.6008C31.3607 82.234 23.7036 71.9601 20.9546 69.1067C18.3101 66.3665 15.7627 65.4606 15.5162 65.2417C13.432 63.3772 10.2496 57.5646 7.65744 59.1347Z" fill="#874F3C"/>
<path d="M7.65744 59.1347C10.2496 57.5646 13.432 63.3772 15.5162 65.2417C15.7627 65.4682 18.3101 66.3665 20.9546 69.1067C23.7036 71.9601 31.3607 82.234 33.0415 85.6008C35.1407 84.3099 30.5091 79.1617 34.2517 78.6785C28.4697 69.0765 21.7464 67.8687 18.9376 64.6302C18.1308 63.7017 9.53992 47.2303 6.85062 43.2521C5.61053 43.8711 -0.0519409 46.2716 0.000366211 47.5247C2.27133 51.2765 5.56573 55.4132 7.65741 59.1272L7.65744 59.1347Z" fill="#A77152"/>
<path d="M17.324 93.7459C26.5921 104.334 35.8603 114.923 45.1285 125.511C44.1424 122.016 43.4626 118.664 41.9013 115.328C40.9227 113.237 31.7118 99.4452 30.6211 98.63C30.0534 98.2072 18.0187 93.61 17.324 93.7459Z" fill="#A77152"/>
<path d="M47.5489 132.841C48.7442 140.669 46.2491 156.854 46.7421 169.694C47.2874 183.856 51.5306 216.074 60.8461 226.703C75.9734 243.967 127.272 248.722 147.285 240.751C165.445 233.519 144.379 231.843 128.953 230.16C130.477 233.21 120.041 232.16 118.076 231.79C116.619 231.519 116.276 232.606 116.463 229.345C115.91 229.224 115.088 229.435 114.446 229.345L115.656 231.179C69.8702 231.353 64.2525 222.558 56.0127 180.278C52.6063 162.81 52.1207 149.479 49.9693 133.241L47.5489 132.833V132.841Z" fill="#A77152"/>
<path d="M33.0415 85.6008C37.0381 93.5798 39.6752 106.503 41.9088 115.328C43.4626 118.657 44.1499 122.016 45.136 125.511C45.8083 127.889 47.1679 130.32 47.5563 132.841L49.9768 133.249C47.8328 117.087 42.6708 92.6438 34.2592 78.6785C30.5166 79.1617 35.1482 84.3099 33.049 85.6008H33.0415Z" fill="#DA9D76"/>
<path d="M110.822 228.129C110.427 229.08 112.951 229.141 114.446 229.352C115.088 229.443 115.902 229.231 116.463 229.352C117.852 229.654 118.278 228.484 118.076 231.798C120.048 232.168 130.477 233.225 128.953 230.167C124.971 229.737 120.915 230.371 121.699 228.537C119.959 228.529 118.196 228.605 116.463 228.537C114.543 228.461 112.727 228.31 110.822 228.129Z" fill="#A77152"/>
<path d="M116.463 229.352C116.276 232.606 116.619 231.519 118.076 231.798C118.285 228.492 117.852 229.654 116.463 229.352Z" fill="#C08866"/>
<path d="M76.5636 68.9104C77.9904 70.1937 76.4739 71.4996 76.5636 72.7754C76.6084 73.4548 77.6244 75.81 77.7738 75.8326C78.7449 73.1302 79.8804 71.0392 82.2037 69.318C90.2193 63.3847 96.4346 72.5942 94.694 77.2594C94.5372 77.6896 93.4614 77.8406 92.2736 79.0937L93.8872 81.1319C100.857 79.373 91.7134 85.8499 99.1239 101.491C99.7962 102.91 100.865 104.276 100.738 105.967C102.613 106.36 104.435 106.986 106.378 106.375C106.445 105.869 106.452 104.828 106.378 104.337C103.643 103.288 104.002 101.71 103.957 99.4528C103.957 99.4075 104.308 99.7321 104.361 98.6375C104.57 94.1611 104.943 88.8241 105.571 97.2108H106.378C105.07 92.3267 106.699 85.5479 106.378 81.3281C105.175 65.3776 87.9259 53.911 76.5561 68.9104H76.5636Z" fill="#A03620"/>
<path d="M82.2111 69.318C83.5782 70.6844 85.4533 70.2088 86.2376 70.5409C92.0944 72.9792 90.9813 76.512 89.6665 77.0555C89.0614 77.3047 83.3541 75.9761 81.4044 85.6083C80.2689 91.2095 81.3371 96.0483 82.2111 101.083C88.0455 109.327 96.8828 113.139 106.796 112.89C106.654 112.301 107.042 111.387 106.594 110.851C101.365 108.919 98.2499 108.081 106.191 108.813C106.617 108.511 106.318 106.956 106.393 106.367C104.45 106.979 102.628 106.352 100.752 105.96C86.9697 103.069 84.1534 88.507 89.8757 80.913C91.3399 78.9654 92.1915 79.1919 92.296 79.0786C93.4838 77.8331 94.5521 77.6745 94.7164 77.2443C96.4496 72.5791 90.2417 63.3771 82.2261 69.3029L82.2111 69.318Z" fill="#E29150"/>
<path d="M74.554 71.3487C75.2861 69.9219 76.2573 69.318 76.5711 68.9029C87.9334 53.9034 105.182 65.37 106.393 81.3206C106.714 85.5328 105.085 92.3192 106.393 97.2032H105.586C104.958 88.809 104.585 94.1535 104.376 98.63C107.528 103.891 105.817 100.547 106.796 96.388C107.057 95.2632 108.208 92.6287 108.41 91.7077C106.116 91.0208 109.037 87.9635 107.603 82.5435L110.023 85.1931C110.075 84.0004 109.523 81.2149 109.216 79.9014C108.312 76.0063 106.168 74.338 110.628 79.4938C111.764 73.8775 106.676 71.1826 112.847 73.5906C110.897 67.7252 113.183 68.0045 113.25 67.6875C113.25 67.6573 113.519 67.8536 113.654 67.2799C106.803 63.2866 100.588 57.6627 92.4978 56.2888C86.8577 55.3301 81.8675 56.938 82.2186 55.4736C77.6393 59.5952 74.6437 65.0077 74.5615 71.3562L74.554 71.3487Z" fill="#FAC287"/>
<path d="M82.2111 55.466C81.8526 56.9305 86.8427 55.3226 92.4903 56.2813C100.581 57.6552 106.796 63.2866 113.646 67.2723C114.05 65.5135 112.025 61.2786 111.226 59.5348C103.18 49.7139 92.3708 46.3169 82.2111 55.466Z" fill="#E8E2D7"/>
<path d="M70.5201 82.7549C71.5137 99.7321 83.0852 114.799 100.342 116.958C102.396 116.181 104.592 115.751 106.788 115.735C106.751 115.6 107.155 114.43 106.788 112.882C96.8754 113.124 88.038 109.311 82.2037 101.076C81.7555 100.434 79.9028 97.6486 79.7833 97.4146L77.968 99.0451C76.0182 100.804 72.2009 84.8232 72.1262 83.9778L70.5126 82.7549H70.5201Z" fill="#B55A2B"/>
<path d="M70.5201 82.7549L72.1337 83.9778C71.7378 79.5391 72.5147 75.342 74.5541 71.3562C74.6362 65.0077 77.6318 59.5952 82.2111 55.4736C92.3708 46.3244 103.18 49.729 111.226 59.5424C111.211 59.5122 111.913 59.4895 111.629 58.9309C110.972 57.6325 105.466 51.6614 104.376 50.9896C91.0784 42.7992 68.8243 53.7374 70.5276 82.7549H70.5201Z" fill="#E29150"/>
<path d="M109.209 79.9014C110.778 79.5919 111.218 80.5204 112.234 81.532C113.728 77.1537 114.184 72.3074 113.243 67.6875C113.176 68.0045 110.89 67.7252 112.839 73.5906C106.669 71.1901 111.756 73.8775 110.621 79.4938C106.161 74.338 108.305 76.0063 109.209 79.9014Z" fill="#883D25"/>
<path d="M108.402 91.7153C108.828 89.7526 109.956 86.5972 110.016 85.2007L107.595 82.551C109.03 87.9711 106.109 91.0283 108.402 91.7153Z" fill="#6F2E1C"/>
<path d="M77.7738 75.8326C75.0919 83.3135 76.2872 90.4471 79.7908 97.4146C79.9103 97.6562 81.7554 100.442 82.2111 101.076C81.3371 96.0407 80.2689 91.202 81.4044 85.6008L80.1942 85.3969C80.3734 77.5915 82.4502 76.361 86.2376 70.5334C85.4458 70.2012 83.5782 70.6768 82.2111 69.3105C79.8879 71.0316 78.7449 73.1226 77.7812 75.8251L77.7738 75.8326Z" fill="#FAC287"/>
<path d="M93.8947 81.1243C93.5959 81.1998 90.3612 84.1816 89.8682 85.8046C87.4478 93.7761 94.6492 103.824 99.1389 101.483C91.7208 85.8423 100.865 79.3655 93.9022 81.1243H93.8947Z" fill="#B55A2B"/>
<path d="M74.554 71.3487C72.5146 75.3344 71.7452 79.5315 72.1337 83.9702C72.2084 84.8157 76.0257 100.796 77.9755 99.0376L79.7908 97.4071C76.2872 90.4395 75.0994 83.3059 77.7738 75.8251C77.6244 75.8024 76.6084 73.4548 76.5636 72.7678C76.4739 71.4845 77.9904 70.1786 76.5636 68.9029C76.2498 69.318 75.2787 69.9144 74.5466 71.3487H74.554Z" fill="#B55A2B"/>
<path d="M100.745 105.967C100.872 104.269 99.8112 102.91 99.1314 101.491C94.6417 103.831 87.4404 93.7912 89.8608 85.8121C90.3538 84.1891 93.5959 81.2074 93.8872 81.1319L92.2736 79.0937C92.1691 79.2069 91.3249 78.9805 89.8533 80.9281C84.1385 88.5221 86.9473 103.076 100.73 105.975L100.745 105.967Z" fill="#9D4C2F"/>
<path d="M81.4044 85.6008C83.3541 75.9685 89.0614 77.2971 89.6665 77.048C90.9887 76.5045 92.1018 72.9716 86.2376 70.5334C82.4502 76.361 80.3734 77.5915 80.1942 85.3969L81.4044 85.6008Z" fill="#FAC287"/>
<path d="M242.188 83.9778C242.778 87.5332 243.376 91.3756 243.398 94.9688C245.393 94.5913 250.57 93.5043 248.231 96.1917C255.761 93.1495 261.416 101.068 261.932 107.998C262.066 109.787 261.148 117.985 260.722 119.804C262.126 120.453 261.872 121.344 261.932 121.435C263.329 123.594 264.718 125.692 265.958 127.949C265.996 127.3 266.16 124.258 266.967 124.288C273.01 136.397 268.371 122.16 266.967 116.958C269.985 120.167 273.122 123.835 274.422 128.153C274.93 129.837 274.706 134.985 276.439 126.93C278.359 118.015 274.766 114.437 274.422 112.271C273.929 109.168 275.087 102.759 274.826 98.63C272.652 93.459 271.748 92.3192 268.379 88.039C267.744 103.733 253.931 100.623 264.352 83.5626C261.416 80.6261 260.132 79.4711 256.695 77.048C257.995 80.762 261.237 84.8459 256.494 87.6389C250.226 89.2619 246.214 76.7158 252.669 74.2021C250.502 72.9037 246.961 71.1826 244.608 70.1333C245.848 74.2549 246.214 82.0302 242.188 83.9778Z" fill="#A8BE53"/>
<path d="M265.966 127.957C265.764 131.286 267.355 134.456 267.579 137.325C275.588 135.06 267.094 141.069 272.009 139.363C272.301 139.265 273.167 138.986 273.22 138.956C274.071 138.442 273.167 137.28 274.43 138.14C282.797 126.583 280.047 111.033 274.833 98.6375C275.095 102.767 273.937 109.176 274.43 112.278C274.773 114.445 278.359 118.023 276.447 126.938C274.714 134.992 274.938 129.844 274.43 128.161C273.137 123.835 269.992 120.174 266.974 116.966C268.379 122.167 273.018 136.404 266.974 124.296C266.175 124.273 266.003 127.315 265.966 127.957Z" fill="#6D882C"/>
<path d="M256.695 77.0555C255.328 76.0893 254.133 75.0853 252.669 74.2021C246.222 76.7234 250.233 89.2695 256.494 87.6389C261.237 84.8459 257.995 80.7695 256.695 77.048L256.695 77.0555Z" fill="#CCD477"/>
<path d="M268.386 88.0466C266.743 85.9556 266.197 85.412 264.36 83.5701C253.939 100.63 267.759 103.74 268.386 88.0466Z" fill="#CCD477"/>
<path d="M237.355 67.6875C238.557 70.4503 240.246 74.6324 240.978 77.4632C241.538 79.607 241.829 81.7962 242.188 83.9778C246.207 82.0302 245.841 74.2549 244.608 70.1333C242.3 69.1067 239.939 67.8611 237.355 67.6875Z" fill="#CCD477"/>
<path d="M255.493 131.21C255.097 131.822 255.119 131.988 255.089 132.026C256.576 134.675 257.905 137.378 259.116 140.171C259.101 138.352 260.221 140.148 261.536 140.579C264.591 141.583 265.846 141.22 266.773 142.005C267.101 142.285 270.254 149.448 270.396 149.947H270.799C268.976 144.647 267.408 142.013 267.572 141.598C267.721 141.235 271.472 140.329 272.002 139.356C267.086 141.062 275.573 135.053 267.572 137.317C268.341 147.372 261.969 127.791 261.932 121.435C261.88 121.352 262.126 120.453 260.722 119.804C259.833 123.601 257.607 127.934 255.485 131.203L255.493 131.21Z" fill="#6D882C"/>
<path d="M267.579 137.317C267.363 134.449 265.772 131.278 265.966 127.949C264.726 125.692 263.336 123.594 261.939 121.435C261.984 127.791 268.356 147.372 267.579 137.317Z" fill="#899B35"/>
<path d="M259.116 140.171C259.25 140.473 259.459 142.405 259.922 143.432C260.236 144.119 260.826 144.798 261.133 145.47C263.433 150.573 268.827 160.779 269.596 165.829C269.768 166.954 270 167.762 270 167.867C271.957 168.192 270.276 157.601 273.623 156.469C273.944 154.023 274.407 152.219 274.43 151.992L273.623 150.769C272.525 158.145 272.331 154.4 270.799 149.954H270.396C272.002 155.51 271.457 158.031 270.396 163.595H269.589C268.297 155.216 259.907 144.912 261.529 140.586C260.214 140.156 259.093 138.359 259.108 140.178L259.116 140.171Z" fill="#2F3414"/>
<path d="M270 167.86C270 167.943 269.783 167.362 269.596 169.49C269.455 171.076 268.603 174.85 267.579 176.005C267.49 176.111 266.586 175.892 266.369 176.005C265.831 176.299 267.43 178.315 264.756 176.005L264.352 176.82C265.062 177.9 265.114 178.76 265.159 178.858C265.592 179.779 266.168 180.693 266.369 181.712C266.444 181.644 266.691 181.78 266.773 181.712C266.907 181.599 267.833 181.825 267.983 181.712C268.14 181.591 268.147 181.727 268.386 181.304C268.64 180.866 270.03 172.736 270.403 171.325C270.762 169.973 272.032 168.298 272.42 166.441C273.1 163.195 273.197 159.752 273.63 156.461C270.276 157.593 271.965 168.192 270.007 167.86H270Z" fill="#593B25"/>
<path d="M273.22 138.948C274.445 142.662 274.198 146.889 273.623 150.754L274.43 151.977C274.841 147.342 275.207 142.768 274.43 138.133C273.167 137.272 274.071 138.435 273.22 138.948Z" fill="#354D23"/>
<path d="M272.009 139.356C271.472 140.329 267.729 141.235 267.579 141.598C267.408 142.013 268.976 144.647 270.807 149.947C272.338 154.393 272.532 158.129 273.63 150.762C274.206 146.889 274.452 142.67 273.227 138.956C273.175 138.986 272.308 139.258 272.017 139.363L272.009 139.356Z" fill="#DEECE3"/>
<path d="M259.116 155.646C259.22 156.748 266.369 166.863 267.579 176.005C268.603 174.85 269.455 171.076 269.596 169.49C267.684 169.166 268.035 165.995 269.596 165.829C268.827 160.772 263.441 150.573 261.133 145.47C261.319 148.603 259.071 155.133 259.116 155.653V155.646Z" fill="#DEECE3"/>
<path d="M270.403 149.947C270.261 149.456 267.109 142.285 266.78 142.005C265.854 141.22 264.599 141.583 261.543 140.579C259.922 144.904 268.312 155.208 269.604 163.587H270.411C271.472 158.024 272.017 155.502 270.411 149.947H270.403Z" fill="#DEECE3"/>
<path d="M269.596 169.49C269.783 167.362 270 167.943 270 167.86C270 167.754 269.768 166.946 269.596 165.822C268.035 165.988 267.684 169.158 269.596 169.483V169.49Z" fill="#BAAA8A"/>
<path d="M249.845 163.791C257.741 167.769 261.797 173.453 264.756 176.005C267.423 178.315 265.824 176.299 266.369 176.005C265.645 168.864 261.835 163.006 258.712 156.869C254.282 160.281 256.852 162.598 256.09 162.976C254.566 158.998 252.863 163.248 249.845 163.791Z" fill="#DEECE3"/>
<path d="M258.712 156.869C261.835 163.006 265.645 168.871 266.369 176.005C266.586 175.892 267.482 176.111 267.579 176.005C266.369 166.863 259.22 156.748 259.116 155.646H258.712C258.832 155.865 258.593 156.642 258.712 156.869Z" fill="#354D23"/>
<path d="M248.239 163.791C252.639 166.554 256.591 169.037 260.326 172.751C261.252 173.672 263.941 176.194 264.352 176.82L264.756 176.005C261.797 173.446 257.741 167.762 249.845 163.791C249.621 163.829 248.919 163.738 248.231 163.791H248.239Z" fill="#354D23"/>
<path d="M242.995 142.209C243.958 144.119 244.989 145.923 245.818 147.908C246.625 149.848 248.067 153.276 248.239 155.238C249.083 165.105 243.645 157.571 243.204 157.276C238.199 153.91 232.521 150.354 228.091 145.878C227.733 146.308 226.074 147.901 225.268 148.731C228.181 151.849 234.277 155.699 236.548 158.507C236.742 158.741 237.765 158.952 237.758 159.118C231.625 162.1 228.629 159.934 223.251 158.915C229.727 161.874 241.284 164.297 248.239 163.799C248.926 163.746 249.628 163.836 249.852 163.799C252.87 163.255 254.574 159.005 256.098 162.983C256.86 162.606 254.29 160.281 258.72 156.876C258.6 156.65 258.839 155.872 258.72 155.653C257.898 154.091 257.226 152.709 256.299 151.177C253.909 147.206 250.853 143.666 247.835 140.186C247.619 140.329 243.495 142.066 243.002 142.224L242.995 142.209Z" fill="#6D882C"/>
<path d="M229.698 143.424C229.115 144.202 228.181 145.757 228.084 145.87C232.514 150.347 238.191 153.902 243.196 157.269C243.637 157.563 249.083 165.105 248.231 155.231C244.959 155.246 241.994 149.275 245.811 147.901C244.989 145.908 243.958 144.111 242.987 142.202C237.855 143.817 235.024 143.477 229.69 143.424H229.698Z" fill="#899B35"/>
<path d="M221.234 152.385C224.73 155.744 231.767 159.609 236.548 158.492C234.277 155.691 228.181 151.834 225.268 148.716C224.05 149.962 222.601 151.283 221.241 152.377L221.234 152.385Z" fill="#99AB42"/>
<path d="M217.207 155.238C219.045 156.695 221.129 157.933 223.251 158.899C228.629 159.919 231.625 162.085 237.758 159.103C237.765 158.945 236.742 158.733 236.548 158.492C231.767 159.609 224.73 155.744 221.234 152.385C219.762 153.57 218.806 154.234 217.207 155.238Z" fill="#6D882C"/>
<path d="M247.835 140.171C250.853 143.658 253.909 147.191 256.299 151.162C258.421 149.652 258.085 142.971 259.922 143.424C259.459 142.405 259.25 140.473 259.116 140.163C257.898 137.37 256.576 134.668 255.089 132.018C254.23 133.256 248.657 139.605 247.835 140.163V140.171Z" fill="#99AB42"/>
<path d="M256.292 151.162C257.218 152.694 257.883 154.076 258.712 155.638H259.116C259.063 155.125 261.319 148.588 261.133 145.455C260.826 144.783 260.236 144.111 259.922 143.417C258.085 142.964 258.421 149.645 256.299 151.154L256.292 151.162Z" fill="#6D882C"/>
<path d="M245.818 147.908C246.625 149.848 248.067 153.276 248.239 155.238C244.959 155.253 242.001 149.282 245.818 147.908Z" fill="#A8BE53"/>
<path d="M94.7015 253.78C94.2159 255.146 94.709 254.943 94.7015 255.003C96.2927 254.769 96.838 255.358 97.1219 255.411C97.219 255.426 98.7654 255.086 99.1389 255.614C99.4153 256.007 100.745 263.767 100.752 265.186H101.963C101.477 261.812 101.514 254.988 106.393 257.449C106.004 256.12 103.987 256.384 104.376 254.595C101.126 254.384 97.9436 254.12 94.7015 253.78Z" fill="#2C140F"/>
<path d="M87.4478 261.925C90.4658 279.144 82.6145 268.787 85.8342 262.944C86.4617 261.804 87.403 262.016 87.4478 261.925C86.6335 260.393 85.3113 260.914 84.2206 261.518C81.2699 265.888 79.8953 272.131 83.4139 276.585C83.6604 276.532 83.9592 276.608 84.2207 276.585C89.4648 271.965 103.434 272.765 110.008 274.547C109.784 273.913 108.014 267.987 107.991 267.625H106.781C106.183 276.389 102.501 269.014 101.948 265.179H100.738C100.767 269.814 100.334 272.305 98.3171 268.032H95.8968C96.1059 270.478 95.8743 269.489 94.6866 268.44C94.1861 273.301 90.1969 271.671 89.8533 264.779C89.5022 257.924 91.818 258.823 91.8703 258.468C91.9749 257.698 89.7038 257.517 89.4499 257.041C87.7093 258.611 88.7103 259.223 87.4329 261.925L87.4478 261.925Z" fill="#9D4C2F"/>
<path d="M101.955 265.186C102.508 269.021 106.191 276.389 106.788 267.632C106.863 266.553 106.527 257.939 106.385 257.449C101.499 254.988 101.462 261.812 101.955 265.186Z" fill="#FAC287"/>
<path d="M108.402 265.186C111.465 264.824 109.403 270.365 112.227 272.924C114.117 273.369 114.423 268.712 114.446 267.632C114.505 264.809 113.669 260.204 110.621 259.079C108.32 259.057 108.611 263.533 108.402 265.186Z" fill="#FAC287"/>
<path d="M108.402 265.186C108.305 265.949 107.939 266.334 107.999 267.632C108.014 267.994 109.792 273.92 110.016 274.554C112.645 282.096 121.027 268.032 114.446 267.632C114.423 268.712 114.117 273.369 112.227 272.924C109.403 270.365 111.457 264.824 108.402 265.186Z" fill="#B55A2B"/>
<path d="M69.7133 299.797C67.1062 303.481 64.7381 307.225 61.2494 310.185C66.9493 315.038 70.296 305.572 72.7313 301.428C73.9415 302.002 70.4977 314.812 88.6506 291.245C88.1276 290.316 87.8811 288.837 87.4404 287.984C87.3059 287.719 87.1714 287.433 87.037 287.168C84.7959 286.919 86.6859 289.305 83.4139 289.614C83.2645 294.355 72.313 302.334 79.7908 288.595C80.8814 287.334 80.6274 286.912 82.6145 287.168C81.1205 285.251 80.3361 286.315 78.9914 285.13C76.4963 290.339 73.0376 295.102 69.7208 299.79L69.7133 299.797Z" fill="#723F32"/>
<path d="M73.7473 274.147C73.695 274.381 74.9425 274.267 73.3439 274.962C73.4036 275.271 73.6053 275.498 73.7473 275.777C74.681 277.672 73.7248 277.717 73.7473 277.815C74.2926 280.178 77.1537 283.537 78.984 285.145C80.3286 286.33 81.113 285.266 82.6071 287.183C83.3765 288.165 83.4512 288.323 83.4139 289.629C86.6933 289.32 84.7959 286.942 87.037 287.183C85.5354 284.209 85.1171 281.997 82.2037 280.261L81.3969 280.669C76.7279 277.71 76.7354 273.437 74.95 268.863C74.8454 268.802 74.6437 268.923 74.5466 268.863C73.807 270.772 73.9639 273.105 73.7398 274.154L73.7473 274.147Z" fill="#723F32"/>
<path d="M83.4139 289.614C83.4512 288.308 83.3765 288.157 82.6071 287.168C80.6199 286.912 80.8739 287.334 79.7833 288.595C72.3055 302.334 83.2644 294.355 83.4064 289.614H83.4139Z" fill="#A77152"/>
<path d="M78.984 268.032C77.1313 270.116 78.491 270.931 74.9575 268.847C76.7504 273.422 76.7354 277.695 81.4044 280.654C81.2027 279.438 81.6658 279.061 81.8078 278.616C80.4033 274.954 80.0447 271.097 79.7907 267.217C79.604 267.451 79.1931 267.798 78.984 268.032Z" fill="#9D4C2F"/>
<path d="M94.7015 255.003C93.6332 262.876 95.6204 264.567 95.9117 268.032H98.3321C96.457 264.054 97.2937 259.676 97.1219 255.411C96.838 255.358 96.2927 254.769 94.7015 255.003Z" fill="#B55A2B"/>
<path d="M89.4648 257.041C89.7188 257.517 91.9898 257.698 91.8852 258.468C91.8329 258.823 89.5246 257.924 89.8682 264.779L93.8947 265.186C93.0431 257.222 93.5212 253.38 89.4648 257.041Z" fill="#F1AE72"/>
<path d="M89.8608 264.779C90.2119 271.678 94.201 273.301 94.694 268.44C94.8659 266.794 93.9096 265.352 93.8872 265.179L89.8608 264.771V264.779Z" fill="#D1793A"/>
<path d="M79.7908 267.224C80.0448 271.105 80.3959 274.962 81.8078 278.623C82.1738 277.483 81.9646 276.879 83.4213 276.585C79.9028 272.131 81.2773 265.888 84.2281 261.518C82.2336 262.635 81.1504 265.541 79.7982 267.217L79.7908 267.224Z" fill="#BC6E41"/>
<path d="M97.1144 255.411C97.2862 259.683 96.4496 264.061 98.3246 268.032C100.342 272.312 100.775 269.814 100.745 265.179C100.738 263.767 99.4153 256.007 99.1314 255.607C98.7579 255.078 97.219 255.418 97.1144 255.403V255.411Z" fill="#FAC287"/>
<path d="M87.4478 261.925C87.4105 262.008 86.4617 261.804 85.8342 262.944C82.6145 268.787 90.4658 279.144 87.4478 261.925Z" fill="#D1793A"/>
<path d="M195.043 233.013C195.013 234.093 196.432 234.818 196.656 235.459C197.784 235.437 198.688 234.84 199.884 235.052L200.287 234.236C200.033 234.138 198.696 234.44 195.05 233.013H195.043Z" fill="#2D2019"/>
<path d="M224.057 206.955C222.339 209.476 218.881 215.976 217.005 217.546C214.436 219.69 201.699 223.985 197.463 225.691C197.097 230.575 195.058 232.636 195.043 233.021C198.688 234.448 200.033 234.146 200.279 234.244C200.907 234.485 200.451 234.795 201.086 235.059C202.745 234.131 204.582 233.361 206.323 232.613C208.557 231.662 207.862 232.243 207.937 232.206C208.758 231.843 209.543 231.375 210.357 230.983C210.611 230.862 210.902 230.711 211.164 230.575C216.131 228.092 248.104 208.533 249.852 206.14C250.891 204.713 250.062 199.172 249.852 196.772C249.837 196.636 249.86 196.5 249.852 196.364C247.006 197.647 243.958 198.334 240.985 199.217C242.935 201.444 246.341 200.546 244.414 202.479L227.083 212.662C225.372 212.541 230.594 203.498 231.311 202.071C232.962 198.795 234.792 195.888 236.548 192.703L233.724 192.295C233.388 193.111 225.41 204.962 224.05 206.955H224.057Z" fill="#723F32"/>
<path d="M196.656 218.761C197.456 220.777 197.62 223.54 197.463 225.684C201.706 223.977 214.443 219.682 217.005 217.538C218.881 215.976 222.339 209.469 224.057 206.947C220.741 206.087 220.98 206.102 220.434 202.879C213.666 213.862 207.436 212.707 196.656 218.761Z" fill="#A77152"/>
<path d="M229.294 186.188C228.906 186.619 224.588 194.764 223.654 196.372C222.705 198.002 221.816 199.64 220.83 201.256C220.785 201.324 221.024 201.92 220.427 202.886C220.98 206.11 220.733 206.102 224.05 206.955C225.41 204.962 233.388 193.111 233.724 192.295C234.591 190.174 235.92 186.905 233.724 185.373C231.55 185.343 230.945 184.361 229.294 186.188Z" fill="#C08866"/>
<path d="M231.311 202.063C230.594 203.49 225.372 212.534 227.083 212.654L244.414 202.471C246.341 200.538 242.935 201.444 240.985 199.21C237.765 200.161 234.546 201.142 231.311 202.063Z" fill="#A77152"/>
<path d="M233.731 185.373C235.928 186.905 234.598 190.174 233.731 192.295L236.555 192.703C237.653 190.718 238.774 188.627 239.782 186.596C239.088 185.35 235.42 185.396 233.739 185.373H233.731Z" fill="#723F32"/>
<path d="M268.386 181.297C268.147 181.719 268.14 181.584 267.983 181.704C269.589 185.109 267.258 187.517 270 191.888C273.496 191.163 278.546 195.36 276.245 188.627C267.086 189.472 279.017 180.67 278.262 191.888C279.764 192.778 281.452 187.2 277.859 184.965C274.49 182.867 271.681 185.992 271.412 185.781C271.188 185.607 270.956 181.78 268.386 181.304L268.386 181.297Z" fill="#A77152"/>
<path d="M266.773 181.704C269.32 184.399 261.566 194.469 259.519 196.772L260.326 197.179C260.782 196.394 263.404 195.654 263.553 195.549C264.965 194.59 268.543 192.19 270 191.888C267.258 187.517 269.589 185.116 267.983 181.704C267.841 181.818 266.915 181.591 266.773 181.704Z" fill="#6F2E1C"/>
<path d="M255.493 197.587H254.686C255.761 206.547 251.937 205.619 249.852 196.772C250.062 199.172 250.891 204.713 249.852 206.14C259.945 212.292 259.87 197.979 260.333 197.179L259.526 196.772C257.233 199.353 256.852 200.04 255.5 197.587H255.493Z" fill="#B55A2B"/>
<path d="M255.493 196.772C255.567 196.953 255.41 197.443 255.493 197.587C256.852 200.04 257.226 199.353 259.519 196.772C261.566 194.469 269.32 184.399 266.773 181.704C266.691 181.772 266.451 181.636 266.369 181.704C261.402 185.954 259.534 191.918 255.493 196.772Z" fill="#D1793A"/>
<path d="M254.686 178.043C254.91 182.572 254.454 185.124 259.519 186.392C258.122 189.102 257.95 187.992 256.695 187.411L254.275 191.48C254.484 192.039 254.491 194.416 255.485 196.772C259.526 191.918 261.394 185.954 266.362 181.704C266.16 180.685 265.585 179.779 265.152 178.851C264.016 181.131 262.612 182.187 260.722 183.327C260.655 183.365 260.938 184.475 259.713 184.55C255.261 181.304 257.106 178.413 257.091 178.036C257.069 177.477 256.023 177.537 256.688 175.997C256.113 176.473 254.798 177.968 254.671 178.036L254.686 178.043Z" fill="#F1AE72"/>
<path d="M256.695 176.005C256.03 177.545 257.076 177.485 257.099 178.043C259.131 176.337 260.871 181.644 260.722 183.335C262.612 182.187 264.024 181.138 265.152 178.858C265.107 178.76 265.055 177.9 264.345 176.82C263.926 176.186 261.237 173.665 260.318 172.751C258.936 173.589 257.898 175.016 256.695 176.013V176.005Z" fill="#FAC287"/>
<path d="M252.265 178.858C246.072 184.799 239.409 188.589 249.442 193.926V192.703C249.023 192.356 247.066 190.627 247.021 190.461C247.365 186.218 248.538 187.97 248.635 187.811C249.27 186.8 249.793 186.656 249.845 186.588C250.017 186.347 249.673 184.543 252.87 181.704C253.378 181.848 252.997 185.69 256.695 187.404C257.95 187.985 258.122 189.102 259.519 186.385C254.447 185.124 254.91 182.565 254.686 178.036C254.103 178.353 252.945 178.624 252.265 178.851V178.858Z" fill="#BC6E41"/>
<path d="M249.442 192.703V193.926C249.203 195.549 249.83 196.16 249.845 196.372C249.852 196.507 249.83 196.643 249.845 196.779C251.929 205.626 255.754 206.555 254.678 197.594C254.596 196.9 254.454 195.783 254.275 195.149C253.461 194.952 249.651 192.876 249.442 192.703Z" fill="#F1AE72"/>
<path d="M249.845 186.596C249.793 186.664 249.27 186.807 248.635 187.819C251.914 189.955 253.214 191.397 254.275 195.149C254.454 195.783 254.596 196.892 254.678 197.594H255.485C255.403 197.451 255.56 196.96 255.485 196.779C254.491 194.424 254.491 192.046 254.275 191.488C253.535 189.54 251.981 187.064 249.845 186.603V186.596Z" fill="#6F2E1C"/>
<path d="M249.845 186.596C251.989 187.056 253.543 189.54 254.275 191.48L256.695 187.411C252.99 185.698 253.371 181.855 252.87 181.712C249.673 184.55 250.017 186.354 249.845 186.596Z" fill="#FAC287"/>
<path d="M257.099 178.043C257.114 178.421 255.261 181.312 259.721 184.558C260.946 184.482 260.662 183.38 260.729 183.335C260.879 181.644 259.138 176.337 257.106 178.043H257.099Z" fill="#BC6E41"/>
<path d="M249.442 192.703C249.651 192.876 253.468 194.952 254.275 195.149C253.214 191.397 251.914 189.955 248.635 187.819C248.538 187.977 247.365 186.218 247.021 190.468C247.066 190.635 249.023 192.356 249.442 192.71L249.442 192.703Z" fill="#FAC287"/>
<path d="M180.535 230.983C181.462 234.1 180.61 248.171 176.509 246.662C176.524 242.012 176.643 236.139 174.895 232.206C173.566 236.418 173.065 247.975 171.87 247.681C170.406 243.748 170.861 239.347 168.441 235.874C168.351 242.963 169.225 249.749 167.634 244.631C166.028 239.475 167.32 233.61 167.231 232.213C165.687 231.941 164.143 231.67 162.599 231.398C161.927 231.911 163.145 234.568 161.591 234.251C161.591 238.879 160.821 243.046 160.784 246.873C160.724 252.746 161.695 248.851 164.213 248.911C164.392 248.911 165.864 250.142 167.642 250.134C170.234 250.126 173.693 249.696 176.307 249.319C178.862 248.949 178.339 246.48 182.956 248.503C184.48 241.981 184.069 235.082 182.552 228.552C181.761 229.292 181.678 230.462 180.535 230.998V230.983Z" fill="#9D4C2F"/>
<path d="M157.161 223.245C159.469 224.015 161.03 226.219 161.591 228.537C162.308 231.504 161.591 231.934 161.591 234.236C163.137 234.553 161.919 231.896 162.599 231.383C164.143 231.655 165.687 231.926 167.231 232.198C166.91 227.246 165.826 225.668 164.407 221.207C161.919 220.596 157.983 219.448 157.153 223.245H157.161Z" fill="#9D4C2F"/>
<path d="M182.552 228.537C184.069 235.067 184.48 241.966 182.956 248.488C183.023 248.519 182.844 248.654 184.166 249.304C186.452 245.242 190.688 237.512 184.166 246.246C185.279 243.884 184.995 239.483 186.586 239.12C186.721 237.528 186.945 237.316 186.99 237.082C187.005 236.984 186.571 237.512 186.99 235.044C185.675 231.511 184.771 227.842 181.753 225.268C181.813 225.427 182.418 227.903 182.56 228.529L182.552 228.537Z" fill="#D1793A"/>
<path d="M189.806 233.829C188.745 234.84 187.841 235.905 186.982 237.09C186.937 237.324 186.713 237.535 186.579 239.128C186.534 239.686 185.174 242.268 186.377 242.389C191.009 236.448 190.105 244.254 186.982 250.942C187.236 251.085 187.535 251.213 187.789 251.349C189.447 250.912 191.173 247.235 191.412 245.65C191.644 244.163 192.077 233.262 189.799 233.844L189.806 233.829Z" fill="#E29150"/>
<path d="M191.412 245.635C191.166 247.22 189.447 250.896 187.789 251.334C188.282 251.598 188.94 252.738 189.403 252.965C190.112 253.312 190.732 253.795 190.815 253.78C192.032 253.554 195.685 247.145 196.253 245.635H191.42H191.412Z" fill="#883D25"/>
<path d="M184.159 249.304C184.308 249.372 186.116 250.451 186.982 250.934C190.105 244.246 191.009 236.441 186.377 242.381C185.174 242.261 186.534 239.679 186.579 239.12C184.995 239.483 185.272 243.884 184.159 246.246C190.68 237.512 186.444 245.242 184.159 249.304Z" fill="#9D4C2F"/>
<path d="M189.806 233.829C192.084 233.255 191.644 244.155 191.42 245.635H196.253C197.022 243.604 197.934 241.294 197.867 239.12C197.867 238.917 197.867 238.343 197.867 238.305C197.844 238.154 197.56 238.094 196.656 235.452C196.44 234.81 195.013 234.093 195.043 233.006C194.886 232.945 194.191 234.221 193.026 231.375C191.562 233.98 190.927 232.07 190.807 232.191C190.59 232.409 190.239 233.398 189.799 233.821L189.806 233.829Z" fill="#DA9D76"/>
<path d="M165.625 210.616C165.789 211.197 171.541 217.312 173.282 219.984C174.268 221.494 176.337 223.857 175.702 225.684C177.189 226.665 177.824 230.809 180.132 227.925C180.154 224.4 179.251 218.58 181.746 225.276C184.771 227.85 185.667 231.511 186.982 235.052C187.124 234.214 187.946 233.089 188.192 231.39C186.467 223.177 179.661 220.528 179.124 219.992C174.925 215.764 171.317 210.941 166.028 207.778C165.445 207.853 165.505 210.208 165.625 210.631V210.616Z" fill="#DA9D76"/>
<path d="M159.985 202.879C159.529 203.581 156.929 205.475 156.361 207.763C156.332 207.883 156.369 208.042 156.361 208.17C157.452 210.148 158.378 209.688 158.782 209.801C161.882 205.702 164.205 205.196 168.456 206.54C175.493 208.774 180.565 213.711 184.577 219.569C184.741 219.803 186.766 220.943 187.804 224.045C188.835 223.109 190.12 222.528 190.224 222.415C187.617 217.591 173.558 203.596 169.27 202.463C166.163 201.641 163.047 202.131 159.999 202.871L159.985 202.879Z" fill="#BC6E41"/>
<path d="M157.161 223.245C157.99 219.456 161.927 220.596 164.414 221.207C166.304 221.675 167.253 222.188 168.844 223.245C168.941 223.306 169.375 222.392 170.458 224.061C170.66 223.487 175.471 225.54 175.695 225.691C176.33 223.864 174.26 221.501 173.274 219.992C163.712 214.942 160.179 215.734 151.513 221.826C151.282 223.479 155.077 222.558 157.153 223.253L157.161 223.245Z" fill="#9D4C2F"/>
<path d="M158.774 209.801C160.627 210.299 163.712 210.782 165.625 210.616C165.505 210.201 165.445 207.838 166.028 207.763C166.088 206.147 166.969 206.63 168.045 206.947L168.448 206.54C164.198 205.189 161.875 205.694 158.774 209.801Z" fill="#9D4C2F"/>
<path d="M168.852 223.245C168.598 227.457 168.501 231.647 168.448 235.867C170.869 239.339 170.406 243.748 171.877 247.673C173.065 247.968 173.573 236.41 174.903 232.198C175.022 231.828 174.948 231.428 175.306 230.975C171.504 229.571 171.788 226.076 170.473 224.053C169.39 222.385 168.956 223.306 168.859 223.238L168.852 223.245Z" fill="#E29150"/>
<path d="M175.299 230.983C174.94 231.436 175.015 231.828 174.895 232.206C176.636 236.139 176.524 242.012 176.509 246.662C180.618 248.171 181.469 234.1 180.535 230.983C179.079 231.662 176.815 231.541 175.299 230.983Z" fill="#DA9D76"/>
<path d="M175.702 225.684C175.471 225.533 170.667 223.479 170.465 224.053C171.78 226.084 171.504 229.571 175.299 230.975C176.815 231.534 179.086 231.655 180.535 230.975C181.678 230.439 181.761 229.277 182.552 228.529C182.41 227.91 181.805 225.427 181.746 225.268C179.258 218.565 180.154 224.385 180.132 227.918C177.824 230.802 177.189 226.657 175.702 225.676V225.684Z" fill="#3F1710"/>
<path d="M164.414 221.207C165.834 225.668 166.91 227.246 167.238 232.198C167.328 233.602 166.036 239.46 167.642 244.616C169.233 249.734 168.359 242.948 168.448 235.859C168.501 231.639 168.598 227.45 168.852 223.238C167.253 222.181 166.304 221.668 164.422 221.2L164.414 221.207Z" fill="#DA9D76"/>
<path d="M165.625 199.625C167.343 199.897 168.59 200.818 169.651 201.256C178.287 204.781 188.14 213.017 191.009 222.226C190.859 222.604 190.269 222.362 190.202 222.43C190.105 222.536 188.812 223.124 187.782 224.061C188.798 227.11 188.626 228.318 188.185 231.39C187.938 233.096 187.117 234.214 186.975 235.052C186.556 237.52 186.99 236.984 186.975 237.09C187.826 235.905 188.738 234.848 189.799 233.829C190.239 233.406 190.59 232.417 190.807 232.198C190.927 232.085 191.562 233.995 193.026 231.383C194.669 228.454 194.176 225.85 193.429 222.83C191.121 213.462 178.81 202.32 169.651 200.025C167.649 199.527 167.686 199.565 165.625 199.618V199.625Z" fill="#6F2E1C"/>
<path d="M194.639 216.723C195.117 218.188 196.201 223.351 193.429 222.83C194.176 225.85 194.669 228.454 193.026 231.383C194.191 234.221 194.878 232.945 195.043 233.013C195.058 232.628 197.097 230.568 197.463 225.684C197.62 223.54 197.463 220.777 196.656 218.761C196.626 218.693 195.969 217.712 195.85 217.538C195.551 217.108 195.267 216.572 194.639 216.723Z" fill="#FAC287"/>
<path d="M166.028 207.77C171.325 210.933 174.925 215.764 179.124 219.984C179.654 220.52 186.467 223.17 188.192 231.383C188.633 228.31 188.805 227.103 187.789 224.053C186.758 220.95 184.726 219.811 184.562 219.577C178.459 221.335 175.56 209.159 168.038 206.955C166.962 206.638 166.08 206.155 166.021 207.77H166.028Z" fill="#F8E8C3"/>
<path d="M169.651 201.256L169.248 202.479C173.536 203.618 187.595 217.606 190.202 222.43C190.262 222.362 190.859 222.604 191.009 222.226C188.14 213.017 178.287 204.781 169.651 201.256Z" fill="#FAC287"/>
<path d="M168.448 206.547L168.045 206.955C175.568 209.159 178.466 221.335 184.569 219.577C180.558 213.719 175.493 208.782 168.448 206.547Z" fill="#3F1710"/>
<path d="M162.002 199.625C161.277 200.705 160.679 201.822 159.985 202.886C163.032 202.154 166.148 201.656 169.255 202.479L169.659 201.256C168.598 200.825 167.35 199.904 165.632 199.625C164.422 199.655 163.212 199.602 162.009 199.625H162.002Z" fill="#DA9D76"/>
<path d="M168.852 191.072C167.567 192.492 166.409 194.039 164.825 195.141C163.877 196.606 162.973 198.176 162.002 199.618C163.212 199.595 164.422 199.648 165.625 199.618C167.686 199.565 167.657 199.527 169.651 200.025C170.316 196.56 172.901 199.889 173.678 197.987C172.475 197.028 171.085 196.296 170.055 195.134C167.156 193.397 176.315 195.851 179.325 197.172L180.132 194.726C177.988 193.412 174.746 191.737 174.089 190.657C172.355 190.416 170.555 190.77 168.852 191.065V191.072Z" fill="#B55A2B"/>
<path d="M168.852 191.072C170.555 190.778 172.355 190.423 174.089 190.665C179.915 191.472 190.471 197.428 194.639 203.286C194.692 203.354 195.274 203.483 195.85 204.509C203.79 205.219 212.374 206.193 219.628 202.063C218.918 200.75 216.632 203.128 216.199 203.286C211.231 205.113 206.353 203.596 201.288 203.286C200.287 202.614 200.593 197.572 198.262 197.587C198.404 197.851 198.546 198.123 198.666 198.402C199.219 199.693 199.898 200.893 200.279 202.267C195.11 205.86 191.472 195.353 184.158 192.288C181.783 191.291 174.604 190.129 171.466 189.434L173.282 186.581C171.952 187.29 170.092 189.683 168.852 191.057V191.072Z" fill="#2C140F"/>
<path d="M174.089 185.781C177.517 187.268 180.812 189.019 184.166 190.665C189.149 193.118 193.818 195.738 198.673 198.402C198.554 198.123 198.412 197.851 198.27 197.587C197.859 196.825 197.052 195.217 196.656 194.733C192.144 189.185 179.684 184.588 174.089 185.773V185.781Z" fill="#F8E8C3"/>
<path d="M173.282 186.596L171.466 189.449C174.604 190.144 181.783 191.306 184.158 192.303V190.672C180.804 189.019 177.517 187.268 174.081 185.788C173.364 185.939 173.327 186.573 173.274 186.603L173.282 186.596Z" fill="#D1793A"/>
<path d="M169.651 200.033C178.81 202.328 191.113 213.47 193.429 222.838C196.193 223.358 195.117 218.195 194.639 216.731C192.563 210.382 179.138 202.328 173.685 198.002C172.901 199.904 170.316 196.575 169.659 200.04L169.651 200.033Z" fill="#DA9D76"/>
<path d="M170.055 195.141C171.085 196.304 172.475 197.036 173.678 197.995C179.131 202.32 192.555 210.375 194.632 216.723C195.259 216.572 195.543 217.108 195.842 217.538C195.902 217.327 196.216 216.753 196.245 216.723C196.559 213.326 190.912 206.902 187.983 204.509C183.875 201.142 175.231 196.983 170.047 195.141H170.055Z" fill="#FAD7AA"/>
<path d="M180.132 194.734L179.325 197.179C186.997 200.554 192.6 207.966 197.859 214.285C198.785 210.699 197.605 207.634 195.842 204.509C195.267 203.49 194.684 203.354 194.632 203.286C190.478 202.177 185.018 197.73 180.125 194.734H180.132Z" fill="#DA9D76"/>
<path d="M170.055 195.141C175.239 196.983 183.882 201.142 187.991 204.509C190.912 206.91 196.567 213.326 196.253 216.723C196.963 215.991 197.605 215.289 197.867 214.277C192.6 207.967 186.997 200.546 179.333 197.172C176.322 195.851 167.164 193.405 170.062 195.134L170.055 195.141Z" fill="#6F2E1C"/>
<path d="M180.132 194.734C185.025 197.73 190.486 202.177 194.639 203.286C190.471 197.421 179.915 191.472 174.089 190.665C174.746 191.752 177.988 193.428 180.132 194.734Z" fill="#E8E2D7"/>
<path d="M184.158 192.295C191.464 195.36 195.11 205.868 200.279 202.275C199.898 200.893 199.219 199.701 198.666 198.41C193.81 195.745 189.141 193.126 184.158 190.672V192.303V192.295Z" fill="#DA9D76"/>
<path d="M151.117 25.7465C147.068 26.4485 143.684 27.679 139.837 29.0075C135.405 33.5569 130.972 38.1038 126.54 42.6482C134.981 40.912 140.368 35.1522 130.566 44.0749C133.271 47.5398 141.496 42.4066 148.099 42.0367C147.599 44.6184 149.212 48.9363 147.494 48.959C147.599 52.4918 147.442 56.0171 147.293 59.5499C148.567 55.4081 149.842 51.2689 151.117 47.1322C151.451 51.9533 151.787 56.772 152.126 61.5881C153.799 58.3874 154.046 54.8621 154.748 51.4048C155.032 50.0083 154.875 47.9927 155.958 47.1322C157.841 51.2739 159.721 55.4132 161.598 59.5499C162.995 56.3266 162.674 53.609 162.808 53.2391C162.98 52.7711 163.652 53.8128 163.817 53.4429C164.624 51.5935 161.852 48.0833 162.203 45.2978C172.669 57.5344 177.361 65.3776 168.448 47.5398C170.548 46.9133 177.129 55.5491 176.912 51.6086C171.392 44.7166 155.734 31.8836 174.694 44.4825C176.315 45.2752 176.038 44.4976 176.105 44.4825C174.024 41.77 171.942 39.055 169.86 36.3374C175.299 39.7293 180.74 43.1238 186.183 46.5207C178.01 35.4316 167.485 28.7358 168.65 28.1998C173.421 30.238 178.19 32.2736 182.956 34.3068C180.379 31.6421 175.986 28.3885 172.878 26.1617C171.302 26.5995 167.597 24.7576 164.616 24.5311C160.784 24.2443 155.032 25.0746 151.117 25.754V25.7465Z" fill="#7B645F"/>
<path d="M116.463 228.537C118.203 228.605 119.959 228.529 121.699 228.537C135.041 228.62 148.488 225.714 161.591 228.537C161.03 226.219 159.469 224.008 157.161 223.245C155.084 222.558 151.289 223.472 151.521 221.819C160.186 215.727 163.72 214.934 173.282 219.984C171.541 217.312 165.789 211.205 165.625 210.616C163.712 210.782 160.627 210.299 158.774 209.801C158.371 209.695 157.452 210.148 156.354 208.17C156.197 210.526 158.289 209.718 157.766 211.024C156.309 214.647 125.457 229.933 113.034 226.906C112.287 228.748 116.649 226.68 116.463 228.537Z" fill="#1B161E"/>
<path d="M64.4766 157.684C66.4338 171.34 67.7411 200.055 73.7473 210.42C80.5154 222.098 98.4217 226.937 110.822 228.137C112.727 228.318 114.55 228.469 116.463 228.544C116.657 226.688 112.294 228.763 113.034 226.914C125.457 229.941 156.309 214.655 157.766 211.031C158.289 209.733 156.197 210.533 156.354 208.178C156.361 208.05 156.324 207.891 156.354 207.77C130.432 223.026 77.4003 233.881 74.1432 190.053C73.3439 179.274 76.5561 156.74 84.4224 148.724C81.4193 156.204 80.5751 163.972 79.7908 171.936C81.0906 172.208 80.5154 175.303 81.0009 176.209C81.3894 176.926 82.8162 177.017 83.4213 177.839C84.0264 178.662 83.8172 181.085 85.0349 180.897C84.8855 176.292 85.8342 170.298 87.0519 165.829C87.9334 162.576 89.278 159.518 90.675 156.461C92.5127 152.468 96.9277 147.916 89.2631 152.8L88.2546 151.781C92.7069 149.818 95.1497 145.123 99.1314 142.413L91.2726 142.209C94.1636 139.786 87.5076 141.416 84.8257 141.801C86.3646 138.427 91.8777 137.363 95.5083 136.714C90.6974 134.328 79.0437 134.766 81.4044 131.218C73.9116 138.759 68.1744 147.637 64.4766 157.684Z" fill="#392127"/>
<path d="M136.61 147.908C136.61 147.644 136.177 147.546 136.207 146.278C136.229 145.206 136.468 138.133 136.61 137.725C108.566 118.31 125.255 78.1954 158.976 81.9396C174.529 83.6607 184.061 96.6597 185.57 97.007C187.072 97.3542 202.005 89.6696 215.392 98.2299C232.32 109.047 224.76 134.305 211.365 144.655C208.855 146.595 203.036 149.735 199.884 149.947C200.548 180.036 142.175 176.133 136.617 148.316C136.655 149.69 136.349 150.792 137.021 152.181C132.651 153.864 121.445 143.19 118.487 139.559C111.749 131.286 110.867 126.243 108.006 116.755C107.61 115.441 106.818 115.811 106.796 115.735C104.6 115.751 102.403 116.181 100.349 116.958C96.9426 118.249 93.9918 120.967 91.0784 123.065C94.1413 122.031 97.981 119.087 102.157 118.997C109.694 148.837 139.65 169.77 167.238 178.858C174.036 177.802 181.559 177.922 187.789 174.382C189.716 173.287 194.034 168.758 195.85 166.848C197.471 165.15 197.613 162.357 200.279 163.383C196.238 159.677 199.181 161.949 206.323 160.122C203.569 160.258 200.815 160.394 198.061 160.53C199.174 153.479 202.931 155.525 207.331 153.2C235.106 138.533 235.143 99.883 218.612 90.9C216.662 89.8432 208.347 87.5333 205.92 87.2389C198.524 86.3179 187.684 88.7863 186.781 88.4617C185.563 88.0164 181.648 79.0937 164.818 75.8402C155.682 74.0738 150.086 73.7265 141.242 77.4707C117.075 87.7069 108.873 115.086 125.322 136.313C128.774 140.76 134.175 143.923 136.602 147.916L136.61 147.908Z" fill="#1B161E"/>
<path d="M130.566 44.0674C127.227 47.1095 123.94 49.1854 122.506 53.843C123.066 54.6206 128.437 47.6379 128.146 49.9781C125.382 53.4656 123.589 58.8554 122.506 63.2111C122.14 64.668 119.862 75.8402 120.691 76.2403C122.401 72.6546 129.162 66.2834 129.76 65.0454C129.864 64.8265 128.826 65.0605 128.953 64.2302C129.155 62.9242 130.275 64.4793 130.365 64.434C130.753 64.2302 135.482 58.795 136.207 57.9194C137.633 56.1907 139.172 53.7147 140.435 51.8124C141.197 51.9785 140.039 56.9607 139.83 58.327C139.075 63.2262 137.701 66.1928 140.233 63.0073C141.025 62.0184 145.455 54.0091 145.873 52.824C147.083 49.3817 147.278 41.6593 147.487 48.959C149.205 48.9363 147.591 44.6184 148.092 42.0367C141.488 42.4066 133.263 47.5398 130.559 44.0749L130.566 44.0674Z" fill="#7B645F"/>
<path d="M164.818 75.8326C181.648 79.0937 185.563 88.0164 186.781 88.4542C187.684 88.7863 198.524 86.3103 205.92 87.2313C194.55 79.7203 191.083 75.191 176.703 74.6097C173.297 74.4738 165.184 74.6928 164.818 75.8326Z" fill="#392127"/>
<path d="M186.175 46.5132C186.698 47.2228 187.804 47.8946 187.789 48.959C189.403 49.7214 191.793 52.1898 192.219 49.5704C189.276 43.2672 187.886 39.4022 182.948 34.2992C178.177 32.2611 173.409 30.2254 168.643 28.1923C167.477 28.7282 177.995 35.4316 186.175 46.5132Z" fill="#392127"/>
<path d="M176.105 44.475C178.391 43.9843 177.846 42.8596 178.324 42.8445C178.892 42.8294 178.675 44.6184 187.797 48.9514C187.819 47.887 186.706 47.2152 186.183 46.5056C180.745 43.1137 175.304 39.7193 169.86 36.3223C171.942 39.0348 174.024 41.7499 176.105 44.4674V44.475Z" fill="#392127"/>
<path d="M154.748 51.3972C158.61 49.9328 157.258 58.9385 157.572 65.0379C158.752 63.9961 161.03 60.8483 161.598 59.5424C159.716 55.4006 157.836 51.2614 155.958 47.1246C154.875 47.9927 155.032 50.0007 154.748 51.3972Z" fill="#553E40"/>
<path d="M122.506 53.843C121.893 55.8359 120.691 62.6827 122.506 63.2111C123.597 58.8554 125.382 53.4656 128.146 49.9781C128.437 47.6455 123.066 54.6206 122.506 53.843Z" fill="#392127"/>
<path d="M172.878 26.1466C175.979 28.3734 180.371 31.627 182.956 34.2917C187.894 39.3947 189.276 43.2596 192.226 49.5629C191.801 52.1823 189.403 49.7139 187.797 48.9514C178.675 44.6184 178.892 42.8294 178.324 42.8445C177.846 42.852 178.391 43.9768 176.105 44.475C176.038 44.4901 176.322 45.2676 174.694 44.475C155.734 31.8761 171.392 44.709 176.912 51.601C177.129 55.534 170.548 46.8982 168.448 47.5322C177.361 65.37 172.669 57.5268 162.203 45.2903C161.852 48.0758 164.624 51.5859 163.817 53.4354C163.652 53.8053 162.98 52.7636 162.808 53.2316C162.674 53.6015 162.995 56.319 161.598 59.5424C161.03 60.8559 158.752 64.0037 157.572 65.0379C157.265 58.9385 158.61 49.9328 154.748 51.3972C154.053 54.8546 153.807 58.3723 152.126 61.5805C151.792 56.7594 151.456 51.9407 151.117 47.1246C149.842 51.2664 148.567 55.4056 147.292 59.5424C147.442 56.0171 147.599 52.4843 147.494 48.9514C147.285 41.6593 147.091 49.3817 145.881 52.8164C145.462 54.0016 141.025 62.0033 140.241 62.9997C137.708 66.1853 139.083 63.2111 139.837 58.3195C137.835 57.625 138.119 66.6684 133.189 70.5334C132.143 70.1484 136.744 58.9536 136.214 57.9118C135.489 58.7875 130.761 64.2302 130.372 64.4264C130.283 64.4717 129.162 62.9167 128.96 64.2226C128.833 65.053 129.872 64.8114 129.767 65.0379C129.169 66.2834 122.409 72.6546 120.698 76.2327C119.869 75.8326 122.147 64.6604 122.513 63.2035C120.698 62.6751 121.901 55.8284 122.513 53.8355C123.94 49.1854 127.235 47.102 130.574 44.0598C140.368 35.1372 134.981 40.8969 126.547 42.6331C130.98 38.0837 135.412 33.5368 139.845 28.9924C126.51 33.5746 114.535 41.078 104.383 50.982C105.474 51.6539 110.979 57.625 111.637 58.9234C111.921 59.482 111.218 59.5046 111.233 59.5348C112.033 61.2786 114.057 65.5135 113.654 67.2723C113.519 67.8385 113.258 67.6497 113.25 67.6799C114.192 72.2998 113.736 77.1461 112.242 81.5244C111.226 80.5129 110.785 79.5844 109.216 79.8939C109.523 81.2074 110.075 83.9929 110.023 85.1856C109.963 86.5821 108.843 89.7375 108.41 91.7002C108.208 92.6287 107.065 95.2557 106.796 96.3804C105.817 100.532 107.528 103.876 104.376 98.6224C104.323 99.717 103.972 99.3924 103.972 99.4377C104.749 101.536 106.019 101.944 106.393 104.322C106.467 104.812 106.46 105.847 106.393 106.36C106.318 106.949 106.617 108.496 106.191 108.806C98.2499 108.073 101.365 108.904 106.594 110.844C107.042 111.38 106.654 112.293 106.796 112.882C107.162 114.422 106.759 115.6 106.796 115.735C106.818 115.811 107.61 115.441 108.006 116.755C110.867 126.243 111.741 131.286 118.487 139.559C121.453 143.198 132.658 153.872 137.021 152.181C136.349 150.792 136.655 149.69 136.617 148.316C136.617 148.18 136.617 148.044 136.617 147.908C134.182 143.908 128.781 140.752 125.337 136.306C108.88 115.079 117.09 87.6993 141.256 77.4632C150.101 73.719 155.697 74.0662 164.833 75.8326C165.199 74.6928 173.319 74.4738 176.718 74.6097C191.098 75.191 194.565 79.7278 205.934 87.2313C208.362 87.5332 216.684 89.8356 218.627 90.8925C235.151 99.8831 235.113 138.533 207.346 153.193C202.946 155.518 199.189 153.472 198.076 160.522C200.83 160.387 203.584 160.251 206.338 160.115C210.544 159.043 213.599 157.488 217.215 155.231C218.813 154.234 219.769 153.562 221.241 152.377C222.601 151.283 224.05 149.962 225.268 148.716C226.074 147.886 227.733 146.293 228.091 145.863C228.189 145.749 229.122 144.202 229.705 143.417C230.355 142.549 231.139 141.469 231.722 140.563C232.245 139.748 232.865 138.963 233.336 138.118C237.355 130.946 239.88 122.16 241.396 114.09C241.501 113.524 242.18 111.772 242.203 111.644C242.248 111.387 242.165 111.093 242.203 110.829C242.405 109.485 242.935 106.005 243.01 105.129C243.226 102.706 243.428 97.4448 243.413 94.9462C243.391 91.3454 242.793 87.5106 242.203 83.9551C241.844 81.766 241.553 79.5844 240.993 77.4405C240.388 79.9694 235.158 72.2847 233.336 69.2954C235.711 77.2669 235.905 86.0914 236.159 94.3423L235.151 94.5461C232.935 86.333 230.718 78.1199 228.502 69.9068C228.779 81.7886 237.347 102.223 225.073 77.0329C224.468 79.7505 223.99 83.4116 223.258 82.1208C219.964 64.2377 216.961 58.7799 222.048 80.8979L220.434 80.4902C216.699 71.8167 216.856 59.0592 215.601 66.0343L217.013 81.5093C215.803 77.438 214.595 73.3667 213.39 69.2954C207.832 83.6909 208.9 77.4028 211.575 64.0037C213.278 55.4585 214.525 53.2089 208.347 62.1693H207.137C212.568 50.9896 215.34 44.7694 205.927 58.7044C205.89 58.9158 206.465 59.1649 206.33 60.5388C205.718 66.7816 204.515 61.8674 204.717 54.4318C204.717 54.2431 205.964 51.5482 205.524 50.7707C205.262 50.3027 200.145 51.1708 206.33 42.6255C209.558 38.1642 211.619 38.436 213.181 37.9453C214.839 37.4169 216.946 36.2393 218.619 37.13C214.144 32.2837 199.48 40.5949 215.795 32.6536C223.833 33.3254 219.74 31.2344 211.769 28.5848C204.179 29.4303 197.814 35.5674 206.734 23.4969C209.558 19.6772 217.23 13.6005 206.33 20.8473C205.942 21.104 205.486 21.3908 205.12 21.6626C197.642 27.1883 193.87 36.4129 198.27 23.0893C198.404 17.6315 198.561 12.6871 195.648 7.81811C194.662 8.02192 200.205 17.0503 192.025 26.9543C192.764 21.4965 192.025 15.8878 187.797 12.0907L187.595 19.2168C179.968 0.495795 186.781 18.8167 182.358 26.139C177.136 23.6026 171.511 21.4361 165.632 21.4588C168.075 22.9761 170.54 24.4632 172.886 26.139L172.878 26.1466Z" fill="#392127"/>
<path d="M211.567 64.0188C208.893 77.4254 207.824 83.706 213.382 69.3105C214.593 73.3818 215.8 77.4531 217.005 81.5244L215.594 66.0494C210.095 71.9073 217.14 60.2369 211.567 64.0112V64.0188Z" fill="#553E40"/>
<path d="M136.207 57.9118C136.744 58.9536 132.135 70.156 133.181 70.5334C138.111 66.6609 137.828 57.625 139.83 58.3195C140.039 56.9531 141.197 51.9709 140.435 51.8049C139.172 53.7072 137.633 56.1907 136.207 57.9118Z" fill="#553E40"/>
<path d="M210.962 60.7653C209.886 61.6183 206.614 70.6089 207.339 70.9486C207.832 71.175 211.843 61.89 210.962 60.7653Z" fill="#553E40"/>
<path d="M106.385 104.337C106.012 101.951 104.749 101.544 103.965 99.4528C104.002 101.717 103.643 103.288 106.385 104.337Z" fill="#D1793A"/>
<path d="M91.0709 123.065C87.9633 125.307 84.9602 127.723 82.2037 130.395C97.0024 131.052 116.612 144.33 116.455 160.53C118.689 161.036 116.328 170.298 116.858 175.394C116.358 176.813 113.975 174.027 113.235 173.559C112.384 173.023 110.539 171.453 110.21 171.521C109.56 171.664 103.113 180.889 101.948 182.112C101.268 186.234 101.216 182.942 109 176.005C109.978 175.854 116.007 180.965 117.262 181.908C105.556 183.259 111.256 192.801 118.069 196.772L118.472 196.364C116.022 195.156 111.301 189.744 113.84 187.404C123.089 187.781 132.225 187.185 141.443 186.996C132.755 185.66 120.892 175.416 121.498 165.822C141.032 183.478 145.754 182.187 167.238 178.851C139.65 169.762 109.694 148.829 102.157 118.989C97.981 119.08 94.1413 122.031 91.0784 123.058L91.0709 123.065Z" fill="#1B161E"/>
<path d="M81.4044 131.21C79.0437 134.758 90.6974 134.321 95.5083 136.706C91.8852 137.355 86.3721 138.427 84.8257 141.794C87.5076 141.409 94.1637 139.778 91.2726 142.202L99.1314 142.405C95.1497 145.115 92.6995 149.811 88.2546 151.773L89.2631 152.792C96.9277 147.908 92.5052 152.468 90.675 156.454C92.7891 157.578 93.0655 153.487 97.3236 151.57C98.0557 151.909 91.6088 158.167 90.2716 165.822C89.6591 169.317 89.8309 172.321 90.2716 175.801C93.0655 176.986 89.5918 169.807 93.4988 162.772C99.1464 152.611 93.073 168.215 92.692 172.548C92.3633 176.314 92.5276 185.811 95.5158 187.615C99.2584 174.186 96.3375 180.142 98.3396 186.8C100.147 192.816 106.983 196.107 112.645 197.187C114.423 197.527 120.452 198.161 118.084 196.779C111.271 192.809 105.571 183.267 117.277 181.916C116.022 180.972 109.993 175.862 109.015 176.013C101.231 182.95 101.283 186.241 101.963 182.119L101.358 182.527C102.784 169.815 104.293 167.928 101.963 182.119C103.128 180.904 109.575 171.672 110.225 171.529C110.554 171.453 112.391 173.031 113.25 173.567C114.236 170.472 116.448 163.134 116.477 160.538C116.634 144.338 97.0248 131.06 82.2261 130.403C81.9348 130.682 81.6957 130.939 81.4193 131.218L81.4044 131.21Z" fill="#6B524E"/>
<path d="M216.4 40.8063C214.48 40.7685 213.651 41.5687 212.374 42.8445C215.698 43.1842 210.984 50.5669 208.751 49.7667C207.309 53.224 206.547 54.9074 205.927 58.7271C215.34 44.7845 212.568 51.0122 207.137 62.192H208.347C214.518 53.2316 213.278 55.4736 211.575 64.0263C217.155 60.252 210.11 71.9224 215.601 66.0645C216.856 59.0894 216.699 71.8469 220.434 80.5204L222.048 80.9281C216.961 58.8101 219.956 64.2679 223.258 82.151C223.99 83.4343 224.468 79.7806 225.073 77.0631C237.34 102.253 228.771 81.8188 228.502 69.937C230.718 78.1501 232.935 86.3632 235.151 94.5763L236.159 94.3725C235.905 86.1216 235.711 77.2971 233.336 69.3256C233.298 69.2652 232.028 68.8425 232.73 68.1027C233.515 68.6462 233.268 69.0916 233.336 69.3256C235.158 72.3074 240.388 79.9996 240.993 77.4707C240.261 74.6475 238.565 70.4579 237.37 67.6951C233.702 59.2706 224.67 44.9355 216.415 40.8214L216.4 40.8063Z" fill="#7B645F"/>
<path d="M205.92 58.7271C206.532 54.9074 207.302 53.224 208.743 49.7667C209.841 47.1397 210.2 44.9959 212.366 42.8445C213.651 41.5763 214.481 40.7685 216.393 40.8063C213.196 39.2135 210.544 40.7912 213.166 37.9529C211.604 38.4511 209.543 38.1718 206.315 42.6331C200.13 51.1783 205.247 50.3102 205.509 50.7782C205.949 51.5633 204.709 54.2582 204.702 54.4394C204.493 61.8749 205.703 66.7892 206.315 60.5464C206.45 59.1725 205.875 58.9234 205.912 58.712L205.92 58.7271Z" fill="#392127"/>
<path d="M212.374 42.8445C210.2 44.9959 209.841 47.1397 208.751 49.7667C210.984 50.5669 215.698 43.1842 212.374 42.8445Z" fill="#6B524E"/>
<path d="M233.328 69.318C233.261 69.084 233.507 68.6462 232.723 68.0951C232.021 68.8349 233.291 69.2576 233.328 69.318Z" fill="#392127"/>
<path d="M90.2641 165.822H87.037C85.8193 170.291 84.8706 176.284 85.02 180.889C85.5354 196.636 95.5755 207.74 110.21 211.839C112.242 212.405 116.253 211.469 116.455 213.877C135.385 211.786 152.791 202.607 167.432 190.665C168.292 191.14 165.707 193.775 164.81 195.141C166.402 194.031 167.559 192.492 168.837 191.072C170.077 189.698 171.945 187.305 173.267 186.596C173.319 186.566 173.356 185.932 174.074 185.781C179.661 184.595 192.129 189.193 196.641 194.741L196.843 193.111C197.598 193.752 198.569 193.986 199.465 194.333C207.227 194.349 215.026 193.246 221.428 188.634C221.719 188.068 217.469 182.655 216.796 181.712C214.316 184.739 197.65 182.905 197.456 181.916C197.344 181.357 206.144 180.021 207.13 178.858C200.399 178.556 193.168 183.033 186.175 180.285C186.034 179.976 189.634 175.152 187.789 174.382C181.559 177.93 174.036 177.802 167.238 178.858C145.761 182.195 141.032 183.478 121.498 165.829C120.892 175.424 132.755 185.667 141.443 187.004C146.897 186.89 158.7 185.75 163.406 186.596C168.419 187.494 149.526 191.344 147.688 191.48C143.386 191.805 138.836 191.42 134.593 190.665C155.39 197.111 155.151 194.379 135.198 197.179C129.999 197.934 121.43 195.043 126.331 197.587C123.089 197.693 121.408 197.813 118.472 196.364L118.069 196.772C120.437 198.153 114.401 197.519 112.63 197.179C106.968 196.107 100.132 192.809 98.3246 186.792C96.3226 180.127 99.2509 174.178 95.5008 187.607C92.5127 185.803 92.3484 176.307 92.6771 172.54C93.058 168.215 99.1314 152.604 93.4838 162.764C89.5769 169.8 93.058 176.979 90.2567 175.794C89.8159 172.321 89.6441 169.317 90.2567 165.814L90.2641 165.822Z" fill="#392127"/>
<path d="M156.354 207.77C156.922 205.475 159.529 203.588 159.977 202.886C160.664 201.822 161.269 200.705 161.994 199.625C162.965 198.176 163.862 196.613 164.818 195.149C165.707 193.775 168.292 191.148 167.44 190.672C152.798 202.614 135.392 211.794 116.463 213.885C84.9677 217.365 76.967 200.403 79.7908 171.944C80.5826 163.98 81.4193 156.22 84.4224 148.731C76.5636 156.756 73.3439 179.289 74.1432 190.061C77.3928 233.881 130.432 223.034 156.354 207.778V207.77Z" fill="#1B161E"/>
<path d="M116.463 213.877C116.253 211.477 112.249 212.413 110.217 211.839C95.583 207.74 85.5504 196.636 85.0274 180.889C83.8098 181.078 84.019 178.662 83.4139 177.832C82.8088 177.009 81.3819 176.926 80.9935 176.201C80.5079 175.295 81.0831 172.2 79.7833 171.929C76.9595 200.388 84.9602 217.35 116.455 213.87L116.463 213.877Z" fill="#1B161E"/>
<path d="M90.6675 156.461C89.2631 159.511 87.9259 162.576 87.0444 165.829H90.2716C91.6088 158.175 98.0557 151.917 97.3236 151.577C93.0655 153.495 92.7891 157.593 90.675 156.461L90.6675 156.461Z" fill="#553E40"/>
<path d="M187.789 174.374C189.634 175.144 186.034 179.968 186.175 180.278C193.168 183.025 200.399 178.556 207.13 178.851C216.273 176.571 213.95 177.371 215.997 180.074C218.925 180.391 226.179 184.112 229.294 186.181C230.945 184.361 231.55 185.335 233.724 185.365C235.405 185.388 239.08 185.335 239.768 186.588C240.627 184.86 243.196 182.844 240.978 180.889C220.382 182.014 202.797 164.35 200.279 163.376C197.613 162.349 197.463 165.135 195.85 166.841C194.034 168.751 189.716 173.28 187.789 174.374Z" fill="#281B23"/>
<path d="M240.985 180.889C243.204 182.844 240.634 184.86 239.775 186.588C238.774 188.619 237.646 190.71 236.548 192.695C234.792 195.881 232.962 198.78 231.311 202.063C234.546 201.142 237.758 200.169 240.985 199.21C243.958 198.334 247.006 197.64 249.852 196.356C249.837 196.145 249.21 195.534 249.449 193.911C239.409 188.574 246.072 184.784 252.273 178.843C251.541 179.085 242.024 180.821 240.993 180.881L240.985 180.889Z" fill="#1B161E"/>
<path d="M141.443 187.004C132.217 187.192 123.089 187.789 113.84 187.411C111.301 189.744 116.029 195.164 118.472 196.372C121.408 197.821 123.089 197.7 126.331 197.594C121.43 195.051 129.999 197.942 135.198 197.187C155.159 194.379 155.39 197.111 134.593 190.672C134.414 190.619 134.145 191.488 130.97 190.061C132.046 189.457 133.622 190.499 134.593 190.672C138.836 191.427 143.386 191.812 147.688 191.488C149.526 191.352 168.419 187.502 163.406 186.603C158.7 185.758 146.897 186.898 141.443 187.011V187.004Z" fill="#6B524E"/>
<path d="M116.463 160.53C116.44 163.127 114.221 170.472 113.235 173.559C113.975 174.027 116.365 176.813 116.858 175.394C116.336 170.298 118.689 161.043 116.455 160.53H116.463Z" fill="#392127"/>
<path d="M101.955 182.112C104.286 167.913 102.777 169.807 101.35 182.52L101.955 182.112Z" fill="#553E40"/>
<path d="M215.997 180.074C216.348 180.534 216.46 181.229 216.804 181.704C217.476 182.648 221.734 188.06 221.435 188.627C215.033 193.246 207.234 194.341 199.473 194.326C202.976 195.7 205.695 196.885 209.752 197.179C215.646 197.602 220.845 194.824 223.654 196.364C224.595 194.756 228.906 186.611 229.294 186.181C226.179 184.105 218.918 180.391 215.997 180.074Z" fill="#1B161E"/>
<path d="M196.656 194.733C197.045 195.217 197.859 196.817 198.27 197.587C200.601 197.572 200.294 202.614 201.295 203.286C206.36 203.596 211.238 205.113 216.206 203.286C216.632 203.128 218.918 200.75 219.635 202.063C220.083 201.807 220.367 201.429 220.845 201.248C221.824 199.633 222.713 197.987 223.669 196.364C220.86 194.824 215.661 197.602 209.767 197.179C205.71 196.892 202.991 195.7 199.488 194.326C198.599 193.979 197.62 193.745 196.866 193.103L196.664 194.734L196.656 194.733Z" fill="#1B161E"/>
<path d="M207.13 178.858C206.144 180.021 197.344 181.349 197.456 181.916C197.657 182.905 214.324 184.739 216.796 181.712C216.453 181.236 216.341 180.549 215.99 180.081C213.943 177.379 216.273 176.579 207.122 178.858L207.13 178.858Z" fill="#553E40"/>
<path d="M134.593 190.665C133.622 190.491 132.046 189.449 130.97 190.053C134.145 191.48 134.421 190.612 134.593 190.665Z" fill="#553E40"/>
<path d="M136.61 137.725C136.655 137.589 137.783 136.895 138.627 135.687C123.821 128.75 120.676 106.888 130.566 94.5611C145.208 76.3006 172.527 83.2606 185.57 99.8529C197.717 93.4892 216.542 94.4177 222.04 109.221C227.71 124.485 216.027 145.515 199.069 146.278C199.219 146.806 199.869 149.758 199.876 149.939C203.036 149.728 208.855 146.58 211.358 144.647C224.76 134.305 232.32 109.047 215.384 98.2223C201.998 89.662 187.064 97.3467 185.563 96.9994C184.054 96.6522 174.522 83.6532 158.969 81.9321C125.248 78.1954 108.559 118.31 136.602 137.718L136.61 137.725Z" fill="#E29150"/>
<path d="M130.566 94.5611C120.676 106.896 123.821 128.757 138.627 135.687C141.354 131.754 142.668 131.777 146.284 129.172C134.025 124.424 130.23 108.307 141.047 99.8529C147.636 94.7046 157.191 93.4062 164.019 99.0376C165.281 100.079 166.536 101.657 167.246 103.106C171.071 111.017 169.158 116.807 165.229 123.873C164.609 124.998 162.368 127.965 163.01 128.35C173.991 127.096 182.575 132.381 183.561 132.011C184.846 131.528 183.83 128.402 184.166 126.311C186.28 113.071 197.284 103.869 208.146 108.798C220.972 114.618 216.229 142.511 196.26 140.563C196.395 140.775 196.963 142.156 197.067 142.602C198.158 143.719 198.673 144.798 199.084 146.263C216.042 145.5 227.725 124.469 222.055 109.206C218.021 111.319 219.127 102.857 207.346 100.245C195.745 97.6713 186.818 102.412 184.779 101.876C182.627 101.302 169.248 82.8304 144.484 88.0315C137.82 89.428 135.415 92.8702 130.581 94.5461L130.566 94.5611Z" fill="#FAC287"/>
<path d="M184.158 126.326C183.822 128.417 184.838 131.55 183.553 132.026C182.567 132.396 173.984 127.104 163.003 128.365C162.36 127.972 164.594 125.005 165.221 123.888L161.994 124.296C159.91 126.455 158.969 126.153 158.371 126.334C155.062 128.546 154.21 126.734 150.916 128.78H161.195C167.223 128.576 170.876 129.769 176.509 131.226C176.748 131.286 177.57 131.226 178.929 131.633C181.641 132.456 186.758 134.23 189.007 135.702C190.18 136.48 194.296 140.631 195.05 141.809C195.61 141.228 196.298 141.839 197.067 142.624C196.963 142.179 196.395 140.805 196.26 140.586C195.05 138.654 192.353 137.204 191.831 135.294C187.199 134.004 185.959 129.187 186.19 124.703C184.846 119.887 185.914 125.979 184.173 126.334L184.158 126.326Z" fill="#B55A2B"/>
<path d="M130.566 94.5611C135.4 92.8853 137.805 89.4431 144.469 88.0466C169.233 82.853 182.62 101.317 184.764 101.891C186.803 102.435 195.73 97.6864 207.331 100.26C219.112 102.872 218.006 111.335 222.04 109.221C216.542 94.4253 197.717 93.4892 185.57 99.8529C172.52 83.2606 145.208 76.2931 130.566 94.5611Z" fill="#FAD7AA"/>
<path d="M141.04 99.8529C130.223 108.307 134.018 124.424 146.277 129.172C148.757 130.131 151.879 128.372 149.1 131.618C151.834 130.41 155.846 129.052 158.774 128.765C159.566 128.689 160.395 128.795 161.195 128.765H150.916C154.21 126.719 155.062 128.538 158.371 126.319C153.164 127.904 147.853 126.742 143.46 123.465C137.23 118.823 137.297 109.281 143.46 104.329C143.348 103.431 144.065 103.099 144.67 102.699C143.146 101.755 143.415 101.174 143.46 99.4377C142.646 99.7698 142.011 100.63 141.04 99.8453V99.8529Z" fill="#9D4C2F"/>
<path d="M184.158 126.326C185.899 125.979 184.831 119.887 186.175 124.696C186.415 120.136 188.663 117.124 192.219 114.513C198.18 110.134 206.98 109.553 209.147 117.774C213.733 126.93 206.211 139.756 195.85 135.694C195.394 135.664 193.945 135.4 193.429 135.287C192.951 135.181 192.256 135.408 191.816 135.287C192.338 137.197 195.043 138.646 196.245 140.579C216.221 142.526 220.957 114.641 208.131 108.813C197.269 103.884 186.265 113.086 184.151 126.326H184.158Z" fill="#B55A2B"/>
<path d="M143.46 99.4452C143.415 101.174 143.146 101.763 144.67 102.706C150.034 99.1659 160.664 98.0864 164.414 104.337L167.238 103.114C166.536 101.657 165.281 100.087 164.011 99.0451C162.405 99.6792 159.492 97.6486 157.362 97.4146C153.314 96.9768 147.315 97.8675 143.46 99.4528V99.4452Z" fill="#B55A2B"/>
<path d="M164.414 104.337C164.773 104.933 165.744 107.22 164.818 107.598C166.469 112.588 165.722 120.446 161.994 124.296L165.221 123.888C169.151 116.823 171.063 111.025 167.238 103.121L164.414 104.344V104.337Z" fill="#D1793A"/>
<path d="M141.04 99.8529C142.011 100.638 142.646 99.7774 143.46 99.4452C147.315 97.8675 153.314 96.9692 157.362 97.4071C159.492 97.6411 162.405 99.6641 164.011 99.0376C157.183 93.4062 147.629 94.7046 141.04 99.8529Z" fill="#963C11"/>
<path d="M195.043 141.801C197.62 145.81 198.897 151.283 197.06 155.646C196.305 157.435 195.11 158.062 193.833 159.307C193.347 159.783 192.361 160.975 191.816 161.345C178.145 170.63 146.314 162.712 139.426 146.278C139.247 146.134 138.724 143.07 136.199 146.278C136.169 147.539 136.602 147.644 136.602 147.908C136.602 148.044 136.602 148.18 136.602 148.316C142.16 176.133 200.533 180.036 199.869 149.947C199.869 149.758 199.211 146.806 199.062 146.285C198.651 144.813 198.143 143.734 197.045 142.624C196.275 141.839 195.588 141.228 195.028 141.809L195.043 141.801Z" fill="#D1793A"/>
<path d="M146.284 129.172C142.668 131.777 141.354 131.754 138.627 135.687C137.79 136.895 136.662 137.589 136.61 137.725C136.468 138.125 136.236 145.206 136.207 146.278C138.732 143.07 139.247 146.134 139.434 146.278C154.173 157.775 162.27 164.123 182.552 162.976C183.352 161.519 181.783 161.617 180.535 161.345C176.621 160.492 170.69 160.621 164.616 158.899C157.206 156.801 135.347 146.882 141.847 136.91C143.55 134.29 146.336 132.841 149.1 131.618C151.879 128.372 148.757 130.139 146.277 129.172L146.284 129.172Z" fill="#B55A2B"/>
<path d="M149.1 131.618C146.336 132.841 143.55 134.298 141.847 136.91C154.217 152.46 177.861 159.073 197.052 155.638C198.897 151.275 197.62 145.802 195.035 141.794C194.281 140.616 190.165 136.457 188.992 135.687C188.387 137.204 189.066 139.416 186.975 139.348C189.545 143.266 182.007 142.232 180.125 142.609C179.878 142.654 180.334 144.64 175.896 144.24C171.728 143.862 171.907 141.137 171.668 140.979C168.956 139.22 161.703 136.887 163.608 133.649C163.533 133.619 163.794 132.569 163.406 132.426C160.791 131.49 157.781 133.158 158.774 128.765C155.853 129.044 151.834 130.41 149.1 131.618Z" fill="#F8E8C3"/>
<path d="M180.535 161.345C182.381 161.111 184.353 161.157 186.175 160.938C182.283 157.435 188.857 159.458 190.605 160.122C191.681 159.843 192.697 159.337 193.833 159.307C195.11 158.054 196.305 157.427 197.06 155.646C177.868 159.073 154.217 152.468 141.854 136.917C135.355 146.889 157.213 156.808 164.624 158.907C170.69 160.628 176.628 160.492 180.543 161.353L180.535 161.345Z" fill="#FAC287"/>
<path d="M191.816 161.345C188.783 162.259 185.705 162.795 182.545 162.976C162.263 164.123 154.165 157.782 139.426 146.278C146.306 162.712 178.145 170.63 191.816 161.345Z" fill="#FAC287"/>
<path d="M190.613 160.122C189.134 160.5 187.699 160.756 186.183 160.938C184.353 161.157 182.381 161.111 180.543 161.345C181.79 161.617 183.352 161.519 182.56 162.976C185.72 162.795 188.798 162.259 191.831 161.345C192.376 160.975 193.354 159.79 193.847 159.307C192.719 159.337 191.696 159.843 190.62 160.122H190.613Z" fill="#9D4C2F"/>
<path d="M161.195 128.765C160.395 128.795 159.566 128.689 158.774 128.765C157.781 133.166 160.791 131.49 163.406 132.426C163.794 132.569 163.533 133.619 163.608 133.649C164.056 133.815 169.315 132.743 171.668 137.718C173.722 139.19 174.873 134.623 176.501 131.203C170.876 129.754 167.216 128.553 161.187 128.757L161.195 128.765Z" fill="#FCF9F2"/>
<path d="M176.509 131.21C174.88 134.63 173.73 139.197 171.676 137.725C172.355 139.159 173.289 141.024 171.676 140.986C171.915 141.145 171.743 143.87 175.904 144.247C180.341 144.647 179.893 142.67 180.132 142.617C177.674 142.118 179.392 140.503 180.535 139.763C182.5 137.446 177.383 136.797 178.922 131.618C177.57 131.21 176.74 131.271 176.501 131.21H176.509Z" fill="#F9F1DA"/>
<path d="M180.535 139.763C183.785 137.672 186.131 139.333 186.982 139.356C189.074 139.416 188.387 137.204 188.999 135.694C186.758 134.215 181.641 132.449 178.922 131.626C177.383 136.804 182.493 137.453 180.535 139.771L180.535 139.763Z" fill="#E8E2D7"/>
<path d="M163.608 133.656C161.703 136.895 168.956 139.227 171.668 140.986C173.282 141.024 172.348 139.167 171.668 137.725C169.315 132.75 164.056 133.822 163.608 133.656Z" fill="#2D2019"/>
<path d="M180.535 139.763C179.392 140.495 177.674 142.111 180.132 142.617C182.015 142.239 189.552 143.281 186.982 139.356C186.131 139.333 183.785 137.672 180.535 139.763Z" fill="#130A05"/>
<path d="M186.175 160.938C187.692 160.756 189.126 160.5 190.605 160.122C188.85 159.458 182.283 157.435 186.175 160.938Z" fill="#FAD7AA"/>
<path d="M139.837 115.328C139.665 118.566 141.578 121.118 143.46 123.473C147.853 126.749 153.164 127.912 158.371 126.326C160.246 125.073 163.555 120.099 162.599 119.812C161.89 120.869 161.008 121.231 159.977 121.85C154.95 124.862 149.429 125.526 144.461 121.85C141.115 119.374 141.227 115.675 139.83 115.335L139.837 115.328Z" fill="#34AABE"/>
<path d="M143.46 104.337C137.297 109.289 137.23 118.831 143.46 123.473C141.57 121.118 139.658 118.566 139.837 115.328C140.801 111.335 141.092 117.91 144.065 120.62C144.812 120.688 149.735 112.15 155.951 121.231C155.824 125.647 137.633 118.302 149.302 123.473C153.089 123.564 156.541 123.684 159.985 121.842C161.008 121.231 161.89 120.861 162.607 119.804C163.563 120.091 160.254 125.066 158.378 126.319C158.976 126.138 159.917 126.44 162.002 124.281C165.729 120.431 166.476 112.573 164.825 107.583C161.882 98.713 148.391 100.366 143.468 104.322L143.46 104.337Z" fill="#130A05"/>
<path d="M144.67 102.706C144.065 103.106 143.356 103.431 143.46 104.337C148.383 100.381 161.875 98.7205 164.818 107.598C165.744 107.228 164.773 104.933 164.414 104.337C160.657 98.094 150.027 99.1659 144.67 102.706Z" fill="#E8E2D7"/>
<path d="M151.117 110.444C149.885 108.451 149.489 106.111 151.924 104.744C148.914 101.212 145.261 105.167 144.267 108.609C146.389 109.591 151.05 114.935 151.117 110.444Z" fill="#1B161E"/>
<path d="M151.924 104.744C149.489 106.118 149.885 108.458 151.117 110.444C158.715 113.667 158.207 101.8 151.924 104.744Z" fill="#F3F4F7"/>
<path d="M139.837 115.328C141.234 115.668 141.13 119.366 144.469 121.842C149.436 125.519 154.957 124.854 159.985 121.842C156.541 123.677 153.089 123.564 149.302 123.473C137.633 118.302 155.824 125.647 155.951 121.231C149.728 112.15 144.805 120.688 144.065 120.62C141.092 117.902 140.801 111.335 139.837 115.328Z" fill="#2D2D2D"/>
<path d="M150.512 118.589C144.514 118.279 151.17 122.567 151.521 120.016L150.512 118.589Z" fill="#BEB9B1"/>
<path d="M192.219 114.513C188.663 117.124 186.415 120.136 186.175 124.696C185.944 129.172 187.191 133.996 191.816 135.287C192.256 135.408 192.951 135.181 193.429 135.287C191.823 134.396 191.143 132.177 191.614 132.026C195.924 136.457 202.887 134.056 206.928 130.395C204.986 135.868 200.855 136.034 195.85 135.687C206.211 139.748 213.733 126.93 209.147 117.766C205.934 111.35 197.747 111.569 192.219 114.505V114.513Z" fill="#130A05"/>
<path d="M193.429 135.287C193.937 135.4 195.386 135.664 195.85 135.694C200.862 136.034 204.986 135.876 206.928 130.403C202.887 134.056 195.924 136.457 191.614 132.033C191.143 132.177 191.823 134.404 193.429 135.294V135.287Z" fill="#32ABCF"/>
<path d="M192.219 114.513C197.747 111.569 205.927 111.35 209.147 117.774C206.98 109.561 198.18 110.134 192.219 114.513Z" fill="#F2E5DE"/>
<path d="M199.271 116.143H196.851C188.618 123.73 206.024 124.341 199.271 116.143Z" fill="#F3F4F7"/>
<path d="M200.481 114.92L199.069 115.532C205.225 118.098 198.995 122.424 200.885 122.658C207.548 120.121 207.294 116.317 200.481 114.92Z" fill="#1B161E"/>
<path d="M197.665 127.142C193.564 126.281 191.442 130.637 193.638 132.433C201.953 135.106 201.31 127.904 197.665 127.142Z" fill="#2D2D2D"/>
<path d="M196.858 128.365C192.383 130.146 198.77 134.139 198.27 129.384L196.858 128.365Z" fill="#836971"/>
</svg>
