<svg width="1440" height="143" viewBox="0 0 1440 143" fill="none" xmlns="http://www.w3.org/2000/svg">
<ellipse cx="127.169" cy="27.4138" rx="33.8741" ry="34.8022" fill="#FFE49D"/>
<ellipse cx="83.5503" cy="-11.1006" rx="44.0827" ry="45.4748" fill="#FFE49D"/>
<ellipse cx="191.205" cy="9.31656" rx="44.0827" ry="45.4748" fill="#FFE49D"/>
<ellipse cx="25.0827" cy="19.5253" rx="44.0827" ry="45.4748" fill="#FFE49D"/>
<ellipse cx="304.583" cy="1.71011" rx="44.0827" ry="45.4748" fill="#FFE49D"/>
<ellipse cx="452.917" cy="-18.5252" rx="44.0827" ry="45.4748" fill="#FFE49D"/>
<ellipse cx="242.248" cy="19.9892" rx="33.8741" ry="34.8022" fill="#FFE49D"/>
<ellipse cx="346.191" cy="27.4138" rx="33.8741" ry="34.8022" fill="#FFE49D"/>
<ellipse cx="396.306" cy="8.85263" rx="33.8741" ry="34.8022" fill="#FFE49D"/>
<ellipse cx="0.489208" cy="-10.6367" rx="19.4892" ry="19.9532" fill="#FFE49D"/>
<ellipse cx="619.169" cy="26.4138" rx="33.8741" ry="34.8022" fill="#FFE49D"/>
<ellipse cx="575.55" cy="-12.1006" rx="44.0827" ry="45.4748" fill="#FFE49D"/>
<ellipse cx="683.205" cy="8.31656" rx="44.0827" ry="45.4748" fill="#FFE49D"/>
<ellipse cx="517.083" cy="18.5253" rx="44.0827" ry="45.4748" fill="#FFE49D"/>
<ellipse cx="796.583" cy="0.71011" rx="44.0827" ry="45.4748" fill="#FFE49D"/>
<ellipse cx="944.917" cy="-19.5252" rx="44.0827" ry="45.4748" fill="#FFE49D"/>
<ellipse cx="734.248" cy="18.9892" rx="33.8741" ry="34.8022" fill="#FFE49D"/>
<ellipse cx="838.191" cy="26.4138" rx="33.8741" ry="34.8022" fill="#FFE49D"/>
<ellipse cx="888.306" cy="7.85263" rx="33.8741" ry="34.8022" fill="#FFE49D"/>
<ellipse cx="492.489" cy="-11.6367" rx="19.4892" ry="19.9532" fill="#FFE49D"/>
<ellipse cx="1116.38" cy="21.4162" rx="33.8741" ry="34.8022" transform="rotate(1.98268 1116.38 21.4162)" fill="#FFE49D"/>
<ellipse cx="1074.12" cy="-18.5843" rx="44.0827" ry="45.4748" transform="rotate(1.98268 1074.12 -18.5843)" fill="#FFE49D"/>
<ellipse cx="1181.01" cy="5.54519" rx="44.0827" ry="45.4748" transform="rotate(1.98268 1181.01 5.54519)" fill="#FFE49D"/>
<ellipse cx="1014.63" cy="10.0005" rx="44.0827" ry="45.4748" transform="rotate(1.98268 1014.63 10.0005)" fill="#FFE49D"/>
<ellipse cx="1294.58" cy="1.86587" rx="44.0827" ry="45.4748" transform="rotate(1.98268 1294.58 1.86587)" fill="#FFE49D"/>
<ellipse cx="1443.52" cy="-13.2253" rx="44.0827" ry="45.4748" transform="rotate(1.98268 1443.52 -13.2253)" fill="#FFE49D"/>
<ellipse cx="1231.65" cy="17.9774" rx="33.8741" ry="34.8022" transform="rotate(1.98268 1231.65 17.9774)" fill="#FFE49D"/>
<ellipse cx="1335.27" cy="28.9937" rx="33.8741" ry="34.8022" transform="rotate(1.98268 1335.27 28.9937)" fill="#FFE49D"/>
<ellipse cx="1386" cy="12.1775" rx="33.8741" ry="34.8022" transform="rotate(1.98268 1386 12.1775)" fill="#FFE49D"/>
<ellipse cx="6" cy="48" rx="50" ry="49" fill="#FFCA42"/>
<ellipse cx="155" cy="44" rx="50" ry="49" fill="#FFCA42"/>
<ellipse cx="66.5" cy="41" rx="25.5" ry="25" fill="#FFCA42"/>
<ellipse cx="201.5" cy="42" rx="25.5" ry="25" fill="#FFCA42"/>
<ellipse cx="277.5" cy="38" rx="25.5" ry="25" fill="#FFCA42"/>
<ellipse cx="306.5" cy="40" rx="15.5" ry="15" fill="#FFCA42"/>
<ellipse cx="241.5" cy="36" rx="36.5" ry="37" fill="#FFCA42"/>
<ellipse cx="354.5" cy="25.5" rx="44.5" ry="46.5" fill="#FFCA42"/>
<ellipse cx="105" cy="67" rx="35" ry="36" fill="#FFCA42"/>
<ellipse cx="416" cy="43" rx="50" ry="49" fill="#FFCA42"/>
<ellipse cx="565" cy="39" rx="50" ry="49" fill="#FFCA42"/>
<ellipse cx="476.5" cy="36" rx="25.5" ry="25" fill="#FFCA42"/>
<ellipse cx="611.5" cy="37" rx="25.5" ry="25" fill="#FFCA42"/>
<ellipse cx="687.5" cy="33" rx="25.5" ry="25" fill="#FFCA42"/>
<ellipse cx="716.5" cy="35" rx="15.5" ry="15" fill="#FFCA42"/>
<ellipse cx="651.5" cy="31" rx="36.5" ry="37" fill="#FFCA42"/>
<ellipse cx="764.5" cy="20.5" rx="44.5" ry="46.5" fill="#FFCA42"/>
<ellipse cx="515" cy="62" rx="35" ry="36" fill="#FFCA42"/>
<ellipse cx="788" cy="45" rx="50" ry="49" fill="#FFCA42"/>
<ellipse cx="937" cy="41" rx="50" ry="49" fill="#FFCA42"/>
<ellipse cx="848.5" cy="38" rx="25.5" ry="25" fill="#FFCA42"/>
<ellipse cx="983.5" cy="39" rx="25.5" ry="25" fill="#FFCA42"/>
<ellipse cx="1059.5" cy="35" rx="25.5" ry="25" fill="#FFCA42"/>
<ellipse cx="1088.5" cy="37" rx="15.5" ry="15" fill="#FFCA42"/>
<ellipse cx="1023.5" cy="33" rx="36.5" ry="37" fill="#FFCA42"/>
<ellipse cx="1136.5" cy="22.5" rx="44.5" ry="46.5" fill="#FFCA42"/>
<ellipse cx="887" cy="64" rx="35" ry="36" fill="#FFCA42"/>
<ellipse cx="1142" cy="38" rx="50" ry="49" fill="#FFCA42"/>
<ellipse cx="1291" cy="34" rx="50" ry="49" fill="#FFCA42"/>
<ellipse cx="1202.5" cy="31" rx="25.5" ry="25" fill="#FFCA42"/>
<ellipse cx="1337.5" cy="32" rx="25.5" ry="25" fill="#FFCA42"/>
<ellipse cx="1413.5" cy="28" rx="25.5" ry="25" fill="#FFCA42"/>
<ellipse cx="1442.5" cy="30" rx="15.5" ry="15" fill="#FFCA42"/>
<ellipse cx="1377.5" cy="26" rx="36.5" ry="37" fill="#FFCA42"/>
<ellipse cx="1241" cy="57" rx="35" ry="36" fill="#FFCA42"/>
<g filter="url(#filter0_d_3137_3510)">
<ellipse cx="31" cy="80" rx="50" ry="49" fill="#FFCA42"/>
<ellipse cx="180" cy="76" rx="50" ry="49" fill="#FFCA42"/>
<ellipse cx="91.5" cy="73" rx="25.5" ry="25" fill="#FFCA42"/>
<ellipse cx="226.5" cy="74" rx="25.5" ry="25" fill="#FFCA42"/>
<ellipse cx="302.5" cy="70" rx="25.5" ry="25" fill="#FFCA42"/>
<ellipse cx="331.5" cy="72" rx="15.5" ry="15" fill="#FFCA42"/>
<ellipse cx="266.5" cy="68" rx="36.5" ry="37" fill="#FFCA42"/>
<ellipse cx="379.5" cy="57.5" rx="44.5" ry="46.5" fill="#FFCA42"/>
<ellipse cx="130" cy="99" rx="35" ry="36" fill="#FFCA42"/>
<ellipse cx="441" cy="75" rx="50" ry="49" fill="#FFCA42"/>
<ellipse cx="590" cy="71" rx="50" ry="49" fill="#FFCA42"/>
<ellipse cx="501.5" cy="68" rx="25.5" ry="25" fill="#FFCA42"/>
<ellipse cx="636.5" cy="69" rx="25.5" ry="25" fill="#FFCA42"/>
<ellipse cx="712.5" cy="65" rx="25.5" ry="25" fill="#FFCA42"/>
<ellipse cx="741.5" cy="67" rx="15.5" ry="15" fill="#FFCA42"/>
<ellipse cx="676.5" cy="63" rx="36.5" ry="37" fill="#FFCA42"/>
<ellipse cx="789.5" cy="52.5" rx="44.5" ry="46.5" fill="#FFCA42"/>
<ellipse cx="540" cy="94" rx="35" ry="36" fill="#FFCA42"/>
<ellipse cx="813" cy="77" rx="50" ry="49" fill="#FFCA42"/>
<ellipse cx="962" cy="73" rx="50" ry="49" fill="#FFCA42"/>
<ellipse cx="873.5" cy="70" rx="25.5" ry="25" fill="#FFCA42"/>
<ellipse cx="1008.5" cy="71" rx="25.5" ry="25" fill="#FFCA42"/>
<ellipse cx="1084.5" cy="67" rx="25.5" ry="25" fill="#FFCA42"/>
<ellipse cx="1113.5" cy="69" rx="15.5" ry="15" fill="#FFCA42"/>
<ellipse cx="1048.5" cy="65" rx="36.5" ry="37" fill="#FFCA42"/>
<ellipse cx="1161.5" cy="54.5" rx="44.5" ry="46.5" fill="#FFCA42"/>
<ellipse cx="912" cy="96" rx="35" ry="36" fill="#FFCA42"/>
<ellipse cx="1167" cy="70" rx="50" ry="49" fill="#FFCA42"/>
<ellipse cx="1316" cy="66" rx="50" ry="49" fill="#FFCA42"/>
<ellipse cx="1227.5" cy="63" rx="25.5" ry="25" fill="#FFCA42"/>
<ellipse cx="1362.5" cy="64" rx="25.5" ry="25" fill="#FFCA42"/>
<ellipse cx="1438.5" cy="60" rx="25.5" ry="25" fill="#FFCA42"/>
<ellipse cx="1402.5" cy="58" rx="36.5" ry="37" fill="#FFCA42"/>
<ellipse cx="1266" cy="89" rx="35" ry="36" fill="#FFCA42"/>
</g>
<defs>
<filter id="filter0_d_3137_3510" x="-23" y="1" width="1587" height="142" filterUnits="userSpaceOnUse" color-interpolation-filters="sRGB">
<feFlood flood-opacity="0" result="BackgroundImageFix"/>
<feColorMatrix in="SourceAlpha" type="matrix" values="0 0 0 0 0 0 0 0 0 0 0 0 0 0 0 0 0 0 127 0" result="hardAlpha"/>
<feOffset dy="4"/>
<feGaussianBlur stdDeviation="2"/>
<feComposite in2="hardAlpha" operator="out"/>
<feColorMatrix type="matrix" values="0 0 0 0 0.639811 0 0 0 0 0.460393 0 0 0 0 0 0 0 0 0.25 0"/>
<feBlend mode="normal" in2="BackgroundImageFix" result="effect1_dropShadow_3137_3510"/>
<feBlend mode="normal" in="SourceGraphic" in2="effect1_dropShadow_3137_3510" result="shape"/>
</filter>
</defs>
</svg>
