<svg width="336" height="346" viewBox="0 0 336 346" fill="none" xmlns="http://www.w3.org/2000/svg">
<path d="M190.071 8.22152C190.139 8.21469 190.085 7.30726 191.368 8.00319C190.603 9.1426 190.364 8.07141 190.071 8.22152Z" fill="#99999A"/>
<path d="M96.191 331.747C96.3343 331.747 96.4845 331.76 96.6209 331.747C97.6378 333.35 101.603 332.354 105.705 332.613C109.984 332.879 116.699 335.349 115.655 330.88C115.948 330.812 116.269 330.607 116.522 330.45C116.488 331.46 116.569 332.47 116.522 333.48C116.324 337.621 117.723 338.263 121.715 339.102C124.698 339.729 126.506 339.272 129.072 339.532C132.382 339.873 135.692 340.364 139.023 340.398C140.176 340.412 141.329 340.412 142.483 340.398C145.984 340.35 149.799 339.88 153.3 339.532C156.009 339.266 157.47 338.481 158.923 338.235C159.183 338.194 158.623 339.921 163.68 338.235C161.878 340.964 164.24 338.699 163.898 341.694C172.832 340.535 181.759 338.904 190.719 337.799C191.102 337.751 190.426 337.069 191.798 336.932C194.48 336.659 195.947 339.136 198.288 336.714C200.151 332.995 195.415 334.107 195.695 330.873C195.974 330.873 194.364 329.57 200.67 330.007C202.117 331.024 197.373 335.09 202.185 336.925C203.925 337.587 213.37 338.29 213.869 335.192C219.253 338.583 220.127 336.686 225.982 336.059C230.5 334.517 234.827 334.906 238.096 330.867C238.048 332.272 237.837 333.316 236.8 334.326C235.776 335.322 226.576 338.215 224.256 340.384C212.77 341.981 200.861 342.54 189.648 344.492C200.977 346.416 212.497 344.219 223.826 344.273C225.239 344.28 226.487 344.048 226.419 344.703C205.174 346.006 185.075 345.099 163.905 345.133C159.565 345.14 154.828 346.02 150.495 346C136.532 345.931 122.698 345.836 108.748 345.133C107.868 342.882 100.095 345.85 99.6647 342.54C94.3279 337.819 89.4823 337.26 84.5208 331.726C90.4105 331.638 89.0251 330.908 89.2776 330.86C90.506 330.648 92.5944 329.632 93.1745 331.078C93.2768 331.331 89.1889 331.856 96.2046 331.726L96.191 331.747Z" fill="#243124"/>
<path d="M99.6511 342.561C100.088 345.877 107.854 342.909 108.735 345.154C96.2797 344.526 56.4305 341.538 46.8692 339.095C48.4457 337.778 53.9668 337.178 56.8195 336.932C65.5346 336.188 82.0025 337.273 90.3491 339.525C92.7787 340.18 97.0304 343.537 99.6511 342.554V342.561Z" fill="#222D14"/>
<path d="M279.631 339.102C272.349 340.78 236.363 344.117 226.419 344.724C226.487 344.069 225.232 344.301 223.826 344.294V342.998C237.148 341.756 250.346 338.795 263.627 337.376C266.057 337.116 268.623 337.123 270.984 336.509C274.287 337.519 277.966 337.191 279.638 339.102H279.631Z" fill="#243124"/>
<path d="M264.057 329.154C264.958 329.284 265.06 329.536 265.354 329.584C266.862 333.493 266.111 333.719 266.221 333.91C260.01 333.2 253.54 334.735 252.162 334.776C251.377 334.797 244.675 333.923 239.618 334.346L239.4 335.213C237.912 335.001 236.554 335.772 236.806 334.346C237.844 333.336 238.055 332.286 238.103 330.887C238.144 329.809 237.741 329.529 237.673 328.724H248.92C251.629 327.81 260.563 328.663 264.064 329.154H264.057Z" fill="#56661C"/>
<path d="M58.1162 334.339C57.5702 335.199 56.567 335.697 56.8195 336.932C53.9668 337.178 48.4457 337.778 46.8692 339.095C38.4817 336.953 36.6253 334.524 45.7909 331.31L46.2208 335.636C47.4697 335.663 44.5351 330.464 60.7164 328.717C60.7778 330.512 59.1058 332.797 58.123 334.339H58.1162Z" fill="#67765E"/>
<path d="M279.631 339.102C277.959 337.191 274.28 337.519 270.977 336.509C268.964 335.895 267.422 336.004 266.221 333.916C266.111 333.725 266.862 333.5 265.354 329.591C281.699 332.197 275.98 332.777 277.686 333.916C277.979 334.107 284.108 335.117 281.583 333.05C284.265 332.108 292.987 336.025 279.638 339.109L279.631 339.102Z" fill="#67765E"/>
<path d="M62.443 328.288C67.1725 327.946 74.4749 329.659 80.1803 328.288C79.9551 329.946 80.7195 330.771 80.6103 331.747C80.5557 332.218 80.2554 333.275 79.9619 333.48C79.0611 334.101 60.8461 332.893 58.1162 334.346C59.099 332.804 60.771 330.519 60.7096 328.724C61.4603 328.642 61.7128 328.342 62.443 328.294V328.288Z" fill="#56661C"/>
<path d="M84.5072 331.747C89.4687 337.273 94.3142 337.84 99.6511 342.561C97.0304 343.543 92.7787 340.193 90.3491 339.532C82.0025 337.273 65.5414 336.195 56.8195 336.939C56.567 335.704 57.5702 335.206 58.1162 334.346C60.8529 332.9 79.0679 334.107 79.9619 333.48C80.2554 333.275 80.5557 332.218 80.6103 331.747L81.0402 331.747C82.1936 331.733 83.347 331.76 84.5004 331.747H84.5072Z" fill="#465526"/>
<path d="M115.662 330.88C116.706 335.349 109.99 332.879 105.711 332.613L106.141 331.317C108.898 332.47 112.147 331.583 113.928 329.154C114.153 329.707 115.423 329.891 115.662 330.887V330.88Z" fill="#100E0D"/>
<path d="M239.393 335.206C250.087 336.707 264.071 332.804 263.62 337.369C250.34 338.788 237.141 341.749 223.819 342.991C221.724 343.96 223.744 340.869 224.249 340.398C226.569 338.235 235.769 335.342 236.793 334.339C236.54 335.759 237.905 334.994 239.386 335.206H239.393Z" fill="#465526"/>
<path d="M224.249 340.398C223.737 340.876 221.724 343.966 223.819 342.991V344.287C212.49 344.226 200.97 346.423 189.641 344.505C200.854 342.547 212.763 341.988 224.249 340.398Z" fill="#222D14"/>
<path d="M126.909 333.473C126.943 334.38 127.482 335.629 127.776 336.502C127.83 336.659 128.71 338.303 129.072 339.532C126.513 339.266 124.698 339.723 121.715 339.102C124.452 337.485 122.602 335.765 122.582 334.776C122.507 331.549 124.773 333.63 126.909 333.48V333.473Z" fill="#582914"/>
<path d="M266.221 333.91C267.429 335.997 268.971 335.888 270.977 336.502C268.616 337.116 266.05 337.109 263.62 337.369C264.071 332.804 250.087 336.707 239.393 335.206L239.611 334.339C244.675 333.923 251.37 334.797 252.155 334.769C253.534 334.728 260.01 333.193 266.214 333.903L266.221 333.91Z" fill="#465526"/>
<path d="M190.071 8.22152C184.12 11.169 180.141 11.8308 175.794 18.8174C175.978 19.4792 181.997 18.2716 189.204 19.8954C189.266 22.7542 182.154 20.2024 181.636 20.3252C180.4 20.6254 178.032 23.6275 177.739 23.7844C167.85 29.0448 166.349 25.5925 164.758 25.5174C156.692 25.1217 149.669 27.2777 160.002 22.9247C161.653 22.2288 164.479 21.8535 164.977 21.6284C170.163 19.2745 167.318 18.2511 167.57 17.0844C168.062 14.8806 170.116 8.35115 168.437 7.35502C168.505 7.22538 168.437 6.61133 168.867 6.05868C170.259 6.50216 171.262 10.0637 172.109 10.3844C173.221 10.8005 173.542 9.54515 173.624 9.51786C175.999 8.87651 183.26 3.45236 184.004 4.97385C177.834 7.12986 171.938 15.9996 173.405 16.4362C177.288 11.7626 184.175 8.96521 190.064 8.22152L190.071 8.22152Z" fill="#3F1710"/>
<path d="M166.28 13.4137C166.84 12.5745 166.232 11.5374 168.444 7.35502C170.129 8.35797 168.068 14.8806 167.577 17.0844C167.318 18.2443 170.163 19.2745 164.984 21.6284C163.639 19.6566 163.134 19.95 161.953 17.3027C161.728 16.791 161.674 12.7519 157.197 7.35502C163.885 7.66887 163.926 16.9684 166.28 13.4137Z" fill="#582914"/>
<path d="M173.63 9.51786C173.549 9.53832 173.228 10.8005 172.115 10.3844C171.269 10.0637 170.259 6.50899 168.874 6.05868C171.508 2.66773 176.258 1.91722 179.909 0C177.398 2.8383 173.992 5.47191 173.637 9.51786H173.63Z" fill="#6D4B38"/>
<path d="M166.28 13.4137C163.926 16.9752 163.885 7.67569 157.197 7.35502C156.951 7.05481 156.576 6.3043 156.33 6.05868L160.227 4.76234C163.373 6.96611 165.352 9.5315 166.287 13.4137H166.28Z" fill="#764327"/>
<path d="M160.22 4.76234L156.323 6.05868C154.228 3.93678 150.775 2.46304 148.318 0.8665C153.156 1.65113 156.125 1.88993 160.213 4.76234H160.22Z" fill="#846C5E"/>
<path d="M97.9245 322.229V325.04C101.712 327.728 98.293 323.273 99.6579 322.659C102.913 325.054 101.057 327.039 100.088 329.147C96.9827 331.078 96.737 327.257 93.1677 330.014C91.2295 328.137 91.093 327.626 91.871 324.822C93.9116 324.296 96.7984 325.142 94.4644 322.229C96.1023 321.628 96.3207 321.86 97.9245 322.229Z" fill="#AF7F45"/>
<path d="M113.928 329.154C112.147 331.583 108.892 332.47 106.141 331.317C104.599 330.607 104.237 328.902 104.408 327.421C106.899 326.671 111.355 328.943 111.765 324.828C114.87 327.319 113.512 328.137 113.928 329.154Z" fill="#582914"/>
<path d="M87.9741 328.717C85.7766 329.495 83.2787 328.595 81.4839 327.421C81.8183 325.06 80.6308 323.041 84.2956 323.525C86.8071 324.733 86.9845 326.541 87.9741 328.717Z" fill="#FAC287"/>
<path d="M87.9741 328.717C88.2949 329.42 88.6566 330.355 89.2708 330.88C89.0114 330.921 90.3969 331.658 84.514 331.747C83.3606 331.76 82.2073 331.733 81.0539 331.747C80.7468 330.225 81.2859 328.847 81.4839 327.421C83.2787 328.595 85.7766 329.495 87.9741 328.717Z" fill="#76300C"/>
<path d="M111.765 324.828C111.355 328.949 106.906 326.677 104.408 327.421C104.579 325.531 106.257 324.453 107.868 323.962C108.4 324.856 109.608 324.569 108.735 323.532C110.905 323.355 111.062 324.262 111.765 324.828Z" fill="#87521F"/>
<path d="M100.088 329.154C99.9445 329.468 100.142 331.392 99.4395 331.747C99.3167 331.808 97.5696 331.665 96.6278 331.747C96.4845 331.76 96.3411 331.747 96.1978 331.747C94.6759 331.078 94.4712 331.276 93.1677 330.014C96.7438 327.257 96.9827 331.078 100.088 329.147L100.088 329.154Z" fill="#6B1D0E"/>
<path d="M99.6511 322.666C98.2862 323.28 101.705 327.728 97.9176 325.047V322.236C98.409 322.352 98.914 322.079 99.6511 322.666Z" fill="#FAC287"/>
<path d="M94.4644 322.229C96.7916 325.142 93.9116 324.296 91.871 324.822C92.028 323.423 93.2632 322.666 94.4644 322.229Z" fill="#EFCD95"/>
<path d="M107.875 323.962C108.305 323.832 108.387 323.559 108.742 323.532C109.615 324.569 108.407 324.863 107.875 323.962Z" fill="#F1AE72"/>
<path d="M111.765 25.9541C119.504 27.9259 124.739 29.8431 133.399 28.7651C129.093 31.0303 124.534 33.5615 120.855 36.7683C93.2496 37.6552 65.3231 7.7098 46.4392 27.8986L49.4694 28.1169C35.8132 34.4417 19.202 56.7455 7.06775 66.6114C14.5066 54.4121 26.6272 39.4019 36.9188 29.4132C70.8783 -2.58586 76.1538 16.8933 111.765 25.9541Z" fill="#E1C8A7"/>
<path d="M111.765 25.9541C76.1538 16.8933 70.8783 -2.58586 36.9188 29.4132C43.5592 22.9657 54.0009 12.3698 63.5282 11.244C80.3441 9.26541 96.7984 22.8974 111.765 25.5174V25.9541Z" fill="#837565"/>
<path d="M120.848 36.7683C114.106 42.6427 108.591 51.7649 106.141 60.3412C105.063 64.121 104.817 70.5549 103.548 70.937C103.869 62.4289 107.848 53.3273 102.681 45.6379C96.307 36.1406 68.2508 24.4394 57.0379 25.5242C54.4377 25.7767 51.8171 27.0321 49.4694 28.1169L46.4392 27.8986C65.3231 7.7098 93.2427 37.6552 120.855 36.7683H120.848Z" fill="#B49386"/>
<path d="M331.116 70.5004C318.846 60.0273 303.886 36.6045 290.448 28.9766C291.799 25.0807 284.797 21.6079 281.576 21.1917C266.07 19.1926 238.69 40.5208 220.359 38.0578C216.892 34.544 212.886 31.9513 208.675 29.4064C220.079 30.2593 220.448 30.0955 230.309 26.8137C245.358 21.8058 266.575 7.52559 282.443 13.4069C287.554 15.3036 305.142 33.5956 309.482 38.7059C315.331 45.597 327.117 62.6609 331.116 70.4935V70.5004Z" fill="#C2AA99"/>
<path d="M230.309 26.8206C220.448 30.1024 220.079 30.2729 208.675 29.4132C208.19 29.1199 207.023 28.7446 206.942 28.3352C206.921 28.2329 208.225 28.1783 207.808 26.8206C215.199 28.2056 222.891 27.3186 230.302 26.8206H230.309Z" fill="#6B1D0E"/>
<path d="M290.448 28.9834C279.112 22.5495 270.07 26.5681 259.082 31.5761C232.746 43.5911 233.646 49.7248 236.37 73.0999C234.029 59.9386 229.954 47.7871 220.359 38.0646C238.69 40.5276 266.07 19.1995 281.576 21.1985C284.79 21.6147 291.799 25.0944 290.448 28.9834Z" fill="#C2AA99"/>
<path d="M103.111 82.6109C103.077 89.3177 103.411 112.065 107.438 108.128C107.431 108.415 107.445 108.708 107.438 108.995C107.295 114.781 107.397 117.892 108.305 123.698C108.434 124.537 108.585 125.465 108.735 126.291C108.851 126.898 109.035 127.416 109.165 128.024L107.65 125.861L105.705 129.32C103.93 119.516 102.224 111.819 101.808 101.64C101.507 94.1688 102.408 84.2279 102.238 82.1742L103.104 82.6041L103.111 82.6109Z" fill="#3F1710"/>
<path d="M143.779 331.747C142.79 333.145 143.151 335.015 142.913 336.502C142.735 337.594 141.923 339.177 142.483 340.398C141.329 340.412 140.176 340.412 139.023 340.398C139.65 339.559 139.425 338.74 139.453 337.805C139.473 337.239 139.493 336.639 139.453 336.072C139.145 331.91 138.777 331.665 135.126 329.584C135.18 329.604 135.092 328.827 136.204 329.154C136.996 329.386 140.142 331.467 143.773 331.747H143.779Z" fill="#100E0D"/>
<path d="M163.68 338.235C158.616 339.921 159.183 338.194 158.923 338.235C158.527 336.141 159.483 335.615 159.79 334.339C160.077 334.408 160.425 334.612 160.657 334.769C163.332 336.584 164.601 334.026 165.85 331.74C166.103 332.149 171.194 335.724 163.687 338.228L163.68 338.235Z" fill="#76300C"/>
<path d="M120.848 330.014C120.889 330.089 120.753 330.491 121.278 330.444C121.319 331.099 122.93 332.272 121.708 333.903C120.05 333.282 117.982 334.08 116.515 333.473C116.563 332.47 116.481 331.453 116.515 330.444C118.255 329.345 118.617 329.284 120.842 330.014H120.848Z" fill="#FEA344"/>
<path d="M121.715 333.91C121.77 333.93 122.097 334.899 122.582 334.776C122.602 335.765 124.459 337.485 121.715 339.102C117.723 338.263 116.324 337.621 116.522 333.48C117.982 334.087 120.05 333.296 121.715 333.91Z" fill="#76300C"/>
<path d="M155.033 334.776C155.067 336.427 155.429 339.361 153.3 339.532C149.799 339.88 145.984 340.35 142.483 340.398C141.93 339.184 142.742 337.594 142.913 336.502C147.977 341.306 149.614 335.349 150.051 335.206C150.781 334.967 151.512 337.321 155.026 334.776H155.033Z" fill="#9D520C"/>
<path d="M154.166 331.747C154.283 332.518 154.528 332.907 154.596 333.91C154.624 334.333 155.02 334.367 155.026 334.776C151.512 337.328 150.781 334.967 150.051 335.206C149.614 335.349 147.977 341.306 142.913 336.502C143.151 335.015 142.79 333.139 143.779 331.747C145.015 329.993 151.211 328.137 154.16 331.747H154.166Z" fill="#EFCD95"/>
<path d="M195.265 330.88C195.401 330.901 195.558 330.88 195.695 330.88C195.422 334.114 200.151 333.002 198.288 336.721C195.947 339.136 194.48 336.666 191.798 336.939C189.245 335.124 186.495 331.986 190.064 329.584C191.02 332.552 193.818 334.694 195.258 330.88H195.265Z" fill="#963C11"/>
<path d="M195.265 330.88C193.831 334.687 191.033 332.552 190.071 329.584V329.154C190.637 328.833 190.481 328.738 190.501 328.724C193.879 328.021 194.985 330.839 195.258 330.887L195.265 330.88Z" fill="#F2BB5B"/>
<path d="M233.339 118.942C233.333 119.229 233.326 119.522 233.339 119.809C232.206 127.335 230.705 134.799 229.443 142.297C228.596 147.353 226.87 153.077 226.412 158.085C225.873 164.048 224.815 188.59 233.769 188.147C236.172 188.024 241.338 184.339 241.775 184.251C243.952 183.814 244.443 184.694 244.586 184.681C241.222 184.803 241.386 187.362 241.126 189.873C240.826 192.779 241.706 196.129 240.696 198.954C240.382 198.101 241.311 196.416 240.048 195.495C239.659 195.215 233.674 194.26 230.964 192.465C226.801 189.709 225.887 183.732 221.014 179.488C212.115 171.744 202.547 173.907 195.708 183.166C186.208 196.02 198.54 229.67 196.575 253.666C195.674 264.63 190.958 270.143 193.982 289.78C192.501 289.95 193.354 297.182 192.685 302.968C192.187 307.246 187.478 327.701 188.358 329.782C188.392 329.864 190.01 329.181 190.092 329.134V329.563C186.515 331.965 189.266 335.097 191.825 336.918C190.453 337.055 191.122 337.737 190.747 337.785C181.779 338.89 172.859 340.514 163.926 341.681C164.267 338.686 161.906 340.951 163.707 338.222C171.214 335.724 166.123 332.142 165.871 331.733C165.803 331.624 165.925 330.948 165.004 330C161.53 326.432 160.452 331.651 159.81 334.326C159.51 335.595 158.548 336.127 158.944 338.222C157.49 338.467 156.03 339.252 153.32 339.518C155.45 339.347 155.088 336.414 155.054 334.762C155.047 334.36 154.651 334.319 154.624 333.896C155.975 335.104 160.93 329.488 161.114 328.492C161.387 326.991 156.862 308.59 155.49 298.431C154.194 288.831 154.207 279.054 152.46 269.454C155.531 268.103 152.31 254.444 152.03 247.614C151.307 229.943 153.061 223.577 149.437 201.983C149.396 201.758 150.14 200.96 149.437 197.439C148.427 192.363 142.646 183.377 138.402 180.355C133.74 177.032 124.479 175.422 119.368 178.622C116.733 180.273 112.625 187.492 112.229 187.921C107.964 192.52 103.855 194.362 103.575 194.84C102.422 196.832 103.063 200.666 102.709 202.843C102.668 203.109 100.047 207.578 101.63 207.598C105.525 205.001 109.419 202.406 113.314 199.814L113.532 200.68C112.236 201.956 101.466 212.668 101.849 213.439C110.96 211.767 131.515 203.041 111.151 212.791C106.933 216.318 98.3612 218.802 98.8185 224.471C97.1328 225.815 99.4054 222.547 97.085 222.738C97.8699 210.853 99.8626 199.015 99.6784 187.055L101.412 186.837C103.255 187.089 104.278 187.205 106.169 186.837C106.496 186.775 106.619 187.109 106.817 187.266C116.958 173.989 109.328 147.38 106.599 131.906C106.489 131.285 106.278 130.801 106.169 130.173C106.094 129.77 105.807 129.709 105.739 129.306L107.684 125.847L109.199 128.01C114.051 150.621 125.08 160.616 146.837 167.371C147.663 167.63 148.209 167.985 149 167.371C150.966 178.97 153.348 190.548 155.061 202.188C156.924 214.878 157.729 227.808 159.817 240.464C160.322 243.514 164.874 267.018 166.089 267.714C166.171 267.762 167.099 266.671 168.034 267.496C168.184 267.626 167.884 268.717 168.034 269.011L165.871 268.363C168.573 272.252 164.021 282.315 167.816 285.017C171.249 287.46 178.421 284.13 181.226 281.558C182.81 280.105 182.236 279.491 182.305 279.395C182.325 279.368 182.407 279.463 182.735 278.965C183.567 277.703 184.864 276.837 185.328 274.858C187.007 267.742 180.803 241.126 180.134 226.634C179.568 214.353 180.769 201.86 183.594 189.873C185.26 182.804 188.358 174.658 191.381 168.033C192.398 165.802 194.76 163.557 194.841 163.277C195.442 161.278 192.821 162.288 196.138 158.303C198.281 155.731 203.925 151.406 206.089 148.356C205.495 149.911 204.376 152.709 203.495 153.978C203.461 154.026 203.147 154.121 202.628 154.844C200.26 158.119 190.549 168.469 194.623 168.251C195.196 168.224 198.042 166.361 198.732 166.088C208.457 162.213 215.063 157.812 221.226 149.222C224.754 144.303 226.958 139.902 228.583 134.082C229.21 131.824 229.449 129.456 229.879 127.164C230.528 123.712 231.312 120.293 231.613 116.786L233.346 118.949L233.339 118.942Z" fill="#100E0D"/>
<path d="M186.399 222.315C189.498 231.499 191.525 241.331 188.563 250.862C186.604 251.258 185.307 224.696 186.399 222.315Z" fill="#2D2523"/>
<path d="M182.073 321.362C188.283 322.625 186.693 323.245 185.969 329.147C177.712 329.175 179.315 327.946 182.073 321.362Z" fill="#582914"/>
<path d="M177.527 323.962L171.904 322.666C172.136 321.199 172.846 316.525 174.286 317.044C178.435 318.968 178.244 319.404 177.527 323.962Z" fill="#764327"/>
<path d="M177.527 323.962C177.227 325.893 177.234 327.578 176.449 327.858C168.833 325.108 171.535 324.999 171.904 322.666L177.527 323.962Z" fill="#290F07"/>
<path d="M164.984 330.014C163.018 332.647 162.199 330.867 160.657 334.769C160.425 334.612 160.077 334.408 159.79 334.339C160.425 331.672 161.51 326.445 164.984 330.014Z" fill="#FAC287"/>
<path d="M165.843 331.747C164.595 334.032 163.325 336.591 160.65 334.776C162.192 330.873 163.011 332.654 164.977 330.021C165.898 330.969 165.775 331.644 165.843 331.754V331.747Z" fill="#C0945A"/>
<path d="M237.666 328.717C237.734 329.522 238.137 329.802 238.096 330.88C234.827 334.913 230.5 334.53 225.982 336.072C226.016 334.565 227.559 334.96 225.982 333.91C227.095 333.555 226.801 333.5 226.849 333.48C227.402 333.214 227.579 333.466 228.146 332.613C229.313 332.061 229.572 332.238 229.879 330.88C235.08 329.727 237.707 329.768 235.503 323.962L236.799 323.532C237.059 325.245 237.516 327.012 237.666 328.724V328.717Z" fill="#764327"/>
<path d="M235.503 323.962C237.707 329.768 235.08 329.734 229.879 330.88C230.999 325.865 226.706 322.563 234.854 321.799C235.093 321.901 235.257 323.307 235.503 323.962Z" fill="#F8E8C3"/>
<path d="M229.442 322.666C229.019 325.988 229.825 329.748 228.146 332.613C227.579 333.466 227.402 333.207 226.849 333.48C227.941 331.508 226.876 331.419 226.849 331.317C226.092 328.253 223.996 325.497 220.789 324.399C220.843 324.392 221.069 323.6 221.437 323.532C223.56 323.13 227.313 323.191 229.442 322.666Z" fill="#281B13"/>
<path d="M242.853 223.618C242.3 226.545 245.91 234.405 245.883 236.377C245.863 237.789 245.132 237.714 245.016 238.322C244.805 239.413 243.228 243.064 243.283 243.725C243.344 244.483 249.527 254.485 244.58 253.025C244.532 252.711 245.201 252.499 245.01 251.51C243.46 243.452 242.307 255.542 241.549 262.324C241.235 262.775 240.751 261.042 240.683 260.81C239.768 257.746 237.973 247.014 241.113 252.377C241.522 251.005 242.307 249.545 241.979 248.051C241.652 246.564 234.049 240.082 241.761 246.107C243.269 245.888 241.713 238.697 241.543 238.322C247.036 238.874 242.157 235.033 240.676 233.129C241.365 232.277 240.963 231.533 241.106 230.967C241.317 230.162 244.02 226.716 241.536 222.752C242.6 222.568 242.771 223.571 242.832 223.618H242.853Z" fill="#2D2523"/>
<path d="M193.968 289.793C194.091 290.578 197.271 293.061 196.561 305.145C196.466 306.721 193.456 324.917 193.101 325.906C192.719 326.978 191.354 328.083 190.508 328.717C190.48 328.738 190.644 328.833 190.078 329.147C189.996 329.195 188.385 329.884 188.344 329.795C187.464 327.708 192.173 307.253 192.671 302.982C193.34 297.189 192.494 289.964 193.968 289.793Z" fill="#100E0D"/>
<path d="M229.442 322.666C227.313 323.191 223.56 323.13 221.437 323.532C221.069 323.6 220.843 324.385 220.789 324.399C219.936 324.555 219.062 324.665 218.195 324.828C216.25 325.197 212.913 324.555 211.705 326.125C210.006 324.392 207.269 324.637 205.215 325.695C204.874 324.453 203.652 321.86 203.918 320.721C204.096 319.964 214.735 311.654 215.814 311.422C219.615 310.603 234.588 312.752 234.199 321.151C232.602 321.506 231.005 322.277 229.442 322.666Z" fill="#543934"/>
<path d="M240.69 198.961C241.85 202.092 243.89 203.007 245.016 205.879C241.713 212.136 238.71 210.635 242.423 217.56H240.69C239.441 213.2 237.905 211.365 235.066 208.042C239.652 208.301 236.663 213.029 241.556 206.097C241.44 205.265 232.377 200.052 230.958 198.961C229.442 198.51 228.978 200.284 227.716 201.553C220.181 209.12 209.801 225.474 206.082 235.504C201.325 248.331 200.41 259.431 200.021 272.92C199.823 279.736 199.4 286.429 200.021 293.245C198.957 295.47 197.448 295.599 203.263 298.867C217.704 306.98 226.283 298.206 232.466 285.89C232.479 285.863 232.609 286.061 232.896 285.461C236.069 286.279 232.152 292.318 235.059 290.434C233.817 286.914 238.908 279.511 236.356 276.809C237.079 274.483 239.25 267.858 239.386 266.213C239.809 261.014 236.629 259.93 239.816 260.81C241.14 265.477 238.84 270.314 238.082 274.865C237.837 276.366 238.335 278.563 238.082 280.057C237.229 285.119 234.547 291.499 234.186 301.249C233.783 312.186 235.708 316.429 236.779 323.525L235.482 323.955C235.237 323.3 235.073 321.895 234.834 321.792C226.685 322.556 230.978 325.859 229.859 330.873C229.558 332.224 229.299 332.047 228.125 332.606C229.804 329.741 228.999 325.981 229.422 322.659C230.992 322.27 232.582 321.499 234.179 321.144C234.568 312.745 219.594 310.589 215.793 311.415C214.708 311.647 204.075 319.957 203.898 320.714C203.632 321.854 204.853 324.446 205.194 325.688C201.571 327.558 201.837 331.392 201.734 331.747C201.352 333.064 198.793 333.712 202.164 336.939C197.353 335.097 202.096 331.037 200.649 330.021C194.343 329.584 195.954 330.887 195.674 330.887C195.538 330.887 195.374 330.908 195.244 330.887C194.971 330.839 193.866 328.021 190.487 328.724C191.334 328.083 192.705 326.984 193.081 325.913C193.436 324.924 196.452 306.727 196.541 305.151C197.251 293.068 194.063 290.585 193.947 289.8C190.931 270.157 195.647 264.644 196.541 253.687C198.506 229.691 186.181 196.041 195.674 183.186C202.512 173.928 212.087 171.765 220.98 179.509C225.853 183.753 226.767 189.729 230.93 192.486C233.64 194.28 239.632 195.229 240.014 195.515C241.276 196.436 240.348 198.128 240.662 198.974L240.69 198.961Z" fill="#2D2523"/>
<path d="M217.977 199.827L219.055 200.046C219.424 202.345 202.738 219.231 198.936 220.589C197.626 219.92 212.115 198.162 217.97 199.827H217.977Z" fill="#543934"/>
<path d="M232.903 285.467C234.322 282.506 235.387 279.961 236.363 276.816C238.915 279.518 233.824 286.921 235.066 290.441C232.159 292.324 236.076 286.286 232.903 285.467Z" fill="#2D2523"/>
<path d="M241.556 238.322C241.72 238.697 243.283 245.888 241.775 246.107C234.063 240.089 241.665 246.564 241.993 248.051C242.321 249.545 241.536 251.005 241.126 252.377C237.987 247.021 239.775 257.746 240.696 260.81C240.417 260.776 240.055 260.871 239.83 260.81C236.642 259.93 239.823 261.021 239.4 266.213C239.263 267.858 237.1 274.483 236.37 276.809C235.387 279.955 234.329 282.5 232.909 285.461C232.623 286.068 232.493 285.863 232.479 285.89C215.759 283.066 211.664 265.524 213.445 250.855C214.626 241.153 222.14 230.366 228.153 222.738C230.76 226.252 240.567 236.043 241.563 238.308L241.556 238.322Z" fill="#AC9D92"/>
<path d="M235.066 208.042C237.905 211.365 239.441 213.2 240.69 217.56C241.065 218.856 241.795 221.074 241.119 222.315C240.833 222.015 234.506 218.699 233.763 218.419C230.064 217.055 232.302 217.969 230.302 220.152C229.354 221.189 228.978 221.681 228.139 222.745C222.126 230.366 214.606 241.153 213.432 250.862C210.77 251.456 208.62 262.85 207.372 268.165C204.56 268.301 202.574 271.624 200.015 272.92C200.404 259.431 201.318 248.331 206.075 235.504C209.794 225.474 220.168 209.12 227.709 201.553C230.323 203.266 233.039 205.668 235.066 208.042Z" fill="#543934"/>
<path d="M213.439 250.862C211.657 265.531 215.752 283.073 232.473 285.897C226.289 298.212 217.711 306.98 203.27 298.874C197.455 295.606 198.964 295.47 200.028 293.252C206.252 280.255 204.492 280.548 207.385 268.165C208.627 262.85 210.784 251.462 213.445 250.862H213.439Z" fill="#5E4841"/>
<path d="M207.378 268.165C204.485 280.548 206.252 280.248 200.021 293.252C199.4 286.429 199.823 279.743 200.021 272.927C202.581 271.624 204.56 268.308 207.378 268.172V268.165Z" fill="#543934"/>
<path d="M235.066 208.042C233.039 205.668 230.33 203.266 227.709 201.553C228.972 200.284 229.443 198.51 230.951 198.961C232.37 200.052 241.433 205.265 241.549 206.097C236.656 213.029 239.645 208.308 235.059 208.042H235.066Z" fill="#543934"/>
<path d="M240.69 233.129C242.164 235.033 247.05 238.867 241.556 238.322C240.56 236.056 230.753 226.266 228.146 222.752C228.985 221.688 229.361 221.196 230.309 220.159C233.51 224.676 237.304 228.77 240.69 233.136V233.129Z" fill="#846C5E"/>
<path d="M233.769 218.426C234.773 222.418 239.113 226.661 241.126 230.967C240.983 231.533 241.386 232.277 240.696 233.129C237.311 228.763 233.517 224.676 230.316 220.152C232.316 217.969 230.084 217.055 233.776 218.419L233.769 218.426Z" fill="#C2AA99"/>
<path d="M241.126 222.315C241.126 222.315 241.242 222.233 241.556 222.745C244.034 226.716 241.331 230.155 241.126 230.96C239.113 226.655 234.779 222.404 233.769 218.419C234.513 218.692 240.84 222.008 241.126 222.315Z" fill="#9E756A"/>
<path d="M73.2601 218.856C74.666 223.114 75.1028 221.565 75.4236 222.097C76.1333 223.298 74.1337 223.182 74.1269 223.393C73.9699 227.078 93.8433 249.054 97.7061 253.018L98.3544 251.94C95.0172 240.867 96.3479 233.491 97.0577 222.745C99.3713 222.554 97.1055 225.822 98.7912 224.478C123.572 215.063 108.161 217.805 99.8695 230.967C106.094 230.503 111.171 226.771 116.958 224.908C116.228 225.522 115.546 226.061 114.795 226.641C112.488 228.422 94.4098 238.554 99.0027 240.048C102.101 239.038 105.202 238.028 108.305 237.018C106.094 240.137 102.893 242.627 101.815 246.536C99.9377 253.346 102.354 250.425 102.681 250.432C105.159 250.453 107.568 250.746 110.038 250.862C106.831 251.729 101.589 255.583 104.633 255.618C116.037 250.146 109.588 254.301 107.445 258.858C106.626 260.605 107.479 260.714 107.445 260.803C106.564 263.361 105.602 261.826 105.711 264.044C105.746 264.699 109.397 277.232 110.905 274.64C110.291 275.997 108.789 277.594 109.171 278.317C109.308 278.576 112.379 277.826 113.928 277.669C114.938 277.567 115.259 276.912 115.662 277.451L110.468 282.643C111.069 283.393 120.855 281.824 114.795 284.587C114.57 284.69 111.465 283.775 111.765 287.398C111.819 288.06 114.843 293.041 116.092 299.939C117.866 309.723 117.177 326.8 117.825 328.056C117.982 328.369 119.681 328.042 120.855 330C118.63 329.277 118.269 329.331 116.528 330.43C116.283 330.587 115.955 330.792 115.662 330.86C115.43 329.864 114.16 329.686 113.928 329.127C113.512 328.11 114.87 327.291 111.765 324.801C111.062 324.235 110.905 323.327 108.735 323.505C108.38 323.532 108.298 323.805 107.868 323.935C106.251 324.426 104.579 325.504 104.408 327.394C104.237 328.867 104.592 330.573 106.141 331.29L105.711 332.586C101.61 332.327 97.6447 333.323 96.6278 331.719C97.5696 331.638 99.3167 331.781 99.4395 331.719C100.142 331.365 99.9445 329.441 100.088 329.127C101.05 327.019 102.906 325.033 99.6579 322.638C98.9277 322.051 98.4227 322.318 97.9245 322.208C96.3207 321.84 96.1023 321.608 94.4643 322.208C93.2632 322.645 92.028 323.402 91.871 324.801C91.093 327.605 91.2295 328.117 93.1677 329.993C94.4712 331.249 94.6759 331.058 96.1978 331.726C89.1821 331.856 93.27 331.324 93.1677 331.078C92.5944 329.632 90.4992 330.655 89.2708 330.86C88.6566 330.334 88.2949 329.4 87.9741 328.697C86.9845 326.52 86.8071 324.712 84.2956 323.505C80.6308 323.02 81.8183 325.033 81.4839 327.401C81.2859 328.827 80.74 330.205 81.0539 331.726H80.6239C80.7331 330.751 79.9619 329.925 80.194 328.267C81.0334 322.161 83.9475 307.533 84.0909 303.616C84.2137 300.28 83.5108 296.193 83.2241 292.802C81.1631 268.404 69.1722 236.479 68.0802 209.973C69.8091 212.929 71.5403 215.886 73.2738 218.842L73.2601 218.856Z" fill="#281B23"/>
<path d="M83.6473 181.228C87.5851 182.634 91.4888 184.524 95.5426 185.554C98.9686 186.42 100.832 185.936 101.166 185.984C101.528 186.038 101.337 186.843 101.385 186.85L99.6511 187.069C99.8285 199.029 97.8357 210.86 97.0577 222.752C96.3479 233.498 95.0172 240.873 98.3544 251.947L97.7061 253.025C93.8501 249.054 73.9699 227.078 74.1269 223.4C74.1337 223.189 76.1333 223.305 75.4236 222.104C75.1028 221.565 74.666 223.114 73.2601 218.863C72.2705 215.861 71.1377 212.791 70.23 209.782L71.0967 210C69.8546 202.427 69.2199 194.847 71.0967 187.294C72.6118 195.89 72.837 204.678 75.4236 213.029L76.2903 212.6C75.4167 208.444 75.7307 182.013 74.9936 180.594C74.666 179.952 72.4275 183.364 73.6969 177.783C76.9045 179.277 80.3783 180.075 83.6473 181.242V181.228Z" fill="url(#paint0_linear_3126_66455)"/>
<path d="M71.0967 187.287C69.2199 194.84 69.8546 202.427 71.0967 209.993L70.23 209.775C68.6876 204.651 67.7867 203.839 67.1998 195.931C67.8004 192.029 68.9469 187.689 69.3633 183.821C71.7041 182.729 70.8374 185.84 71.0967 187.28V187.287Z" fill="#80583E"/>
<path d="M69.3701 183.821C68.9538 187.689 67.8072 192.029 67.2067 195.931C66.688 188.986 67.234 182.408 68.9401 175.606C69.0493 175.668 69.2609 175.545 69.3701 175.606C69.7113 178.308 69.6635 181.133 69.3701 183.821Z" fill="#2D2523"/>
<path d="M73.6969 177.769C72.4275 183.35 74.666 179.945 74.9936 180.58C75.7307 182.006 75.4167 208.431 76.2903 212.586L75.4236 213.016C72.837 204.665 72.6118 195.877 71.0967 187.28C70.8442 185.84 71.7109 182.729 69.3633 183.821C69.6567 181.126 69.7045 178.308 69.3633 175.606C69.3974 175.627 69.4315 174.856 70.0116 175.176C71.1308 175.784 73.4853 177.673 73.6901 177.769H73.6969Z" fill="#60534F"/>
<path d="M126.909 333.473C124.773 333.623 122.507 331.542 122.582 334.769C122.097 334.899 121.777 333.923 121.715 333.903C122.937 332.272 121.326 331.099 121.285 330.444C121.251 329.87 121.292 329.29 121.285 328.711C131.543 330.566 126.82 330.928 126.909 333.466L126.909 333.473Z" fill="#0A140F"/>
<path d="M218.195 324.828C216.462 327.51 216.619 330.007 216.462 330.45C216.278 330.983 215.657 332.927 215.595 333.043C215.138 333.937 214.824 334.032 213.862 333.91C213.869 333.814 213.159 333.787 212.995 332.177C212.947 331.733 213.466 332.081 212.995 330.444C212.627 329.168 212.763 327.21 211.698 326.118C212.906 324.549 216.244 325.183 218.189 324.822L218.195 324.828Z" fill="#2D2523"/>
<path d="M139.453 337.799C139.418 338.74 139.644 339.552 139.023 340.391C135.692 340.357 132.382 339.866 129.072 339.525C128.71 338.297 127.823 336.652 127.776 336.495C127.885 336.025 128.287 335.991 128.205 335.199C130 336.987 131.051 335.356 131.884 335.629C132.293 335.765 132.532 339.402 139.453 337.792V337.799Z" fill="#9D520C"/>
<path d="M135.126 329.584C138.77 331.665 139.145 331.91 139.453 336.072C131.174 337.689 134.013 326.541 131.884 333.043L128.642 331.747C129.707 329.809 129.884 329.905 132.102 329.154C132.389 329.277 134.402 329.352 135.133 329.584H135.126Z" fill="#DDC275"/>
<path d="M139.453 336.072C139.493 336.639 139.473 337.239 139.453 337.805C132.525 339.416 132.287 335.779 131.884 335.643C131.051 335.37 130 336.994 128.205 335.213C128.083 333.971 127.271 334.244 128.635 331.754L131.877 333.05C134.013 326.548 131.167 337.696 139.446 336.079L139.453 336.072Z" fill="#DDC275"/>
<path d="M114.795 284.601C112.331 289.022 119.108 284.758 114.365 291.308C115.901 294.132 116.508 289.084 119.122 289.363C118.89 291.499 119.211 294.378 119.122 296.718C119.122 296.773 118.262 297.053 118.255 297.366C118.153 304.237 121.067 310.903 121.715 317.692C122.063 321.376 121.237 325.115 121.285 328.724C121.292 329.297 121.251 329.884 121.285 330.457C120.76 330.505 120.896 330.096 120.855 330.027C119.681 328.069 117.989 328.39 117.825 328.083C117.184 326.827 117.866 309.75 116.092 299.966C114.843 293.068 111.819 288.081 111.765 287.426C111.465 283.803 114.57 284.717 114.795 284.615V284.601Z" fill="#2D2523"/>
<path d="M153.3 299.304C153.934 298.908 154.692 298.492 155.463 298.438C156.835 308.597 161.367 326.991 161.087 328.499C160.902 329.495 155.948 335.11 154.596 333.903C154.521 332.907 154.276 332.511 154.167 331.74C153.341 326.227 152.89 322.87 147.458 320.059C140.524 316.47 133.761 317.794 127.776 322.44C127.455 323.689 130.901 328.636 132.102 329.147C129.884 329.898 129.707 329.802 128.642 331.74C127.277 334.23 128.083 333.957 128.212 335.199C128.294 335.991 127.885 336.031 127.782 336.495C127.496 335.622 126.95 334.374 126.916 333.466C126.827 330.921 131.55 330.566 121.292 328.711C121.251 325.108 122.077 321.369 121.722 317.678C121.074 310.889 118.16 304.217 118.262 297.353C118.262 297.039 119.122 296.759 119.129 296.705C132.068 309.525 138.606 308.447 153.307 299.297L153.3 299.304Z" fill="#392127"/>
<path d="M149.403 201.99C133.658 184.421 134.068 178.874 110.68 190.746C110.127 191.667 110.707 193.496 110.461 193.987C109.888 195.16 103.957 197.166 115.655 193.987L115.225 195.065C111.772 196.566 106.496 200.885 102.681 202.85C103.036 200.673 102.395 196.839 103.548 194.847C103.828 194.369 107.936 192.527 112.202 187.928C112.597 187.498 116.706 180.28 119.34 178.629C124.459 175.429 133.72 177.039 138.374 180.362C142.619 183.384 148.393 192.37 149.41 197.446C150.113 200.967 149.369 201.765 149.41 201.99H149.403Z" fill="#281B23"/>
<path d="M142.483 261.676C145.158 274.53 144.073 288.777 153.3 299.304C138.599 308.447 132.061 309.532 119.122 296.711C119.211 294.371 118.89 291.499 119.122 289.356C119.668 284.369 120.862 279.293 122.152 274.435C119.504 275.151 113.764 276.134 113.935 277.676C112.386 277.833 109.315 278.583 109.178 278.324C108.789 277.601 110.298 276.004 110.912 274.646C111.772 272.736 112.761 270.996 113.505 269.024C115.129 264.76 116.392 260.714 117.402 256.266C117.491 254.076 116.262 255.679 114.809 256.914L107.452 260.81C107.486 260.721 106.633 260.605 107.452 258.865C109.595 254.308 116.044 250.152 104.64 255.624C101.603 255.59 106.837 251.735 110.045 250.869C111.512 250.937 113.021 251.23 113.075 251.087C113.355 250.303 112.133 250.439 112.208 250.221C112.57 249.225 115.505 245.649 116.965 243.084C117.559 242.033 118.965 241.351 117.614 241.351L101.821 246.543C102.9 242.634 106.094 240.143 108.312 237.025C110.536 233.894 115.259 228.531 114.802 226.648C115.553 226.068 116.235 225.529 116.965 224.915C121.743 220.923 124.909 215.356 126.049 216.045C133.037 230.673 139.173 245.752 142.489 261.676H142.483Z" fill="#723F32"/>
<path d="M150.27 259.95C144.114 257.153 149.089 262.399 144.864 262.543C143.827 260.98 147.424 257.057 142.483 261.676C139.166 245.752 133.03 230.673 126.042 216.045C124.895 215.349 121.729 220.923 116.958 224.915C111.171 226.777 106.094 230.51 99.8695 230.973C108.161 217.812 123.565 215.069 98.7912 224.485C98.3339 218.815 106.906 216.332 111.123 212.804C131.488 203.054 110.932 211.781 101.821 213.452C101.439 212.675 112.202 201.97 113.505 200.694C115.17 199.063 117.04 197.583 118.699 195.938C133.672 212.954 145.021 238.049 150.283 259.95H150.27Z" fill="#593B25"/>
<path d="M119.122 289.356C116.508 289.077 115.894 294.132 114.365 291.301C119.108 284.758 112.338 289.015 114.795 284.594C120.855 281.831 111.069 283.4 110.468 282.65L115.662 277.457C115.266 276.918 114.945 277.573 113.928 277.676C113.764 276.127 119.504 275.151 122.145 274.435C120.855 279.293 119.661 284.369 119.115 289.356H119.122Z" fill="#543934"/>
<path d="M108.305 237.025C105.206 238.035 102.106 239.045 99.0028 240.055C94.4098 238.56 112.488 228.429 114.795 226.648C115.252 228.538 110.53 233.894 108.305 237.025Z" fill="#543934"/>
<path d="M114.795 256.921C107.254 263.3 108.018 260.905 113.498 269.031C112.748 271.003 111.765 272.743 110.905 274.653C109.397 277.239 105.746 264.712 105.711 264.057C105.602 261.84 106.558 263.375 107.445 260.817L114.802 256.921H114.795Z" fill="#2D2523"/>
<path d="M116.958 243.077C115.498 245.643 112.557 249.218 112.202 250.214C112.12 250.432 113.341 250.296 113.068 251.08C113.021 251.224 111.506 250.93 110.038 250.862C107.568 250.746 105.159 250.453 102.681 250.432C104.169 248.065 112.946 244.728 116.958 243.077Z" fill="#543934"/>
<path d="M116.958 243.077C112.946 244.728 104.169 248.065 102.681 250.432C102.354 250.432 99.9377 253.346 101.815 246.536L117.607 241.344C118.958 241.344 117.552 242.026 116.958 243.077Z" fill="#2D2523"/>
<path d="M150.27 259.95C151.013 263.041 151.867 266.35 152.433 269.468C154.173 279.068 154.166 288.852 155.463 298.444C154.692 298.499 153.934 298.915 153.3 299.311C144.08 288.777 145.165 274.53 142.483 261.683C147.424 257.064 143.827 260.98 144.864 262.55C149.096 262.406 144.114 257.159 150.27 259.957V259.95Z" fill="#543934"/>
<path d="M118.692 195.931C117.034 197.576 115.164 199.056 113.498 200.687L113.28 199.82C109.385 202.418 105.491 205.013 101.596 207.605C100.02 207.585 102.633 203.116 102.674 202.85C106.489 200.885 111.765 196.559 115.218 195.065C115.86 194.785 116.501 194.11 117.163 193.769C118.924 195.167 118.59 195.829 118.678 195.931H118.692Z" fill="#3C2A27"/>
<path d="M113.498 269.031C108.018 260.905 107.261 263.3 114.795 256.921C116.256 255.686 117.477 254.082 117.388 256.273C116.378 260.721 115.116 264.767 113.492 269.031H113.498Z" fill="#543934"/>
<path d="M154.166 331.747C151.211 328.137 145.021 329.993 143.786 331.747C140.155 331.467 137.009 329.379 136.218 329.154C135.098 328.827 135.194 329.604 135.139 329.584C134.409 329.352 132.396 329.27 132.109 329.154C130.908 328.642 127.462 323.703 127.782 322.447C133.774 317.808 140.538 316.477 147.465 320.066C152.89 322.877 153.348 326.227 154.173 331.747H154.166Z" fill="#543934"/>
<path d="M149.403 201.99C153.034 223.584 151.273 229.95 151.996 247.621C152.276 254.451 155.497 268.11 152.426 269.461C151.86 266.343 151.007 263.041 150.263 259.943C145.001 238.042 133.652 212.948 118.678 195.931C118.59 195.829 118.924 195.167 117.163 193.769C116.501 194.11 115.86 194.785 115.218 195.065L115.648 193.987C103.951 197.166 109.881 195.16 110.455 193.987C110.693 193.489 110.12 191.667 110.673 190.746C134.061 178.874 133.652 184.421 149.396 201.99H149.403Z" fill="#2D2523"/>
<path d="M131.017 198.094C135.208 202.365 139.541 206.671 143.349 211.283C146.823 215.499 155.709 226.313 145.294 217.123C140.319 212.729 133.74 204.248 131.017 198.094Z" fill="#543934"/>
<path d="M225.982 333.91C227.559 334.96 226.016 334.565 225.982 336.072C220.127 336.7 219.253 338.597 213.869 335.206C213.179 334.285 213.828 334.428 213.869 333.91C214.831 334.032 215.145 333.937 215.602 333.043C218.216 335.82 221.123 333.466 221.444 333.473C222.099 333.5 221.314 335.411 225.989 333.903L225.982 333.91Z" fill="#87521F"/>
<path d="M226.849 331.31C226.876 331.412 227.941 331.501 226.849 333.473C226.808 333.493 227.095 333.548 225.982 333.903C221.307 335.404 222.092 333.493 221.437 333.473C221.116 333.459 218.216 335.82 215.595 333.043C215.657 332.92 216.278 330.983 216.462 330.45C222.495 333.425 221.751 331.29 222.304 331.317C224.617 331.426 225.402 333.07 226.849 331.317V331.31Z" fill="#A96D1B"/>
<path d="M220.789 324.392C223.996 325.497 226.092 328.247 226.849 331.31C225.409 333.064 224.624 331.419 222.304 331.31C221.751 331.283 222.495 333.418 216.462 330.444C216.612 330 216.462 327.503 218.195 324.822C219.062 324.658 219.936 324.542 220.789 324.392Z" fill="#F6F2CD"/>
<path d="M213.002 332.177C213.166 333.78 213.875 333.807 213.869 333.91C213.828 334.428 213.179 334.292 213.869 335.206C213.37 338.297 203.925 337.601 202.185 336.939C198.813 333.712 201.373 333.07 201.755 331.747C204.669 333.371 204.765 334.251 204.997 334.339C205.809 334.646 207.044 333.466 207.16 333.473C209.255 333.671 209.337 335.977 213.002 332.177Z" fill="#9D520C"/>
<path d="M211.705 326.125C212.77 327.21 212.633 329.175 213.002 330.45C208.58 325.258 208.034 335.902 205.215 325.695C207.269 324.637 210.006 324.392 211.705 326.125Z" fill="#EFCD95"/>
<path d="M213.002 330.45C213.473 332.088 212.954 331.733 213.002 332.183C209.337 335.984 209.262 333.684 207.16 333.48C207.044 333.466 205.809 334.653 204.997 334.346C204.765 334.258 204.669 333.371 201.755 331.754C201.857 331.406 201.591 327.564 205.215 325.695C208.034 335.902 208.58 325.258 213.002 330.45Z" fill="#F2BB5B"/>
<path d="M203.7 328.717C205.297 328.369 205.099 332.409 203.052 329.795L203.7 328.717Z" fill="#EFCD95"/>
<path d="M161.953 17.3027C163.134 19.95 163.632 19.6566 164.984 21.6284C164.485 21.8535 161.66 22.2288 160.008 22.9247C149.683 27.2777 156.698 25.1285 164.765 25.5174C166.355 25.5925 167.857 29.0448 177.746 23.7844C178.039 23.6275 180.407 20.6186 181.643 20.3252C182.161 20.2024 189.273 22.7473 189.211 19.8954C195.756 21.3759 202.294 25.7835 207.815 26.8137C208.238 28.1715 206.928 28.2261 206.948 28.3284C207.03 28.7446 208.191 29.113 208.682 29.4064C212.893 31.9513 216.892 34.544 220.366 38.0578C229.961 47.7803 234.035 59.9318 236.376 73.093C236.567 74.1506 236.656 75.0853 236.806 76.1224L233.346 76.3407C232.875 82.6109 234.602 95.199 231.613 96.8843C230.958 87.1344 229.32 76.0132 225.989 66.8229C226.303 63.5274 227.839 71.8854 230.316 74.6077C229.886 62.197 220.837 50.0591 210.845 43.25C212.272 42.5608 207.242 39.3473 205.87 38.4944C183.949 24.9102 148.113 22.8224 128.642 41.7353L129.509 43.25C129.461 43.2841 129.345 43.5843 128.642 44.1165C123.292 48.1488 114.386 56.8342 112.632 63.3637C112.604 63.4592 113.519 64.1278 113.498 64.2302C110.762 75.4742 107.841 96.5772 107.438 108.128C103.411 112.065 103.077 89.3177 103.111 82.6109C103.132 78.7219 103.398 74.8192 103.541 70.9302C104.811 70.5481 105.056 64.1142 106.135 60.3343C108.585 51.758 114.106 42.6359 120.842 36.7614C124.52 33.5547 129.079 31.0303 133.385 28.7583C124.732 29.8363 119.49 27.919 111.751 25.9472V25.5174C116.788 26.3976 133.051 26.7523 137.494 25.5174C138.552 25.224 150.352 17.0093 157.825 18.1624C160.288 17.2754 151.041 11.3941 149.608 10.8074C154.617 11.4624 158.166 14.328 161.94 17.2959L161.953 17.3027Z" fill="#883D25"/>
<path d="M210.838 43.2568C208.975 41.9877 206.737 41.2713 204.778 40.2274C192.494 33.6912 182.537 31.0371 168.437 31.5761C156.18 32.0469 139.548 36.086 129.502 43.2568L128.635 41.7421C148.099 22.8224 183.943 24.917 205.863 38.5013C207.235 39.3541 212.265 42.5677 210.838 43.2568Z" fill="#874F3C"/>
<path d="M168.444 31.5761C168.655 34.8101 170.58 33.4182 172.552 34.1688C174.408 34.8715 175.2 35.8676 175.364 35.9018L175.582 37.1981C162.356 35.7994 144.005 38.3648 134.266 48.0123C131.468 44.7783 129.707 47.3437 128.642 44.1165C129.338 43.5911 129.454 43.2841 129.509 43.25C139.555 36.0792 156.187 32.0469 168.444 31.5693V31.5761Z" fill="#C08866"/>
<path d="M236.8 76.1292C237.468 80.5982 237.646 78.9743 237.666 79.1585C238.867 89.4542 236.649 93.9368 237.666 99.9204C236.888 102.752 233.38 117.619 233.339 118.949L231.606 116.786C232.179 110.059 232.056 103.618 231.606 96.8911C234.595 95.199 232.868 82.6177 233.339 76.3475L236.8 76.1292Z" fill="#54150A"/>
<path d="M174.934 221.456C175.541 221.831 178.688 223.653 178.831 223.837C179.281 224.424 178.817 227.071 180.128 226.648C180.789 241.139 187 267.755 185.321 274.872C184.857 276.85 183.56 277.717 182.728 278.979C179.698 277.123 180.093 278.829 179.486 278.549C175.978 276.912 174.019 270.805 172.777 267.305C167.87 253.482 165.079 234.733 163.257 220.159L174.941 221.456H174.934Z" fill="#837565"/>
<path d="M160.22 147.926L161.087 149.222C155.879 151.412 151.873 158.501 149.403 163.277L150.051 163.925C153.457 161.012 157.019 158.781 161.087 157.007C159.974 160.33 150.215 168.783 151.136 171.929C152.14 175.34 154.979 169.172 164.117 167.821C164.663 167.739 165.284 167.869 165.85 167.821L166.717 169.554C165.318 169.65 161.701 170.066 160.657 170.421C153.423 172.85 157.183 176.957 154.166 179.29C156.623 179.543 159.913 177.421 160.227 177.346C161.203 177.094 164.151 176.439 163.687 177.776C161.387 178.219 157.094 179.7 158.93 181.672C158.978 181.719 158.903 182.183 158.93 182.538C155.75 182.913 155.108 184.646 156.548 187.294C157.838 187.437 159.401 187.109 160.657 187.294C178.38 189.852 187.682 193.414 165.414 189.886C165.864 188.522 160.377 188.645 160.22 189.238C160.705 199.629 161.96 209.85 163.25 220.166C165.065 234.74 167.864 253.489 172.771 267.312C165.755 266.568 168.676 265.129 168.014 262.768C166.635 257.876 164.697 253.052 163.687 248.065C162.827 243.835 165.079 238.949 159.79 240.498C157.702 227.842 156.896 214.913 155.033 202.222C153.32 190.575 150.945 179.004 148.973 167.405C148.441 164.253 147.383 161.094 147.239 157.887C152.774 153.589 153.573 151.324 160.22 147.94V147.926Z" fill="#6F6360"/>
<path d="M183.581 189.88C180.749 201.867 179.554 214.36 180.121 226.641C178.81 227.064 179.268 224.417 178.824 223.83C178.687 223.646 175.541 221.824 174.927 221.449C174.552 221.217 165.134 217.137 168.655 217.123C178.954 223.687 169.331 214.36 163.68 214.742L164.758 213.227C187.58 217.362 162.349 212.47 163.68 209.12L165.625 208.472C182.571 211.774 175.944 209.106 164.328 206.309C160.868 202.652 179.138 204.351 165.625 202.413C161.79 199.5 172.3 203.191 177.091 203.061C172.914 200.666 162.336 199.745 163.68 196.573C182.81 195.877 180.114 197.855 163.898 192.029C162.377 190.63 163.509 188.57 165.414 189.866C187.682 193.386 178.38 189.832 160.657 187.273V182.948C165.181 182.784 178.394 183.548 181.643 186.407C183.055 187.655 182.113 191.108 183.588 189.866L183.581 189.88Z" fill="#B49386"/>
<path d="M194.398 145.763C196.664 150.546 195.94 154.217 196.343 154.414C198.343 150.43 201.345 147.1 204.56 144.037L207.802 145.981C206.607 147.032 206.17 148.219 206.068 148.363C203.905 151.412 198.261 155.738 196.118 158.31C195.783 145.552 175.978 143.668 166.267 145.333L166.048 140.141C177.056 138.36 184.802 140.857 194.384 145.763H194.398Z" fill="#C2AA99"/>
<path d="M172.771 267.298C174.013 270.798 175.964 276.912 179.479 278.542C180.093 278.829 179.698 277.123 182.721 278.972C182.386 279.477 182.305 279.381 182.291 279.402C172.682 283.946 171.214 275.404 168.014 269.024C167.864 268.731 168.164 267.646 168.014 267.51C167.072 266.684 166.151 267.776 166.069 267.728C164.847 267.032 160.302 243.527 159.797 240.478C165.086 238.929 162.834 243.821 163.694 248.044C164.704 253.038 166.642 257.862 168.021 262.747C168.683 265.101 165.762 266.548 172.777 267.291L172.771 267.298Z" fill="#5E4841"/>
<path d="M221.226 149.222C215.063 157.812 208.457 162.213 198.732 166.088C197.94 165.297 200.526 159.518 201.762 158.303C208.593 156.263 218.414 146.063 221.232 149.222L221.226 149.222Z" fill="#6D4B38"/>
<path d="M228.576 134.082C226.958 139.902 224.754 144.303 221.219 149.222C218.4 146.063 208.58 156.263 201.748 158.303L202.615 154.844C203.133 154.128 203.447 154.032 203.481 153.978L204.13 155.274C210.886 150.853 215.902 144.644 221.649 139.268C223.744 137.31 226.597 136.286 228.569 134.076L228.576 134.082Z" fill="#91634D"/>
<path d="M168.007 269.031C171.208 275.417 172.675 283.96 182.284 279.409C182.209 279.504 182.782 280.118 181.206 281.572C178.401 284.144 171.228 287.473 167.795 285.031C164.001 282.329 168.553 272.265 165.85 268.376L168.014 269.024L168.007 269.031Z" fill="#2D2523"/>
<path d="M229.879 127.164C229.449 129.456 229.21 131.824 228.583 134.082C226.61 136.293 223.758 137.316 221.662 139.275C217.854 139.193 213.855 139.807 210.415 137.76C218.332 135.481 223.689 132.595 229.886 127.164H229.879Z" fill="#CF816D"/>
<path d="M146.81 156.141C146.612 157.287 147.226 157.532 147.239 157.874C147.383 161.08 148.434 164.232 148.973 167.391C148.181 168.006 147.635 167.651 146.81 167.391C145.813 163.809 143.049 160.978 141.186 157.874C139.241 154.633 137.31 152.081 136.859 148.792C139.391 152.115 143.397 153.862 146.81 156.147V156.141Z" fill="#100E0D"/>
<path d="M201.755 158.303C200.52 159.518 197.933 165.297 198.725 166.088C198.035 166.361 195.19 168.224 194.616 168.251C190.535 168.469 200.253 158.112 202.622 154.844L201.755 158.303Z" fill="#723F32"/>
<path d="M157.627 121.105L159.79 122.838C158.507 123.527 151.164 130.801 151.573 131.708C151.798 132.199 156.016 129.32 161.523 127.601L162.82 130.63C161.605 131.08 161.592 131.462 161.523 131.497C156.016 134.014 153.655 136.593 149.84 141.226C154.064 145.927 159.742 133.421 161.087 141.444C159.838 142.345 156.958 143.177 154.166 145.77C152.829 138.688 147.233 151.044 146.598 150.962C143.5 147.36 140.399 143.755 137.296 140.148C137.357 139.582 137.214 138.974 137.296 138.415C137.624 136.279 137.883 132.909 138.163 131.497C138.552 129.511 140.278 129.286 140.326 129.115C140.415 128.795 139.698 128.883 139.896 126.304C144.23 126.454 143.929 124.476 144.871 124.571C145.567 124.646 147.267 127.567 147.465 127.601C147.69 127.635 148.345 126.734 151.143 125.008C153.088 123.807 153.225 123.084 157.633 121.112L157.627 121.105Z" fill="#9E846F"/>
<path d="M194.398 145.763C184.816 140.851 177.07 138.36 166.062 140.141L166.28 145.333C161.953 146.077 162.322 146.862 160.22 147.926C153.573 151.31 152.774 153.575 147.239 157.874C147.226 157.532 146.612 157.287 146.81 156.141C147.014 154.953 152.924 146.909 154.166 145.763C156.958 143.17 159.845 142.338 161.087 141.437C164.158 139.22 157.497 138.831 163.25 136.682C171.412 133.632 189.9 136.273 194.398 145.763Z" fill="#9E846F"/>
<path d="M204.785 40.2274C204.519 42.5063 196.411 38.3239 190.726 37.1981C183.526 35.7789 176.128 36.0587 175.371 35.9018C175.207 35.8676 174.415 34.8783 172.559 34.1688C170.58 33.4182 168.662 34.8101 168.451 31.5761C182.55 31.0303 192.507 33.6912 204.792 40.2274H204.785Z" fill="#C2AA99"/>
<path d="M161.517 131.49L163.25 136.682C157.497 138.831 164.158 139.22 161.087 141.437C159.742 133.414 154.064 145.92 149.84 141.219C153.655 136.586 156.009 134.001 161.523 131.49H161.517Z" fill="#B1937A"/>
<path d="M110.468 110.728C111.519 115.9 114.549 118.363 119.989 119.809C122.78 120.553 121.94 118.444 123.449 120.676C123.592 121.351 123.524 121.535 123.879 122.409C119.415 123.609 125.455 129.982 129.939 130.193L128.642 133.223C120.937 132.725 114.788 127.232 108.312 123.705C107.404 117.899 107.302 114.787 107.445 109.002C108.202 108.224 108.769 109.322 110.475 110.735L110.468 110.728Z" fill="#A77152"/>
<path d="M134.266 48.0123C126.431 55.7767 120.575 69.5725 128.205 79.37C131.481 83.5729 138.197 85.8449 142.264 89.0994C152.904 97.6143 152.269 104.546 153.081 105.106C154.644 106.177 167.618 94.8784 189.641 105.324C175.671 102.001 155.415 101.319 148.543 117.005C161.121 108.34 177.527 105.754 190.508 115.06C179.636 110.271 165.1 110.018 155.682 118.09C154.392 119.195 149.874 123.848 151.136 125.008C148.338 126.741 147.683 127.635 147.458 127.601C147.26 127.573 145.561 124.646 144.864 124.571C143.923 124.476 144.223 126.448 139.889 126.304C140.005 124.708 139.452 124.278 139.459 123.712C139.459 123.384 140.333 121.46 140.326 121.33C139.582 108.128 130.997 98.3716 119.995 110.735C116.044 115.176 118.569 117.428 110.475 110.735C108.776 109.329 108.209 108.231 107.445 109.002C107.452 108.715 107.438 108.422 107.445 108.135C107.841 96.5841 110.762 75.481 113.505 64.237C113.532 64.1347 112.611 63.466 112.638 63.3705C114.392 56.841 123.299 48.1556 128.649 44.1233C129.714 47.3437 131.474 44.7851 134.273 48.0191L134.266 48.0123Z" fill="#C08866"/>
<path d="M127.987 93.8618C135.433 93.2818 138.606 100.992 139.234 107.269C133.57 98.8561 124.097 100.425 117.818 107.487C119.149 102.165 121.456 94.3735 127.987 93.8618Z" fill="#462713"/>
<path d="M139.889 126.298C139.698 128.877 140.415 128.788 140.319 129.109C140.271 129.279 138.545 129.504 138.156 131.49C135.139 132.854 132 133.434 128.635 133.223L129.932 130.193C132.614 130.323 136.231 128.406 135.992 127.812C131.536 129.395 130.56 127.812 129.932 127.594C131.215 127.839 132.198 127.444 133.392 127.164C136.402 126.448 136.293 126.134 138.149 124.571C138.265 124.476 139.145 124.435 139.446 123.705C139.439 124.271 139.998 124.701 139.876 126.298H139.889Z" fill="#DA9D76"/>
<path d="M165.414 189.88C163.509 188.583 162.377 190.644 163.898 192.042C180.114 197.869 182.816 195.89 163.68 196.586C162.336 199.759 172.914 200.68 177.091 203.075C172.306 203.205 161.79 199.507 165.625 202.427C179.138 204.364 160.868 202.666 164.328 206.323C175.944 209.12 182.571 211.788 165.625 208.485L163.68 209.134C162.349 212.49 187.587 217.376 164.758 213.241L163.68 214.756C169.331 214.367 178.954 223.7 168.655 217.137C165.134 217.15 174.552 221.23 174.927 221.462L163.243 220.166C161.96 209.85 160.698 199.629 160.213 189.238C160.363 188.645 165.857 188.522 165.407 189.886L165.414 189.88Z" fill="#837565"/>
<path d="M180.987 182.095C177.964 178.806 168.102 176.916 163.68 177.769C164.144 176.425 161.196 177.08 160.22 177.339L160.65 170.421C161.694 170.073 165.304 169.65 166.71 169.554C182.1 168.538 186.966 180.409 184.229 181.665C183.274 182.101 180.899 180.102 180.987 182.095Z" fill="#B49386"/>
<path d="M165.843 167.821C165.277 167.869 164.663 167.739 164.11 167.821C162.117 161.367 163.223 162.622 166.273 161.763C175.241 159.252 188.822 165.501 187.471 171.492C186.454 175.988 181.97 166.409 165.837 167.814L165.843 167.821Z" fill="#B49386"/>
<path d="M166.28 161.763C163.23 162.615 162.124 161.36 164.117 167.821C154.979 169.172 152.14 175.347 151.136 171.929C150.215 168.783 159.974 160.33 161.087 157.007C161.285 156.925 161.032 156.222 164.984 155.274C164.335 157.485 165.025 159.961 166.28 161.763Z" fill="#837565"/>
<path d="M167.147 147.926L167.577 154.844C166.621 154.967 165.925 155.049 164.984 155.274C161.032 156.222 161.285 156.918 161.087 157.007C157.019 158.781 153.457 161.012 150.051 163.925L149.403 163.277C151.867 158.494 155.873 151.406 161.087 149.222C162.329 148.704 165.687 148.056 167.147 147.926Z" fill="#9E846F"/>
<path d="M180.987 182.095C181.281 182.415 182.414 183.889 181.636 184.258C174.313 181.76 166.601 181.446 158.923 181.665C157.087 179.693 161.387 178.212 163.68 177.769C168.096 176.916 177.964 178.806 180.987 182.095Z" fill="#9E846F"/>
<path d="M160.22 177.339C159.913 177.421 156.617 179.536 154.16 179.284C157.176 176.95 153.416 172.85 160.65 170.414L160.22 177.332V177.339Z" fill="#846C5E"/>
<path d="M158.923 182.524C159.688 182.436 159.804 182.988 160.657 182.954V187.28C159.401 187.096 157.838 187.423 156.548 187.28C155.101 184.633 155.75 182.9 158.93 182.524H158.923Z" fill="#846C5E"/>
<path d="M167.577 154.844L167.147 147.926C174.067 147.312 182.646 148.915 188.133 153.548C192.043 156.85 191.477 156.598 189.866 160.903C183.956 154.947 175.582 153.807 167.584 154.844H167.577Z" fill="#C2AA99"/>
<path d="M196.131 158.303C192.815 162.288 195.435 161.278 194.835 163.277C194.753 163.557 192.391 165.809 191.375 168.033C188.344 174.658 185.253 182.804 183.588 189.873C182.107 191.114 183.055 187.662 181.643 186.414C178.394 183.555 165.188 182.791 160.657 182.954C159.81 182.988 159.688 182.429 158.923 182.524C158.896 182.177 158.971 181.713 158.923 181.658C166.601 181.44 174.313 181.754 181.636 184.251C182.414 183.882 181.281 182.409 180.987 182.088C180.899 180.089 183.281 182.088 184.229 181.658C186.959 180.403 182.093 168.531 166.71 169.547L165.843 167.814C181.97 166.409 186.461 175.988 187.478 171.492C188.829 165.495 175.248 159.245 166.28 161.763C165.018 159.961 164.335 157.485 164.984 155.274C165.932 155.049 166.628 154.967 167.577 154.844C175.575 153.8 183.942 154.94 189.859 160.903C191.477 156.598 192.037 156.85 188.126 153.548C182.646 148.915 174.067 147.312 167.14 147.926C165.687 148.056 162.322 148.704 161.08 149.222L160.213 147.926C162.315 146.855 161.947 146.07 166.273 145.333C175.985 143.668 195.79 145.545 196.125 158.31L196.131 158.303Z" fill="#938079"/>
<path d="M169.522 155.274C181.192 154.483 193.006 164.314 187.696 165.222C176.401 157.962 166.874 163.973 169.522 155.274Z" fill="#B49386"/>
<path d="M113.498 132.356C116.658 137.76 118.194 143.245 125.83 149.659C127.735 151.255 140.504 160.077 141.186 157.874C143.049 160.978 145.813 163.809 146.81 167.391C125.046 160.637 114.024 150.648 109.171 128.031C109.042 127.423 108.851 126.912 108.742 126.298C110.018 127.075 112.7 130.985 113.498 132.356Z" fill="#6B1D0E"/>
<path d="M128.642 133.216C132.007 133.434 135.146 132.847 138.163 131.483C137.883 132.895 137.624 136.266 137.296 138.401C130.969 137.501 124.39 136.586 118.474 134.076C116.815 133.373 115.443 130.958 113.498 132.343C112.7 130.971 110.018 127.068 108.742 126.284C108.585 125.458 108.441 124.53 108.312 123.691C114.795 127.219 120.937 132.711 128.642 133.209V133.216Z" fill="#D37243"/>
<path d="M137.289 138.408C137.207 138.961 137.351 139.575 137.289 140.141C136.907 143.634 136.354 145.088 136.859 148.792C137.31 152.081 139.241 154.633 141.186 157.874C140.504 160.077 127.735 151.255 125.83 149.659C118.194 143.252 116.658 137.76 113.498 132.356C115.443 130.964 116.815 133.386 118.474 134.089C124.384 136.6 130.969 137.514 137.296 138.415L137.289 138.408Z" fill="#91634D"/>
<path d="M154.166 145.763C152.924 146.916 147.014 154.953 146.81 156.141C143.397 153.862 139.391 152.108 136.859 148.786C136.354 145.081 136.914 143.628 137.289 140.134C140.387 143.737 143.488 147.341 146.591 150.948C147.233 151.03 152.822 138.674 154.16 145.756L154.166 145.763Z" fill="#846C5E"/>
<path d="M204.785 40.2274C206.744 41.2713 208.975 41.9809 210.845 43.2568C220.837 50.066 229.886 62.2038 230.316 74.6145C227.839 71.8922 226.303 63.5342 225.989 66.8297C229.32 76.02 230.958 87.1413 231.613 96.8911C232.063 103.618 232.186 110.059 231.613 116.786C231.312 120.3 230.528 123.712 229.879 127.164C223.682 132.595 218.325 135.481 210.409 137.76C213.855 139.807 217.854 139.193 221.656 139.275C215.909 144.651 210.893 150.86 204.137 155.281L203.488 153.985C204.376 152.716 205.488 149.918 206.082 148.363C206.184 148.219 206.614 147.032 207.815 145.981L204.573 144.037C201.359 147.1 198.356 150.43 196.357 154.414C195.954 154.217 196.677 150.553 194.412 145.763C189.907 136.266 171.426 133.632 163.264 136.682L161.53 131.49C161.599 131.456 161.612 131.074 162.827 130.623C171.549 127.416 179.506 128.228 187.703 132.356L196.575 139.063C190.03 125.158 174.995 123.398 161.53 127.601C156.023 129.32 151.798 132.199 151.58 131.708C151.17 130.807 158.514 123.534 159.797 122.838C168.178 118.328 180.482 119.372 188.57 124.135C193.204 126.864 199.885 136.32 194.412 127.376C187.027 115.313 168.99 116.036 157.64 121.105C153.232 123.077 153.095 123.794 151.15 125.001C149.887 123.841 154.399 119.188 155.695 118.083C165.12 110.011 179.65 110.264 190.521 115.053C177.541 105.747 161.134 108.333 148.557 116.998C155.429 101.312 175.685 102.001 189.655 105.317C167.632 94.8715 154.658 106.177 153.095 105.099C152.283 104.539 152.918 97.6075 142.278 89.0926C138.21 85.8381 131.495 83.5593 128.219 79.3632C120.582 69.5656 126.438 55.7699 134.279 48.0055C144.018 38.358 162.37 35.7926 175.596 37.1913L175.378 35.8949C176.135 36.0587 183.54 35.7721 190.733 37.1913C196.425 38.3102 204.526 42.4994 204.792 40.2206L204.785 40.2274Z" fill="#EAB48C"/>
<path d="M162.82 130.623L161.523 127.594C174.989 123.391 190.023 125.151 196.568 139.056L187.696 132.349C179.5 128.228 171.542 127.416 162.82 130.616V130.623Z" fill="#C08866"/>
<path d="M159.79 122.838L157.627 121.105C168.983 116.036 187.02 115.313 194.398 127.376C199.871 136.32 193.19 126.857 188.556 124.135C180.469 119.372 168.164 118.328 159.783 122.838H159.79Z" fill="#C08866"/>
<path d="M207.808 128.46C212.272 129.593 214.763 128.706 217.329 125.001C219.11 122.422 218.96 121.296 219.062 121.105C221.894 122.47 222.625 120.798 222.959 120.676C223.792 120.362 224.774 120.321 225.552 119.809C225.409 120.171 226.44 121.528 222.522 126.516C216.141 134.635 205.379 134.874 207.815 128.46H207.808Z" fill="#C08866"/>
<path d="M222.952 104.669C222.652 104.703 222.249 104.608 222.085 104.669C214.578 92.2243 211.466 96.161 202.615 104.239C206.409 88.267 219.751 90.3071 222.945 104.669H222.952Z" fill="#846C5E"/>
<path d="M222.085 104.669C221.096 105.058 217.922 102.506 216.025 102.076C205.529 99.6748 202.731 107.507 201.966 107.269C201.53 107.132 202.376 105.263 202.615 104.239C211.466 96.161 214.578 92.2243 222.085 104.669Z" fill="#462713"/>
<path d="M222.085 104.669C222.249 104.608 222.652 104.703 222.952 104.669C223.642 107.76 224.536 110.926 223.382 114.187C222.154 110.878 218.803 108.94 216.892 106.402C215.875 105.044 214.565 103.557 216.025 102.076C217.916 102.506 221.096 105.058 222.085 104.669Z" fill="#B1937A"/>
<path d="M203.052 114.187C199.994 122.62 209.153 133.127 217.329 125.001C214.769 128.706 212.278 129.593 207.808 128.46C199.455 126.338 199.974 118.021 203.052 111.594C204.027 114.317 203.052 114.057 203.052 114.187Z" fill="#052318"/>
<path d="M219.062 121.105C218.967 121.296 219.117 122.422 217.329 125.001C209.153 133.127 199.994 122.62 203.052 114.187C202.526 125.759 211.453 129.02 216.899 122.19C217.308 121.678 217.834 119.413 217.977 119.379C218.189 119.331 218.332 120.764 219.055 121.112L219.062 121.105Z" fill="#19725D"/>
<path d="M216.899 106.402C218.81 108.94 222.161 110.878 223.389 114.187C227.327 114.781 231.599 104.164 225.552 119.809C224.768 120.321 223.792 120.362 222.959 120.676C222.515 120.218 219.874 119.311 219.717 119.379C219.506 119.468 219.554 120.164 219.069 121.112C218.346 120.764 218.195 119.338 217.991 119.379C217.841 119.413 217.315 121.678 216.912 122.19C211.473 129.02 202.54 125.759 203.065 114.187C203.065 114.057 204.041 114.317 203.065 111.594C205.863 105.74 210.886 104.232 216.912 106.402H216.899Z" fill="#100E0D"/>
<path d="M211.275 115.483C218.393 111.506 206.443 106.723 208.682 114.617C204.451 114.733 207.378 107.023 213.227 108.558C215.411 109.131 220.489 115.292 217.984 116.773C214.885 113.641 213.104 116.384 211.924 116.343C211.61 116.329 211.33 115.483 211.275 115.476V115.483Z" fill="#100E0D"/>
<path d="M211.275 115.483C210.381 115.34 209.289 115.661 208.682 114.617C206.443 106.723 218.393 111.499 211.275 115.483Z" fill="#D0CBDF"/>
<path d="M206.3 116.78C212.401 116.698 208.764 122.791 206.518 119.161L206.3 116.78Z" fill="#C2C1BC"/>
<path d="M222.952 120.676C222.618 120.798 221.894 122.47 219.055 121.105C219.54 120.164 219.492 119.461 219.704 119.372C219.868 119.304 222.502 120.212 222.945 120.669L222.952 120.676Z" fill="#622B22"/>
<path d="M128.642 126.734C128.84 126.843 129.864 127.573 129.939 127.601C130.56 127.812 131.543 129.395 135.999 127.819C136.238 128.413 132.628 130.323 129.939 130.2C125.455 129.989 119.415 123.616 123.879 122.415C124.909 124.94 126.697 125.67 128.635 126.741L128.642 126.734Z" fill="#80583E"/>
<path d="M119.989 110.728C121.183 113.982 117.3 117.1 119.989 119.809C114.549 118.363 111.526 115.9 110.468 110.728C118.562 117.421 116.03 115.169 119.989 110.728Z" fill="#290F07"/>
<path d="M139.453 123.705C139.152 124.428 138.265 124.476 138.156 124.571L137.507 121.112C131.01 130.398 124.247 122.013 123.66 113.757C122.828 115.988 122.978 118.424 123.442 120.675C121.927 118.451 122.773 120.553 119.982 119.809C117.293 117.1 121.176 113.982 119.982 110.728C130.983 98.3648 139.569 108.121 140.312 121.324C140.319 121.453 139.453 123.377 139.446 123.705L139.453 123.705Z" fill="#0A140F"/>
<path d="M138.156 124.571C136.293 126.134 136.409 126.448 133.399 127.164L128.642 126.734C126.697 125.663 124.916 124.94 123.885 122.408C123.531 121.535 123.592 121.358 123.456 120.675C122.991 118.424 122.841 115.981 123.674 113.757C124.261 122.013 131.017 130.391 137.521 121.112L138.169 124.571H138.156Z" fill="#216160"/>
<path d="M132.751 110.728C141.793 113.436 129.468 120.437 131.236 111.806L132.751 110.728Z" fill="#EBEEFC"/>
<path d="M133.399 127.164C132.205 127.451 131.222 127.839 129.939 127.594C129.864 127.567 128.84 126.837 128.642 126.727L133.399 127.157V127.164Z" fill="#23462B"/>
<path d="M103.548 70.937C103.405 74.826 103.138 78.7287 103.118 82.6177L102.251 82.1879C101.89 77.7735 96.1159 75.0921 93.1677 71.8103C91.2431 69.6612 89.3117 67.1845 87.5441 64.892C88.1515 62.6132 94.0753 54.0846 94.0344 53.4296C93.9661 52.3994 82.2482 37.6962 81.4907 36.9934C76.2903 32.2106 64.2448 30.6414 57.4815 31.5897C43.9414 33.4865 22.3345 60.2798 17.4617 72.6768C12.8824 84.3234 10.248 96.6318 8.80804 109.008C7.72974 108.476 7.70926 111.274 7.9413 112.904H7.51135C6.40575 110.005 1.00062 105.727 0.154362 91.9241C-0.575876 80.0114 1.21218 76.2452 7.07457 66.625C19.202 56.7592 35.8132 34.4553 49.4762 28.1306C51.8239 27.0457 54.4445 25.7903 57.0447 25.5379C68.2577 24.453 96.3138 36.1542 102.688 45.6516C107.848 53.3409 103.876 62.4494 103.555 70.9507L103.548 70.937Z" fill="#2D2523"/>
<path d="M33.0288 128.897C29.3298 133.134 29.6915 142.781 28.7019 148.144C37.4443 147.38 43.8117 152.299 52.0627 153.985C52.2811 157.376 53.4345 161.053 54.2262 164.362C52.9909 163.939 47.7495 163.741 47.5175 163.496C47.0193 162.963 47.4766 161.715 47.2991 161.551C45.8591 160.207 41.7916 155.956 41.4572 155.711C41.0887 155.431 40.7201 156.973 37.7787 153.978C37.2942 153.241 35.6426 149.331 35.3969 149.222C33.2813 148.253 29.4595 154.101 18.308 138.19C9.62017 125.799 9.58604 118.363 7.49087 112.891H7.92083C8.54187 117.196 14.2609 126.864 18.0896 129.757C19.2088 129.927 27.2073 122.716 28.6883 121.542C30.7698 119.884 32.7012 118.008 34.7486 116.35C37.8197 113.866 41.0682 111.587 44.0506 108.995L45.1289 109.213C40.2015 115.06 35.9019 121.815 33.0151 128.89L33.0288 128.897Z" fill="#2D2D2D"/>
<path d="M73.6969 147.489C73.5195 167.262 96.6892 160.923 103.985 149.222C106.326 164.922 102.593 181.153 83.6541 181.228C80.3851 180.061 76.9113 179.263 73.7037 177.769C73.499 177.673 71.1445 175.784 70.0252 175.176C69.4451 174.862 69.411 175.627 69.3769 175.606C69.2677 175.545 69.0561 175.668 68.9469 175.606C68.3327 175.258 59.3378 168.736 57.4815 167.391C56.683 166.812 56.0551 164.847 55.3181 164.362C55.2771 164.335 54.9496 164.922 54.6698 164.792C54.6425 164.778 54.8472 164.567 54.2398 164.362C53.4481 161.046 52.2948 157.376 52.0764 153.985C51.7624 149.018 52.5814 138.469 53.8098 133.659C55.9937 134.71 53.7621 147.38 54.4582 147.503C64.4154 132.615 57.6794 139.206 63.1119 147.933C70.7486 139.452 64.9886 147.885 65.4937 149.447C65.5687 149.673 69.2814 151.876 69.6021 151.829C69.8956 151.781 72.0658 149.127 73.7105 147.503L73.6969 147.489Z" fill="#4A4D53"/>
<path d="M87.5373 64.8783C84.7597 61.2691 87.3667 61.7535 83.6404 60.1228C81.245 59.0721 78.5083 58.9766 76.2834 57.5301C77.7439 56.2475 78.7608 54.3302 80.1803 52.9861C75.3894 49.8954 69.3018 43.4819 63.7397 42.3903C49.5922 39.6066 27.7942 64.3939 22.2048 76.559C20.9423 75.2832 18.9426 73.7412 17.448 72.6632C22.3209 60.2661 43.9277 33.4728 57.4679 31.5761C64.2311 30.6277 76.2835 32.2038 81.477 36.9798C82.2346 37.6825 93.9593 52.3857 94.0208 53.416C94.0617 54.071 88.1379 62.5995 87.5305 64.8783H87.5373Z" fill="#84150E"/>
<path d="M22.2117 76.559C23.2217 77.5756 24.7027 79.3086 25.6718 80.4549C25.3783 80.4549 24.8801 80.3525 24.805 80.6732C24.3273 82.6723 29.323 115.627 28.7019 121.549C27.221 122.722 19.2225 129.934 18.1032 129.764C14.2746 126.871 8.55551 117.203 7.93447 112.897C8.3849 112.59 8.65106 110.298 8.8012 109.002C10.2412 96.625 12.8755 84.3166 17.4549 72.67C18.9563 73.7412 20.9491 75.29 22.2117 76.5659V76.559Z" fill="#534B4E"/>
<path d="M102.251 82.1811C102.422 84.2279 101.514 94.1756 101.821 101.647C98.293 99.4019 96.1978 84.1324 93.6044 86.0769C93.1472 86.4794 91.1134 87.2777 91.0111 87.3732C89.7895 86.8138 88.4109 86.7592 87.1142 86.5067C87.8854 85.3127 87.4964 83.2113 87.5441 83.0476C87.9604 81.7308 91.871 74.287 93.1677 71.8035C96.1159 75.0921 101.89 77.7735 102.251 82.1811Z" fill="#A12815"/>
<path d="M87.5373 64.8783C89.3049 67.1708 91.2363 69.6543 93.1608 71.7967C91.8642 74.2802 87.9536 81.7308 87.5373 83.0407C86.7252 82.4949 86.3157 81.1167 85.8039 80.4481C85.085 73.6707 84.3638 66.8956 83.6404 60.1228C87.3667 61.7535 84.7529 61.2691 87.5373 64.8783Z" fill="#C73D1F"/>
<path d="M8.80121 108.995C8.65107 110.291 8.3849 112.577 7.93447 112.891C7.70244 111.267 7.72291 108.463 8.80121 108.995Z" fill="#2D2D2D"/>
<path d="M53.7962 133.653C52.5678 138.463 51.7488 149.018 52.0627 153.978C43.8117 152.293 37.4443 147.373 28.7019 148.137C29.6915 142.775 29.3298 133.127 33.0288 128.89C33.8204 127.983 42.2352 121.726 44.4942 120.239C41.8053 126.407 32.6056 135.884 38.4339 134.082C43.5114 132.513 58.6008 121.023 63.0914 116.35C60.2728 122.531 55.516 126.898 53.7894 133.653H53.7962Z" fill="#2D2D2D"/>
<path d="M25.6718 80.4481C28.8043 84.1324 29.4185 84.1051 29.5686 84.3439C29.7734 84.6782 32.0938 90.9007 32.162 91.2623C32.2712 91.8149 31.4591 92.5518 31.7321 94.0733C33.0288 101.462 34.0866 108.872 34.7622 116.35C32.7148 118.001 30.7903 119.884 28.7019 121.542C29.323 115.627 24.3341 82.6655 24.805 80.6664C24.8801 80.3457 25.3783 80.4481 25.6718 80.4481Z" fill="#667371"/>
<path d="M106.578 131.92C106.592 140.359 109.192 149.052 109.608 157.655C110.066 167.023 109.888 178.185 106.148 186.85C104.258 187.219 103.227 187.103 101.391 186.85C101.35 186.85 101.542 186.045 101.173 185.984C100.839 185.929 98.9754 186.42 95.5495 185.554C91.4888 184.524 87.5851 182.634 83.6541 181.228C102.593 181.153 106.326 164.922 103.985 149.222C103.227 144.153 101.678 138.169 99.228 133.653C101.569 132.67 103.923 131.421 106.148 130.193C106.257 130.814 106.469 131.299 106.578 131.926V131.92Z" fill="#2D2D2D"/>
<path d="M101.815 101.647C102.231 111.826 103.93 119.522 105.711 129.327C105.786 129.729 106.073 129.791 106.141 130.193C103.916 131.421 101.555 132.67 99.2211 133.653C98.7775 133.837 97.474 133.461 97.0577 133.653C96.0886 130.275 94.751 127.021 93.5976 123.705C93.1745 122.497 92.6626 119.352 92.3009 118.513C93.1813 113.355 92.5466 108.121 92.7309 102.943C92.9356 97.3278 93.8297 91.7126 93.5976 86.0769C96.191 84.1324 98.2862 99.4087 101.815 101.647Z" fill="#C73D1F"/>
<path d="M106.141 186.85C109.881 178.185 110.059 167.023 109.601 157.655C109.185 149.052 106.585 140.359 106.571 131.92C109.301 147.394 116.924 174.003 106.79 187.28C106.592 187.116 106.469 186.782 106.141 186.85Z" fill="#715D4F"/>
<path d="M99.2211 133.653C101.678 138.169 103.227 144.153 103.978 149.222C96.6892 160.93 73.5195 167.262 73.6901 147.489C78.7745 142.468 76.4609 145.838 78.2353 144.897C83.8179 141.929 92.8537 135.563 97.0577 133.653C97.474 133.461 98.7775 133.837 99.2211 133.653Z" fill="#556263"/>
<path d="M63.7465 42.3903C63.5213 42.902 63.3575 43.325 62.8798 43.6866C61.8629 44.4644 58.5325 46.4703 56.8195 47.5825C37.8743 59.8977 32.0119 59.0994 29.5618 84.3439C29.4185 84.1119 28.8043 84.1392 25.6649 80.4481C24.6958 79.3086 23.2081 77.5688 22.2048 76.5522C27.7942 64.3871 49.5922 39.5997 63.7397 42.3835L63.7465 42.3903Z" fill="#9D4C2F"/>
<path d="M83.6473 60.1228C84.3661 66.9002 85.0873 73.6753 85.8107 80.4481C83.9475 77.985 80.9993 75.3651 78.8905 73.093C71.5608 65.2127 70.0389 68.4876 73.6969 59.2495C74.2907 58.9766 74.1064 58.8333 74.1269 58.8197C74.3862 58.6696 74.7479 58.8811 76.2903 57.5233C78.5083 58.9698 81.2518 59.0721 83.6473 60.116V60.1228Z" fill="#DC5027"/>
<path d="M76.2903 57.5301C74.7479 58.8947 74.3862 58.6764 74.1269 58.8265C70.3779 53.7821 66.6288 48.7355 62.8798 43.6866C63.3575 43.3182 63.5213 42.902 63.7465 42.3903C69.3086 43.4819 75.3962 49.8954 80.1871 52.9861C78.7676 54.3234 77.7508 56.2406 76.2903 57.5301Z" fill="#DC5027"/>
<path d="M92.7309 102.943C90.1034 102.827 91.1953 97.28 89.9191 97.3209C87.2916 100.391 85.8858 105.379 81.4839 105.972C81.1631 104.976 89.8714 88.4376 91.0042 87.3732C91.1066 87.2709 93.1472 86.4794 93.5976 86.0769C93.8297 91.7194 92.9356 97.3278 92.7309 102.943Z" fill="#C73D1F"/>
<path d="M86.6706 126.734C88.6975 128.911 86.9845 131.019 93.5908 123.705C94.7442 127.021 96.0818 130.275 97.0509 133.653C92.8469 135.57 83.8179 141.929 78.2285 144.897C76.4541 145.838 78.7676 142.474 73.6833 147.489C72.0385 149.113 69.8683 151.767 69.5748 151.815C69.2541 151.863 65.5346 149.659 65.4664 149.434C64.9613 147.871 70.7282 139.438 63.0846 147.919C57.6521 139.193 64.3881 132.595 54.4309 147.489C53.7348 147.366 55.9664 134.696 53.7825 133.646C55.5024 126.891 60.266 122.524 63.0846 116.343C58.5939 121.017 43.5046 132.506 38.4271 134.076C32.592 135.877 41.7984 126.407 44.4874 120.232C42.2284 121.713 33.8136 127.976 33.0219 128.883C35.9088 121.801 40.2083 115.047 45.1357 109.206L44.0574 108.988C41.075 111.574 37.8265 113.859 34.7554 116.343C34.0797 108.872 33.0287 101.456 31.7252 94.0664C31.4591 92.545 32.2712 91.8081 32.1552 91.2554C37.2396 90.0069 43.5046 85.497 42.1056 88.8743C34.6394 93.8754 37.4648 94.8988 37.7787 103.577C49.4148 102.752 54.0351 95.1717 48.5958 107.037C53.3799 109.111 56.8946 104.881 54.2193 112.659C54.6015 114.76 59.9247 108.046 69.3633 113.955C68.4965 115.251 63.5418 122.716 65.2548 123.255C67.5411 122.313 80.3032 119.106 81.2655 119.359C81.8797 119.522 84.8074 124.715 86.6706 126.714V126.734Z" fill="#667371"/>
<path d="M45.7909 124.135L46.4392 124.783C39.0345 133.448 37.4238 131.728 45.7909 124.135Z" fill="#4A4D53"/>
<path d="M92.7309 102.943C92.5398 108.121 93.1813 113.361 92.3009 118.513C92.2532 118.397 91.4001 117.018 91.0042 116.35C89.2094 113.314 82.0776 107.801 81.4839 105.972C85.8858 105.386 87.2916 100.398 89.9191 97.3209C91.1953 97.28 90.1034 102.827 92.7309 102.943Z" fill="#CD6546"/>
<path d="M73.6969 59.2563C70.0321 68.4945 71.5608 65.2127 78.8905 73.0999C78.0306 74.1369 76.1538 81.9354 76.2971 82.3994C76.6861 83.6548 85.5445 86.2065 87.1142 86.5067C88.4109 86.7592 89.7895 86.8069 91.0111 87.3732C89.885 88.4376 81.1699 104.976 81.4907 105.972C82.0844 107.808 89.2162 113.32 91.0111 116.35C86.2679 117.83 83.0194 121.897 86.6842 126.727C84.8211 124.728 81.8865 119.536 81.2791 119.372C80.3168 119.113 67.5615 122.327 65.2685 123.268C63.5623 122.729 68.5102 115.272 69.3769 113.969C59.9452 108.06 54.622 114.774 54.233 112.672C56.9082 104.894 53.3935 109.124 48.6095 107.05C54.0487 95.1854 49.4352 102.766 37.7924 103.591C37.4784 94.9125 34.653 93.889 42.1192 88.8879C43.5114 85.5106 37.2464 90.0137 32.1688 91.2691C32.0938 90.9075 29.7802 84.685 29.5755 84.3507C32.0255 59.0994 37.8879 59.9045 56.8332 47.5893C59.8906 48.756 68.6876 60.2593 70.0252 60.5663C71.0967 60.8119 72.7619 59.6998 73.7037 59.27L73.6969 59.2563Z" fill="#FA8235"/>
<path d="M85.8107 80.4481C86.3157 81.1167 86.7252 82.5017 87.5441 83.0407C87.4895 83.2045 87.8786 85.3127 87.1142 86.4999C85.5445 86.1929 76.6861 83.6412 76.2971 82.3926C76.1538 81.9286 78.0306 74.1301 78.8905 73.093C80.9993 75.3651 83.9475 77.985 85.8107 80.4481Z" fill="#E5815E"/>
<path d="M90.9974 116.35C91.3933 117.018 92.2463 118.397 92.2941 118.513C92.6626 119.345 93.1745 122.497 93.5908 123.705C86.9845 131.012 88.6907 128.904 86.6706 126.734C83.0057 121.897 86.2543 117.837 90.9974 116.357V116.35Z" fill="#FA8235"/>
<path d="M74.1269 58.8265C74.1269 58.8265 74.2907 58.9834 73.6969 59.2563C72.7551 59.6862 71.0899 60.7983 70.0184 60.5527C68.6808 60.2456 59.8838 48.7423 56.8264 47.5756C58.5393 46.4635 61.863 44.4644 62.8867 43.6798C66.6357 48.7241 70.3847 53.7708 74.1337 58.8197L74.1269 58.8265Z" fill="#D37243"/>
<path d="M290.448 28.9834C303.886 36.6113 318.846 60.0341 331.116 70.5072C332.741 73.6934 334.815 77.0912 335.443 80.6732C336.808 88.5126 335.928 104.574 329.82 110.298C329.253 110.83 328.188 110.796 328.086 112.031C328.639 102.663 322.879 81.9491 319.432 72.67C315.747 62.7565 313.12 58.3625 306.022 50.3935C295.273 38.3239 284.579 28.7583 267.736 32.8792C255.274 35.9291 258.427 38.9447 254.107 44.7714C250.538 49.5952 243.815 55.6743 243.726 56.4521C243.604 57.4483 248.101 61.9172 248.483 62.7223C249.398 64.6464 249.637 68.8219 249.78 69.2108C245.74 72.5267 241.702 75.8426 237.666 79.1585C237.646 78.9743 237.468 80.5982 236.8 76.1292C236.643 75.0921 236.554 74.1574 236.37 73.0999C233.646 49.7248 232.746 43.5911 259.082 31.5761C270.07 26.5681 279.112 22.5495 290.448 28.9834Z" fill="#2D2523"/>
<path d="M286.551 146.63C286.544 148.288 286.756 149.059 286.551 150.955C285.957 156.359 285.152 159.47 282.654 164.362C282.375 164.915 281.951 165.195 282.654 165.229C281.733 165.781 274.956 173.975 271.837 175.176C268.623 173.737 257.778 178.799 253.233 179.932C252.619 180.082 251.213 182.449 244.361 179.065C234.336 174.112 232.5 161.374 233.326 151.385C247.425 167.48 277.7 160.439 264.044 148.574L264.91 147.926C267.285 149.052 269.592 150.102 271.619 151.822C278.71 141.731 276.396 138.633 272.049 128.467C276.881 134.521 281.713 140.578 286.544 146.636L286.551 146.63Z" fill="#60534F"/>
<path d="M304.289 129.327C306.384 133.748 310.267 144.132 308.185 148.574C307.237 150.6 303.893 150.232 305.155 151.385C303.975 151.747 302.03 152.129 300.828 152.252C300.48 152.286 298.474 152.265 297.798 152.252C293.997 152.17 290.237 150.416 286.551 150.955C286.756 149.059 286.544 148.288 286.551 146.63C286.613 134.56 284.743 128.754 278.983 118.083C280.621 120.723 299.477 136.764 301.265 134.301C290.912 116.793 289.008 116.998 304.295 129.327H304.289Z" fill="#2D2D2D"/>
<path d="M303.859 119.379C308.834 123.705 313.754 128.085 318.784 132.356C322.674 126.441 327.663 119.222 328.086 112.031C328.188 110.803 329.246 110.83 329.82 110.298C327.649 122.497 317.815 147.53 305.162 151.385C303.893 150.232 307.244 150.6 308.192 148.574C310.274 144.132 306.397 133.748 304.295 129.327C300.863 122.081 295.287 114.774 290.448 108.347L291.096 107.698C295.007 111.956 299.511 115.592 303.859 119.379Z" fill="#2D2D2D"/>
<path d="M300.828 152.252C293.403 164.048 284.422 164.164 282.654 165.229C281.951 165.201 282.375 164.915 282.654 164.362C285.323 164.731 284.599 163.011 285.036 162.629C288.817 159.313 294.857 156.441 297.798 152.252C298.474 152.265 300.48 152.286 300.828 152.252Z" fill="#2D2D2D"/>
<path d="M236.799 130.193C237.721 132.936 238.499 133.052 238.533 133.223C238.581 133.496 238.54 133.809 238.533 134.089C238.506 134.997 233.981 143.682 233.339 151.392C232.514 161.381 234.349 174.119 244.375 179.072C251.227 182.456 252.633 180.089 253.247 179.939C249.998 186.618 250.381 184.21 244.593 184.694C244.45 184.708 243.959 183.828 241.781 184.264C241.345 184.353 236.178 188.037 233.776 188.16C225.034 176.282 229.702 156.332 229.449 142.311C230.705 134.812 232.206 127.348 233.346 119.823C233.496 123.466 235.68 126.857 236.806 130.2L236.799 130.193Z" fill="#2D2D2D"/>
<path d="M319.432 72.6632C318.32 73.4547 315.481 77.3232 315.106 78.2852H314.676C310.158 64.3598 291.165 38.5354 274.874 42.3835C273.168 42.786 264.392 46.8797 264.057 48.2238C263.927 48.7355 265.088 54.3507 264.487 58.8197C261.989 59.0107 259.573 59.6111 257.13 60.116C254.134 60.7369 251.152 61.003 248.476 62.7087C248.094 61.8968 243.597 57.4278 243.72 56.4385C243.815 55.6607 250.531 49.5816 254.1 44.7578C258.413 38.9311 255.267 35.9086 267.729 32.8656C284.572 28.7446 295.266 38.317 306.015 50.3798C313.113 58.3421 315.74 62.7428 319.426 72.6564L319.432 72.6632Z" fill="#A12815"/>
<path d="M319.432 72.6632C322.879 81.9423 328.639 102.65 328.086 112.024C327.663 119.222 322.674 126.434 318.784 132.349C313.754 128.085 308.827 123.705 303.859 119.372C308.813 106.668 311.011 91.9991 315.542 79.3632C315.918 78.3125 315.085 78.333 315.112 78.2852C315.488 77.3232 318.327 73.4547 319.439 72.6632H319.432Z" fill="#2D2D2D"/>
<path d="M254.537 81.3146C255.165 82.7064 255.622 84.2484 256.27 85.6402C254.776 85.8381 248.217 86.3293 247.835 86.5067C247.405 86.7046 247.712 87.7621 247.617 87.8031C246.334 88.4444 245.242 89.1608 243.72 89.0994C243.651 88.9834 242.573 88.6969 241.556 87.5847C240.184 91.7126 238.82 95.7039 237.659 99.9136C236.642 93.93 238.861 89.4474 237.659 79.1517C241.7 75.8358 245.737 72.5199 249.773 69.204C251.329 73.441 252.653 77.1663 254.53 81.3146H254.537Z" fill="#A12815"/>
<path d="M257.13 60.1228C257.301 61.5079 261.696 64.1892 261.887 64.4485C263.648 66.7546 255.533 77.7667 254.53 81.3146C252.653 77.1663 251.329 73.441 249.773 69.204C249.63 68.8151 249.391 64.6395 248.476 62.7155C251.152 61.0098 254.134 60.7369 257.13 60.1228Z" fill="#C73D1F"/>
<path d="M303.859 119.379C299.511 115.592 295.007 111.956 291.096 107.698L290.448 108.347C295.287 114.774 300.856 122.074 304.295 129.327C289.015 116.998 290.912 116.793 301.265 134.301C299.484 136.764 280.621 120.716 278.983 118.083C284.743 128.754 286.613 134.56 286.551 146.63C281.719 140.575 276.888 134.519 272.056 128.46C276.396 138.633 278.717 141.724 271.626 151.815C269.599 150.102 267.292 149.045 264.917 147.919C255.868 143.634 246.763 139.902 238.526 134.076C238.533 133.796 238.574 133.482 238.526 133.209C244.225 123.002 245.474 126.686 248.906 124.558C253.363 121.801 248.238 120.266 259.075 122.395C255.861 114.364 261.314 119.393 273.782 118.499C275.864 117.66 269.769 111.56 269.026 108.551C274.649 109.707 280.273 110.86 285.896 112.01C286.845 111.328 283.835 101.844 283.514 100.118C288.201 101.487 292.887 102.857 297.573 104.226C297.573 100.446 296.031 97.3141 297.355 93.6298C291.349 81.915 298.46 90.539 303.197 93.8481C303.975 93.9027 306.397 90.2798 306.438 87.7894C308.806 87.1003 312.191 81.3282 314.655 78.2716H315.085C315.065 78.3262 315.89 78.3057 315.515 79.3496C310.984 91.9855 308.786 106.655 303.831 119.359L303.859 119.379Z" fill="#74817D"/>
<path d="M264.917 147.926L264.05 148.574C277.707 160.439 247.439 167.48 233.333 151.385C233.967 143.675 238.499 134.99 238.526 134.082C246.763 139.902 255.868 143.641 264.917 147.926Z" fill="#6F6360"/>
<path d="M297.798 152.252C294.857 156.441 288.817 159.32 285.036 162.629C284.606 163.004 285.323 164.724 282.654 164.362C285.152 159.47 285.957 156.359 286.551 150.955C290.237 150.416 293.997 152.17 297.798 152.252Z" fill="#2D2D2D"/>
<path d="M243.72 89.0994C244.934 91.2213 244.791 95.1649 247.18 98.6173C247.412 103.093 247.801 107.555 248.047 112.024C242.478 116.316 238.977 123.691 236.799 130.193C235.673 126.85 233.49 123.459 233.339 119.816C233.326 119.529 233.333 119.236 233.339 118.949C233.374 117.612 236.888 102.752 237.666 99.9204C238.82 95.7107 240.185 91.7194 241.563 87.5916C242.58 88.6969 243.658 88.9902 243.726 89.1062L243.72 89.0994Z" fill="#AB5242"/>
<path d="M233.769 188.147C224.815 188.597 225.873 164.055 226.412 158.085C226.87 153.077 228.596 147.353 229.443 142.297C229.695 156.318 225.027 176.268 233.769 188.147Z" fill="#646564"/>
<path d="M314.676 78.292C312.205 81.3487 308.82 87.114 306.459 87.8099C306.479 86.4931 304.705 75.597 304.295 74.1847C301.19 63.5342 291.335 54.0232 282.661 47.5825C280.102 45.6789 277.809 43.7344 274.874 42.3903C291.165 38.5354 310.158 64.3598 314.676 78.292Z" fill="#C73D1F"/>
<path d="M248.913 124.571C245.48 126.693 244.225 123.016 238.533 133.223C238.506 133.052 237.728 132.943 236.799 130.193C238.977 123.691 242.478 116.323 248.047 112.024C248.272 116.179 248.006 120.457 248.913 124.565V124.571Z" fill="#D37243"/>
<path d="M274.867 42.3903C277.802 43.7344 280.095 45.6789 282.654 47.5825C280.259 54.7055 265.32 63.4933 264.917 64.6668C264.726 65.2263 264.985 71.5579 264.487 75.0444C262.638 87.9395 262.965 84.7396 256.27 85.6402C255.622 84.2484 255.171 82.7064 254.537 81.3146C255.533 77.7667 263.648 66.7546 261.894 64.4485C263.382 63.0089 264.303 60.2252 264.487 58.8265C265.088 54.3575 263.927 48.7423 264.057 48.2306C264.392 46.8865 273.168 42.7928 274.874 42.3903L274.867 42.3903Z" fill="#EB602C"/>
<path d="M264.487 58.8265C264.296 60.2252 263.382 63.0089 261.894 64.4485C261.696 64.1961 257.301 61.5079 257.137 60.1228C259.58 59.6179 261.996 59.0175 264.494 58.8265H264.487Z" fill="#C73D1F"/>
<path d="M306.452 87.8031C306.411 90.2866 303.981 93.9095 303.21 93.8618C298.481 90.5527 291.363 81.9286 297.368 93.6434C296.044 97.3278 297.58 100.459 297.587 104.239C292.9 102.87 288.214 101.501 283.528 100.132C283.849 101.865 286.858 111.342 285.91 112.024C280.286 110.869 274.663 109.716 269.039 108.565C269.79 111.574 275.877 117.673 273.796 118.513C261.327 119.4 255.874 114.371 259.089 122.409C248.258 120.28 253.377 121.815 248.92 124.571C248.012 120.464 248.285 116.179 248.053 112.031C247.808 107.562 247.419 103.093 247.187 98.6241C247.303 98.7878 249.336 101.128 249.78 101.653C251.118 109.138 249.637 110.141 255.403 107.275L256.27 106.627C253.383 100.378 251.165 93.7594 247.617 87.8099C247.705 87.7621 247.398 86.7114 247.835 86.5136C248.217 86.3362 254.776 85.8517 256.27 85.6471C262.965 84.7464 262.638 87.9464 264.487 75.0512C264.985 71.5579 264.726 65.2331 264.917 64.6737C265.32 63.5001 280.259 54.7123 282.654 47.5893C291.328 54.03 301.183 63.5411 304.289 74.1915C304.698 75.6038 306.472 86.4931 306.452 87.8167V87.8031Z" fill="#E29150"/>
<path d="M255.403 107.269C253.417 105.583 251.466 103.618 249.78 101.647C249.33 101.121 247.296 98.781 247.187 98.6173C244.798 95.1649 244.941 91.2213 243.726 89.0994C245.248 89.1608 246.34 88.4444 247.623 87.8031C251.172 93.7526 253.39 100.371 256.277 106.62L255.41 107.269H255.403Z" fill="#B55A2B"/>
<path d="M255.403 107.269C249.637 110.134 251.118 109.124 249.78 101.647C251.466 103.618 253.417 105.583 255.403 107.269Z" fill="#FA8235"/>
<defs>
<linearGradient id="paint0_linear_3126_66455" x1="73.5839" y1="170.396" x2="250.248" y2="196.168" gradientUnits="userSpaceOnUse">
<stop stop-color="#392E2E"/>
<stop offset="1" stop-color="#1F191B"/>
</linearGradient>
</defs>
</svg>
