<svg width="238" height="326" viewBox="0 0 238 326" fill="none" xmlns="http://www.w3.org/2000/svg">
<path d="M91.6274 109.683C102.311 112.144 112.603 116.41 123.322 118.722V121.252C123.039 123.976 123.685 125.375 123.68 125.592C123.605 128.39 122.745 131.439 122.612 134.265C120.782 134.597 119.322 123.924 110.323 119.807C108.112 122.04 108.488 122.913 108.366 123.062C105.169 126.836 101.532 127.242 104.805 132.461C104.026 133.946 102.323 143.407 102.848 143.664C104.089 140.352 106.231 137.475 107.656 134.265C107.824 138.428 106.381 142.499 105.879 146.554C104.089 161.001 104.453 173.42 106.589 187.759C107.362 192.949 108.465 197.871 109.792 202.942C113.296 216.304 119.697 227.924 125.815 240.355C107.079 242.902 117.596 241.469 113.353 229.871C111.91 225.926 108.638 224.715 108.014 223.185C107.454 221.809 106.658 213.38 105.879 209.811C106.444 200.858 103.085 195.125 97.6881 188.484C98.6174 189.272 98.8656 187.839 99.1138 186.856C100.69 180.644 103.518 160.858 103.385 154.502C103.218 146.417 100.828 138.537 100.534 130.462C100.135 129.549 92.3489 130.474 90.9174 130.645C90.2998 130.719 89.4802 130.908 88.7818 131.005C87.3215 131.216 85.9015 131.816 84.5105 132.09C82.0227 132.581 79.4945 132.855 77.0299 133.534C67.8465 136.076 60.2678 139.65 52.4582 145.103C46.4957 149.26 42.7669 152.812 38.2127 158.477C33.9934 163.724 31.4941 167.522 28.5965 173.66C25.3526 174.402 25.9644 180.061 22.5416 180.529C32.6369 151.607 56.7064 134.454 85.7514 129.2C94.3056 127.653 101.157 130.245 103.021 122.874C104.372 117.552 102.848 119.921 99.639 122.691C97.5784 123.033 104.343 117.152 103.021 115.644C97.5265 114.057 87.535 112.852 100.528 112.755C97.7689 112.458 81.2435 107.273 91.6274 109.683Z" fill="#84150E"/>
<path d="M232.119 113.663C232.743 113.492 238.18 113.737 237.995 114.565C234.134 114.405 229.961 114.365 232.119 113.663Z" fill="#646564"/>
<path d="M231.052 119.807L235.15 123.604C234.134 123.713 230.763 120.909 231.052 119.807Z" fill="#646564"/>
<path d="M232.835 118.362C239.381 119.978 238.809 121.657 232.656 118.545L232.835 118.362Z" fill="#737471"/>
<path d="M236.039 117.278L237.995 117.82C237.99 118.071 235.179 118.357 236.039 117.278Z" fill="#828380"/>
<path d="M107.299 37.032C106.987 46.3568 109.278 55.4874 115.131 62.6937C115.801 63.5159 116.898 64.9263 117.625 65.583C116.828 65.9085 119.05 67.4503 119.05 67.5702C119.05 67.6901 118.444 67.6387 117.625 69.5573C115.247 75.1248 108.817 81.7201 112.638 80.7607C111.766 81.9599 111.05 83.4902 110.144 84.735C109.809 82.0969 108.309 83.7358 108.187 83.6501C102.675 79.9899 98.5423 60.3867 98.0402 53.8314C97.486 46.6309 99.4024 34.7536 96.9723 32.3268C97.0243 31.9785 96.9146 31.5902 96.9723 31.2418C99.9969 36.4153 101.411 36.5124 107.299 37.0263V37.032Z" fill="url(#paint0_linear_3126_18927)"/>
<path d="M110.15 84.7465C103.72 93.603 100.661 103.465 89.8496 107.879C89.0819 107.941 85.5263 109.249 85.5783 108.061C91.6909 105.046 100.268 97.4517 102.675 91.0734C105.596 83.3189 101.723 81.9713 99.4716 74.805C95.3562 61.7058 94.9059 45.82 96.9781 32.3325C99.4081 34.765 97.4918 46.6423 98.0459 53.8371C98.5539 60.3982 102.687 79.9956 108.193 83.6558C108.32 83.7415 109.821 82.0969 110.15 84.7408V84.7465Z" fill="#9C2315"/>
<path d="M121.902 69.2033C119.662 71.8471 114.531 78.174 112.643 80.7722C108.822 81.7315 115.252 75.1362 117.631 69.5687C118.254 69.5973 119.466 68.1355 119.587 68.1241C119.714 68.1126 121.411 69.2033 121.902 69.209V69.2033Z" fill="#9C2315"/>
<path d="M191.346 309.94C191.715 311.83 191.854 313.806 191.703 315.724C191.438 319.082 192.05 319.139 188.321 320.064C179.9 322.143 178.878 318.962 178.347 318.979C177.822 318.996 176.783 321.32 176.211 321.509C174.422 322.108 167.415 321.018 165.348 321.149C174.029 317.449 182.693 313.709 191.346 309.946V309.94Z" fill="#081212"/>
<path d="M125.463 142.22C125.486 142.494 125.515 142.619 125.821 142.579C125.694 144.664 127.218 146.285 127.957 148.004C128.436 149.106 129.261 149.946 129.382 150.174C129.504 150.408 130.352 154.668 131.876 154.514C131.899 155.296 132.084 155.633 132.234 156.324C132.592 157.946 133.14 158.054 133.302 158.494C134.491 161.686 136.592 166.882 139.714 168.253C140.124 169.001 140.476 169.846 141.14 170.422C138.531 179.542 134.173 185.292 136.511 199.699C135.662 199.562 135.841 200.058 135.801 200.058C134.497 200.041 124.043 195.336 122.444 194.274C108.707 185.178 109.128 161.206 106.952 146.377L105.884 146.559C106.387 142.505 107.835 138.428 107.662 134.271C108.257 132.929 109.14 131.684 109.088 130.114C108.984 129.948 105.671 131.256 105.527 131.382C105.665 127.122 106.404 128.698 106.952 128.852C106.987 128.864 106.831 129.537 107.131 129.577C107.576 129.629 113.734 124.929 114.964 125.238C116.418 125.603 121.729 142.671 123.154 137.526C123.172 139.011 123.76 144.926 125.469 142.225L125.463 142.22Z" fill="url(#paint1_linear_3126_18927)"/>
<path d="M135.789 200.053C136.086 201.499 136.382 202.946 136.678 204.392C134.693 203.747 128.205 203.907 127.778 203.667C127.507 203.519 127.31 201.754 127.241 201.68C125.053 199.173 111.46 192.424 106.583 187.764C104.447 173.426 104.078 161.006 105.873 146.559L106.941 146.377C109.111 161.2 108.695 185.172 122.433 194.274C124.032 195.33 134.485 200.036 135.789 200.058V200.053Z" fill="#DC5027"/>
<path d="M135.789 200.053C135.83 200.053 135.657 199.556 136.499 199.693C136.8 201.549 136.984 203.433 137.925 205.118C133.769 204.998 129.608 204.672 125.463 204.392C120.228 204.044 114.987 203.736 109.792 202.948C108.465 197.883 107.362 192.955 106.589 187.764C111.46 192.424 125.053 199.173 127.247 201.68C127.316 201.76 127.512 203.519 127.784 203.667C128.217 203.901 134.699 203.747 136.684 204.392C136.388 202.946 136.092 201.499 135.795 200.053H135.789Z" fill="#B6361B"/>
<path d="M122.612 134.265C129.769 119.859 125.048 136.744 125.463 142.22C123.755 144.921 123.166 139.005 123.149 137.52C121.723 142.665 116.413 125.597 114.958 125.232C113.729 124.923 107.564 129.623 107.125 129.572C106.831 129.537 106.981 128.858 106.946 128.846C107.656 126.602 109.238 123.69 108.372 123.062C108.493 122.919 108.118 122.04 110.329 119.807C119.328 123.924 120.788 134.597 122.618 134.265H122.612Z" fill="#9C2315"/>
<path d="M107.656 134.265C106.231 137.475 104.089 140.352 102.848 143.664C102.323 143.407 104.032 133.946 104.805 132.461C105.036 132.027 105.117 131.719 105.515 131.376C105.659 131.25 108.972 129.943 109.076 130.108C109.128 131.679 108.245 132.923 107.651 134.265H107.656Z" fill="#C74520"/>
<path d="M106.941 128.846C106.392 128.692 105.654 127.116 105.515 131.376C105.111 131.719 105.03 132.027 104.805 132.461C101.532 127.242 105.169 126.836 108.366 123.062C109.238 123.69 107.651 126.597 106.941 128.846Z" fill="#9C2315"/>
<path d="M195.617 213.066C194.18 229.74 193.239 246.465 191.698 263.128C203.502 273.492 200.916 268.712 206.474 269.454C214.203 270.488 216.212 279.253 217.158 279.573C219.935 280.515 225.106 277.386 229.447 290.057C210.792 282.097 203.923 270.973 182.439 259.696C182.191 259.016 183.138 258.634 183.149 258.428C183.195 257.789 179.98 247.91 179.588 246.14C177.516 236.724 176.396 227.273 174.601 217.943C174.739 217.726 175.218 217.863 176.027 217.4C176.477 217.143 177.308 216.818 177.804 216.675C179.195 216.275 186.064 215.013 189.914 214.145C191.19 213.86 192.535 213.711 193.833 213.42C194.451 213.283 194.959 212.981 195.611 213.061L195.617 213.066Z" fill="#081212"/>
<path d="M176.032 217.406C175.224 217.868 174.745 217.731 174.607 217.948C176.396 227.279 177.521 236.724 179.594 246.145C179.98 247.916 183.201 257.794 183.155 258.434C183.138 258.634 182.197 259.022 182.445 259.701C178.168 257.457 173.758 255.327 169.267 253.557C168.8 248.698 167.79 243.936 167.132 239.099C166.82 236.815 165.931 226.188 165.706 225.543C165.608 225.263 165.227 225.36 164.996 225.36C165.666 223.367 165.1 222.031 165.354 220.301C165.4 219.981 165.619 219.918 165.712 219.576H166.07L176.044 217.406H176.032Z" fill="#081212"/>
<path d="M199.536 179.81C198.97 182.151 197.753 184.532 197.4 186.856C197.014 189.403 196.269 205.523 195.623 213.061C194.97 212.981 194.463 213.283 193.845 213.42C193.931 209.908 195.744 194.702 195.623 193.72C195.605 193.583 195.051 193.326 194.913 192.818C196.136 192.241 195.548 187.57 196.338 184.504C196.823 182.625 201.47 171.827 199.542 179.804L199.536 179.81Z" fill="#6B1D0E"/>
<path d="M193.123 189.934C188.864 199.276 182.947 207.796 177.81 216.681C177.308 216.824 176.477 217.143 176.032 217.406L166.058 219.576C172.229 213.072 177.504 206.088 182.439 198.608C183.063 202 183.692 199.19 185.291 197.883C188.742 195.068 191.051 193.132 192.056 188.124C193.21 187.936 192.968 189.626 193.123 189.934Z" fill="#84150E"/>
<path d="M194.907 192.464C191.934 191.225 191.126 208.412 189.92 214.151C186.07 215.019 179.201 216.281 177.81 216.681C182.947 207.796 188.864 199.276 193.123 189.934C193.475 190.614 194.676 191.727 194.901 192.464H194.907Z" fill="#DC5027"/>
<path d="M194.907 192.464C194.942 192.572 194.878 192.715 194.907 192.824C195.045 193.332 195.605 193.594 195.617 193.726C195.732 194.708 193.92 209.914 193.839 213.426C192.54 213.711 191.201 213.86 189.92 214.151C191.126 208.412 191.929 191.225 194.907 192.464Z" fill="#EB602C"/>
<path d="M71.6849 236.564C87.0271 241.48 102.993 242.394 118.872 244.153C121.192 244.41 124.009 243.913 126.352 244.153C134.139 244.946 141.931 246.305 149.677 247.407C153.1 247.893 156.829 249.12 157.158 247.95C155.974 244.889 155.57 241.474 154.664 238.368C154.624 237.928 155.005 238.026 155.022 238.008C158.701 238.854 162.381 239.697 166.064 240.538C165.539 243.068 165.446 248.806 165.354 251.741C155.114 248.19 144.015 246.745 133.302 245.597C120.742 244.25 107.899 244.427 95.3735 242.708C87.1714 241.583 79.0847 239.31 70.9807 237.649C70.7268 236.193 71.6734 236.627 71.6907 236.564H71.6849Z" fill="#081212"/>
<path d="M169.262 253.552C167.969 253.038 166.635 252.193 165.342 251.741C165.435 248.801 165.527 243.068 166.052 240.538C166.07 240.452 166.705 239.048 167.12 239.093C167.778 243.93 168.788 248.692 169.256 253.552H169.262Z" fill="#646564"/>
<path d="M28.5965 173.666C27.8865 175.173 27.4536 176.858 26.8187 178.365C25.2487 182.088 23.6729 185.669 22.5474 189.569C20.4059 196.969 19.3323 200.738 20.4117 208.726C21.3064 215.345 25.7278 224.133 31.6268 227.524C33.4854 228.592 37.6759 229.021 37.8606 230.414C31.5229 228.821 12.9196 223.63 8.3019 220.295C7.71315 219.873 6.77808 218.851 6.16624 218.308C15.8922 220.781 26.4377 228.25 17.9182 220.655C21.3987 221.106 14.3164 213.335 15.0668 202.04C14.4203 201.417 9.68142 203.028 8.654 203.307C2.23546 205.049 2.00458 206.151 -0.604389 207.647C-8.48326 212.158 -10.567 213.614 -15.5598 221.38C-17.4242 224.275 -18.544 226.491 -19.8311 229.694C-23.0808 237.791 -24.4026 243.182 -24.1025 252.107C-23.5772 267.759 -19.7042 274.468 -7.18455 283.193C5.54285 292.067 23.1246 298.519 38.0453 302.351C46.1493 304.435 68.2102 308.786 76.1525 309.58C78.3748 309.803 87.4253 310.185 88.9723 309.94C91.2349 309.58 92.2566 306.799 94.6693 306.325C96.9781 305.874 101.134 307.142 100.903 305.6C113.555 305.863 126.087 305.046 138.473 302.345C143.588 301.232 148.673 298.508 153.966 298.731C152.979 299.53 151.801 300.164 150.762 300.901C147.663 303.093 144.326 305.075 141.504 307.587C141.792 307.976 142.808 307.679 143.282 307.77C143.097 310.071 145.261 307.382 146.843 309.757C144.696 311.761 141.181 310.814 140.257 311.025C135.079 312.184 133.354 313.486 123.518 314.999C123.177 315.051 123.501 316.033 123.16 316.084C122.918 316.118 123.045 315.325 122.802 315.359C120.713 315.673 116.822 315.747 114.254 316.084C113.908 316.13 114.254 317.026 113.896 317.169C112.69 317.649 112.551 316.438 112.47 316.444C111.241 316.575 110.029 317.494 109.619 317.529C108.17 317.643 90.2479 317.323 87.5408 317.169C75.2925 316.461 67.7311 314.411 56.5564 312.469C51.4308 311.579 45.9704 311.43 40.8852 310.3C23.4997 306.439 12.6771 300.318 -2.56112 292.946C-4.36777 292.073 -6.30142 292.449 -7.54819 291.861C-9.98977 290.714 -14.5093 283.382 -16.6276 283.907C-17.1009 283.193 -17.2222 282.074 -18.4054 282.097C-34.9713 253.626 -27.7966 214.802 4.91947 202.936C11.1937 200.664 17.82 200.03 18.276 199.504C18.911 198.774 18.732 191.465 22.5474 180.529C25.9702 180.067 25.3583 174.402 28.6022 173.66L28.5965 173.666Z" fill="#9C2315"/>
<path d="M-16.6334 283.913C14.8013 331.307 104.649 323.484 153.775 324.398C154.878 323.644 153.365 323.656 153.596 322.228C154.889 322.485 157.215 323.319 157.868 323.313C159.282 324.489 151.028 325.723 149.498 325.843C143.42 326.334 103.414 325.557 94.2999 325.118C62.7094 323.604 25.8663 320.372 -0.610163 301.26C-7.67517 296.161 -13.984 289.72 -18.417 282.103C-17.2279 282.074 -17.1067 283.199 -16.6392 283.913H-16.6334Z" fill="#84150E"/>
<path d="M-0.610163 207.642C-0.37928 207.613 -0.0849075 207.693 0.0998001 207.642C3.97863 211.199 10.882 216.572 15.2341 219.57C15.7998 219.964 16.8619 220.804 17.5488 220.295C17.5661 220.318 17.9412 220.215 17.9066 220.655C26.4262 228.244 15.8806 220.775 6.1547 218.308C6.76654 218.856 7.70161 219.873 8.29036 220.295L7.9325 221.563C10.4318 227.553 70.5882 238.397 79.6908 241.988C89.6591 243.342 99.6217 245.5 109.607 246.688C115.922 247.436 122.877 247.173 129.019 247.773C130.387 247.904 142.064 249.457 142.196 250.12L131.512 253.009C133.529 254.635 135.547 256.262 137.567 257.891C140.805 261.209 144.401 264.087 147.893 267.108L138.993 269.277L146.474 281.749C134.404 283.085 122.381 280.504 110.329 281.023C101.428 281.412 93.9074 284.221 78.2766 282.108C67.1423 280.607 40.233 271.961 29.1333 267.65C10.1432 260.272 -11.5194 250.057 -15.2019 227.347C-15.9696 222.602 -14.4458 221.226 -15.5598 221.386C-10.567 213.614 -8.48325 212.164 -0.604383 207.653L-0.610163 207.642Z" fill="#EB602C"/>
<path d="M139.351 286.083C137.931 286.848 146.768 294.762 147.362 295.122C152.956 298.474 156.973 296.287 153.948 298.736C148.655 298.514 143.57 301.237 138.456 302.351C126.069 305.052 113.538 305.868 100.886 305.606C77.8957 305.126 40.3542 297.606 19.1534 288.618C7.29179 283.587 -11.3404 272.418 -18.7748 261.689C-21.5512 257.68 -22.5498 252.575 -24.114 252.107C-24.4142 243.182 -23.0923 237.791 -19.8427 229.694C-18.8845 229.346 -19.9004 232.886 -18.7748 237.466C-12.541 262.831 40.4465 280.778 62.9576 285.363C79.281 288.686 96.2047 289.52 112.817 288.978C115.258 288.898 135.507 287.407 136.678 287.168C137.227 287.059 138.231 286.42 139.351 286.083Z" fill="#B6361B"/>
<path d="M229.447 294.037C229.487 294.477 229.106 294.38 229.089 294.397C228.293 294.625 227.415 294.842 226.596 294.756C212.581 293.357 202.919 288.909 182.97 290.782C176.211 291.416 168.581 293.209 162.312 295.841C157.706 297.777 151.605 302.802 150.739 300.901C151.778 300.164 152.956 299.53 153.943 298.731C156.961 296.281 152.95 298.468 147.357 295.116C146.762 294.756 137.919 286.848 139.345 286.077C141.192 285.517 149.048 282.4 146.468 281.737L138.987 269.266L147.888 267.096C144.396 264.075 140.794 261.198 137.561 257.88C136.297 256.589 135.178 255.116 133.821 253.906C146.058 248.281 174.814 260.935 186.174 267.639C195.957 273.417 219.692 293.426 229.441 294.025L229.447 294.037Z" fill="#D3D0BD"/>
<path d="M165.348 251.741C166.641 252.193 167.969 253.038 169.267 253.552C173.758 255.327 178.168 257.452 182.445 259.696C203.929 270.973 210.797 282.103 229.453 290.057C237.228 293.375 241.424 292.923 229.453 294.031C219.704 293.432 195.969 273.423 186.185 267.644C174.826 260.941 146.07 248.281 133.833 253.911C135.183 255.128 136.309 256.595 137.573 257.886C135.557 256.26 133.538 254.633 131.518 253.003L142.202 250.114C142.069 249.446 130.398 247.898 129.025 247.767C130.393 246.682 133.469 246.597 133.296 245.597C144.009 246.745 155.109 248.19 165.348 251.741Z" fill="#F7F6F3"/>
<path d="M226.601 294.756C219.427 298.845 211.242 300.963 203.628 304.155C199.467 305.903 195.461 308.147 191.34 309.94C182.687 313.709 174.024 317.443 165.342 321.143C162.595 321.315 160.292 323.279 157.862 323.313C157.21 323.325 154.883 322.485 153.59 322.228C152.355 321.983 141.481 319.099 141.481 318.431C152.465 314.222 155.767 314.508 142.018 312.104C148.049 310.374 155.79 309.62 150.566 308.489C149.614 308.284 146.364 308.335 143.264 307.764C142.785 307.679 141.775 307.97 141.486 307.582C144.309 305.069 147.645 303.088 150.745 300.895C151.611 302.796 157.718 297.771 162.318 295.836C168.581 293.198 176.211 291.41 182.976 290.776C202.924 288.909 212.587 293.357 226.601 294.751V294.756Z" fill="url(#paint2_linear_3126_18927)"/>
<path d="M146.474 281.743C149.054 282.4 141.198 285.523 139.351 286.083C138.231 286.42 137.227 287.053 136.678 287.168C135.507 287.407 115.258 288.898 112.817 288.978C96.2047 289.52 79.2867 288.686 62.9576 285.363C40.4465 280.784 -12.541 262.831 -18.7748 237.466C-19.9004 232.886 -18.8903 229.346 -19.8427 229.694C-18.5555 226.491 -17.43 224.281 -15.5713 221.38C-14.4573 221.226 -15.9869 222.602 -15.2135 227.342C-11.5309 250.051 10.1316 260.267 29.1217 267.644C40.2214 271.956 67.1308 280.601 78.2651 282.103C93.8958 284.215 101.417 281.406 110.317 281.018C122.375 280.498 134.398 283.073 146.462 281.743H146.474Z" fill="#DC5027"/>
<path d="M143.264 307.77C146.364 308.341 149.614 308.29 150.566 308.495C155.795 309.626 148.049 310.38 142.018 312.11C155.767 314.514 152.465 314.228 141.481 318.437C141.481 319.105 152.355 321.988 153.591 322.234C153.36 323.661 154.872 323.65 153.769 324.404C104.649 323.49 14.8012 331.313 -16.6392 283.918C-14.5151 283.393 -9.99553 290.725 -7.55972 291.873C-6.31296 292.461 -4.37932 292.084 -2.57266 292.958C12.6656 300.324 23.4882 306.445 40.8737 310.311C45.9588 311.442 51.4134 311.59 56.5448 312.481C67.7195 314.422 75.2809 316.472 87.5292 317.18C90.2421 317.335 108.159 317.654 109.607 317.54C110.017 317.506 111.229 316.587 112.459 316.455C112.54 316.449 112.678 317.654 113.884 317.18C114.242 317.038 113.896 316.141 114.242 316.095C116.811 315.759 120.701 315.69 122.791 315.37C123.033 315.336 122.906 316.13 123.149 316.095C123.489 316.044 123.166 315.062 123.507 315.01C133.342 313.497 135.068 312.195 140.246 311.036C141.175 310.831 144.69 311.773 146.831 309.769C145.25 307.393 143.085 310.083 143.27 307.781L143.264 307.77Z" fill="#9C2315"/>
<path d="M100.886 305.6C101.117 307.142 96.9608 305.874 94.652 306.325C92.2392 306.799 91.2118 309.58 88.9549 309.94C87.408 310.185 78.3574 309.803 76.1352 309.58C68.1928 308.786 46.132 304.435 38.028 302.351C23.1073 298.519 5.52554 292.067 -7.20186 283.193C-19.7215 274.468 -23.5945 267.759 -24.1198 252.107C-22.5555 252.569 -21.5512 257.674 -18.7806 261.689C-11.352 272.418 7.28602 283.587 19.1476 288.618C40.3426 297.606 77.8899 305.126 100.88 305.606L100.886 305.6Z" fill="#9C2315"/>
<path d="M37.8549 230.414C46.6804 232.635 61.5896 235.713 70.975 237.643C79.0789 239.305 87.1714 241.577 95.3677 242.702C107.893 244.421 120.736 244.25 133.296 245.592C133.469 246.591 130.393 246.671 129.025 247.761C122.883 247.162 115.928 247.425 109.613 246.676C99.6333 245.489 89.6649 243.33 79.6965 241.977C70.5882 238.391 10.4376 227.547 7.93826 221.552L8.29613 220.284C12.9138 223.624 31.5171 228.809 37.8549 230.402V230.414Z" fill="#FA8235"/>
<path d="M17.9124 220.655C17.9528 220.215 17.5718 220.312 17.5545 220.295C13.9008 215.396 13.0004 211.553 11.8575 210.177C13.3294 207.784 10.149 205.283 8.654 203.307C9.67565 203.028 14.4203 201.423 15.0668 202.04C14.3164 213.335 21.3929 221.106 17.9182 220.655H17.9124Z" fill="#9C2315"/>
<path d="M8.64823 203.307C10.1432 205.277 13.3236 207.784 11.8517 210.177C8.89065 206.619 4.26146 206.471 0.0998001 207.647C-0.0849075 207.699 -0.385052 207.619 -0.610163 207.647C1.99881 206.151 2.23547 205.049 8.64823 203.307Z" fill="#B6361B"/>
<path d="M11.8575 210.171C13.0004 211.547 13.9008 215.39 17.5545 220.29C16.8676 220.798 15.8056 219.958 15.2399 219.564C10.8878 216.567 3.97863 211.193 0.105577 207.636C4.26723 206.46 8.89643 206.608 11.8575 210.165V210.171Z" fill="#DC5027"/>
<path d="M137.215 155.593C137.469 157.94 138.017 163.844 138.283 164.992C138.56 166.203 139.126 167.19 139.709 168.247C136.586 166.871 134.485 161.68 133.296 158.488C134.439 157.129 135.258 154.217 137.215 155.599V155.593Z" fill="#B6361B"/>
<path d="M125.463 204.392C129.608 204.672 133.775 204.998 137.925 205.118C138.756 205.14 139.587 205.1 140.419 205.118H144.69C144.644 207.402 147.524 214.676 148.251 217.406C149.631 222.608 151.022 227.781 152.523 232.949C153.694 236.969 154.578 238.094 154.658 238.374C155.565 241.48 155.969 244.895 157.152 247.956C156.829 249.126 153.094 247.898 149.671 247.413C149.614 246.991 149.764 246.408 149.671 246.145C149.406 245.409 141.071 236.044 139.697 234.217C132.696 224.892 126.808 214.694 119.397 205.66C118.768 203.148 122.214 205.774 125.452 204.392H125.463Z" fill="#081212"/>
<path d="M125.463 204.392C122.225 205.774 118.779 203.148 119.408 205.66C126.82 214.688 132.707 224.892 139.709 234.217C141.082 236.044 149.417 245.409 149.683 246.145C149.775 246.408 149.625 246.985 149.683 247.413C141.937 246.311 134.139 244.952 126.358 244.158C124.014 243.918 121.203 244.415 118.877 244.158C102.998 242.4 87.0328 241.486 71.6907 236.569C71.7369 236.449 71.708 236.073 71.6907 235.844C82.5422 229.403 94.7559 219.93 108.014 223.19C108.638 224.721 111.91 225.931 113.353 229.877C117.602 241.474 107.079 242.902 125.815 240.361C119.691 227.936 113.296 216.31 109.792 202.948C114.987 203.736 120.228 204.044 125.463 204.392Z" fill="#081212"/>
<path d="M105.873 209.811C106.652 213.38 107.449 221.809 108.009 223.185C94.7443 219.924 82.5364 229.392 71.6849 235.839C71.6214 235.062 66.2303 226.645 65.2722 224.635C65.0471 224.161 64.8162 223.407 64.5622 222.825C79.7831 225.943 84.0545 221.78 94.8309 216.321C102.381 212.495 108.066 213.706 104.089 205.837C104.193 205.632 103.778 204.678 104.799 204.392C105.036 204.969 105.544 208.321 105.867 209.817L105.873 209.811Z" fill="#8FA098"/>
<path d="M100.886 195.353C102.3 197.791 104.06 200.852 104.089 203.667C103.535 202.685 103.818 202.006 102.485 201.497C88.8568 205.249 75.0212 208.475 61.174 210.896C60.0889 211.53 61.7281 215.208 62.4208 217.4C61.9879 217.44 62.1033 217.103 62.0629 217.041C60.718 214.739 59.2288 208.726 58.5015 205.837C57.8262 203.165 57.1451 200.624 56.7237 197.883C56.4294 195.981 55.7021 192.658 55.6559 191.013C65.3183 179.45 78.5826 177.252 91.0906 185.954C94.7963 188.535 97.4976 193.126 100.886 195.353Z" fill="#D3D0BD"/>
<path d="M104.095 203.667C104.118 203.713 104.522 203.69 104.805 204.392C103.783 204.678 104.199 205.632 104.095 205.837C103.35 207.299 101.619 208.915 100.534 210.177C100.083 209.971 99.8815 209.686 99.2869 209.817C98.2076 210.046 86.4787 215.533 78.6287 217.771C74.698 218.891 65.0644 220.41 64.3833 220.661C64.0658 220.775 64.239 221.437 64.2043 221.746C63.5694 220.215 62.9403 219.033 62.4266 217.406C61.7339 215.213 60.0946 211.53 61.1798 210.902C75.027 208.481 88.8626 205.255 102.49 201.503C103.824 202.011 103.535 202.691 104.095 203.673V203.667Z" fill="#D3D0BD"/>
<path d="M100.534 210.171C98.704 212.301 96.6318 214.157 94.8367 216.315C84.0602 221.774 79.7889 225.937 64.568 222.819C64.2621 222.123 64.2332 221.786 64.2101 221.734C64.239 221.432 64.0716 220.764 64.3891 220.649C65.0702 220.398 74.7037 218.873 78.6345 217.76C86.4845 215.522 98.2076 210.04 99.2927 209.806C99.8872 209.68 100.089 209.966 100.539 210.165L100.534 210.171Z" fill="#D3D0BD"/>
<path d="M94.8309 216.321C96.626 214.163 98.6982 212.307 100.528 210.177C101.613 208.921 103.345 207.305 104.089 205.837C108.066 213.706 102.381 212.495 94.8309 216.321Z" fill="#B6BBAD"/>
<path d="M100.886 195.353C97.4976 193.126 94.7963 188.535 91.0906 185.954C78.5883 177.252 65.3183 179.45 55.6559 191.013C55.4712 184.532 56.5275 179.125 63.4886 177.28C78.115 173.403 93.5957 182.774 100.88 195.353H100.886Z" fill="#F7F6F3"/>
<path d="M88.7818 131.011C90.0401 133.534 89.6361 138.988 90.2075 141.312C91.1656 145.223 93.6303 147.804 93.7688 148.181C94.8078 150.985 94.7039 154.377 94.8367 154.685C96.1065 157.694 101.174 158.134 96.6145 164.444C93.9132 168.184 82.7211 175.013 77.7398 175.83C62.3919 172.318 45.4913 176.835 32.5099 185.589C30.4551 186.976 28.0654 187.467 28.2386 188.301C36.4927 194.097 46.8766 196.467 56.7295 197.883C57.1509 200.624 57.8377 203.159 58.5073 205.837C57.0239 206.163 59.2981 208.19 57.9705 208.726C48.8564 208.384 29.3757 202.976 24.3194 194.993C23.2515 193.303 22.1722 191.653 22.5416 189.569C23.6671 185.669 25.2429 182.088 26.8129 178.365C33.3065 176.258 39.5518 173.426 46.2244 171.861C52.6487 170.348 76.4007 167.927 78.9866 166.802C79.356 166.642 78.975 165.9 79.3445 165.717C87.4888 161.652 84.1988 161.463 84.5105 157.586C85.105 150.117 84.5335 146.691 84.1526 139.513C83.9794 136.173 85.0877 134.431 83.7947 133.186C83.8986 133.049 83.8409 132.432 84.5047 132.101C85.8958 131.827 87.3214 131.228 88.776 131.016L88.7818 131.011Z" fill="#DC5027"/>
<path d="M26.8129 178.365C27.4478 176.858 27.8807 175.173 28.5907 173.666C31.4883 167.533 33.9876 163.736 38.207 158.482C41.7914 160.441 51.4192 155.068 54.767 154.143C55.6501 153.903 58.1437 154.394 58.6862 154.143C58.9287 154.028 58.9287 149.483 61.7108 153.24C58.3168 154.993 59.0845 157.957 56.9027 157.757C56.5621 157.723 53.4972 154.411 52.8045 159.744L53.6934 161.012C58.9979 159.088 79.6157 156.233 81.6475 151.071C82.7731 148.21 80.7875 137.669 80.9376 136.972C81.1742 135.841 83.0732 134.14 83.789 133.175C85.0761 134.42 83.9679 136.161 84.1468 139.502C84.522 146.679 85.0992 150.105 84.5047 157.574C84.193 161.457 87.4831 161.64 79.3387 165.706C78.9693 165.888 79.3502 166.631 78.9808 166.791C76.3949 167.916 52.6429 170.337 46.2186 171.85C39.5518 173.42 33.3007 176.253 26.8071 178.354L26.8129 178.365Z" fill="#EB602C"/>
<path d="M65.2779 224.635C66.2303 226.651 71.6214 235.062 71.6907 235.839C71.708 236.067 71.7369 236.438 71.6907 236.564C71.6676 236.627 70.721 236.187 70.9807 237.649C61.5954 235.719 46.6861 232.641 37.8606 230.42C37.6817 229.021 33.4854 228.592 31.6268 227.53C25.722 224.138 21.3006 215.356 20.4117 208.732C21.6642 208.515 22.3684 210.834 23.2631 211.804C31.6441 220.923 53.197 226.382 65.2837 224.635H65.2779Z" fill="#B6361B"/>
<path d="M24.3194 194.993C21.3121 196.272 24.1 195.867 22.1837 197.706C23.1534 197.991 23.5055 201.138 23.6094 201.32C29.4969 211.947 50.8189 216.372 62.0687 217.046C62.1033 217.109 61.9879 217.446 62.4266 217.406C62.9403 219.033 63.5694 220.215 64.2043 221.746C64.2274 221.797 64.2563 222.134 64.5622 222.831C64.8162 223.413 65.0528 224.167 65.2722 224.641C53.1797 226.388 31.6268 220.929 23.2515 211.81C22.3569 210.839 21.6527 208.521 20.4002 208.738C19.3208 200.749 20.4002 196.981 22.5358 189.58C22.1664 191.659 23.2458 193.315 24.3136 195.005L24.3194 194.993Z" fill="#B6361B"/>
<path d="M84.5047 132.096C83.8409 132.427 83.8928 133.043 83.7947 133.18C83.079 134.145 81.1857 135.847 80.9433 136.978C80.799 137.669 82.7788 148.215 81.6533 151.076C79.6215 156.238 59.0037 159.093 53.6992 161.018L52.8103 159.75C53.4972 154.411 56.5621 157.729 56.9085 157.763C59.0903 157.963 58.3226 154.999 61.7166 153.246C58.9287 149.495 58.9344 154.04 58.692 154.148C58.1552 154.4 55.6559 153.908 54.7728 154.148C51.425 155.068 41.7972 160.447 38.2127 158.488C42.7669 152.824 46.4957 149.272 52.4582 145.115C54.0686 147.77 59.9734 142.568 65.4569 140.056C71.1481 137.446 78.7442 136.909 77.0299 133.552C79.4945 132.872 82.0169 132.598 84.5105 132.107L84.5047 132.096Z" fill="#EB602C"/>
<path d="M103.379 154.508C103.506 160.858 100.684 180.649 99.108 186.862C98.8598 187.844 98.6116 189.277 97.6823 188.489C92.0892 181.614 86.3691 177.811 77.7398 175.836C82.7211 175.019 93.9132 168.19 96.6145 164.45C101.169 158.14 96.1065 157.7 94.8367 154.691C94.7039 154.382 94.8078 150.991 93.7688 148.187C93.6303 147.816 91.1656 145.229 90.2075 141.317C89.6361 138.993 90.0401 133.54 88.7818 131.016C89.4802 130.913 90.2998 130.725 90.9174 130.657C92.1815 135.345 100.389 154.023 103.379 154.514V154.508Z" fill="#B6361B"/>
<path d="M77.7398 175.836C86.3691 177.811 92.0892 181.609 97.6823 188.489C103.079 195.13 106.444 200.863 105.873 209.817C105.544 208.327 105.042 204.975 104.805 204.392C104.522 203.696 104.118 203.713 104.095 203.667C104.066 200.852 102.306 197.791 100.892 195.353C93.6072 182.774 78.1265 173.403 63.5001 177.28C62.8941 176.464 61.0528 177.103 59.9388 177.28C50.9575 178.719 43.0093 181.335 34.6514 184.869C33.953 185.166 33.3584 185.749 32.5157 185.594C45.4913 176.841 62.3977 172.324 77.7456 175.836H77.7398Z" fill="#84150E"/>
<path d="M103.379 154.508C100.384 154.017 92.1815 135.339 90.9174 130.651C92.3489 130.48 100.135 129.56 100.534 130.468C100.828 138.542 103.218 146.422 103.385 154.508H103.379Z" fill="#B6361B"/>
<path d="M52.4524 145.109C60.262 139.662 67.8407 136.081 77.0241 133.54C78.7384 136.903 71.1366 137.435 65.4511 140.044C59.9676 142.557 54.0628 147.759 52.4524 145.103V145.109Z" fill="#EB602C"/>
<path d="M63.4944 177.28C56.5333 179.125 55.477 184.538 55.6617 191.013C55.7079 192.658 56.4351 195.981 56.7295 197.883C46.8766 196.472 36.4927 194.097 28.2386 188.301C28.0712 187.467 30.4551 186.976 32.5099 185.589C33.3584 185.749 33.9472 185.16 34.6456 184.864C41.826 184.458 49.1046 181.786 56.1927 181.974C57.9012 178.782 60.7873 178.108 59.933 177.275C61.047 177.098 62.8883 176.458 63.4944 177.275V177.28Z" fill="#EB602C"/>
<path d="M24.3194 194.993C29.3815 202.976 48.8622 208.384 57.9705 208.726C59.2981 208.184 57.0181 206.163 58.5073 205.837C59.2346 208.726 60.7238 214.745 62.0687 217.041C50.8189 216.367 29.4969 211.941 23.6094 201.315C23.5055 201.132 23.1534 197.986 22.1837 197.7C24.1 195.861 21.3121 196.267 24.3194 194.988L24.3194 194.993Z" fill="#C74520"/>
<path d="M34.6456 184.869C43.0035 181.329 50.9459 178.714 59.933 177.28C60.7873 178.114 57.9012 178.788 56.1927 181.98C49.1046 181.797 41.8318 184.464 34.6456 184.869Z" fill="#FA8235"/>
<path d="M167.126 239.093C166.71 239.048 166.076 240.452 166.058 240.538C162.379 239.693 158.699 238.85 155.016 238.008C156.448 236.404 164.708 226.2 164.99 225.355C165.227 225.355 165.608 225.252 165.7 225.537C165.92 226.183 166.814 236.804 167.126 239.093Z" fill="#84150E"/>
<path d="M179.594 19.3189C185.966 19.7472 190.237 22.6937 190.809 22.5738C191.167 22.4995 189.856 19.8957 197.043 23.1162L195.265 25.4631C191.421 23.2361 193.123 23.3561 192.95 23.2932C192.823 23.2476 190.382 23.7843 190.636 24.5609C209.395 35.2904 217.054 44.4838 219.127 66.8507H220.552C219.819 60.3924 219.473 53.6259 216.991 47.5102C218.544 48.1897 220.258 55.2247 220.552 57.0919C222.884 71.7329 217.874 84.4039 229.811 95.9499C225.326 94.8421 217.92 95.3846 213.072 95.2247C211.502 93.4545 209.66 91.9128 208.442 89.8C207.005 87.6473 214.607 87.1219 216.633 86.1854C217.539 85.7686 218.151 86.8307 217.343 82.0284C216.379 76.2782 210.203 69.8086 218.59 73.5316C220.506 73.0291 220.148 62.1226 210.757 67.3874C204.997 70.6137 202.041 83.6216 205.591 85.82C205.626 86.3453 205.839 86.7336 205.949 87.2647C205.418 87.6416 205.135 87.613 204.523 87.6244C200.719 87.6872 192.333 88.7322 190.278 92.6836C189.55 94.0826 188.887 98.4795 190.457 99.553C191.126 100.01 204.067 102.317 206.307 102.808C209.828 103.579 213.054 104.361 216.633 104.978C218.209 105.252 221.378 106.657 221.62 105.337C222.041 105.754 222.85 105.914 222.688 106.782C219.467 106.822 211.779 107.662 209.51 107.507C204.05 107.125 196.725 103.813 192.061 102.808C190.676 102.511 189.233 101.894 187.79 101.723C184.615 92.2554 183.923 81.2004 178.174 72.8064C180.292 74.1769 175.698 67.4103 173.723 65.9371C164.194 58.8393 155.518 69.1576 156.627 69.5516C163.478 61.4488 172.938 65.1548 178.174 72.8064C171.57 67.7472 163.905 63.8757 156.806 70.2768C156.28 70.5052 155.957 69.8942 155.917 69.9171C153.7 71.1105 147.022 84.1983 144.702 87.0877C144.598 88.3896 146.479 86.6251 148.621 86.1854C158.595 84.1241 169.879 87.9328 176.396 95.9442C177.966 97.8742 179.334 100.661 180.667 102.814C180.506 103.202 181.308 102.608 180.309 103.898C163.772 93.3175 135.316 93.129 117.1 98.8392C110.15 101.015 103.714 105.372 96.6202 107.153C94.271 107.741 92.2104 107.69 89.8554 107.879C100.666 103.459 103.726 93.603 110.156 84.7465C111.056 83.5017 111.778 81.9713 112.649 80.7722C114.537 78.174 119.668 71.8471 121.908 69.2033C129.769 59.9299 138.837 51.0505 148.615 43.9014C151.922 41.486 160.073 36.1583 163.57 34.5024C172.482 30.2825 178.941 30.3054 179.952 29.4431C182.185 29.78 176.523 24.2297 176.211 24.0184C176.125 23.9556 175.507 24.224 174.607 23.6587C174.451 23.1505 169.804 17.4803 171.582 17.5145C175.738 20.164 179.892 22.8155 184.044 25.4688C183.23 21.643 177.06 19.8214 179.594 19.3246V19.3189Z" fill="#EB602C"/>
<path d="M180.304 103.904C176.742 108.512 170.555 110.716 172.292 112.218C178.335 112.235 177.268 114.628 179.952 117.278C163.767 115.604 147.368 111.042 130.981 109.323C123.709 108.564 102.97 107.399 96.6145 107.879V107.153C103.708 105.372 110.144 101.015 117.094 98.8393C135.31 93.1348 163.772 93.3175 180.304 103.898V103.904Z" fill="#E9DFCC"/>
<path d="M96.6145 107.879C102.97 107.399 123.709 108.564 130.981 109.323C147.368 111.036 163.767 115.604 179.952 117.278C184.777 122.04 189.302 126.214 195.975 128.121C194.705 131.228 201.937 130.851 204.875 131.376C203.282 131.907 201.187 132.375 199.888 133.906C199.426 133.866 198.924 133.883 198.463 133.906C181.735 127.573 163.894 125.637 146.468 122.337C138.826 120.892 130.924 120.361 123.322 118.722C112.603 116.41 102.311 112.15 91.6274 109.683C90.4788 108.427 93.8323 108.084 96.6145 107.873V107.879Z" fill="#8FA098"/>
<path d="M164.99 18.5937C166.151 19.8214 167.524 20.2554 169.262 21.1234C167.565 21.7344 166.266 19.9299 161.602 20.3982C161.273 20.4324 155.697 22.0027 155.189 22.2083C149.227 24.618 156.679 22.6651 161.244 22.9335C167.882 23.3218 174.416 25.7429 179.94 29.4374C178.924 30.2997 172.465 30.2825 163.559 34.4967C157.781 31.8014 149.429 32.9492 145.752 26.9078C150.098 23.1676 153.175 21.4717 158.572 19.496C156.194 18.7536 154.277 17.2347 152.159 16.0641C156.592 15.9099 160.731 17.8 164.979 18.5937H164.99Z" fill="#B6361B"/>
<path d="M209.862 34.5024C211.409 35.9984 214.844 40.7322 216.275 42.8164C217.118 44.0441 219.023 48.3097 219.658 48.2411C221.024 45.8314 222.39 43.4217 223.756 41.012C223.213 42.4338 219.894 48.3496 219.836 48.7836C219.744 49.5202 222.572 58.7536 223.04 63.2418C224.633 78.4824 219.692 85.0434 234.434 96.8578C232.2 100.45 230.307 104.458 226.953 107.159C226.751 107.068 225.268 106.451 225.176 106.434C226.065 104.852 227.311 103.573 228.379 102.094C229.603 100.404 230.711 98.548 231.941 96.8521C232.027 96.0755 230.422 96.1041 229.805 95.9499C217.868 84.4039 222.878 71.7329 220.546 57.0919C220.252 55.2304 218.538 48.1897 216.985 47.5102C213.891 39.8928 207.167 33.2861 200.604 28.7122C201.787 28.0555 208.939 33.6002 209.862 34.4967V34.5024Z" fill="#84150E"/>
<path d="M179.594 18.9592V19.3189C177.06 19.8157 183.23 21.6373 184.044 25.4631C179.888 22.8136 175.734 20.1621 171.582 17.5088C169.81 17.4745 174.451 23.1448 174.607 23.653C173.204 22.7679 170.768 21.8714 169.267 21.1234C167.524 20.2554 166.151 19.8214 164.996 18.5937C165.648 18.7137 168.656 19.5131 168.915 19.1362C162.185 8.38961 163.138 12.0613 170.162 15.3389C171.265 15.8528 179.097 18.9706 179.599 18.9535L179.594 18.9592Z" fill="#9C2315"/>
<path d="M225.176 106.434C225.268 106.451 226.757 107.068 226.953 107.159C227 107.182 227.028 107.445 227.663 107.884C226.301 109.049 225.222 106.525 220.72 107.524C218.116 108.524 225.233 110.762 229.799 109.335C232.166 112.549 228.858 120.224 226.596 123.25C222.209 129.12 218.786 126.916 217.516 127.407C216.754 127.704 214.699 135.533 204.696 136.447C205.112 138.183 206.035 140.13 206.301 141.871L205.591 142.231C205.389 140.861 204.893 138.211 204.165 137.172C203.08 135.619 202.67 136.138 199.894 135.362C198.815 135.059 197.776 134.882 196.691 134.637C196.835 134.391 198.376 133.917 198.468 133.911C198.93 133.889 199.432 133.871 199.894 133.911C199.981 133.917 201.395 134.631 201.499 134.637C215.103 135.042 215.877 125.437 217.17 125.238C218.082 125.095 222.411 130.936 229.811 115.296C229.972 113.669 229.326 114.828 227.675 116.198C225.014 118.014 219.779 120.721 216.633 120.173C216.044 120.07 211.704 117.369 211.294 116.918C209.337 114.782 209.031 112.452 209.158 109.689C209.193 108.901 209.274 108.261 209.516 107.519C211.784 107.679 219.473 106.834 222.694 106.794C224.148 106.776 223.484 106.125 225.187 106.434H225.176Z" fill="#100E0D"/>
<path d="M227.669 107.879C228.35 108.347 229.285 108.615 229.805 109.323C225.239 110.751 218.122 108.518 220.725 107.513C225.228 106.514 226.307 109.038 227.669 107.873V107.879Z" fill="#3F4D5F"/>
<path d="M178.168 72.8179C183.911 81.2119 184.604 92.2668 187.784 101.734C187.467 101.694 182.676 102.551 181.371 102.094C180.246 101.7 179.623 98.4567 179.236 97.3946C177.066 91.4674 175.738 79.4417 171.045 75.7072C173.077 74.9021 168.713 69.9228 166.237 69.2033C162.889 68.2269 159.865 68.9635 156.8 70.2882C163.899 63.8871 171.559 67.7586 178.168 72.8179Z" fill="#B6361B"/>
<path d="M192.056 102.819C190.705 103.539 190.18 105.018 189.204 106.074C183.461 112.298 178.335 111.944 178.162 112.761C183.172 117.82 186.214 120.572 192.765 123.422C201.776 127.345 210.145 129.817 216.627 120.167C219.773 120.715 225.008 118.008 227.669 116.193C225.759 117.78 224.754 118.876 222.33 120.167C218.52 119.784 218.22 120.995 217.343 121.977C215.923 123.57 215.404 126.362 212.004 128.121C207.213 130.599 200.985 129.549 195.981 128.121C189.302 126.214 184.777 122.04 179.957 117.278C177.273 114.628 178.341 112.235 172.298 112.218C170.566 110.716 176.748 108.512 180.309 103.904C181.302 102.619 180.506 103.208 180.667 102.819C180.685 102.774 181.302 102.688 181.377 102.094C182.676 102.551 187.467 101.694 187.79 101.734C189.233 101.906 190.676 102.522 192.061 102.819H192.056Z" fill="#081212"/>
<path d="M171.045 75.7072C162.341 68.7865 153.608 79.9727 148.609 86.1911C146.468 86.6308 144.586 88.3953 144.69 87.0934C147.01 84.204 153.694 71.1162 155.905 69.9228C155.946 69.8999 156.269 70.5109 156.794 70.2825C159.859 68.9578 162.884 68.2211 166.231 69.1976C168.708 69.9228 173.071 74.8964 171.039 75.7015L171.045 75.7072Z" fill="#DC5027"/>
<path d="M163.565 34.5024C160.061 36.1583 151.917 41.4802 148.609 43.9014L147.899 43.5416C148.222 42.3482 147.461 38.2654 147.189 36.6723C146.67 33.623 146.052 30.6994 144.338 27.9984C144.829 27.6901 145.325 27.2904 145.764 26.9135C149.44 32.9549 157.793 31.8072 163.57 34.5024H163.565Z" fill="#9C2315"/>
<path d="M216.627 86.1911C214.999 66.8849 204.731 73.8 205.585 85.8314C202.035 83.6273 204.991 70.6251 210.751 67.3989C220.142 62.1341 220.5 73.0462 218.584 73.543C210.197 69.8143 216.373 76.2839 217.337 82.0398C218.145 86.8421 217.528 85.78 216.627 86.1969V86.1911Z" fill="#B6361B"/>
<path d="M229.805 95.9499C230.422 96.1041 232.027 96.0755 231.941 96.8521C230.711 98.548 229.603 100.398 228.379 102.094C227.311 102.545 225.205 105.72 224.281 105.709C223.317 105.697 214.382 96.7151 213.066 95.2247C217.914 95.3789 225.32 94.8364 229.805 95.9499Z" fill="#E9DFCC"/>
<path d="M195.259 25.4631C196.627 26.2568 198.232 27.1362 199.53 27.9927C199.877 28.2211 200.258 28.4781 200.598 28.7179C207.161 33.2918 213.885 39.8928 216.979 47.5159C219.461 53.6259 219.808 60.3924 220.541 66.8564H219.115C217.043 44.4895 209.389 35.2961 190.624 24.5666C190.37 23.7957 192.812 23.259 192.939 23.299C193.112 23.3561 191.409 23.2419 195.253 25.4688L195.259 25.4631Z" fill="#FA8235"/>
<path d="M169.262 21.1234C170.768 21.8714 173.198 22.7679 174.601 23.653C175.501 24.2183 176.113 23.9556 176.205 24.0127C176.517 24.224 182.18 29.7743 179.946 29.4374C174.422 25.7372 167.888 23.3218 161.25 22.9335C156.684 22.6651 149.238 24.618 155.195 22.2083C155.697 22.0027 161.273 20.4324 161.608 20.3982C166.272 19.9242 167.565 21.7344 169.267 21.1234L169.262 21.1234Z" fill="#EB602C"/>
<path d="M209.504 107.519C209.262 108.261 209.187 108.901 209.147 109.689C202.734 108.09 196.154 107.108 189.562 106.799C189.522 106.44 189.187 106.4 189.204 106.074C190.174 105.023 190.705 103.539 192.056 102.819C196.719 103.824 204.05 107.136 209.504 107.519Z" fill="#F7F6F3"/>
<path d="M204.523 87.6358C202.855 91.8957 210.44 99.8842 213.603 102.454C215.034 103.619 217.014 103.847 216.627 104.983C213.049 104.367 209.822 103.584 206.301 102.814C205.539 101.751 207.201 102.003 206.122 101.003C204.362 99.3817 193.095 95.87 190.272 92.6894C192.327 88.7379 200.714 87.6929 204.517 87.6301L204.523 87.6358Z" fill="#FA8235"/>
<path d="M207.369 90.5252C210.341 95.9099 217.216 101.003 221.614 105.343C221.372 106.657 218.209 105.252 216.627 104.983C217.014 103.847 215.034 103.613 213.603 102.454C210.434 99.8842 202.849 91.8957 204.523 87.6358C205.135 87.6244 205.418 87.653 205.949 87.2761C206.278 88.8921 206.636 89.2004 207.375 90.5309L207.369 90.5252Z" fill="#FEA344"/>
<path d="M206.301 102.819C204.067 102.328 191.126 100.027 190.451 99.5645C188.881 98.4909 189.545 94.0998 190.272 92.6951C193.095 95.8757 204.356 99.3874 206.122 101.009C207.201 102.003 205.539 101.757 206.301 102.819Z" fill="#FA8235"/>
<path d="M208.437 89.8057C209.655 91.9128 211.496 93.4603 213.066 95.2304C214.388 96.7151 223.323 105.703 224.281 105.714C225.199 105.726 227.306 102.551 228.379 102.1C227.311 103.573 226.065 104.852 225.176 106.44C223.473 106.137 224.137 106.782 222.682 106.799C222.844 105.931 222.036 105.771 221.614 105.355C217.216 101.015 210.341 95.9156 207.369 90.5366L208.437 89.8114V89.8057Z" fill="#6B1D0E"/>
<path d="M178.168 72.8179C172.933 65.1662 163.472 61.4603 156.621 69.563C155.513 69.169 164.182 58.8507 173.718 65.9485C175.692 67.4217 180.286 74.1883 178.168 72.8179Z" fill="#B6361B"/>
<path d="M198.468 133.906C198.37 133.906 196.835 134.38 196.691 134.631C182.618 131.456 168.153 128.909 153.954 126.317C151.236 125.82 148.488 125.352 145.764 124.872C147.588 124.107 146.312 124.113 146.474 122.342C163.899 125.637 181.741 127.579 198.468 133.911V133.906Z" fill="#2E3537"/>
<path d="M199.888 133.906C201.181 132.375 203.282 131.907 204.875 131.376C206.809 130.731 211.311 130.348 211.998 128.121C215.404 126.362 215.917 123.564 217.337 121.977C219.288 121.931 220.673 121.046 222.324 120.167C224.749 118.876 225.759 117.78 227.663 116.193C229.314 114.822 229.961 113.663 229.799 115.29C222.399 130.931 218.064 125.089 217.158 125.232C215.865 125.432 215.092 135.036 201.487 134.631C201.383 134.631 199.969 133.917 199.882 133.906L199.888 133.906Z" fill="#D3D0BD"/>
<path d="M211.998 128.121C211.311 130.348 206.809 130.725 204.875 131.376C201.932 130.851 194.699 131.228 195.975 128.121C200.985 129.549 207.207 130.599 211.998 128.121Z" fill="#8FA098"/>
<path d="M224.818 37.7515L218.405 34.4967C219.744 29.3632 221.06 24.2982 223.392 19.496C222.798 18.4053 220.119 21.82 218.053 22.2083C213.672 23.0249 208.298 20.0841 199.536 27.9927C198.237 27.1362 196.633 26.2511 195.265 25.4631L197.043 23.1162C189.856 19.8957 191.167 22.4995 190.809 22.5738C190.237 22.6994 185.966 19.7472 179.594 19.3189V18.9592C180.304 18.9364 187.063 14.9107 188.673 14.2597C201.337 9.13193 215.611 5.80288 229.274 5.58589C234.267 13.2718 227.854 29.3689 224.824 37.7572L224.818 37.7515Z" fill="#081212"/>
<path d="M224.818 37.7515C224.443 38.7964 224.154 39.9499 223.75 41.0063C222.384 43.416 221.018 45.8257 219.652 48.2354C219.017 48.3039 217.112 44.0384 216.269 42.8107C216.754 39.9785 217.684 37.2604 218.405 34.4967L224.818 37.7515Z" fill="#B6361B"/>
<path d="M218.411 34.5024C217.689 37.2661 216.76 39.9842 216.275 42.8164C214.844 40.7322 211.415 35.9984 209.862 34.5024C212.594 30.4062 215.325 26.3101 218.053 22.214C220.125 21.8257 222.798 18.411 223.392 19.5017C221.06 24.3039 219.75 29.3689 218.405 34.5024H218.411Z" fill="#D3D0BD"/>
<path d="M218.053 22.2083C215.321 26.3044 212.591 30.4005 209.862 34.4967C208.939 33.6059 201.787 28.0555 200.604 28.7122C200.263 28.4724 199.882 28.2211 199.536 27.987C208.298 20.0784 213.672 23.0191 218.053 22.2026V22.2083Z" fill="#DC5027"/>
<path d="M209.152 109.683C209.025 112.447 209.331 114.782 211.288 116.912C211.051 117.026 210.261 117.586 210.22 117.637C211.277 114.925 208.431 117.523 202.209 117.278C196.766 117.061 192.771 114.371 189.568 114.388C187.853 110.671 189.828 109.186 189.568 106.799C196.159 107.108 202.74 108.096 209.152 109.689V109.683Z" fill="#E9DFCC"/>
<path d="M216.627 120.167C210.145 129.811 201.776 127.345 192.765 123.422L192.587 122.696C196.015 123.513 200.021 123.622 203.45 122.696C206.676 121.823 208.292 120.184 210.214 117.637C210.255 117.586 211.046 117.026 211.282 116.912C211.692 117.357 216.033 120.064 216.621 120.167H216.627Z" fill="#B6BBAD"/>
<path d="M171.045 75.7072C175.738 79.4417 177.066 91.4674 179.236 97.3946C176.35 96.658 178.607 89.5202 174.964 93.5973L176.39 95.9442C169.868 87.9328 158.583 84.1241 148.615 86.1854C153.614 79.967 162.347 68.7807 171.051 75.7015L171.045 75.7072Z" fill="#100E0D"/>
<path d="M179.236 97.3946C179.623 98.4567 180.246 101.7 181.371 102.094C181.291 102.682 180.679 102.768 180.661 102.819C179.328 100.667 177.96 97.8799 176.39 95.9499L174.964 93.603C178.607 89.5259 176.35 96.6637 179.236 97.4003V97.3946Z" fill="#290F07"/>
<path d="M171.224 83.2961C172.142 83.3303 172.044 87.6301 169.977 85.2832L171.224 83.2961Z" fill="#A9AAA8"/>
<path d="M168.731 79.3218C169.735 78.7907 171.519 82.0741 171.224 82.2111L168.731 79.3218Z" fill="#C2C1BC"/>
<path d="M173.718 89.446C174.82 89.5031 175.721 93.6944 172.829 90.3482L173.718 89.446Z" fill="#F7F6F3"/>
<path d="M156.979 82.5766C158.433 82.371 154.399 85.7572 153.954 84.9235L156.979 82.5766Z" fill="#BB8E6C"/>
<path d="M189.562 106.794C189.822 109.186 187.848 110.665 189.562 114.382C191.536 118.677 200.044 120.087 203.45 122.696C200.021 123.622 196.015 123.513 192.587 122.696L192.765 123.422C186.214 120.567 183.172 117.814 178.162 112.761C178.33 111.944 183.455 112.298 189.204 106.074C189.187 106.394 189.522 106.434 189.562 106.799V106.794Z" fill="#D3D0BD"/>
<path d="M222.324 120.167C220.673 121.046 219.288 121.926 217.337 121.977C218.215 120.995 218.515 119.79 222.324 120.167Z" fill="#7C9094"/>
<path d="M216.627 86.1911C214.601 87.1276 206.994 87.653 208.437 89.8057L207.369 90.5309C206.636 89.2004 206.272 88.8978 205.943 87.2761C205.833 86.745 205.626 86.3567 205.585 85.8314C204.725 73.8 214.999 66.8907 216.627 86.1911Z" fill="#100E0D"/>
<path d="M211.109 82.9363C213.585 82.588 212.691 87.4531 209.862 84.5637L211.109 82.9363Z" fill="#EBEEFC"/>
<path d="M208.973 78.2368L210.578 79.1391C210.884 81.2233 206.226 80.7036 208.973 78.2368Z" fill="#EBEEFC"/>
<path d="M152.171 16.0641C154.283 17.2347 156.205 18.7593 158.583 19.496C153.186 21.466 150.11 23.1676 145.764 26.9078C145.331 27.279 144.829 27.6844 144.338 27.9927C143.27 26.3082 138.006 21.466 136.147 20.0384C134.647 18.8907 134.45 19.0106 134.37 18.9535C129.365 15.5388 125.025 13.466 119.056 12.0841C118.323 11.9128 115.558 10.9364 115.316 10.9992C111.114 16.2183 107.518 30.6137 107.304 37.0263C101.417 36.5124 100.003 36.4153 96.9781 31.2418C97.8093 26.2226 104.851 1.55449 109.267 0.155488C114.889 -1.6261 145.596 12.4153 152.182 16.0584L152.171 16.0641Z" fill="#081212"/>
<path d="M148.609 43.9014C138.826 51.0505 129.758 59.9299 121.902 69.2033C121.411 69.2033 119.714 68.1069 119.587 68.1183C119.466 68.1298 118.254 69.5916 117.631 69.563C118.45 67.6444 119.056 67.6958 119.056 67.5759C119.056 67.456 116.834 65.9142 117.631 65.5887C118.733 66.5823 119.847 67.5645 121.013 68.4781C128.534 60.5752 134.814 54.0884 143.27 47.1505C144.355 46.2597 147.582 44.7179 147.899 43.5359L148.609 43.8957L148.609 43.9014Z" fill="#6B1D0E"/>
<path d="M119.05 12.0898C118.571 12.8721 118.104 13.4431 117.625 14.2597C117.394 14.648 117.065 14.9278 116.915 15.3446C116.055 17.6687 115.535 19.0163 115.847 21.6715C116.014 23.1276 119.085 28.3468 114.6 21.8543C113.555 28.6152 121.994 35.0677 114.6 31.2533C112.43 35.5245 128.355 41.1719 114.6 37.0377C113.636 37.2547 114.375 45.1234 121.544 45.8942C121.44 46.5109 114.739 46.6023 115.847 47.5216C115.437 48.6523 116.303 50.8621 116.915 51.8614C118.138 53.8485 122.035 56.4867 123.328 59.2732C117.417 59.9699 121.105 61.5802 119.587 61.9856C119.362 62.0484 118.768 61.1005 115.137 62.7108C109.284 55.4988 106.993 46.3682 107.304 37.0491C107.518 30.6366 111.114 16.2411 115.316 11.022C115.558 10.9592 118.323 11.9356 119.056 12.1069L119.05 12.0898Z" fill="#D3D0BD"/>
<path d="M136.142 20.0441C137.798 25.4003 143.466 31.8471 146.468 37.3974C145.596 38.9449 143.98 41.4517 142.906 42.8221C140.742 36.3125 138.058 32.0812 133.29 27.279C132.349 26.3311 130.952 23.83 129.729 23.6644V23.3047L134.358 18.9649C134.445 19.022 134.641 18.9021 136.136 20.0498L136.142 20.0441Z" fill="#D3D0BD"/>
<path d="M134.364 18.9592L129.735 23.2989C126.41 20.4724 121.538 15.219 117.625 14.2597C118.104 13.4431 118.571 12.8778 119.05 12.0898C125.019 13.4717 129.359 15.5445 134.364 18.9592Z" fill="#F7F6F3"/>
<path d="M144.338 27.9927C146.052 30.6937 146.664 33.6173 147.189 36.6665C146.756 36.6894 146.647 37.0834 146.479 37.3917C143.478 31.8414 137.81 25.3946 136.153 20.0384C138.012 21.4603 143.276 26.3082 144.344 27.9927H144.338Z" fill="#F7F6F3"/>
<path d="M134.364 44.6209C133.694 49.9428 132.384 51.279 130.266 55.8243C133.717 50.7136 139.784 46.7964 141.129 45.3403L143.264 47.1505C134.808 54.0884 128.522 60.5752 121.007 68.4781C119.841 67.5645 118.721 66.5823 117.625 65.5887C116.898 64.9263 115.801 63.5216 115.131 62.6994C118.762 61.0891 119.356 62.037 119.582 61.9742C121.1 61.5687 117.411 59.9585 123.322 59.2618C122.029 56.4752 118.138 53.8371 116.909 51.85C118.508 51.1819 120.257 50.8564 120.828 48.9606C121.377 49.189 122.773 49.269 122.964 49.8628C119.61 53.7914 124.078 52.4324 124.39 53.4774C124.511 53.8942 122.058 52.8949 127.414 60.8892C129.671 54.0484 132.927 47.1505 132.222 39.7443C132.88 38.4653 133.573 45.5174 134.358 44.6266L134.364 44.6209Z" fill="#74817D"/>
<path d="M147.899 43.5359C147.582 44.7179 144.355 46.2597 143.27 47.1505L141.134 45.3403C142.999 43.3189 142.82 42.9306 142.912 42.8107C143.986 41.446 145.602 38.9335 146.474 37.386C146.647 37.0834 146.756 36.6837 147.184 36.6608C147.455 38.254 148.217 42.3368 147.893 43.5302L147.899 43.5359Z" fill="#74817D"/>
<path d="M127.599 24.7379C128.193 25.3147 131.31 28.7636 131.518 29.0777C134.924 34.1769 135.108 38.7165 134.37 44.6209C133.585 45.5174 132.892 38.4653 132.234 39.7386C132.938 47.1448 129.683 54.0427 127.426 60.8835C122.069 52.8892 124.522 53.8885 124.401 53.4717C124.095 52.4267 119.622 53.7857 122.975 49.8571C122.785 49.2633 121.388 49.1833 120.84 48.9549C119.252 48.2868 117.469 48.1098 115.853 47.5102C114.75 46.5909 121.452 46.4995 121.55 45.8828C114.381 45.1119 113.642 37.2433 114.606 37.0263C128.361 41.1605 112.436 35.5131 114.606 31.2418C122 35.0563 113.561 28.6037 114.606 21.8428C119.091 28.3354 116.02 23.1162 115.853 21.6601C115.541 19.0049 116.061 17.663 116.921 15.3332C119.299 19.5759 124.297 21.5231 127.605 24.7322L127.599 24.7379Z" fill="#100E0D"/>
<path d="M129.735 23.2932V23.653C128.482 23.4817 127.963 23.5102 127.599 24.7379C124.292 21.5345 119.293 19.5816 116.915 15.3389C117.071 14.9221 117.4 14.6423 117.625 14.254C121.538 15.2133 126.41 20.4667 129.735 23.2932Z" fill="#556263"/>
<path d="M120.828 48.9606C120.257 50.8564 118.508 51.1819 116.909 51.85C116.297 50.8564 115.426 48.6465 115.841 47.5102C117.457 48.1098 119.235 48.2925 120.828 48.9549V48.9606Z" fill="#B6BBAD"/>
<path d="M133.296 27.2733C138.064 32.0755 140.748 36.3068 142.912 42.8164C142.814 42.9363 142.993 43.3246 141.134 45.3461C139.79 46.8022 133.723 50.7194 130.271 55.83C132.384 51.279 133.7 49.9485 134.37 44.6266C135.114 38.7222 134.929 34.1826 131.518 29.0834C133.261 29.5345 131.518 27.4503 133.296 27.2733Z" fill="#8FA098"/>
<path d="M129.735 23.6587C130.958 23.8243 132.355 26.3254 133.296 27.2733C131.518 27.4503 133.256 29.5288 131.518 29.0834C131.31 28.775 128.199 25.3261 127.599 24.7436C127.968 23.5159 128.488 23.4874 129.735 23.6587Z" fill="#74817D"/>
<path d="M210.22 117.637C208.298 120.184 206.682 121.829 203.455 122.696C200.044 120.087 191.542 118.677 189.568 114.382C192.777 114.365 196.766 117.055 202.209 117.272C208.431 117.523 211.277 114.925 210.22 117.632V117.637Z" fill="#D3D0BD"/>
<path d="M203.097 176.195C202.641 173.58 202.18 170.919 202.388 168.241C202.566 165.883 203.38 163.953 203.455 163.182C203.709 160.578 204.379 158.694 204.165 154.685C204.044 152.401 201.626 146.485 204.875 152.698C205.787 156.05 206.382 147.616 205.585 142.214L206.295 141.854C208.021 153.166 205.366 153.948 204.87 157.94C204.119 164.004 204.142 170.165 203.092 176.195H203.097Z" fill="#6B1D0E"/>
<path d="M177.81 145.109C178.797 145.669 181.539 148.507 182.618 148.364C182.976 148.318 188.35 144.418 187.068 143.305C188.742 142.814 190.566 141.706 192.056 140.775C192.171 140.775 192.298 140.786 192.413 140.775C191.969 142.905 192.269 145.891 192.056 147.644C191.963 148.415 192.367 149.243 191.519 149.814C181.741 138.708 192.864 153.155 193.833 157.946C194.832 162.879 193.758 169.954 193.833 170.959C194.093 174.3 195.086 177.6 195.611 180.901C194.803 184.527 196.754 185.686 192.05 187.77C195.144 171.165 190.035 161.629 185.464 146.565C183.928 146.508 187.623 160.641 187.421 161.926C176.835 142.859 182.543 150.208 181.366 163.736C181.158 166.157 180.217 168.749 179.761 171.148C179.317 165.215 179.276 158.283 175.49 153.435L175.132 154.879L174.595 154.337L174.953 157.951C168.915 147.741 168.136 145.235 172.102 157.951L171.565 158.494C170.999 157.329 160.754 145.275 160.35 146.023C163.34 158.46 158.676 149.957 151.27 141.866L149.492 153.794C144.73 137.731 148.049 137.629 140.944 154.879C140.29 149.637 139.638 144.395 138.987 139.153C135.599 149.083 135.922 140.467 134.537 140.421C133.844 140.946 134.144 141.42 133.648 142.231C132.066 144.784 130.762 147.519 129.377 150.185C129.255 149.957 128.43 149.118 127.951 148.016L129.019 136.27C128.141 137.36 125.873 141.609 125.815 142.597C125.515 142.637 125.481 142.511 125.457 142.237C125.042 136.761 129.769 119.881 122.606 134.283C122.739 131.456 123.599 128.407 123.674 125.609C134.872 128.15 146.312 130.377 156.257 136.452C163.449 140.844 166.306 146.342 162.133 138.08C161.977 137.001 162.393 137.126 163.38 137.178C167.709 140.221 172.956 142.362 177.804 145.132L177.81 145.109Z" fill="#B6BBAD"/>
<path d="M139.703 123.781C138.156 128.133 143.772 126.694 146.289 127.396C155.161 129.863 161.464 135.704 165.521 137.155C165.643 137.195 166.624 136.367 168.015 136.795C169.418 137.229 171.519 138.731 172.644 138.965C178.734 140.244 185.677 140.187 191.877 140.05C192.165 140.044 192.015 140.775 192.056 140.775C190.566 141.706 188.742 142.814 187.068 143.305C181.579 144.921 177.296 143.796 177.81 145.115C172.962 142.351 167.721 140.204 163.386 137.16C162.399 137.115 161.983 136.983 162.139 138.063C166.312 146.325 163.455 140.826 156.263 136.435C146.318 130.36 134.877 128.133 123.68 125.592C123.68 125.375 123.039 123.976 123.322 121.252C128.805 121.943 134.26 122.839 139.703 123.781Z" fill="#74817D"/>
<path d="M146.474 122.337C146.312 124.113 147.588 124.101 145.764 124.866C143.743 124.507 141.729 124.13 139.709 123.781C134.266 122.839 128.811 121.937 123.328 121.252V118.722C130.929 120.361 138.831 120.892 146.474 122.337Z" fill="#4A4D53"/>
<path d="M199.888 135.35C202.665 136.127 203.08 135.602 204.16 137.16C199.369 138.4 204.794 144.395 201.666 144.39C196.171 134.659 204.096 151.31 199.351 143.664C198.295 144.629 197.885 157.072 197.216 157.038C196.673 157.009 193.141 148.141 192.05 147.639C192.263 145.891 191.963 142.899 192.408 140.769C192.662 140.741 195.796 137.92 196.327 137.514C197.383 136.715 198.584 135.721 199.888 135.345V135.35Z" fill="#B6BBAD"/>
<path d="M204.165 137.155C204.887 138.194 205.389 140.844 205.591 142.214C206.382 147.616 205.793 156.05 204.881 152.698C204.633 149.786 203.086 146.885 201.678 144.384C204.8 144.39 199.38 138.394 204.171 137.155H204.165Z" fill="#B6BBAD"/>
<path d="M196.327 184.509C195.536 187.576 196.131 192.247 194.901 192.824C194.872 192.709 194.936 192.572 194.901 192.464C194.67 191.727 193.47 190.614 193.123 189.934C192.968 189.632 193.21 187.936 192.056 188.124C192.079 188.01 192.032 187.878 192.056 187.764C196.76 185.686 194.809 184.521 195.617 180.895C195.848 182.351 195.854 184.321 196.327 184.509Z" fill="#A78A79"/>
<path d="M201.672 144.384C203.086 146.885 204.633 149.786 204.875 152.698C201.626 146.485 204.044 152.401 204.165 154.685C204.379 158.694 203.704 160.578 203.455 163.182C203.207 163.182 202.901 163.296 202.745 162.999C201.175 160.064 197.239 146.514 199.894 160.829C200.183 162.377 201.678 168.093 202.388 168.241C202.186 170.919 202.647 173.58 203.097 176.195C202.97 176.938 202.763 178.074 202.388 178.725C200.65 167.619 198.976 171.576 202.03 180.535C200.431 180.067 201.083 178.662 199.536 179.81C201.464 171.833 196.818 182.631 196.333 184.509C195.859 184.321 195.854 182.351 195.623 180.895C195.092 177.594 194.099 174.3 193.845 170.953C193.77 169.948 194.843 162.874 193.845 157.94C192.875 153.149 181.752 138.696 191.53 149.809C192.379 149.238 191.969 148.41 192.067 147.639C193.152 148.141 196.691 157.009 197.233 157.038C197.903 157.072 198.312 144.624 199.369 143.664C204.113 151.305 196.188 134.659 201.683 144.39L201.672 144.384Z" fill="#D3D0BD"/>
<path d="M202.382 178.725L202.024 180.535C198.97 171.582 200.644 167.619 202.382 178.725Z" fill="#84150E"/>
<path d="M203.45 163.182C203.375 163.953 202.561 165.883 202.382 168.241C201.672 168.093 200.177 162.377 199.888 160.829C197.233 146.514 201.17 160.058 202.74 162.999C202.895 163.296 203.201 163.176 203.45 163.182Z" fill="#BDB4A0"/>
<path d="M197.931 164.627C199.865 167.436 197.949 168.549 197.753 164.809L197.931 164.627Z" fill="#BDB4A0"/>
<path d="M197.222 162.822C198.411 164.101 197.487 165.026 197.043 163.005L197.222 162.822Z" fill="#D3D0BD"/>
<path d="M196.685 134.625C197.77 134.871 198.809 135.048 199.888 135.35C198.584 135.727 197.383 136.721 196.327 137.52C196.939 136.058 190.601 137.503 184.754 137.16C181.972 136.995 181.037 136.098 180.835 136.076C180.483 136.036 176.286 136.207 173.712 135.716C172.304 135.447 168.373 133.603 166.947 133.186C165.862 132.872 166.231 134.248 165.169 133.911C163.669 133.432 152.644 128.464 153.954 126.322C168.153 128.915 182.612 131.462 196.691 134.637L196.685 134.625Z" fill="#556263"/>
<path d="M142.554 183.065C139.732 190.003 139.587 197.746 140.419 205.112C139.587 205.095 138.756 205.135 137.925 205.112C136.984 203.433 136.8 201.549 136.499 199.687C134.162 185.28 138.525 179.53 141.129 170.411C141.158 170.302 141.094 170.16 141.129 170.051C142.722 172.918 141.423 179.422 141.486 183.607L142.554 183.065Z" fill="#E9DFCC"/>
<path d="M145.406 152.698C144.742 156.472 143.87 160.195 142.912 163.901C142.381 165.963 141.723 168.001 141.134 170.046C141.1 170.154 141.163 170.297 141.134 170.405C140.476 169.829 140.124 168.983 139.709 168.235C139.126 167.179 138.56 166.191 138.283 164.981C139.582 163.268 140.823 161.463 141.844 159.556C144.338 154.896 145.435 149.763 145.406 152.686V152.698Z" fill="#9C2315"/>
<path d="M131.87 154.508C130.346 154.662 129.498 150.402 129.377 150.168C130.768 147.507 132.072 144.772 133.648 142.214C133.331 145.88 131.766 151.042 131.87 154.502V154.508Z" fill="#84150E"/>
<path d="M137.215 153.063C137.319 153.886 137.129 154.771 137.215 155.593C135.258 154.217 134.439 157.129 133.296 158.482C133.134 158.048 132.586 157.934 132.228 156.312C133.713 154.025 135.197 151.735 136.678 149.443C136.967 149.62 137.14 152.487 137.215 153.058V153.063Z" fill="#9C2315"/>
<path d="M127.951 148.004C127.212 146.291 125.688 144.664 125.815 142.579C125.873 141.592 128.147 137.343 129.019 136.253L127.951 147.998V148.004Z" fill="#54150A"/>
<path d="M145.758 124.866C148.482 125.346 151.23 125.814 153.948 126.311C152.638 128.452 163.669 133.42 165.163 133.9C166.226 134.243 165.862 132.861 166.941 133.175C168.367 133.592 172.298 135.436 173.706 135.704C176.281 136.195 180.477 136.03 180.829 136.064C181.031 136.087 181.966 136.983 184.748 137.149C190.595 137.497 196.939 136.047 196.321 137.509C195.79 137.908 192.656 140.729 192.402 140.764C192.286 140.775 192.165 140.764 192.044 140.764C192.009 140.764 192.154 140.033 191.865 140.038C185.672 140.175 178.722 140.233 172.633 138.953C171.507 138.719 169.406 137.218 168.003 136.784C166.612 136.355 165.631 137.189 165.51 137.143C161.452 135.693 155.155 129.851 146.277 127.385C143.755 126.682 138.144 128.121 139.691 123.77C141.712 124.118 143.726 124.495 145.746 124.855L145.758 124.866Z" fill="#667371"/>
<path d="M187.068 143.305C188.35 144.418 182.976 148.318 182.618 148.364C181.539 148.507 178.797 145.674 177.81 145.109C177.296 143.796 181.579 144.915 187.068 143.299V143.305Z" fill="#8FA098"/>
<path d="M165.348 220.295C165.1 222.026 165.66 223.367 164.99 225.355C164.708 226.2 156.448 236.398 155.016 238.008C154.999 238.026 154.618 237.928 154.658 238.368C154.578 238.088 153.694 236.969 152.523 232.943C154.081 232.133 157.238 228.295 158.22 226.799C158.272 226.714 158.162 226.519 158.22 226.44C160.594 224.391 162.968 222.343 165.342 220.295H165.348Z" fill="#667371"/>
<path d="M183.155 197.163C183.109 197.232 183.224 197.432 182.445 198.608C177.51 206.088 172.234 213.072 166.064 219.576H165.706C165.712 219.542 165.123 219.553 165.348 219.033C165.706 218.228 178.826 206.031 173.539 207.647C177.943 201.874 179.732 196.552 181.019 189.392C182.491 191.35 181.268 196.381 183.155 197.163Z" fill="#B6BBAD"/>
<path d="M165.7 219.57C165.608 219.913 165.389 219.976 165.342 220.295C162.968 222.343 160.594 224.391 158.22 226.44C158.422 226.137 158.889 224.007 161.781 220.113C164.904 215.91 169.14 212.495 172.465 208.367C172.54 208.275 173.475 207.721 173.533 207.642C178.82 206.026 165.7 218.223 165.342 219.028C165.112 219.547 165.706 219.536 165.7 219.57Z" fill="#8FA098"/>
<path d="M184.933 196.438C184.95 196.529 183.859 197.249 185.291 197.883C183.692 199.185 183.068 201.994 182.439 198.608C183.219 197.426 183.109 197.232 183.149 197.163C183.559 196.529 184.223 196.038 184.575 195.353C184.569 195.41 184.69 194.971 184.933 196.438Z" fill="#9B684D"/>
<path d="M167.126 204.027C164.615 213.763 157.781 224.726 157.51 225.897C157.371 226.497 157.464 226.942 158.22 226.799C157.238 228.295 154.081 232.133 152.523 232.943C151.016 227.776 149.631 222.602 148.251 217.4C152.373 214.402 155.922 208.412 159.645 206.197C159.663 206.557 159.645 206.922 159.645 207.282C159.634 208.704 158.907 210.103 159.466 210.537C159.761 210.765 164.217 205.512 164.632 205.112C168.557 201.315 167.559 202.337 167.126 204.027Z" fill="#74817D"/>
<path d="M149.677 180.17C149.764 180.478 149.937 180.587 150.035 180.895C151.466 185.566 152.921 188.478 156.09 192.464C156.696 193.223 156.967 196.147 157.516 192.281C158.006 188.809 157.417 184.938 158.225 181.437C158.818 183.668 159.411 185.897 160.003 188.124C160.407 192.19 161.897 197.86 161.429 203.307C161.256 205.295 161.36 207.727 159.651 207.282C159.651 206.922 159.669 206.557 159.651 206.197C159.599 204.998 159.807 202.896 159.651 202.4C159.409 201.606 151.23 195.302 148.967 189.928C148.471 188.752 148.067 185.589 147.189 184.144C147.201 184.115 146.606 184.121 146.831 183.602C146.924 183.396 149.198 180.781 149.683 180.17H149.677Z" fill="#8FA098"/>
<path d="M149.677 180.17C149.198 180.781 146.918 183.396 146.826 183.602C146.595 184.121 147.195 184.115 147.184 184.144C144.326 191.036 142.803 197.637 142.554 205.112H140.419C139.587 197.746 139.732 190.003 142.554 183.065C143.628 180.432 146.86 176.03 148.43 173.306C148.644 175.642 149.042 177.914 149.677 180.175V180.17Z" fill="#B6BBAD"/>
<path d="M164.632 205.112C164.223 205.512 159.767 210.765 159.466 210.537C158.907 210.103 159.634 208.709 159.645 207.282C161.36 207.727 161.256 205.295 161.423 203.307C162.999 200.818 163.276 194.491 163.559 190.654C163.622 189.826 163.64 181.694 164.096 181.614C167.674 190.676 168.5 195.981 164.632 205.112Z" fill="#8FA098"/>
<path d="M156.09 192.464C152.921 188.484 151.466 185.566 150.035 180.895C152.863 179.924 149.816 170.537 150.745 166.254C155.276 174.357 154.849 183.562 156.084 192.458L156.09 192.464Z" fill="#B6BBAD"/>
<path d="M169.262 205.477C167.801 209.332 168.454 209.183 171.039 206.562L172.465 208.372C169.14 212.501 164.904 215.916 161.781 220.118C158.889 224.013 158.422 226.143 158.22 226.445C158.162 226.531 158.272 226.725 158.22 226.805C157.464 226.948 157.371 226.497 157.51 225.903C157.781 224.732 164.615 213.769 167.126 204.033L169.262 205.477Z" fill="#D3D0BD"/>
<path d="M141.844 159.567C140.823 161.469 139.582 163.273 138.283 164.992C138.017 163.844 137.469 157.946 137.215 155.593C137.129 154.771 137.319 153.886 137.215 153.063C139.593 154.582 140.586 157.169 141.844 159.567Z" fill="#BEA98F"/>
<path d="M171.045 206.557C168.454 209.178 167.807 209.326 169.267 205.472C172.165 197.826 177.337 193.76 171.045 206.557Z" fill="#B6BBAD"/>
<path d="M192.056 187.764C192.032 187.878 192.079 188.01 192.056 188.124C191.051 193.132 188.742 195.068 185.291 197.883C183.859 197.249 184.95 196.529 184.933 196.438C190.942 196.507 190.105 184.938 188.494 186.137C187.9 189.415 184.881 192.607 184.575 195.353C184.223 196.038 183.559 196.524 183.149 197.163C181.256 196.381 182.485 191.35 181.014 189.392C179.732 196.547 177.937 201.874 173.533 207.647C173.475 207.727 172.54 208.275 172.465 208.372L171.039 206.562C177.325 193.771 172.153 197.831 169.262 205.477L167.126 204.033C167.565 202.342 168.557 201.32 164.632 205.118C168.5 195.993 167.68 190.682 164.096 181.62C163.645 181.7 163.622 189.826 163.559 190.659C162.866 188.889 161.614 189.346 161.423 189.032C160.933 188.221 160.142 174.734 158.751 171.861C158.023 177.435 160.211 183.11 160.355 184.692C160.627 187.713 159.98 187.953 159.997 188.124C159.405 185.893 158.812 183.664 158.22 181.437C157.412 184.938 158 188.809 157.51 192.281C156.961 196.141 156.69 193.223 156.084 192.464C154.843 183.562 155.276 174.362 150.745 166.26C149.816 170.537 152.857 179.93 150.035 180.901C149.943 180.592 149.764 180.484 149.677 180.175C149.042 177.914 148.644 175.647 148.43 173.306C146.86 176.03 143.628 180.432 142.554 183.065L141.486 183.607C141.423 179.422 142.722 172.918 141.129 170.051C141.717 168.007 142.375 165.968 142.906 163.907L148.246 169.868C147.295 164.147 146.345 158.423 145.394 152.698C145.423 149.774 144.326 154.908 141.833 159.567C140.575 157.169 139.582 154.582 137.204 153.063C137.134 152.492 136.955 149.626 136.667 149.449C135.181 151.737 133.698 154.027 132.217 156.318C132.066 155.627 131.882 155.296 131.859 154.508C131.755 151.048 133.325 145.886 133.636 142.22C134.139 141.409 133.833 140.935 134.525 140.41C135.911 140.455 135.593 149.072 138.976 139.142C139.63 144.384 140.282 149.626 140.932 154.868C148.038 137.617 144.719 137.726 149.481 153.783L151.259 141.854C158.664 149.946 163.328 158.448 160.338 146.011C160.748 145.263 170.993 157.317 171.553 158.482L172.09 157.94C168.125 145.223 168.898 147.73 174.941 157.94L174.583 154.325L175.12 154.868L175.478 153.423C179.27 158.271 179.305 165.203 179.749 171.136C180.205 168.738 181.141 166.145 181.354 163.724C182.532 150.203 176.823 142.854 187.409 161.914C187.611 160.629 183.917 146.491 185.452 146.554C190.024 161.617 195.138 171.159 192.038 187.759L192.056 187.764Z" fill="#D3D0BD"/>
<path d="M186.18 163.907C190.284 173.711 187.524 182.916 183.328 192.104C182.301 185.303 180.506 178.611 181.014 171.679H181.724C182.907 183.345 183.952 181.751 185.643 170.594C185.937 168.652 185.747 165.923 186.18 163.907Z" fill="#B6BBAD"/>
<path d="M171.576 170.411C176.898 178.874 177.054 191.47 177.81 180.712C178.918 178 178.104 186.725 177.81 188.301C177.331 190.888 175.975 193.457 175.495 196.073C174.589 187.427 174.076 178.776 171.576 170.411Z" fill="#B6BBAD"/>
<path d="M163.565 190.654C163.276 194.491 163.005 200.812 161.429 203.307C161.897 197.86 160.407 192.195 160.003 188.124C159.986 187.953 160.632 187.713 160.361 184.692C160.217 183.105 158.035 177.435 158.756 171.861C160.142 174.734 160.933 188.221 161.429 189.032C161.619 189.346 162.872 188.883 163.565 190.659V190.654Z" fill="#D3D0BD"/>
<path d="M142.912 163.907C143.87 160.201 144.742 156.478 145.406 152.704C146.356 158.425 147.307 164.149 148.257 169.874L142.918 163.913L142.912 163.907Z" fill="#B6BBAD"/>
<path d="M162.318 152.338C163.207 154.447 164.098 156.556 164.99 158.665C165.856 168.898 169.106 175.305 164.454 167.162C161.585 172.569 163.726 159.442 162.318 152.344V152.338Z" fill="#B6BBAD"/>
<path d="M184.933 196.438C184.696 194.971 184.569 195.41 184.575 195.353C184.881 192.607 187.9 189.415 188.494 186.137C190.11 184.938 190.942 196.507 184.933 196.438Z" fill="#BDB4A0"/>
<path d="M165.169 171.136C166.237 172.056 173.083 185.72 171.934 185.954C170.445 180.627 165.966 176.675 165.169 171.136Z" fill="#B6BBAD"/>
<path d="M148.967 189.934C151.23 195.307 159.409 201.612 159.651 202.405C159.807 202.902 159.599 205.003 159.651 206.203C155.922 208.418 152.378 214.408 148.257 217.406C147.53 214.676 144.65 207.396 144.696 205.118C144.725 203.701 147.484 197.163 147.899 195.176C148.159 193.937 147.27 190.026 148.967 189.934Z" fill="url(#paint3_linear_3126_18927)"/>
<path d="M148.967 189.934C147.27 190.026 148.159 193.937 147.899 195.176C147.484 197.158 144.725 203.701 144.696 205.118H142.56C142.808 197.643 144.332 191.048 147.189 184.15C148.072 185.594 148.476 188.758 148.967 189.934Z" fill="#4A4D53"/>
<defs>
<linearGradient id="paint0_linear_3126_18927" x1="-24.8542" y1="64.5179" x2="38.2301" y2="296.963" gradientUnits="userSpaceOnUse">
<stop stop-color="#C73D1F"/>
<stop offset="1" stop-color="#A12815"/>
</linearGradient>
<linearGradient id="paint1_linear_3126_18927" x1="166.918" y1="61.5294" x2="112.637" y2="287.775" gradientUnits="userSpaceOnUse">
<stop stop-color="#C03C1F"/>
<stop offset="1" stop-color="#DA5126"/>
</linearGradient>
<linearGradient id="paint2_linear_3126_18927" x1="92.1395" y1="31.0904" x2="182.394" y2="119.919" gradientUnits="userSpaceOnUse">
<stop stop-color="#9EADA2"/>
<stop offset="1" stop-color="#667B76"/>
</linearGradient>
<linearGradient id="paint3_linear_3126_18927" x1="25.0658" y1="127.12" x2="71.4801" y2="230.474" gradientUnits="userSpaceOnUse">
<stop stop-color="#4C555A"/>
<stop offset="1" stop-color="#5F6A69"/>
</linearGradient>
</defs>
</svg>
