<svg width="289" height="291" viewBox="0 0 289 291" fill="none" xmlns="http://www.w3.org/2000/svg">
<path d="M168.219 281.418C168.16 283.602 171.009 292.376 176.96 286.415C176.207 288.769 184.648 287.239 190.075 287.662C190.157 283.084 184.089 286.615 183.624 284.331C189.18 284.308 190.44 283.354 191.953 289.746C188.474 287.109 180.374 288.963 175.712 288.916C156.558 288.698 137.41 288.227 118.25 288.498C118.974 285.079 120.911 287.639 122 281.63C122.065 281.277 122.83 281.465 122.83 281.424H168.213L168.219 281.418Z" fill="#2A231D"/>
<path d="M117.838 288.498C118.091 289.552 116.95 289.457 116.173 289.328C110.08 288.339 103.847 288.339 97.4365 288.498C97.8662 287.992 99.8616 284.443 100.144 284.337C100.703 284.114 111.646 284.149 112.217 284.337C112.564 284.449 115.519 288.645 116.379 288.916C117.191 289.169 117.532 288.463 117.838 288.498Z" fill="#401E17"/>
<path d="M102.016 280.171C102.575 281.012 110.798 281.636 112.217 281C112.441 280.9 115.243 277.475 115.343 277.251C118.127 278.534 119.557 277.287 120.34 277.251C118.833 278.646 122.842 279.764 122.836 281.412C122.836 281.454 122.065 281.265 122.006 281.618C120.917 287.633 118.98 285.067 118.256 288.486C118.121 288.475 117.974 288.504 117.838 288.486C117.532 288.451 117.191 289.157 116.379 288.904C115.519 288.633 112.558 284.437 112.217 284.326C111.646 284.137 100.703 284.102 100.144 284.326C99.8616 284.437 97.8662 287.98 97.4365 288.486C93.8635 292.735 95.3056 290.44 94.5227 288.069C96.6241 286.432 96.371 284.967 93.6928 284.737C93.4161 284.714 93.1336 284.749 92.8628 284.737C92.6568 282.048 92.4331 282.366 92.4449 282.242C92.5391 281.471 92.7157 281.424 92.8628 280.995C93.2807 279.753 95.9355 277.075 97.2363 276.834C101.834 275.974 101.268 279.029 102.022 280.165L102.016 280.171Z" fill="#EDBD11"/>
<path d="M115.549 280.171H117.214C123.148 286.527 109.344 285.044 115.549 280.171Z" fill="#F6DD68"/>
<path d="M96.3946 279.753C101.21 278.434 99.167 288.41 94.5227 282.46L96.3946 279.753Z" fill="#E9E96B"/>
<path d="M94.5227 288.08C94.1401 286.933 92.798 285.867 93.6928 284.749C96.371 284.979 96.6241 286.444 94.5227 288.08Z" fill="#1B1E1F"/>
<path d="M183.63 284.331C184.095 286.615 190.163 283.078 190.081 287.662C184.654 287.239 176.213 288.769 176.966 286.415C178.267 285.114 174.871 284.367 183.63 284.331Z" fill="#2D1816"/>
<path d="M174.053 276.84L173.011 279.335C176.866 277.51 177.19 281.195 177.59 281.418C178.367 281.848 178.973 280.995 179.05 281C185.201 281.418 190.134 281.583 188.627 278.505C191.376 276.592 195.125 276.027 196.956 279.753C197.309 280.471 197.551 282.33 197.374 283.084C197.345 283.213 196.226 284.755 195.708 285.167C194.914 285.803 192.241 283.719 194.042 288.916C193.766 289.24 192.777 291.041 192.583 290.999C192.2 290.917 192.7 290.311 191.959 289.752C190.446 283.36 189.186 284.32 183.63 284.337C174.871 284.373 178.267 285.114 176.966 286.421C171.015 292.382 168.166 283.608 168.225 281.424C168.26 280.094 169.049 278.311 170.309 277.675C174.2 277.546 172.316 277.004 173.223 276.845C173.482 276.798 173.805 276.898 174.053 276.845V276.84Z" fill="#EDBD11"/>
<path d="M179.05 281C178.897 280.012 179.468 280.212 179.468 280.171C179.98 280.453 180.098 280.535 180.716 280.588C188.727 281.265 187.291 279.435 188.627 278.505C190.134 281.583 185.201 281.418 179.05 281Z" fill="#67400B"/>
<path d="M195.702 285.167C196.915 286.162 194.766 288.057 194.037 288.916C192.235 283.725 194.908 285.803 195.702 285.167Z" fill="#2A231D"/>
<path d="M192.165 279.753H193.413C198.687 285.72 186.214 285.661 192.165 279.753Z" fill="#E9E96B"/>
<path d="M172.593 280.171L175.718 282.46C174.988 286.727 169.214 282.984 172.593 280.171Z" fill="#F6DD68"/>
<path d="M233.175 129.468C231.385 129.739 228.324 131.793 227.347 133.629C226.435 134.071 222.344 137.437 218.606 139.456C214.197 141.839 209.724 143.463 205.073 145.282C204.932 145.335 203.319 146.906 203.202 146.947C195.838 149.56 191.058 148.695 190.505 149.031C190.087 149.284 190.075 151.885 189.881 152.362C189.151 149.708 188.309 150.378 188.215 150.278C188.174 150.231 188.986 149.284 188.009 149.031C184.33 148.077 168.743 149.837 154.904 137.79C154.869 137.761 154.528 136.996 154.486 136.96C159.037 136.96 164.34 128.874 168.643 127.385C195.82 141.892 230.608 121.959 225.269 87.2127C223.91 78.3437 216.593 64.6665 209.865 58.6989C209.888 56.0918 215.404 50.9246 217.776 45.3749C237.389 61.3767 246.79 95.6874 238.178 119.269C236.883 122.824 233.91 126.432 233.18 129.468H233.175Z" fill="#80402B"/>
<path d="M80.7841 58.6989C69.2941 67.9034 62.3482 86.0769 64.1318 100.537C67.3692 126.838 98.1487 139.656 120.758 128.221C125.208 133.111 132.901 135.995 134.497 139.044C125.755 146.076 112.064 149.866 100.98 149.449C97.3246 149.313 90.055 147.148 87.8653 147.365C87.8241 146.965 88.0419 146.377 87.6593 146.118C86.9647 145.647 76.7226 142.422 72.4609 139.873C65.9212 135.966 63.2547 132.064 61.2181 132.794C62.0009 130.269 57.7216 128.762 56.2206 126.967C42.3407 110.336 49.0275 65.514 69.9592 47.4523C73.6558 44.1566 76.7049 59.8877 80.7841 58.6931V58.6989Z" fill="#80402B"/>
<path d="M69.5413 205.652C71.8487 206.247 71.5132 207.241 71.625 207.318C70.5949 208.713 72.6375 210.39 73.7088 208.565C76.0986 210.919 77.476 211.967 78.2883 215.645C76.9816 216.522 75.1921 217.629 73.7088 218.141C66.6747 214.127 66.2979 207.459 66.2155 218.558C72.0488 225.332 75.0685 218.847 80.5781 215.227C85.3107 218.611 85.4637 221.301 82.0379 225.844C76.2575 233.507 69.8709 230.205 69.5472 230.841C72.043 233.218 76.1222 233.036 77.0404 233.548C78.0411 239.057 81.8966 248.744 88.7012 243.541C89.9844 246.519 89.0544 252.51 91.197 251.869C91.8209 251.928 92.7451 251.392 93.2807 251.039C96.4888 250.862 94.8818 252.563 94.9465 252.704C85.6168 255.082 88.4422 252.799 87.2414 245.213C78.0823 252.481 80.5545 243.212 78.5002 241.882C78.2295 241.705 74.0796 241.811 73.2967 240.422C73.0907 240.063 73.0319 235.731 72.8788 235.425C71.7074 233.048 66.6276 237.067 68.7172 223.355C60.7648 224.85 63.3077 223.785 64.5556 212.114C64.0788 210.525 60.0997 213.156 59.5581 211.696C58.8106 209.672 59.7229 205.123 59.5581 202.745L66.4274 210.655C67.8225 209.207 68.4582 207.312 69.5531 205.658L69.5413 205.652Z" fill="#BA7142"/>
<path d="M99.5202 50.3714C99.3848 50.3596 99.2436 50.3714 99.1023 50.3714C94.6052 50.4067 84.4277 55.774 80.7841 58.6989C76.7049 59.8936 73.6558 44.1625 69.9592 47.4582C70.2712 47.1875 71.4838 45.4572 71.625 45.3749C73.5322 44.2979 78.3001 44.392 78.2883 43.0855C78.2883 42.6324 71.9488 39.2248 70.7951 38.3008C69.5884 37.3298 62.6779 31.1503 64.3437 29.9733C70.2594 36.2234 77.8469 40.5549 85.5815 44.1272C90.0668 46.1988 98.1252 48.2527 99.532 50.3714H99.5202Z" fill="#532318"/>
<path d="M195.702 184.836C208.817 199.102 203.814 193.417 213.191 187.749C216.404 190.357 210.595 193.187 206.945 197.531L211.319 201.903C217.234 197.678 219.071 198.949 215.692 187.749C216.975 186.49 215.604 186.249 216.522 184.836L222.562 200.238C225.163 199.579 227.306 197.949 228.601 195.659C230.278 197.03 231.933 198.437 233.598 199.82L231.933 199.196C232.156 202.727 231.032 206.023 230.267 209.395L227.141 201.903C225.675 201.974 226.929 209.872 226.935 210.643C226.935 210.814 226.458 211.143 226.517 213.974C224.751 210.867 222.591 207.524 220.272 204.817C220.154 204.675 219.66 202.386 217.564 202.321C217.093 202.304 209.635 204.658 208.611 205.234C208.487 204.693 207.946 204.528 207.781 203.987C205.697 197.295 199.782 193.04 195.29 187.961C194.419 186.979 194.537 185.766 194.46 185.672C194.637 185.625 195.667 184.901 195.708 184.842L195.702 184.836Z" fill="#532318"/>
<path d="M209.029 213.562C210.012 215.598 219.518 222.296 219.854 222.931C220.56 224.261 220.136 232.359 221.938 233.548C221.455 237.144 221.508 235.478 217.358 234.378L220.272 230.005C212.814 233.948 203.772 224.973 205.697 217.723C206.033 216.469 207.475 214.303 208.611 213.562C208.729 213.621 208.929 213.503 209.029 213.562Z" fill="#BA7142"/>
<path d="M216.94 234.378C216.864 245.283 215.798 243.288 212.361 240.622C211.99 240.334 211.542 239.998 211.113 239.792C212.155 232.895 208.817 244.93 201.742 240.622C196.615 237.503 200.847 234.666 201.118 234.378C203.031 232.33 205.226 230.882 206.321 227.716C211.66 231.953 209.682 232.465 216.94 234.378Z" fill="#BA7142"/>
<path d="M124.502 260.602C123.095 268.035 118.245 262.285 117.42 263.727C117.067 264.351 116.09 275.509 115.337 277.257C115.243 277.481 112.435 280.906 112.211 281.006C110.792 281.642 102.569 281.012 102.01 280.176C103.27 279.976 108.567 280.53 109.091 279.97C109.715 279.3 111.84 264.281 113.253 262.068C110.946 260.596 110.975 263.439 108.255 262.274C108.603 261.656 109.792 260.549 110.339 260.19C114.683 257.33 119.057 263.298 120.958 263.104C121.647 263.033 122.653 260.955 124.496 260.608L124.502 260.602Z" fill="#D68E59"/>
<path d="M102.852 247.696L97.0244 254.564C100.232 257.671 99.5143 246.849 110.351 255.394C108.821 257.542 107.773 258.754 107.437 261.432C105.354 260.043 102.569 256.936 102.234 256.853C97.3717 255.688 99.1494 261.567 94.9466 252.693C94.8818 252.551 96.4888 250.851 93.2807 251.027C97.6072 248.149 92.0269 247.602 102.858 247.696H102.852Z" fill="#80402B"/>
<path d="M176.548 261.02L180.71 280.588C180.092 280.535 179.974 280.459 179.462 280.171C179.368 274.015 174.453 276.751 174.047 276.84C173.794 276.893 173.47 276.792 173.217 276.84C173.223 257.801 171.18 266.193 165.929 263.104C165.3 262.733 165.07 261.567 164.888 261.438C167.966 261.456 173.17 262.615 175.712 260.19C176.36 260.261 176.495 260.991 176.542 261.02H176.548Z" fill="#D68E59"/>
<path d="M191.123 256.859C190.923 257.242 190.681 258.413 190.705 258.943C187.974 259.767 184.901 258.748 184.666 258.943C184.218 259.319 185.107 267.105 176.548 261.026C176.501 260.991 176.366 260.267 175.718 260.196C176.595 259.361 177.508 257.813 176.136 257.071L176.966 256.865C180.404 258.148 178.926 256.359 179.05 256.241C183.488 252.092 182.564 250.715 191.123 256.865V256.859Z" fill="#80402B"/>
<path d="M212.361 240.622C209.918 248.167 209.576 251.839 203.825 245.201C203.249 257.536 197.615 254.205 194.666 255.606C194.131 255.859 193.519 258.089 190.711 258.937C190.687 258.407 190.929 257.236 191.129 256.853C195.361 248.808 194.825 252.71 195.502 252.693C198.086 252.628 201.071 250.433 201.954 248.114C202.46 246.784 202.713 245.36 202.784 243.953C209.382 246.101 210.106 246.419 211.113 239.792C211.542 239.998 211.99 240.334 212.361 240.622Z" fill="#BA7142"/>
<path d="M281.895 183.171C280.754 181.346 279.411 179.516 278.146 177.756C269.511 165.745 258.333 156.24 246.919 146.947C249.474 143.01 250.828 138.849 252.334 134.459C263.412 140.803 272.901 153.621 278.152 165.056C280.524 170.223 284.697 178.127 281.901 183.165L281.895 183.171Z" fill="#BA7142"/>
<path d="M252.329 134.465C250.822 138.855 249.468 143.022 246.913 146.953C243.346 144.046 239.767 140.956 236.088 138.214C237.148 135.383 240.126 132.852 240.25 129.886C244.57 130.54 248.567 132.317 252.323 134.465H252.329Z" fill="#9D5331"/>
<path d="M233.175 129.468C234.67 129.245 238.531 129.627 240.256 129.886C240.132 132.852 237.148 135.383 236.094 138.214C234.982 137.384 229.042 132.794 228.389 132.799C228.324 132.799 227.918 133.353 227.347 133.629C228.324 131.793 231.391 129.739 233.175 129.468Z" fill="#80402B"/>
<path d="M205.697 217.723C203.767 224.973 212.814 233.942 220.272 230.005L217.358 234.378C217.229 234.343 217.07 234.413 216.94 234.378C209.682 232.465 211.66 231.953 206.321 227.716C205.22 230.882 203.025 232.33 201.118 234.378C201.118 233.036 203.096 232.177 203.614 231.253C203.926 230.706 203.178 230.664 203.196 230.629C204.22 228.499 204.697 228.634 204.861 226.05C204.997 223.926 203.09 217.205 205.691 217.723H205.697Z" fill="#672F18"/>
<path d="M230.261 209.401C230.108 210.084 230.19 213.191 229.637 213.562L226.929 210.649C226.923 209.878 225.67 201.98 227.135 201.909L230.261 209.401Z" fill="#BA7142"/>
<path d="M191.953 30.3911C188.78 32.4157 185.631 33.6515 182.376 35.3877C158.577 29.6673 131.606 29.6025 107.843 35.3877C107.49 35.1935 103.258 33.7339 100.556 32.0567C98.2664 30.6383 98.7962 30.0557 98.6844 29.9733C125.861 20.2568 164.593 21.2691 191.953 30.3911Z" fill="#D68E59"/>
<path d="M182.376 35.3877C167.242 43.468 153.074 47.7113 144.28 64.5312C137.098 49.2591 121.635 43.009 107.849 35.3877C131.612 29.6025 158.583 29.6673 182.382 35.3877L182.376 35.3877Z" fill="#D68E59"/>
<path d="M98.6844 29.9733C98.8021 30.0498 98.2723 30.6324 100.556 32.0567C103.258 33.7339 107.49 35.1935 107.843 35.3877C121.635 43.009 137.098 49.2591 144.274 64.5312C153.068 47.7113 167.236 43.468 182.37 35.3877C185.625 33.6515 188.774 32.4157 191.947 30.3911C203.908 22.7639 212.743 12.0235 220.054 0C222.532 2.71307 223.274 6.4384 223.592 9.99306C221.049 13.7949 219.589 18.0793 216.928 21.8576C214.132 25.836 210.471 28.9964 206.933 32.2626C215.098 28.861 221.52 21.4927 223.586 12.9062C223.857 26.1126 220.125 28.7963 220.878 29.1435C224.21 25.9537 227.541 22.762 230.873 19.5683C233.175 19.5859 228.289 33.781 224.834 36.8472C226.87 37.6594 237.889 27.5133 238.16 29.3554C236.965 37.8418 225.593 44.9511 217.758 44.9688C217.458 44.9688 212.767 43.9389 211.931 43.7211C218.877 39.4249 226.399 34.8815 229.213 26.654C224.174 32.8865 216.563 38.9188 209.435 42.4734C202.395 45.9869 189.71 49.724 180.08 54.544C165.623 61.7887 153.545 70.6223 147.811 86.3888C143.12 99.3009 147.37 97.6001 142.396 85.1411C136.351 69.9926 119.722 57.0923 104.506 52.0428C102.923 51.519 100.945 50.4773 99.5084 50.3773C98.1016 48.2586 90.0433 46.2047 85.5579 44.1331C77.8233 40.5608 70.2359 36.2293 64.3201 29.9792C62.6543 31.1503 69.5648 37.3357 70.7715 38.3067C67.2103 40.4784 73.4027 44.2626 67.4399 44.1331C59.564 41.7555 51.1348 36.2351 51.8235 27.066C54.3017 29.3848 56.562 32.1332 59.3168 34.1459C70.6597 42.4205 61.7772 34.9463 59.9407 30.191C59.3109 28.555 58.4515 25.6536 58.2749 23.9469C57.1212 12.6767 60.2115 24.1705 68.4759 28.3196C66.5864 22.6403 66.0036 18.4383 66.1861 12.5002C69.3117 20.7394 75.6689 29.3083 84.5043 31.0267C77.8704 25.477 70.7656 18.7502 67.434 10.6287C66.8807 9.28095 67.4104 7.57424 66.1861 7.92147C66.6688 5.03184 67.6047 2.11867 69.7238 0.0117707C76.7932 12.4943 86.9059 22.0754 98.6608 29.9851L98.6844 29.9733Z" fill="#BA7142"/>
<path d="M66.2097 12.4884C66.2509 11.0524 66.0272 9.01023 66.2097 7.9097C67.434 7.56247 66.9042 9.2633 67.4576 10.6169C70.7892 18.7385 77.8998 25.4652 84.5278 31.015C75.6925 29.2965 69.3353 20.7277 66.2097 12.4884Z" fill="#89543D"/>
<path d="M223.598 9.99306C223.686 10.9465 223.58 11.9469 223.598 12.9062C221.531 21.4986 215.104 28.861 206.945 32.2626C210.483 28.9964 214.138 25.8301 216.94 21.8576C219.601 18.0793 221.061 13.7949 223.603 9.99306H223.598Z" fill="#80402B"/>
<path d="M71.6191 45.3749C70.2653 44.8628 68.8408 44.545 67.4575 44.1272C73.4204 44.2567 67.228 40.4725 70.7892 38.3008C71.9429 39.2307 78.2824 42.6382 78.2824 43.0855C78.2942 44.392 73.5263 44.2979 71.6191 45.3749Z" fill="#9D5331"/>
<path d="M211.943 43.7093C210.518 43.3386 210.565 43.4092 209.447 42.4617C216.575 38.907 224.186 32.8747 229.225 26.6423C226.411 34.8698 218.894 39.419 211.943 43.7093Z" fill="#672F18"/>
<path d="M154.899 137.796C168.737 149.843 184.324 148.083 188.003 149.037C188.98 149.29 188.168 150.237 188.209 150.284C187.155 156.158 181.393 157.388 177.384 160.277C175.383 159.489 169.438 163.814 168.013 163.608C166.506 163.391 157.035 149.996 160.308 158.612C158.536 158.883 162.356 165.798 162.392 169.017C162.392 169.346 161.368 166.598 161.144 174.843C161.05 178.327 160.679 184.707 165.517 185.666C165.965 185.754 174.241 186.225 174.676 186.084C175.383 185.854 180.086 176.897 180.504 175.261C181.216 174.89 189.91 182.523 190.705 184.418C190.817 184.683 190.599 185.331 190.705 185.666C187.244 186.302 183.529 186.019 180.086 186.496C179.715 186.549 176.066 188.632 173.005 187.326C172.192 187.744 173.564 188.45 173.629 188.991C173.947 191.569 174.412 194.311 174.459 196.901C173.075 197.113 165.164 199.967 164.676 199.814C164.27 199.691 161.421 193.623 159.472 193.152C160.491 190.357 161.203 190.716 159.89 186.908C161.944 183 154.275 187.496 151.355 186.908C150.949 186.826 145.675 182.824 144.486 182.329C150.931 178.092 160.173 157.505 157.812 150.273L157.606 149.025C147.405 163.644 138.57 138.167 141.99 151.52C141.466 152.974 138.54 157.953 138.658 158.806C138.976 161.113 146.204 168.011 153.651 165.886C153.115 168.105 151.437 169.652 150.319 171.506C140.518 177.262 140.189 169.982 137.622 169.841C135.615 169.735 127.021 180.717 119.51 170.671C120.499 166.433 119.904 167.11 119.928 166.922C119.993 166.31 121.229 165.998 120.552 165.256C119.434 164.762 110.38 173.554 100.568 157.347C99.8087 157.558 101.045 159.483 101.192 159.842C101.904 171.677 120.646 180.016 122.636 182.323C123.56 183.394 123.189 183.612 123.26 184.819C123.266 184.925 123.018 185.254 122.842 186.902C120.346 186.431 113.247 189.798 111.805 189.397C109.898 188.874 102.605 175.479 104.518 186.066C104.011 186.019 104.123 186.461 104.1 186.484C96.1591 193.658 94.7464 196.895 85.7816 186.69C95.6235 186.578 93.0041 183.659 97.8544 175.867C98.2135 174.496 96.1886 176.621 93.6928 178.992C89.5292 178.161 85.3656 177.329 81.202 176.497C81.7789 174.078 82.7855 171.718 83.6978 169.417C83.7214 169.352 85.0517 168.94 84.3218 168.169C83.4742 168.74 83.7508 169.37 83.6978 169.417C76.6225 176.079 74.939 182.829 69.9592 179.822C60.4882 170.094 75.1392 152.12 84.9516 148.183C85.5932 147.924 87.2355 147.412 87.8653 147.354C90.055 147.136 97.3246 149.296 100.98 149.437C112.07 149.855 125.761 146.059 134.497 139.032C135.692 138.073 137.669 136.366 138.658 135.283C146.705 141.18 146.64 144.27 154.899 137.778V137.796Z" fill="#BA7142"/>
<path d="M189.875 152.368C187.809 157.488 184.889 160.866 183.212 164.856C170.662 167.01 174.588 168.452 184.042 175.261C184.913 175.891 188.509 179.769 188.827 179.84C189.133 179.91 194.772 179.916 195.073 179.84C195.555 179.722 200.782 173.378 201.524 172.348H202.354C202.254 173.566 202.542 175.485 202.354 176.097C202.195 176.621 198.345 180.681 195.691 184.836C195.649 184.901 194.619 185.619 194.443 185.666C193.053 183.995 192.953 183.583 190.693 184.418C189.898 182.523 181.204 174.89 180.492 175.261C180.074 176.897 175.371 185.854 174.665 186.084C174.229 186.225 165.953 185.754 165.506 185.666C160.673 184.707 161.038 178.321 161.132 174.843C162.757 179.675 163.351 183.065 168.837 183.171C175.789 183.3 175.024 179.334 179.038 174.219C179.909 170.877 168.107 171.5 162.386 169.017C162.351 165.798 158.53 158.877 160.302 158.612C161.22 161.031 166.018 167.663 168.837 167.351C169.391 167.293 174.971 162.008 177.372 160.272C181.387 157.382 187.144 156.158 188.197 150.278C188.291 150.373 189.133 149.702 189.863 152.362L189.875 152.368Z" fill="#80402B"/>
<path d="M154.481 136.96C154.522 136.996 154.863 137.761 154.899 137.79C146.64 144.281 146.705 141.192 138.658 135.295C141.16 132.582 143.032 129.168 145.11 126.137C147.829 130.139 150.896 133.7 154.481 136.96Z" fill="#9D5331"/>
<path d="M218.606 139.461C218.653 139.944 218.529 140.574 218.606 140.709C213.232 144.888 204.002 146.371 206.533 147.789C205.356 147.259 204.714 146.688 203.202 146.959C203.319 146.918 204.938 145.347 205.073 145.294C209.724 143.475 214.197 141.845 218.606 139.467V139.461Z" fill="#532318"/>
<path d="M87.8595 147.371C87.2296 147.436 85.5873 147.948 84.9457 148.201C85.2695 146.635 75.922 143.257 72.0371 140.709C72.0724 140.674 72.3903 140.097 72.455 139.879C76.7167 142.428 86.9589 145.653 87.6534 146.123C88.036 146.382 87.8183 146.971 87.8595 147.371Z" fill="#672F18"/>
<path d="M209.441 42.4617C210.565 43.4092 210.518 43.3386 211.937 43.7093C212.779 43.9271 217.47 44.957 217.764 44.957V45.3748C215.392 50.9187 209.877 56.0918 209.853 58.6989C207.157 56.3095 196.691 50.3066 193.407 49.9594C192.018 49.8123 192.035 50.7775 191.947 50.7892C186.149 51.6838 181.658 57.8161 177.79 62.4478C148.471 68.7744 139.512 111.848 168.631 127.391C164.328 128.88 159.025 136.966 154.475 136.966C150.89 133.706 147.823 130.145 145.104 126.143C143.026 129.174 141.148 132.588 138.652 135.301C137.658 136.378 135.68 138.09 134.491 139.049C132.896 136.001 125.202 133.117 120.752 128.227C133.331 121.865 139.783 109.571 139.07 95.758C137.646 68.0799 114.948 63.9544 112.629 62.4537C111.087 61.4532 108.126 54.6264 104.512 52.0487C119.728 57.0982 136.357 69.9985 142.402 85.147C147.376 97.6059 143.12 99.3068 147.817 86.3946C153.551 70.6282 165.635 61.7887 180.086 54.5499C189.716 49.724 202.401 45.9869 209.441 42.4793V42.4617Z" fill="#532318"/>
<path d="M144.904 101.578C139.918 107.016 140.989 108.647 145.11 114.067C147.817 109.882 149.048 106.581 146.569 101.996C157.082 105.763 150.537 119.84 145.11 125.308C138.788 117.939 133.408 106.393 144.904 101.578Z" fill="#EDBD11"/>
<path d="M146.569 101.996C149.048 106.581 147.823 109.888 145.11 114.067C140.989 108.647 139.918 107.016 144.904 101.578C145.263 101.561 146.163 101.849 146.569 101.996Z" fill="#F6F0D8"/>
<path d="M193.207 201.903C194.048 206.258 190.246 205.117 201.324 211.479C202.766 211.49 206.545 206.723 208.193 205.652C209.211 206.918 209.824 212.938 209.023 213.562C208.923 213.503 208.723 213.621 208.605 213.562C208.564 213.544 208.723 212.691 208.399 212.732C208.181 212.756 207.34 213.974 207.151 213.98C204.791 214.045 206.786 212.832 205.067 213.15C204.92 213.179 203.89 214.627 202.572 214.815C192.424 216.263 191.876 211.708 191.535 224.809C191.47 227.292 190.287 227.263 192.365 229.387C189.38 231.765 199.317 233.848 197.362 237.715C187.98 238.603 182.717 238.262 187.785 243.959C186.473 244.218 187.179 244.706 186.537 244.789L182.582 238.545C181.263 241.181 177.879 243.306 179.044 244.789C176.943 244.624 177.072 243.971 176.96 243.959C180.975 236.903 178.767 240.281 168.425 240.628L168.631 243.123C165.317 243.088 162.663 248.502 155.305 243.541C153.509 242.335 153.556 240.457 152.809 239.38C150.054 235.414 150.955 237.226 149.477 236.467C150.413 235.084 150.808 233.33 151.561 231.888C152.844 229.428 154.91 227.298 155.311 224.397C156.099 224.52 156.17 223.996 156.558 223.979C160.308 223.832 164.046 222.89 167.801 222.731C168.484 225.273 169.349 225.073 169.467 225.226C177.961 236.344 181.098 232.395 184.872 225.644C186.543 222.649 188.356 219.606 188.409 216.069C184.913 216.575 174.518 213.733 171.963 214.404C170.538 206.27 167.054 211.125 161.762 208.577C159.973 207.712 156.8 202.951 158.224 200.667C158.536 201.903 158.366 203.434 159.266 204.416C159.484 204.658 164.77 207.324 165.094 207.329C165.818 207.341 169.479 204.664 170.297 203.998C177.461 213.356 181.24 214.368 188.615 204.622C189.704 200.25 181.069 202.733 174.041 200.25C175.618 197.772 174.47 197.678 174.459 196.919C174.406 194.329 173.941 191.587 173.629 189.009C181.151 195.836 184.854 195.341 190.699 186.926C191.906 191.922 192.224 196.872 193.195 201.915L193.207 201.903Z" fill="url(#paint0_linear_3126_66456)"/>
<path d="M84.9457 148.201C75.1333 152.138 60.4823 170.112 69.9533 179.84C68.8114 180.605 68.8349 182.223 69.1234 183.589C64.5909 181.9 65.2914 178.004 63.084 174.013C61.4064 177.462 60.4352 181.046 59.9584 184.836L58.7105 185.666C58.2455 182.5 57.4155 181.435 57.4626 175.673C57.5803 161.284 62.1187 150.861 72.0371 140.703C75.922 143.252 85.2636 146.63 84.9457 148.195V148.201Z" fill="#80402B"/>
<path d="M136.992 213.562C137.44 213.738 142.331 218.241 143.238 219.388C141.955 219.936 140.459 223.32 139.076 225.215C135.744 226.857 126.515 223.52 123.878 221.884C123.054 221.372 123.107 219.618 122.63 219.388C122.241 219.2 116.897 220.336 116.384 220.218C115.602 220.047 110.84 213.762 108.679 213.138C111.687 210.096 113.541 206.011 116.173 202.733C116.426 202.415 118.109 200.361 118.256 200.444C119.163 202.021 122.812 213.656 123.46 213.974C125.196 214.827 133.678 212.255 136.992 213.556V213.562Z" fill="#AC6233"/>
<path d="M69.1234 183.589C70.2123 183.995 73.4027 183.589 73.7029 185.048L67.2515 202.327C61.8185 195.783 58.8871 193.523 59.9643 184.842C60.4352 181.052 61.4123 177.468 63.0899 174.019C65.2914 178.009 64.5909 181.905 69.1293 183.595L69.1234 183.589Z" fill="#BA7142"/>
<path d="M108.679 213.144C110.834 213.768 115.596 220.047 116.384 220.224C116.897 220.336 122.241 219.206 122.63 219.394C123.112 219.624 123.054 221.383 123.878 221.889C126.515 223.526 135.744 226.862 139.076 225.221C135.468 230.164 137.075 231.341 129.705 230.217C125.12 229.517 124.219 229.417 123.46 224.803C118.651 229.923 110.887 226.656 108.679 220.224C108.132 218.641 107.679 215.033 107.431 213.144C107.838 213.185 108.367 213.056 108.679 213.144Z" fill="#E5A965"/>
<path d="M118.674 196.913C118.845 199.043 120.075 200.809 120.758 202.739C121.794 205.682 122.235 210.99 125.961 211.479C131.601 212.22 132.513 209.931 134.915 206.482C136.015 204.899 136.463 205.999 136.998 209.395C137.028 209.601 136.51 210.213 136.998 213.556C133.684 212.255 125.202 214.827 123.466 213.974C122.812 213.656 119.163 202.021 118.262 200.444C118.121 200.361 116.432 202.415 116.178 202.733H114.095L114.925 201.691C109.397 200.885 103.476 198.884 97.8544 198.154C95.5999 194.676 107.861 192.722 104.1 186.496C104.123 186.478 104.011 186.031 104.518 186.078C106.69 198.102 109.915 197.384 118.674 196.901V196.913Z" fill="#80402B"/>
<path d="M96.6065 225.221C94.7052 229.452 90.832 221.572 85.9876 220.224C85.0399 220.989 85.0046 222.207 84.9457 222.307C82.3146 226.88 81.0313 229.346 86.6115 231.883C85.4107 233.583 90.6142 234.154 89.5253 234.796C79.3243 231.712 85.2283 226.203 77.0345 233.548C76.1104 233.036 72.0312 233.218 69.5413 230.841C69.865 230.205 76.2517 233.507 82.032 225.844C85.4578 221.301 85.3107 218.611 80.5722 215.227C75.0626 218.847 72.0371 225.332 66.2096 218.558C65.8035 215.239 69.7355 218.864 71.8311 218.976C73.8265 219.076 73.6087 218.176 73.7029 218.146C75.1862 217.634 76.9757 216.528 78.2824 215.651C79.4067 214.892 79.7481 214.939 80.3662 213.568C81.9378 215.557 82.0909 213.568 82.238 213.568C91.9799 213.397 87.3944 215.18 94.9348 224.185C95.2232 224.526 94.4874 224.985 94.5169 225.015C94.9642 225.515 96.3181 225.026 96.6006 225.221H96.6065Z" fill="#80402B"/>
<path d="M155.316 224.385C154.922 227.286 152.856 229.417 151.567 231.877C146.057 235.696 143.261 229.558 139.906 230.211C139.329 228.746 142.973 221.236 143.444 221.054C143.791 220.918 150.572 220.965 150.937 221.054C154.751 221.972 152.785 223.996 155.311 224.385H155.316Z" fill="#80402B"/>
<path d="M143.656 239.786C143.626 241.052 142.873 241.575 141.99 242.282C135.191 247.749 134.62 245.289 129.499 243.111C129.782 242.011 128.398 242.464 128.669 241.652C129.028 240.563 135.815 232.754 137.204 230.205C140.183 228.834 141.56 239.168 143.656 239.78V239.786Z" fill="#80402B"/>
<path d="M97.8544 198.16C103.482 198.89 109.397 200.897 114.925 201.697L114.095 202.739C105.218 212.303 101.28 207.153 95.7765 197.954C96.8302 197.289 97.5012 198.119 97.8603 198.16H97.8544Z" fill="#D68E59"/>
<path d="M89.5253 234.796C87.7594 253.699 78.5768 234.401 77.0345 233.548C85.2342 226.203 79.3243 231.712 89.5253 234.796Z" fill="#BA7142"/>
<path d="M155.316 243.535C153.692 243.924 154.993 247.19 154.275 247.696C143.997 247.82 144.586 251.545 141.99 242.282C142.873 241.57 143.626 241.046 143.656 239.786C144.568 240.051 151.19 239.886 152.815 239.368C153.562 240.445 153.521 242.323 155.311 243.529L155.316 243.535Z" fill="#672F18"/>
<path d="M103.682 242.288C103.535 242.811 102.946 243.482 102.852 243.953C100.909 243.729 96.2062 244.265 95.3586 243.953C94.8936 243.782 90.5789 235.861 90.7791 235.42C93.2395 234.772 96.0767 232.318 96.4005 232.295C98.3076 232.183 102.734 241.646 103.688 242.288H103.682Z" fill="#BA7142"/>
<path d="M94.1048 231.047C91.2146 233.636 90.9321 233.842 86.6115 231.877C81.0313 229.34 82.3146 226.874 84.9457 222.301C88.0949 228.363 94.3285 227.675 94.7288 228.128C95.8236 229.364 93.0806 229.711 94.1048 231.041V231.047Z" fill="#BA7142"/>
<path d="M80.3662 213.562C79.754 214.933 79.4126 214.886 78.2824 215.645C77.4701 211.973 76.0927 210.919 73.7029 208.565C71.213 206.111 71.937 207.541 71.6191 207.318C71.5132 207.241 71.8428 206.247 69.5354 205.652C71.4367 202.768 71.3366 200.42 74.321 201.074C76.44 203.475 79.4832 212.456 80.3603 213.562H80.3662Z" fill="#80402B"/>
<path d="M106.183 213.144C106.596 213.15 107.025 213.103 107.431 213.144C107.679 215.027 108.138 218.635 108.679 220.224C96.0002 228.94 91.1205 215.728 91.1911 214.604C91.25 213.621 93.5809 211.649 93.6869 211.479C94.9407 212.556 97.3835 211.52 98.0604 211.896C98.4136 212.091 97.46 213.073 97.8544 213.356C99.5614 214.58 103.829 213.109 106.183 213.15V213.144Z" fill="#C97939"/>
<path d="M106.183 213.144C103.835 213.109 99.5614 214.58 97.8544 213.35C97.4659 213.068 98.4136 212.091 98.0604 211.891C97.3894 211.514 94.9407 212.556 93.6869 211.473C94.6346 209.954 95.7353 206.647 97.6425 206.894C100.397 209.172 104.288 210.066 106.178 213.138L106.183 213.144Z" fill="#80402B"/>
<path d="M96.6065 225.221C98.3547 226.427 95.1702 230.099 94.1107 231.047C93.0865 229.717 95.8295 229.364 94.7347 228.134C94.3285 227.681 88.1008 228.369 84.9516 222.307C85.0105 222.207 85.0458 220.989 85.9935 220.224C90.8379 221.572 94.7111 229.446 96.6124 225.221H96.6065Z" fill="#9D5331"/>
<path d="M93.6869 179.01C90.5672 181.97 93.063 185.06 80.3603 178.386C80.2956 177.868 81.1667 176.615 81.1903 176.515C85.3539 177.346 89.5174 178.178 93.681 179.01H93.6869Z" fill="#D68E59"/>
<path d="M102.852 243.953C102.558 245.395 102.463 247.614 104.518 247.284C102.722 248.438 103.776 247.708 102.852 247.702C92.0211 247.608 97.6013 248.149 93.2748 251.033C92.7392 251.386 91.8209 251.928 91.1911 251.863C91.9563 250.815 93.5044 245.901 93.6869 245.619C93.7516 245.519 94.6405 246.054 95.3527 243.953C96.2003 244.265 100.909 243.729 102.846 243.953H102.852Z" fill="#532318"/>
<path d="M116.173 243.535C114.501 246.39 113.435 246.672 107.843 243.535C107.802 243.512 107.473 242.882 107.426 242.705C110.975 242.023 114.754 235.702 117.42 241.664C117.438 242.323 116.537 242.911 116.173 243.535Z" fill="#AC6233"/>
<path d="M93.6869 245.619C93.5044 245.901 91.9504 250.815 91.1911 251.863C89.0485 252.504 89.9785 246.513 88.6953 243.535C90.7967 241.929 88.9602 237.415 93.6928 245.619H93.6869Z" fill="#80402B"/>
<path d="M81.1962 176.509C81.1726 176.609 80.2956 177.862 80.3662 178.38C93.0688 185.054 90.5672 181.964 93.6928 179.004C96.1886 176.632 98.2193 174.514 97.8544 175.879C93.0041 183.671 95.6176 186.59 85.7816 186.702C94.7523 196.901 96.165 193.664 104.1 186.496C107.855 192.722 95.5999 194.676 97.8544 198.154C97.5012 198.107 96.8243 197.278 95.7706 197.949C101.28 207.147 105.212 212.302 114.089 202.733H116.173C113.541 206.017 111.687 210.101 108.679 213.138C108.367 213.05 107.838 213.179 107.431 213.138C107.025 213.097 106.596 213.144 106.184 213.138C104.294 210.066 100.403 209.172 97.6484 206.894C95.7412 206.647 94.6405 209.954 93.6928 211.473C93.5868 211.643 91.2559 213.609 91.197 214.598C91.1264 215.722 96.0061 228.934 108.685 220.218C110.893 226.651 118.657 229.917 123.466 224.797C124.225 229.405 125.126 229.511 129.711 230.211C137.081 231.335 135.468 230.158 139.082 225.215C140.465 223.32 141.966 219.936 143.244 219.388C145.492 218.423 148.2 220.171 152.197 216.057C153.653 218.694 155.11 221.33 156.57 223.967C156.182 223.985 156.105 224.503 155.322 224.385C152.797 223.996 154.769 221.972 150.949 221.054C150.584 220.965 143.803 220.918 143.456 221.054C142.979 221.236 139.341 228.746 139.918 230.211C141.142 233.313 146.934 235.131 149.495 236.455C150.972 237.22 150.072 235.402 152.827 239.368C151.202 239.886 144.58 240.051 143.667 239.786C141.572 239.174 140.195 228.84 137.216 230.211C135.827 232.759 129.04 240.569 128.681 241.658C128.416 242.464 129.793 242.011 129.511 243.117C129.464 243.312 128.575 242.046 128.469 246.448C121.676 246.813 121.041 248.861 116.184 243.535C116.549 242.906 117.45 242.317 117.432 241.664C114.766 235.702 110.987 242.017 107.437 242.705C106.672 242.853 103.941 242.458 103.688 242.288C102.734 241.646 98.3135 232.183 96.4005 232.295C96.0767 232.312 93.2395 234.772 90.7791 235.42C90.5789 235.861 94.8936 243.782 95.3586 243.953C94.6463 246.054 93.7575 245.519 93.6928 245.619C88.9602 237.415 90.7967 241.929 88.6953 243.535C81.8907 248.738 78.0352 239.051 77.0346 233.542C78.5768 234.396 87.7594 253.693 89.5253 234.79C90.6143 234.148 85.4107 233.577 86.6115 231.877C90.9321 233.842 91.2146 233.636 94.1048 231.047C95.1643 230.099 98.3547 226.427 96.6006 225.221C96.3181 225.026 94.9642 225.515 94.5169 225.015C94.4874 224.979 95.2173 224.526 94.9348 224.185C87.3885 215.18 91.9799 213.397 82.238 213.568C82.0909 213.568 81.9378 215.557 80.3662 213.568C79.495 212.461 76.4459 203.481 74.3269 201.079C71.3425 200.426 71.4426 202.774 69.5413 205.658C68.4523 207.312 67.8107 209.207 66.4157 210.655L59.5464 202.745C59.5346 202.539 58.8282 201.344 59.1284 198.584C62.8132 194.364 59.976 195.035 59.1284 190.88C58.1984 186.331 58.7517 185.937 58.7105 185.678L59.9584 184.848C58.8812 193.529 61.8126 195.789 67.2456 202.333L73.697 185.054C73.3968 183.595 70.2064 184.001 69.1175 183.595C68.8349 182.229 68.8055 180.611 69.9474 179.846C74.9331 182.853 76.6107 176.103 83.6861 169.441C82.7737 171.742 81.7613 174.102 81.1903 176.521L81.1962 176.509Z" fill="#532318"/>
<path d="M82.862 186.502C83.0915 186.82 84.5396 184.407 85.7757 192.746C85.1459 192.811 84.9869 193.535 84.9457 193.576C82.8031 195.659 80.5192 197.613 78.4943 199.82C70.9246 195.989 71.2777 193.782 74.9567 184.83C77.3583 186.172 80.1366 186.461 82.8679 186.496L82.862 186.502Z" fill="#BA7142"/>
<path d="M82.862 200.656C84.4866 200.785 90.8026 204.369 94.9348 203.987C94.8465 205.229 95.4587 205.458 95.3527 205.858C95.2409 206.258 89.2781 210.896 88.9013 211.061C83.4271 213.456 81.4669 208.512 78.7004 204.611C79.9129 202.804 80.9313 200.503 82.862 200.656Z" fill="#C97939"/>
<path d="M115.131 230.629C117.191 231.241 132.254 231.223 132.413 232.918C129.964 234.66 126.668 240.34 123.878 239.786C123.224 239.657 112.464 231.135 115.137 230.629H115.131Z" fill="#C97939"/>
<path d="M94.9407 203.987C90.8026 204.369 84.4925 200.785 82.8679 200.656C81.9202 198.902 85.7698 197.278 84.9516 193.576C84.9928 193.535 85.1518 192.805 85.7816 192.746C92.1153 198.06 95.7118 193.452 94.9407 203.987Z" fill="#80402B"/>
<path d="M112.011 230.217C115.207 237.503 113.006 235.231 105.142 240.21C99.7498 232.518 97.4659 233.566 99.5202 228.14C104.282 228.045 107.643 229.946 112.011 230.223V230.217Z" fill="#BA7142"/>
<path d="M112.011 230.217C107.643 229.94 104.276 228.04 99.5202 228.134C99.844 227.286 98.7432 225.95 100.562 225.221C108.014 225.438 108.656 227.722 109.303 228.134C110.563 228.934 110.333 226.392 112.011 230.217Z" fill="#80402B"/>
<path d="M82.862 186.502C80.1307 186.467 77.3524 186.178 74.9508 184.836C78.5768 176.014 79.2596 181.488 82.862 186.502Z" fill="#9D5331"/>
<path d="M151.567 231.877C150.813 233.319 150.419 235.072 149.483 236.455C146.923 235.131 141.13 233.313 139.906 230.211C143.255 229.558 146.057 235.696 151.567 231.877Z" fill="#BA7142"/>
<path d="M107.431 242.705C107.479 242.882 107.808 243.518 107.849 243.535C107.973 244.259 105.183 246.854 104.518 247.284C102.463 247.614 102.558 245.395 102.852 243.953C102.946 243.482 103.535 242.811 103.682 242.288C103.935 242.458 106.666 242.853 107.431 242.705Z" fill="#672F18"/>
<path d="M144.074 254.358C144.545 260.867 147.988 257.413 151.985 257.689C152.038 257.689 152.291 258.501 152.609 258.519C152.779 258.531 153.215 257.636 153.651 257.689C158.519 258.266 158.572 260.426 158.854 260.602C162.315 262.774 159.92 257.207 163.228 259.143L162.398 255.188C164.517 258.554 162.515 261.103 166.559 256.018C167.642 257.601 174.153 257.819 175.718 255.6C176.796 256.106 176.884 256.818 176.966 256.848L176.136 257.054C177.514 257.789 176.595 259.343 175.718 260.179C173.175 262.603 167.972 261.444 164.893 261.426C164.811 261.367 164.44 260.137 163.228 260.179C162.816 260.19 159.613 262.533 156.146 262.262C155.199 261.65 154.516 260.591 153.233 260.596C152.02 260.596 149.813 261.485 148.447 261.844C143.381 261.565 138.315 261.289 133.249 261.014H132.831V258.931C132.919 258.913 133.29 257.842 134.079 257.683C134.138 257.671 135.268 257.683 135.327 257.683C135.933 257.73 144.238 262.515 143.238 254.352C143.514 254.34 143.791 254.352 144.068 254.352L144.074 254.358Z" fill="#532318"/>
<path d="M197.368 237.709C197.062 245.766 190.752 243.376 187.791 243.953C182.723 238.256 187.985 238.598 197.368 237.709Z" fill="#9D5331"/>
<path d="M123.672 258.107C123.86 258.195 126.591 260.455 126.585 261.02C125.95 260.908 126.456 260.602 124.92 260.602C124.784 260.602 124.631 260.579 124.502 260.602C122.653 260.955 121.647 263.033 120.964 263.098C119.063 263.286 114.689 257.324 110.345 260.184C110.222 258.919 112.293 256.777 113.259 256.024C116.496 257.024 120.77 256.747 123.666 258.107H123.672Z" fill="#672F18"/>
<path d="M162.392 255.194L163.222 259.149C159.914 257.212 162.309 262.78 158.848 260.608C158.566 260.432 158.507 258.272 153.645 257.695C153.409 254.023 160.961 252.928 162.386 255.2L162.392 255.194Z" fill="#80402B"/>
<path d="M176.966 243.953C176.46 243.894 172.964 244.824 172.593 244.783C172.31 244.753 170.474 243.135 168.637 243.117L168.431 240.622C178.773 240.275 180.981 236.897 176.966 243.953Z" fill="#BA7142"/>
<path d="M143.238 254.358C144.238 262.521 135.933 257.736 135.327 257.689C135.521 252.463 140.124 254.517 143.238 254.358Z" fill="#672F18"/>
<path d="M144.074 254.358C144.545 260.867 147.988 257.413 151.985 257.689C153.233 251.651 148.135 254.358 144.074 254.358Z" fill="#672F18"/>
<path d="M186.543 244.783C186.096 244.842 183.883 246.013 180.092 245.613C179.833 245.583 179.115 244.783 179.05 244.783C177.885 243.3 181.275 241.175 182.588 238.539L186.543 244.783Z" fill="#672F18"/>
<path d="M203.196 230.629C203.178 230.664 203.926 230.706 203.614 231.253C203.09 232.177 201.112 233.03 201.118 234.378C200.847 234.666 196.615 237.503 201.742 240.622C208.817 244.924 212.155 232.895 211.113 239.792C210.112 246.425 209.382 246.101 202.784 243.953C200.276 243.135 200.694 239.38 194.872 245.413C194.825 246.119 201.736 250.745 201.954 248.12C201.071 250.439 198.086 252.634 195.502 252.698C194.831 252.716 195.361 248.814 191.129 256.859C182.564 250.709 183.488 252.086 179.056 256.235C178.932 256.353 180.41 258.142 176.972 256.859C176.89 256.83 176.801 256.118 175.724 255.612C174.106 254.847 173.97 253.976 173.852 253.946C173.552 253.87 167.907 253.858 167.607 253.946C166.265 254.329 166.653 255.918 166.565 256.029C162.515 261.108 164.517 258.56 162.404 255.2C160.979 252.934 153.427 254.029 153.662 257.695C153.227 257.642 152.791 258.537 152.621 258.525C152.303 258.501 152.05 257.695 151.997 257.695C153.244 251.657 148.147 254.364 144.085 254.364C143.809 254.364 143.526 254.352 143.255 254.364C140.142 254.517 135.538 252.469 135.344 257.695C135.279 257.695 134.155 257.683 134.096 257.695C132.207 252.751 131.336 253.581 126.185 254.57C125.544 255.364 129.005 259.749 132.848 258.943V261.026L132.431 261.444C129.941 263.415 128.304 261.326 126.603 261.026C126.609 260.461 123.878 258.201 123.689 258.113C123.442 253.946 117.885 253.546 114.736 254.364C114.33 254.47 113.447 255.9 113.276 256.029C112.311 256.789 110.239 258.931 110.363 260.19C109.821 260.549 108.632 261.656 108.279 262.274C107.467 261.926 107.496 261.473 107.449 261.444C107.785 258.766 108.838 257.554 110.363 255.406C99.5261 246.854 100.244 257.677 97.0362 254.576L102.864 247.708C103.788 247.714 102.734 248.449 104.529 247.29C105.195 246.866 107.985 244.265 107.861 243.541C113.447 246.678 114.519 246.395 116.19 243.541C121.046 248.867 121.682 246.819 128.475 246.454C128.581 242.052 129.464 243.317 129.517 243.123C134.638 245.301 135.209 247.761 142.008 242.293C144.598 251.551 144.015 247.831 154.292 247.708C155.01 247.196 153.704 243.935 155.334 243.547C162.692 248.508 165.341 243.1 168.661 243.129C170.497 243.147 172.334 244.765 172.616 244.795C172.987 244.836 176.484 243.9 176.99 243.965C177.102 243.977 176.972 244.636 179.074 244.795C179.138 244.795 179.856 245.601 180.115 245.624C183.912 246.025 186.125 244.848 186.567 244.795C187.214 244.712 186.502 244.218 187.815 243.965C190.776 243.388 197.086 245.777 197.392 237.721C199.346 233.854 189.41 231.771 192.394 229.393C195.226 232.295 199.935 233.295 203.219 230.641L203.196 230.629Z" fill="#532318"/>
<path d="M188.833 246.448C192.306 245.96 193.248 247.808 194.872 250.403C186.349 253.093 179.886 254.417 188.833 246.448Z" fill="#672F18"/>
<path d="M202.784 243.953C202.707 245.366 202.454 246.79 201.954 248.114C201.736 250.739 194.825 246.113 194.872 245.407C200.694 239.38 200.276 243.135 202.784 243.947V243.953Z" fill="#80402B"/>
<path d="M134.079 257.689C133.284 257.848 132.913 258.919 132.831 258.937C128.987 259.743 125.526 255.359 126.167 254.564C131.318 253.569 132.189 252.74 134.079 257.689Z" fill="#672F18"/>
<path d="M175.718 255.606C174.153 257.819 167.642 257.607 166.559 256.024C166.648 255.912 166.259 254.329 167.601 253.94C167.901 253.852 173.546 253.864 173.847 253.94C173.97 253.97 174.1 254.841 175.718 255.606Z" fill="#80402B"/>
<path d="M123.672 258.107C120.776 256.747 116.502 257.024 113.265 256.024C113.43 255.894 114.318 254.464 114.725 254.358C117.868 253.534 123.43 253.934 123.678 258.107H123.672Z" fill="#80402B"/>
<path d="M126.585 261.02C128.287 261.32 129.923 263.41 132.413 261.438C132.431 268.335 128.958 265.781 124.92 260.608C126.456 260.608 125.95 260.914 126.585 261.026V261.02Z" fill="#D68E59"/>
<path d="M57.4626 175.679C57.4155 181.435 58.2455 182.506 58.7105 185.672C58.7458 185.931 58.1984 186.325 59.1284 190.875C59.976 195.024 62.8132 194.359 59.1284 198.578C50.6051 208.336 53.3834 200.567 52.677 192.752C50.8817 195.677 49.2159 198.82 47.0556 201.491C45.8431 200.791 48.9863 198.514 49.5514 195.871C46.8731 192.587 47.5324 183.959 45.3898 192.746C39.7743 200.932 35.2654 209.931 28.5256 217.305C27.1423 216.322 28.5726 213.85 27.4837 213.144C28.7198 211.149 36.7546 196.807 37.0607 195.865C37.096 195.753 36.9371 193.688 36.6428 193.576C38.5205 190.945 41.3106 187.938 38.7265 188.579C39.7978 187.29 48.1446 176.556 47.2617 176.091C39.2504 180.328 32.0397 185.442 24.9879 191.08C21.2619 194.058 17.2592 197.972 16.6588 196.907C29.1672 178.904 28.8375 182.6 7.49969 193.576C5.07453 194.823 2.56698 195.93 0.212456 197.325C-0.752898 196.795 1.87239 193.593 2.08429 193.164L2.70824 193.994C11.9026 185.543 20.7733 184.448 30.3974 175.261C33.9468 171.871 39.2975 165.498 42.4702 161.525C43.9771 164.138 45.7724 156.228 51.8412 153.615C50.5756 161.09 52.6829 168.328 49.5514 175.473L57.4626 175.679Z" fill="#532318"/>
<path d="M24.9879 191.08C27.2365 193.299 27.2365 196.777 27.9016 199.82C23.9401 204.575 17.318 212.226 16.0348 217.723C22.0153 208.895 30.4621 202.256 36.6428 193.576C36.9371 193.688 37.096 195.753 37.0607 195.865C36.7546 196.807 28.7198 211.149 27.4837 213.144C23.6399 219.335 19.649 225.974 13.5331 230.211C11.2198 225.974 11.3905 220.501 12.0733 215.851C13.7274 204.658 24.6112 193.864 14.5691 201.903L16.6529 196.907C17.2474 197.972 21.256 194.058 24.982 191.08H24.9879Z" fill="#89543D"/>
<path d="M16.6588 196.913L14.575 201.909C13.3742 202.869 4.69193 211.738 4.16805 211.279C2.40804 204.999 5.36296 199.284 7.49968 193.588C28.8375 182.612 29.1672 178.916 16.6588 196.919V196.913Z" fill="#89543D"/>
<path d="M30.3974 175.261C20.7733 184.454 11.9026 185.548 2.70824 193.994L2.08429 193.164C3.9738 189.303 5.92216 185.495 8.32966 181.923C9.65996 179.946 10.6665 178.739 12.0792 176.927C16.0525 175.355 19.702 172.907 23.3221 170.682C24.4522 173.307 19.2841 176.468 18.9485 179.01C22.6863 177.639 28.9141 173.413 30.3974 175.261Z" fill="#80402B"/>
<path d="M47.4735 130.716C44.242 135.96 31.8101 133.982 43.3119 146.953C32.7343 155.616 20.4554 166.151 12.0851 176.927C10.6783 178.739 9.67174 179.946 8.33555 181.923C1.46035 180.428 17.5476 154.227 20.8263 150.078C27.4837 141.645 37.149 134.006 47.4735 130.722V130.716Z" fill="#BA7142"/>
<path d="M50.3873 129.886L54.1368 138.214C50.4403 140.956 46.879 144.034 43.3119 146.953C31.816 133.982 44.2479 135.96 47.4735 130.716C48.4271 130.41 49.416 130.145 50.3873 129.886Z" fill="#9D5331"/>
<path d="M61.2122 132.799C60.7942 132.952 55.2199 137.408 54.131 138.214L50.3814 129.886C54.8314 128.692 58.169 130.004 56.2088 126.973C57.7098 128.768 61.9892 130.281 61.2063 132.799H61.2122Z" fill="#80402B"/>
<path d="M47.0556 201.491C46.1256 202.645 45.743 205.34 43.724 203.363C44.3303 199.849 44.5422 196.218 45.3898 192.746C47.5324 183.954 46.8731 192.581 49.5514 195.871C48.9804 198.514 45.8372 200.791 47.0556 201.491Z" fill="#532318"/>
<path d="M72.455 139.879C72.3903 140.097 72.0724 140.68 72.0371 140.709C62.1187 150.867 57.5803 161.284 57.4626 175.679L49.5514 175.473C52.6829 168.334 50.5756 161.09 51.8412 153.615C45.7724 156.228 43.9771 164.138 42.4702 161.525C42.7881 161.125 43.3708 159.601 45.3839 157.988C42.7174 157.676 42.6821 159.389 41.8462 159.86C35.5479 163.414 29.485 166.892 23.3162 170.682C19.6961 172.907 16.0466 175.355 12.0733 176.927C20.4437 166.145 32.7225 155.616 43.3002 146.953C46.8673 144.034 50.4285 140.956 54.1251 138.214C55.2081 137.408 60.7825 132.952 61.2063 132.799C63.243 132.064 65.9094 135.972 72.4491 139.879H72.455Z" fill="#2D1816"/>
<path d="M38.7265 188.585C35.9305 191.946 30.6387 196.536 27.9016 199.826C27.2365 196.777 27.2365 193.299 24.9879 191.086C32.0397 185.448 39.2504 180.334 47.2617 176.097C48.1446 176.562 39.7978 187.296 38.7265 188.585Z" fill="#693F2A"/>
<path d="M42.4761 161.525C39.3034 165.498 33.9527 171.871 30.4033 175.261C28.914 173.413 22.6922 177.633 18.9544 179.01C19.2899 176.473 24.4581 173.313 23.3279 170.682C29.4968 166.892 35.5597 163.414 41.858 159.86C42.6998 159.389 42.7292 157.67 45.3957 157.988C43.3767 159.601 42.7998 161.131 42.482 161.525H42.4761Z" fill="#5A312A"/>
<path d="M36.6486 193.582C30.4621 202.256 22.0212 208.901 16.0407 217.729C17.3239 212.232 23.946 204.587 27.9075 199.826C30.6446 196.542 35.9364 191.946 38.7324 188.585C41.3224 187.944 38.5264 190.951 36.6486 193.582Z" fill="#532318"/>
<path d="M233.175 175.261C233.175 178.445 232.504 180.94 231.927 184.001C231.156 181.535 225.205 174.455 224.433 176.509C223.256 176.809 222.662 175.856 222.35 174.843C221.873 173.266 222.191 154.816 206.527 147.783C203.996 146.365 213.226 144.888 218.6 140.703C218.83 141.103 223.333 145.288 224.845 147.571C229.755 154.957 233.186 166.416 233.175 175.255V175.261Z" fill="#80402B"/>
<path d="M231.927 184.007C231.35 187.067 230.043 193.111 228.595 195.665C227.3 197.954 225.163 199.585 222.556 200.244L216.516 184.842C217.034 184.048 223.074 179.057 224.427 176.515C225.204 174.461 231.15 181.546 231.921 184.007H231.927Z" fill="#BA7142"/>
<path d="M245.253 156.946C245.035 157.27 246.013 159.142 246.083 159.236C249.238 163.22 258.492 175.408 261.282 177.762C264.29 180.293 269.564 182.441 272.73 184.424C277.016 187.108 283.026 189.692 286.469 193.376C286.557 193.47 284.921 194.594 287.717 194.623L286.887 195.665C285.368 195.029 284.156 194.359 282.725 193.582C282.667 193.546 282.92 192.77 282.101 192.334C282.06 192.311 281.689 192.976 281.271 192.752C274.52 189.144 267.733 185.56 261.494 181.093C259.539 179.693 257.726 175.991 255.248 177.556C255.542 180.24 258.48 180.817 260.246 182.341C264.331 185.872 276.233 196.542 273.984 200.244C273.56 199.867 272.807 199.043 272.736 198.996C274.22 198.025 271.041 196.083 269.823 194.835C262.241 187.073 252.334 181.682 243.799 174.855C240.88 174.055 247.084 182.459 248.585 184.43C243.793 186.937 248.62 189.027 251.917 194.005C253.264 196.048 254.86 198.166 256.078 200.25C257.42 202.533 259.198 207.483 259.828 208.577C257.832 211.69 252.382 199.638 251.917 204.828C243.852 191.481 242.057 183.33 247.337 203.369C244.253 206.441 240.738 196.995 237.554 192.752C238.09 205.752 239.997 205.17 233.598 199.832C231.933 198.443 230.278 197.042 228.601 195.671C230.043 193.117 231.356 187.079 231.933 184.012C232.509 180.946 233.175 178.457 233.18 175.273L241.092 174.649C240.356 168.364 240.026 161.978 238.178 155.916C238.672 154.545 244.329 156.523 245.259 156.958L245.253 156.946Z" fill="#401E17"/>
<path d="M257.744 198.99C263.354 205.293 270.164 210.955 273.36 218.97C274.626 218.394 269.64 209.177 268.987 208.148C272.419 208.43 270.741 201.839 274.814 206.9C276.992 213.58 279.064 224.491 275.856 230.629C269.481 226.739 265.849 219.865 262.323 213.562C261.417 211.938 260.752 210.178 259.828 208.565C259.198 207.471 257.42 202.521 256.078 200.238L257.744 198.99Z" fill="#89543D"/>
<path d="M261.494 181.093C267.733 185.554 274.52 189.144 281.271 192.752C281.695 192.976 282.066 192.316 282.101 192.334C282.926 192.775 282.667 193.552 282.725 193.582C284.733 199.279 286.863 205.405 285.015 211.484C284.291 211.79 275.32 201.438 273.978 200.244C276.221 196.542 264.325 185.872 260.24 182.341L261.488 181.093L261.494 181.093Z" fill="#89543D"/>
<path d="M269.817 194.829C271.035 196.083 274.214 198.019 272.73 198.99C268.486 196.036 272.801 200.732 274.814 206.9C270.741 201.839 272.419 208.43 268.987 208.148C266.874 204.787 255.478 192.305 251.499 187.332C253.2 179.092 262.524 193.164 269.817 194.823V194.829Z" fill="#80402B"/>
<path d="M268.987 171.93C271.577 173.66 277.063 177.915 277.522 178.174C277.563 178.198 277.881 177.645 278.146 177.756C279.406 179.51 280.748 181.34 281.895 183.171C284.456 187.261 286.616 191.657 288.977 195.865C289.194 197.866 287.841 196.053 286.893 195.659L287.723 194.617C284.927 194.588 286.557 193.464 286.475 193.37C283.026 189.686 277.022 187.102 272.736 184.418L273.36 183.589C271.771 182.93 256.549 173.072 258.786 171.93C266.226 173.513 266.538 178.21 268.987 171.93Z" fill="#80402B"/>
<path d="M259.828 208.565C260.752 210.172 261.417 211.938 262.323 213.562C261.947 222.396 255.372 210.549 251.917 204.822C252.387 199.626 257.832 211.685 259.828 208.571V208.565Z" fill="#693F2A"/>
<path d="M236.094 138.214C239.779 140.956 243.352 144.052 246.919 146.953C258.333 156.246 269.511 165.745 278.146 177.762C277.881 177.65 277.563 178.204 277.522 178.18C277.063 177.921 271.577 173.66 268.987 171.936C262.895 167.875 251.363 159.818 245.253 156.946C244.329 156.511 238.666 154.533 238.172 155.905C240.02 161.972 240.35 168.352 241.086 174.637L233.175 175.261C233.186 166.422 229.755 154.963 224.845 147.577C223.327 145.294 218.83 141.109 218.6 140.709C218.524 140.574 218.647 139.938 218.6 139.461C222.344 137.443 226.435 134.077 227.341 133.635C227.912 133.359 228.318 132.805 228.383 132.805C229.031 132.794 234.97 137.384 236.088 138.22L236.094 138.214Z" fill="#2D1816"/>
<path d="M268.987 171.93C266.532 178.21 266.226 173.513 258.786 171.93C256.549 173.072 271.771 182.924 273.36 183.589L272.736 184.418C269.57 182.435 264.29 180.293 261.288 177.756C258.497 175.402 249.244 163.214 246.089 159.23C246.013 159.136 245.041 157.264 245.259 156.94C251.369 159.812 262.9 167.863 268.993 171.93H268.987Z" fill="#5A312A"/>
<path d="M251.499 187.338C255.478 192.311 266.874 204.793 268.987 208.153C269.634 209.183 274.62 218.4 273.36 218.976C270.17 210.961 263.36 205.299 257.744 198.996C256.013 197.054 253.406 192.187 251.917 194C248.62 189.021 243.793 186.931 248.585 184.424C249.15 185.166 250.733 186.378 251.499 187.338Z" fill="#532318"/>
<path d="M269.817 194.829C262.524 193.17 253.194 179.098 251.499 187.338C250.733 186.378 249.15 185.166 248.585 184.424C247.078 182.453 240.88 174.049 243.799 174.849C252.334 181.676 262.241 187.067 269.823 194.829H269.817Z" fill="#693F2A"/>
<path d="M261.494 181.093L260.246 182.341C258.48 180.817 255.542 180.234 255.248 177.556C257.726 175.991 259.539 179.699 261.494 181.093Z" fill="#532318"/>
<path d="M257.744 198.99L256.078 200.238C254.854 198.154 253.264 196.036 251.917 193.994C253.406 192.181 256.013 197.042 257.744 198.99Z" fill="#693F2A"/>
<path d="M73.7029 218.141C73.6087 218.176 73.8206 219.076 71.8311 218.97C69.7355 218.864 65.8035 215.233 66.2096 218.553C66.2921 207.459 66.6688 214.127 73.7029 218.135V218.141Z" fill="#D68E59"/>
<path d="M73.7029 208.565C72.6375 210.39 70.589 208.707 71.6191 207.318C71.9311 207.541 71.2071 206.111 73.7029 208.565Z" fill="#9D5331"/>
<path d="M206.945 177.762C213.438 181.034 213.608 181.764 215.274 186.92C213.302 186.614 213.291 187.697 213.191 187.749C203.814 193.417 208.817 199.102 195.702 184.836C198.357 180.675 202.201 176.621 202.366 176.097C203.814 176.703 205.556 177.062 206.945 177.762Z" fill="#BA7142"/>
<path d="M222.35 174.843C222.656 175.856 223.256 176.809 224.433 176.509C223.08 179.051 217.04 184.042 216.522 184.836C215.604 186.249 216.975 186.49 215.692 187.749C215.68 187.702 215.627 188.003 215.274 186.92C213.608 181.764 213.438 181.034 206.945 177.762C208.093 174.367 203.849 171.789 206.115 169.435C207.222 170.959 214.044 180.163 215.068 180.258L222.355 174.843L222.35 174.843Z" fill="#80402B"/>
<path d="M194.454 185.672C194.531 185.766 194.419 186.978 195.284 187.961C199.776 193.04 205.691 197.301 207.775 203.987L193.201 201.903C192.224 196.86 191.906 191.916 190.705 186.914C190.617 186.549 190.805 185.99 190.705 185.666C190.599 185.331 190.817 184.683 190.705 184.418C192.965 183.583 193.065 183.995 194.454 185.666V185.672Z" fill="#80402B"/>
<path d="M207.775 203.987C207.946 204.528 208.481 204.693 208.605 205.234C208.058 205.546 208.211 205.635 208.187 205.652C206.539 206.729 202.76 211.49 201.318 211.479C190.24 205.117 194.042 206.258 193.201 201.903L207.775 203.987Z" fill="#BA7142"/>
<path d="M215.274 186.92C215.627 188.008 215.675 187.708 215.692 187.749C219.077 198.949 217.234 197.678 211.319 201.903L206.945 197.531C210.601 193.182 216.404 190.351 213.191 187.749C213.285 187.691 213.302 186.614 215.274 186.92Z" fill="#BA7142"/>
<path d="M204.861 226.05C204.697 228.634 204.22 228.499 203.196 230.629C199.911 233.283 195.202 232.283 192.371 229.381C190.293 227.257 191.476 227.286 191.541 224.803C194.272 226.398 204.544 229.246 204.867 226.05H204.861Z" fill="#BA7142"/>
<path d="M208.611 213.562C207.475 214.303 206.027 216.475 205.697 217.723C203.096 217.205 204.997 223.926 204.867 226.05C204.549 229.246 194.272 226.398 191.541 224.803C191.876 211.708 192.43 216.257 202.578 214.81C203.896 214.621 204.926 213.174 205.073 213.144C206.792 212.826 204.797 214.039 207.157 213.974C207.345 213.974 208.193 212.75 208.405 212.726C208.729 212.685 208.576 213.538 208.611 213.556L208.611 213.562Z" fill="#80402B"/>
<path d="M179.462 280.171C179.462 280.218 178.891 280.012 179.044 281C178.968 281 178.367 281.848 177.584 281.418C177.184 281.195 176.86 277.51 173.005 279.335L174.047 276.84C174.453 276.751 179.362 274.015 179.462 280.171Z" fill="#F5DC13"/>
<path d="M226.517 213.98C226.664 221.366 230.143 222.531 221.938 224.803C222.002 223.69 221.314 223.108 221.52 222.095C227.706 213.697 227.253 213.544 219.23 219.806C217.429 217.999 212.737 215.757 211.525 213.98C221.161 207.871 219.595 211.673 220.06 211.484C220.543 211.284 220.13 206.588 220.266 205.658V204.828C222.591 207.535 224.745 210.884 226.511 213.986L226.517 213.98Z" fill="#BA7142"/>
<path d="M220.272 204.822V205.652C216.769 206.152 209.247 210.625 211.531 213.98C212.743 215.763 217.429 217.999 219.236 219.806C227.259 213.544 227.712 213.697 221.526 222.095C221.32 223.108 222.008 223.69 221.943 224.803C221.785 227.539 222.244 231.312 221.943 233.542C220.142 232.353 220.566 224.261 219.86 222.925C219.524 222.29 210.018 215.598 209.035 213.556C209.835 212.932 209.217 206.912 208.205 205.646C208.228 205.629 208.075 205.54 208.623 205.228C209.647 204.652 217.105 202.298 217.576 202.315C219.671 202.386 220.16 204.675 220.284 204.811L220.272 204.822Z" fill="#80402B"/>
<path d="M220.272 205.652C220.136 206.588 220.543 211.284 220.066 211.479C219.595 211.673 221.167 207.865 211.531 213.974C209.253 210.625 216.769 206.147 220.272 205.646V205.652Z" fill="#9D5331"/>
<path d="M144.486 182.341C144.327 182.447 143.497 181.458 143.238 182.135C142.773 183.347 149.13 191.728 149.689 191.916C154.534 193.558 157.677 191.128 159.89 186.92C161.203 190.727 160.491 190.368 159.472 193.164C158.783 195.065 157.418 196.301 157.388 196.495C149.354 195.371 146.775 197.89 142.608 190.251C141.307 191.045 138.07 195.518 137.61 195.665C135.438 196.342 123.884 195.306 121.164 193.582C121.812 192.316 122.665 188.462 122.83 186.92C123.007 185.278 123.254 184.942 123.248 184.836C123.742 184.742 124.119 185.007 124.496 185.254C126.109 186.29 131.836 191.74 132.613 191.916C135.574 192.593 136.239 190.457 137.816 189.421C138.764 188.797 140.359 187.655 141.148 186.926C143.856 184.424 142.06 185.778 141.978 185.054C141.107 177.191 136.174 178.969 139.064 176.938C148.059 179.028 147.082 176.874 150.307 171.524C151.426 169.67 153.103 168.122 153.639 165.904C146.193 168.034 138.97 161.137 138.646 158.824C138.529 157.97 141.454 152.992 141.978 151.538C144.845 162.726 153.733 164.162 157.8 150.29C160.167 157.523 150.925 178.104 144.474 182.347L144.486 182.341Z" fill="#80402B"/>
<path d="M119.922 166.934C119.904 167.122 120.493 166.445 119.504 170.682C119.18 172.071 118.521 173.466 118.256 174.843C117.891 176.75 117.391 177.409 117.426 177.55C117.715 178.851 125.408 184.777 133.249 176.091C135.103 174.037 136.598 170.541 137.204 170.677L139.076 176.921C136.186 178.951 141.125 177.18 141.99 185.036C142.072 185.766 143.862 184.407 141.16 186.908C140.224 185.884 133.166 180.234 132.625 180.246C132.16 180.258 125.626 184.265 124.508 184.825V185.242C124.131 185.001 123.754 184.736 123.26 184.825C123.189 183.618 123.56 183.394 122.636 182.329C120.646 180.022 101.904 171.683 101.192 159.848C104.936 168.934 111.093 174.478 119.928 166.928L119.922 166.934Z" fill="#80402B"/>
<path d="M162.392 169.017C168.113 171.5 179.915 170.877 179.044 174.219C175.03 179.334 175.795 183.3 168.843 183.171C163.363 183.065 162.768 179.675 161.138 174.843C161.368 166.598 162.392 169.346 162.386 169.017L162.392 169.017Z" fill="#D68E59"/>
<path d="M122.836 186.92C122.671 188.462 121.818 192.311 121.17 193.582C120.67 194.559 119.251 195.871 118.674 196.913C109.915 197.395 106.69 198.107 104.518 186.09C102.605 175.496 109.898 188.897 111.805 189.421C113.247 189.815 120.346 186.449 122.842 186.926L122.836 186.92Z" fill="#E5A965"/>
<path d="M174.465 196.913C174.482 197.666 175.624 197.766 174.047 200.244C173.905 200.467 170.638 203.716 170.297 203.993C169.479 204.658 165.818 207.335 165.094 207.324C164.77 207.318 159.484 204.652 159.266 204.41C158.371 203.434 158.536 201.897 158.224 200.662C158.065 200.02 157.359 196.707 157.394 196.501C157.424 196.307 158.783 195.071 159.478 193.17C161.432 193.641 164.281 199.708 164.682 199.832C165.17 199.979 173.087 197.13 174.465 196.919V196.913Z" fill="#E5A965"/>
<path d="M157.812 150.284C153.745 164.156 144.856 162.72 141.99 151.532C138.57 138.178 147.405 163.65 157.606 149.037L157.812 150.284Z" fill="#E5A965"/>
<path d="M190.705 185.672C190.805 185.996 190.617 186.555 190.705 186.92C184.86 195.335 181.157 195.83 173.635 189.003C173.57 188.462 172.198 187.755 173.011 187.337C176.072 188.638 179.715 186.555 180.092 186.508C183.535 186.031 187.25 186.313 190.711 185.678L190.705 185.672Z" fill="#D68E59"/>
<path d="M144.486 182.341C145.675 182.835 150.949 186.837 151.355 186.92C154.275 187.508 161.944 183.012 159.89 186.92C157.677 191.128 154.534 193.558 149.689 191.916C149.13 191.728 142.767 183.341 143.238 182.135C143.497 181.458 144.327 182.447 144.486 182.341Z" fill="#E5A965"/>
<path d="M119.922 166.934C111.087 174.484 104.93 168.94 101.186 159.854C101.039 159.495 99.8027 157.57 100.562 157.358C110.375 173.566 119.434 164.774 120.546 165.268C121.217 166.01 119.987 166.321 119.922 166.934Z" fill="#F2BC83"/>
<path d="M177.384 160.277C174.983 162.008 169.402 167.293 168.849 167.357C166.03 167.669 161.232 161.031 160.314 158.618C157.041 150.002 166.506 163.397 168.019 163.614C169.438 163.82 175.389 159.495 177.39 160.283L177.384 160.277Z" fill="#F2BC83"/>
<path d="M83.6978 169.435C83.7508 169.388 83.4742 168.758 84.3218 168.187C85.0517 168.958 83.7214 169.37 83.6978 169.435Z" fill="#80402B"/>
<path d="M203.196 146.953C204.708 146.688 205.35 147.259 206.527 147.783C222.191 154.816 221.873 173.266 222.35 174.843L215.062 180.258C214.038 180.158 207.216 170.953 206.109 169.435C204.844 167.699 203.725 165.833 202.572 164.02C202.107 164.25 202.472 171.077 202.366 172.348H201.536C198.775 172.213 193.501 175.573 191.335 175.261C190.293 175.114 184.153 169.535 182.8 170.265C182.77 170.159 181.487 170.241 181.552 168.393C181.563 168.052 182.864 165.698 183.217 164.856C184.895 160.866 187.809 157.482 189.881 152.368C190.075 151.891 190.087 149.29 190.505 149.037C191.058 148.701 195.838 149.566 203.201 146.953H203.196Z" fill="#BA7142"/>
<path d="M201.53 172.348C200.782 173.378 195.555 179.722 195.078 179.84C194.772 179.916 189.139 179.91 188.833 179.84C188.509 179.763 184.919 175.891 184.047 175.261C184.071 173.554 183.241 171.848 182.8 170.265C184.153 169.535 190.293 175.108 191.335 175.261C193.501 175.573 198.775 172.213 201.536 172.348L201.53 172.348Z" fill="#E5A965"/>
<path d="M183.212 164.856C182.858 165.698 181.558 168.052 181.546 168.393C181.487 170.241 182.764 170.159 182.794 170.265C183.241 171.848 184.065 173.554 184.042 175.261C174.588 168.452 170.656 167.004 183.212 164.856Z" fill="#BA7142"/>
<path d="M206.109 169.435C203.843 171.789 208.087 174.367 206.939 177.762C205.55 177.062 203.808 176.703 202.36 176.097C202.548 175.485 202.26 173.566 202.36 172.348C202.466 171.077 202.101 164.25 202.566 164.02C203.719 165.833 204.844 167.699 206.103 169.435H206.109Z" fill="#80402B"/>
<path d="M157.394 196.495C157.365 196.707 158.065 200.02 158.224 200.656C156.806 202.939 159.973 207.7 161.762 208.565C167.054 211.12 170.538 206.264 171.963 214.392C171.304 214.562 171.804 214.986 171.133 215.222C169.714 215.722 165.441 218.117 159.89 219.382C156.923 218.135 152.25 213.686 151.773 213.556C148.5 212.644 146.923 217.529 136.992 209.395C136.463 205.999 136.009 204.899 134.909 206.482C125.591 208.642 128.092 206.735 120.752 202.733C120.069 200.797 118.845 199.037 118.668 196.907C119.245 195.865 120.67 194.553 121.164 193.576C123.884 195.3 135.438 196.336 137.61 195.659C138.07 195.518 141.307 191.045 142.608 190.245C146.775 197.884 149.354 195.365 157.388 196.489L157.394 196.495Z" fill="#BA7142"/>
<path d="M170.303 203.987C170.644 203.71 173.905 200.461 174.053 200.238C181.081 202.721 189.716 200.238 188.627 204.611C181.246 214.351 177.472 213.344 170.309 203.987H170.303Z" fill="#BA7142"/>
<path d="M184.877 225.632C174.482 228.828 169.126 220.401 169.473 225.215C169.355 225.062 168.49 225.256 167.807 222.719C168.584 221.03 169.55 219.418 170.303 217.723C170.656 216.922 171.003 216.098 171.133 215.227C171.81 214.992 171.304 214.568 171.963 214.398C174.518 213.727 184.913 216.569 188.409 216.063C188.356 219.6 186.543 222.643 184.872 225.638L184.877 225.632Z" fill="#80402B"/>
<path d="M184.877 225.632C181.104 232.383 177.967 236.332 169.473 225.215C169.126 220.401 174.482 228.828 184.877 225.632Z" fill="#BA7142"/>
<path d="M134.909 206.482C132.507 209.931 131.595 212.22 125.956 211.479C122.224 210.99 121.788 205.682 120.752 202.739C128.092 206.741 125.591 208.642 134.909 206.488V206.482Z" fill="#E5A965"/>
<path d="M159.896 219.388C162.162 220.342 168.113 220.136 170.303 217.723C169.55 219.418 168.578 221.03 167.807 222.719C164.052 222.878 160.314 223.82 156.564 223.967C155.108 221.33 153.651 218.694 152.191 216.057C148.194 220.171 145.492 218.423 143.238 219.388C142.331 218.241 137.434 213.733 136.992 213.562C136.504 210.213 137.022 209.607 136.992 209.401C146.923 217.534 148.506 212.65 151.773 213.562C152.256 213.697 156.923 218.141 159.89 219.388H159.896Z" fill="#E5A965"/>
<path d="M170.303 217.723C168.107 220.136 162.162 220.342 159.896 219.388C165.447 218.123 169.72 215.728 171.139 215.227C171.009 216.098 170.662 216.928 170.309 217.723H170.303Z" fill="#E5A965"/>
<path d="M153.233 260.602C154.669 270.313 146.823 263.039 145.945 263.515C145.204 263.922 145.392 270.266 141.366 262.686C140.218 262.503 140 270.472 133.249 261.02C138.315 261.299 143.381 261.575 148.447 261.85C149.813 261.491 152.026 260.602 153.233 260.602Z" fill="#BA7142"/>
<path d="M156.146 262.268C159.608 262.539 162.81 260.196 163.228 260.184C163.481 269.73 158.442 263.751 156.146 262.268Z" fill="#C97939"/>
<path d="M104.518 52.0369C108.138 54.6205 111.093 61.4473 112.635 62.4419C114.948 63.9426 137.652 68.0623 139.076 95.7462C135.397 100.254 135.315 104.215 130.959 109.07C129.134 111.101 117.78 120.511 115.343 119.063C115.49 118.987 116.744 117.739 117.838 116.98C136.886 103.774 131.212 80.2858 115.131 73.2707C101.722 67.4208 85.864 74.0475 80.7782 87.8424C73.8854 73.5708 96.1003 63.2188 107.843 62.2418L99.1023 50.3773C99.2377 50.3773 99.3848 50.3655 99.5202 50.3773C100.956 50.4773 102.928 51.519 104.518 52.0428V52.0369Z" fill="#CAA98C"/>
<path d="M99.1023 50.3714L107.843 62.2359C96.1003 63.2129 73.8854 73.5708 80.7782 87.8365C80.4368 88.7664 79.6657 92.1739 79.5303 93.2509C77.1464 111.931 96.5359 128.75 115.337 119.063C117.774 120.511 129.128 111.107 130.953 109.07C135.315 104.215 135.391 100.26 139.07 95.7462C139.783 109.565 133.331 121.853 120.752 128.215C98.1428 139.65 67.3575 126.832 64.1259 100.531C62.3482 86.071 69.2882 67.8975 80.7782 58.6931C84.4277 55.774 94.6052 50.4067 99.0964 50.3655L99.1023 50.3714Z" fill="#E0C5AA"/>
<path d="M86.1936 83.6757C80.5251 90.7732 80.8136 101.143 85.3637 108.652C92.7039 120.788 105.212 122.277 117.426 116.562C117.479 116.668 117.338 117.021 117.844 116.98C116.749 117.739 115.49 118.987 115.348 119.063C96.5417 128.75 77.1523 111.931 79.5421 93.2509C82.7443 95.193 81.5493 84.6821 86.2054 83.6757H86.1936Z" fill="#4E2309"/>
<path d="M116.173 112.819C107.414 119.764 93.6163 116.25 88.2774 106.575C88.195 106.428 88.3598 105.91 88.2774 105.745C95.0702 103.662 106.125 102.108 112.217 106.163C116.173 108.794 116.002 112.29 116.173 112.825V112.819Z" fill="#45332D"/>
<path d="M88.2774 106.575C93.6163 116.25 107.414 119.764 116.173 112.819C116.579 114.102 116.832 115.326 117.42 116.568C105.206 122.283 92.698 120.794 85.3578 108.658L88.2715 106.575H88.2774Z" fill="#E9E96B"/>
<path d="M88.2774 105.739C88.3598 105.904 88.195 106.422 88.2774 106.569L85.3637 108.652C80.8194 101.143 80.531 90.7674 86.1936 83.6757C87.2179 82.3927 89.9844 79.0382 90.3552 82.634C90.5024 84.0347 82.3204 93.6158 88.2715 105.739H88.2774Z" fill="#F5DC13"/>
<path d="M117.838 116.98C117.338 117.021 117.473 116.668 117.42 116.562C116.832 115.32 116.579 114.102 116.173 112.813C116.002 112.278 116.173 108.782 112.217 106.151C106.119 102.096 95.0702 103.65 88.2774 105.733C82.3263 93.6158 90.5024 84.0288 90.3611 82.6281C89.9903 79.0323 87.2237 82.381 86.1995 83.6698C81.5435 84.6762 82.7384 95.1871 79.5362 93.245C79.6716 92.1739 80.4427 88.7605 80.7841 87.8307C85.8699 74.0358 101.728 67.409 115.137 73.2589C131.212 80.2741 136.886 103.762 117.844 116.968L117.838 116.98Z" fill="#2A231D"/>
<path d="M107.219 77.4315C115.908 75.354 115.354 88.837 107.219 86.171C102.775 84.7174 103.87 78.2319 107.219 77.4315Z" fill="#FEFEFE"/>
<path d="M141.16 186.92C140.371 187.649 138.776 188.791 137.828 189.415C134.903 187.084 130.865 187.396 129.711 186.92C129.558 186.855 127.927 184.466 127.627 184.424C126.791 184.301 127.186 186.372 124.502 184.842C125.62 184.283 132.154 180.269 132.619 180.264C133.16 180.252 140.224 185.902 141.154 186.926L141.16 186.92Z" fill="#BA7142"/>
<path d="M137.828 189.415C136.251 190.457 135.586 192.587 132.625 191.91C131.848 191.734 126.12 186.284 124.508 185.248V184.83C127.192 186.361 126.791 184.289 127.633 184.413C127.927 184.46 129.564 186.849 129.717 186.908C130.871 187.39 134.909 187.073 137.834 189.403L137.828 189.415Z" fill="#D68E59"/>
<path d="M150.319 171.518C147.093 176.868 148.07 179.022 139.076 176.932L137.204 170.688C136.598 170.547 135.103 174.049 133.249 176.103C132.319 175.132 130.718 177.715 130.541 177.768C128.816 178.292 120.169 176.432 118.256 174.855C118.521 173.478 119.18 172.083 119.504 170.694C127.015 180.74 135.615 169.753 137.616 169.864C140.183 170 140.512 177.286 150.313 171.53L150.319 171.518Z" fill="#E5A965"/>
<path d="M133.249 176.097C125.408 184.777 117.715 178.851 117.426 177.556C117.397 177.421 117.891 176.762 118.256 174.849C120.163 176.426 128.816 178.286 130.541 177.762C130.718 177.709 132.319 175.132 133.249 176.097Z" fill="#EDC787"/>
<path d="M191.953 50.7892C189.504 54.3145 186.867 57.7573 184.042 60.9883C183.524 61.5768 184.083 62.3713 183.836 62.4478C183.547 62.5361 181.834 61.5768 177.796 62.4478C181.664 57.822 186.155 51.6838 191.953 50.7892Z" fill="#B49177"/>
<path d="M209.859 58.6989C216.593 64.6665 223.904 78.3496 225.263 87.2127C230.602 121.959 195.814 141.892 168.637 127.385C139.518 111.842 148.477 68.7685 177.796 62.4419C181.834 61.5709 183.547 62.5302 183.836 62.4419C184.089 62.3654 183.529 61.5768 184.042 60.9824C186.867 57.7514 189.504 54.3086 191.953 50.7833C192.035 50.7716 192.023 49.8005 193.413 49.9535C196.697 50.3066 207.163 56.3095 209.859 58.6931V58.6989Z" fill="#E0C5AA"/>
<path d="M208.193 106.157C203.06 118.899 187.385 128.009 171.969 116.562C172.163 116.527 172.781 115.785 172.799 115.732C183.194 123.63 197.898 119.169 204.443 108.24C206.745 104.392 207.734 101.52 207.775 96.9998C212.231 97.3705 206.663 105.986 208.193 106.157Z" fill="#672F18"/>
<path d="M205.279 81.5923C211.136 89.4903 211.819 97.1528 208.193 106.151C206.663 105.981 212.231 97.3647 207.775 96.9939C207.828 91.1793 206.198 86.0062 201.948 82.0043C203.084 81.8925 204.143 81.8454 205.279 81.5865V81.5923Z" fill="#401E17"/>
<path d="M201.118 106.157C201.059 106.269 201.177 106.469 201.118 106.575C196.332 115.179 181.458 120.093 174.053 112.819C174.123 112.596 173.022 111.389 174.883 108.446C178.944 102.032 194.984 101.979 201.112 106.157H201.118Z" fill="#45332D"/>
<path d="M204.449 108.24C197.904 119.169 183.2 123.63 172.805 115.732C173.064 115.109 174.005 112.972 174.053 112.819C181.458 120.093 196.326 115.179 201.118 106.575L204.449 108.24Z" fill="#E9E96B"/>
<path d="M201.948 82.0102C206.198 86.0062 207.834 91.1852 207.775 96.9998C207.734 101.52 206.751 104.392 204.443 108.24L201.112 106.575C201.171 106.469 201.053 106.269 201.112 106.157C207.775 93.1155 199.175 84.6703 199.028 83.4697C198.64 80.1858 200.294 82.1691 201.942 82.0102H201.948Z" fill="#F5DC13"/>
<path d="M205.279 81.5923C204.143 81.8513 203.084 81.8984 201.948 82.0102C200.3 82.1691 198.645 80.1858 199.034 83.4697C199.175 84.6703 207.775 93.1155 201.118 106.157C194.984 101.979 178.95 102.032 174.888 108.446C173.022 111.389 174.123 112.596 174.058 112.819C174.011 112.972 173.07 115.114 172.811 115.732C172.787 115.785 172.175 116.527 171.981 116.562C138.393 91.6384 182.964 51.4896 205.291 81.5923H205.279Z" fill="#2A231D"/>
<path d="M186.749 77.4315C194.808 76.0073 193.059 89.3608 185.501 85.7591C182.211 84.1936 185.519 80.1387 181.34 82.0102C179.38 80.3623 179.285 79.5678 181.34 77.8493C186.308 79.715 185.354 77.6787 186.755 77.4315H186.749Z" fill="#FEFEFE"/>
<defs>
<linearGradient id="paint0_linear_3126_66456" x1="149.832" y1="110.731" x2="137.878" y2="269.137" gradientUnits="userSpaceOnUse">
<stop stop-color="#642A18"/>
<stop offset="1" stop-color="#813C1F"/>
</linearGradient>
</defs>
</svg>
