<svg width="419" height="301" viewBox="0 0 419 301" fill="none" xmlns="http://www.w3.org/2000/svg">
<path d="M89.9698 26.8815C88.1923 29.2545 86.6665 31.6519 85.1325 34.1631C85.5627 33.9355 86.2525 33.5617 86.5853 33.2529C92.908 27.3285 93.1352 19.3399 102.55 21.6479L98.1998 18.9173C110.115 7.11736 132.207 1.9244 148.992 1.85126C162.368 1.79437 180.703 5.25635 191.075 13.6837C205.725 20.2176 216.415 31.7332 223.005 45.5404C219.247 30.5629 202.195 14.3339 187.691 7.7675C164.51 -2.72408 127.946 -3.31733 106.178 10.4981C99.5228 14.724 94.5231 20.8109 89.9698 26.8815Z" fill="#342525"/>
<path d="M41.1174 65.5728C21.63 66.8568 7.87286 78.7868 0 94.9265L0.486938 95.8367C8.54648 79.6645 20.9158 67.8889 40.6386 66.483C45.2892 66.1498 50.5081 66.3692 55.1506 66.9381V66.0279C51.4333 65.6947 44.6481 65.3371 41.1256 65.5728H41.1174Z" fill="#342525"/>
<path d="M48.8605 55.5525C54.9397 56.8203 61.8791 58.3563 67.244 61.4688V61.0137C61.522 58.6407 55.9785 55.9589 49.8264 54.6424C35.4604 51.5705 16.0055 51.0097 7.01257 63.2892C20.1042 51.3835 32.3193 52.0987 48.8524 55.5525H48.8605Z" fill="#353333"/>
<path d="M191.075 13.6837C211.748 30.4735 213.501 66.1579 194.947 85.1419C194.947 85.4914 194.208 85.8327 194.46 86.9623C195.117 87.4255 195.783 87.7912 196.391 88.3276C203.696 94.6989 209.045 106.913 212.356 115.633C212.494 115.991 212.705 116.186 212.843 116.544C220.838 105.979 225.067 81.4036 226.39 79.9083C226.755 79.502 227.347 79.7214 227.842 79.6808C228.305 76.1456 228.581 77.7222 229.295 77.4053C230.074 77.0558 229.563 76.5276 230.261 76.4951C227.907 65.1502 228.313 56.674 223.005 45.5486C216.423 31.7413 205.725 20.2257 191.075 13.6919L191.075 13.6837Z" fill="#353333"/>
<path d="M229.287 77.4053C230.919 94.0569 247.654 125.02 258.798 137.705C262.069 141.428 275.209 153.471 279.113 156.137C293.731 166.125 309.704 167.839 327 168.88C327.024 167.734 324.054 167.726 322.65 167.514C318.388 166.888 314.338 166.539 310.069 165.694C306.709 165.027 303.187 164.377 299.908 163.418C297.781 162.801 295.687 161.923 293.617 161.143C292.165 160.598 290.679 159.956 289.267 159.323C288.934 159.176 288.626 159.022 288.301 158.867C287.189 158.347 286.402 157.583 285.395 157.047C283.285 155.926 282.758 155.714 280.558 154.316C279.397 153.577 277.36 153 276.687 151.586H276.2C259.78 139.762 253.49 129.441 244.27 112.903C243.677 111.838 242.914 110.822 242.338 109.717C241.624 108.36 241.072 106.978 240.407 105.621C239.887 104.573 238.994 103.557 238.475 102.436C238.045 101.509 237.436 100.64 237.022 99.705C236.365 98.2015 235.683 96.6818 235.09 95.154C233.824 91.879 232.566 88.5307 231.706 85.1419C231.665 84.9956 231.738 84.8331 231.706 84.6868C230.935 81.5499 230.902 79.5751 230.74 78.7706C230.626 78.2342 230.383 77.5759 230.253 76.9502C230.22 76.8039 230.285 76.6414 230.253 76.4951C229.555 76.5276 230.058 77.0558 229.287 77.4053Z" fill="#353333"/>
<path d="M227.834 79.6807C227.388 83.0777 228.305 102.948 228.8 107.669C229.141 110.928 235.504 147.913 236.056 149.993C239.595 163.345 249.408 173.65 256.858 185.035C257.5 186.011 258.985 188.245 258.311 188.904C259.561 189.018 259.602 188.961 260.73 189.814C260.852 189.286 264.804 188.148 263.636 180.257C261.964 176.803 259.488 173.504 257.832 170.017C251.64 157.015 258.587 169.465 261.217 172.748C265.803 178.485 283.391 197.063 289.275 200.736C296.336 205.149 312.009 211.805 320.231 211.659C331.667 211.455 335.871 204.434 341.512 196.185C342.551 188.164 345.392 170.505 333.534 168.424C330.863 167.953 327.787 168.896 327.487 168.88C335.4 176.592 327.682 186.474 322.893 187.994C319.168 189.18 319.435 186.685 319.022 186.628C318.121 186.506 316.765 193.666 303.057 184.808C297.546 181.248 279.933 159.111 278.626 156.819C278.448 156.511 278.651 156.088 279.113 156.137C275.209 153.471 262.061 141.428 258.798 137.705C247.654 125.02 230.927 94.0569 229.287 77.4053C228.573 77.7222 228.297 76.1456 227.834 79.6807Z" fill="#60534F"/>
<path d="M248.636 225.775C245.723 231.48 247.963 235.348 247.184 241.02C245.642 252.276 237.298 264.157 259.521 279.476C274.3 289.667 296.45 298.273 314.428 291.536C302.886 284.368 291.215 276.493 283.951 265.14C274.601 250.529 274.544 238.282 272.823 222.134C270.705 218.851 268.757 209.895 265.567 215.762C265.932 221.719 265.299 227.774 265.567 233.739C258.449 232.747 263.132 218.014 257.345 197.559C258.896 216.25 252.427 218.355 248.636 225.775Z" fill="#7C7068"/>
<path d="M212.843 116.544C219.523 134.853 218.298 142.809 221.065 160.233L222.031 160.005C222.615 167.856 226.544 175.356 227.834 183.215C228.524 187.408 229.563 196.177 227.834 195.73C228.743 203.759 227.794 211.935 230.009 219.85C231.56 208.757 235.918 198.063 240.65 187.994C249.253 194.698 242.914 202.232 243.791 211.886C244.246 216.925 247.525 220.964 248.628 225.766C252.419 218.347 258.887 216.242 257.337 197.551C254.992 189.278 252.719 188.375 258.303 188.904C258.977 188.245 257.491 186.011 256.85 185.035C249.399 173.65 239.587 163.337 236.048 149.993C235.496 147.913 229.133 110.92 228.792 107.669C228.297 102.948 227.38 83.0777 227.826 79.6807C227.331 79.7214 226.739 79.502 226.373 79.9083C225.05 81.4036 220.822 105.979 212.827 116.543L212.843 116.544Z" fill="#353333"/>
<path d="M263.636 180.257C264.423 181.874 265.502 182.841 265.567 182.987C265.624 182.207 266.428 182.402 267.02 183.215C279.219 199.972 280.931 214.747 290.72 230.773C290.825 230.829 291.767 231.707 292.651 232.138C292.578 231.634 294.932 232 296.036 232.138C312.618 234.169 330.287 224.296 337.64 210.293C340.4 205.043 340.773 201.825 341.512 196.185C335.871 204.434 331.659 211.463 320.231 211.659C318.916 218.826 293.699 207.579 287.822 201.419L289.275 200.736C283.391 197.063 265.803 178.485 261.217 172.748C258.587 169.465 251.631 157.015 257.832 170.017C259.496 173.504 261.964 176.803 263.636 180.257Z" fill="#353333"/>
<path d="M327.487 168.88C327.325 168.871 327.162 168.888 327 168.88C309.704 167.839 293.731 166.125 279.113 156.137C278.659 156.088 278.456 156.511 278.626 156.819C279.925 159.111 297.546 181.248 303.057 184.808C316.757 193.666 318.121 186.506 319.022 186.628C319.427 186.685 319.16 189.18 322.893 187.994C327.682 186.466 335.4 176.592 327.487 168.88Z" fill="#AC9D92"/>
<path d="M260.73 189.822C260.438 191.114 264.812 203.572 265.567 215.762C268.757 209.895 270.705 218.851 272.823 222.134C271.257 207.481 272.677 198.014 265.567 182.996C265.494 182.849 264.415 181.882 263.636 180.265C264.812 188.156 260.852 189.294 260.73 189.822Z" fill="#4A4D53"/>
<path d="M321.684 239.883C321.643 237.859 315.402 241.695 309.103 243.068C298.333 245.425 288.869 244.36 279.592 238.517C280.371 244.864 280.826 251.398 284.186 257.176C296.848 254.316 311.522 247.489 321.676 239.883H321.684Z" fill="#9C2315"/>
<path d="M309.103 243.068C315.402 241.695 321.635 237.859 321.684 239.883C326.651 236.161 332.738 230.781 335.473 225.32C321.749 241.085 311.068 241.102 292.66 232.146C291.775 231.715 290.833 230.838 290.728 230.781C287.116 228.903 283.951 226.612 280.566 224.864C276.419 228.96 289.259 236.624 296.288 238.972C302.302 240.988 307.147 239.801 309.103 243.068Z" fill="#D37243"/>
<path d="M279.6 238.517C288.877 244.36 298.333 245.425 309.111 243.068C307.155 239.801 302.31 240.988 296.296 238.972C289.267 236.624 276.427 228.96 280.574 224.864C279.065 224.084 279.113 222.906 278.156 224.182C278.659 228.968 279.024 233.731 279.609 238.517H279.6Z" fill="#A77152"/>
<path d="M296.044 232.146C301.304 237.672 319.776 233.674 325.791 230.326C330.563 227.668 338.298 215.584 337.64 210.301C330.287 224.312 312.626 234.186 296.036 232.146H296.044Z" fill="#353333"/>
<path d="M221.065 160.233C221.715 164.337 222.9 168.433 223.484 172.52C224.466 179.387 226.333 186.035 226.868 193C226.893 193.3 226.852 193.609 226.868 193.91C228.297 193.707 227.713 194.641 227.834 195.73C229.563 196.177 228.524 187.408 227.834 183.215C226.544 175.356 222.615 167.856 222.031 160.005L221.065 160.233Z" fill="#24272C"/>
<path d="M336.675 106.531C334.508 107.88 327.803 116.17 326.513 118.591C311.441 147.011 342.949 165.531 322.641 167.514C324.054 167.726 327.016 167.734 326.992 168.88C327.154 168.888 327.316 168.871 327.479 168.88C327.779 168.896 330.855 167.953 333.525 168.424C345.383 170.505 342.551 188.164 341.504 196.185C340.773 201.825 340.392 205.043 337.632 210.293C338.29 215.584 330.555 227.66 325.782 230.317C319.768 233.666 301.295 237.664 296.036 232.138C294.924 232 292.578 231.634 292.651 232.138C311.051 241.093 321.741 241.077 335.465 225.311C332.738 230.773 326.643 236.152 321.676 239.874C311.522 247.481 296.848 254.307 284.186 257.168C280.826 251.39 280.363 244.856 279.592 238.509C279.008 233.723 278.643 228.96 278.139 224.174C279.097 222.898 279.048 224.076 280.558 224.856C283.943 226.604 287.108 228.895 290.72 230.773C280.931 214.747 279.219 199.972 267.02 183.215C266.428 182.402 265.624 182.207 265.567 182.987C272.677 198.006 271.257 207.473 272.823 222.126C274.544 238.273 274.601 250.52 283.951 265.132C291.215 276.485 302.886 284.36 314.428 291.528C296.458 298.257 274.3 289.659 259.521 279.468C237.298 264.141 245.642 252.268 247.184 241.012C247.963 235.34 245.723 231.471 248.636 225.766C247.533 220.964 244.254 216.925 243.799 211.886C242.923 202.232 249.253 194.698 240.658 187.994C235.918 198.063 231.568 208.757 230.018 219.85C227.802 211.927 228.751 203.759 227.842 195.73C227.721 194.641 228.305 193.707 226.877 193.91C227.591 204.921 226.105 211.309 226.877 218.485C227.867 227.774 231.276 231.666 232.201 234.186C233.199 236.924 233.548 240.069 234.62 242.833C236.365 247.335 239.83 251.423 239.944 251.934C240.147 252.877 238.954 259.582 240.431 265.132C198.843 278.281 145.25 268.781 115.626 237.144C104.863 225.653 96.1951 212.162 89.986 198.006C89.5721 197.071 88.9796 196.38 88.5332 195.275C87.2264 200.834 88.6306 206.685 89.986 212.114C95.351 233.649 115.512 250.829 91.4388 273.096C84.5643 279.452 73.1771 286.481 63.8676 281.516V280.378C63.8108 275.185 80.7172 267.522 81.5207 266.725C82.6894 265.563 81.5856 265.782 81.7642 265.36C77.6005 267.196 66.1158 273.592 63.8676 276.282C61.6113 278.98 59.0302 285.083 63.3806 286.749C65.6207 287.603 73.1933 287.855 76.4398 288.115C92.567 289.228 118.109 275.486 123.847 261.264C125.13 258.078 125.308 254.551 126.023 251.252C131.842 255.551 138.4 258.883 145.129 261.719C147.734 262.231 161.378 268.326 167.619 269.911C186.23 274.641 206.78 275.128 225.667 272.186C227.769 271.861 239.465 268.326 240.179 268.545C241.989 269.106 245.114 285.49 264.853 294.941C269.982 297.395 274.341 297.322 274.284 298.582C288.658 300.76 301.474 302.905 315.889 298.127C316.911 296.94 317.009 295.201 320.239 291.983C317.26 289.675 314.071 287.627 311.051 285.384C306.587 282.076 302.748 279.492 298.471 275.827C298.406 275.77 297.018 275.591 296.775 275.372C295.054 273.836 284.9 261.938 285.404 260.581C293.536 257.404 301.896 254.405 309.59 250.342C325.669 241.849 338.379 230.415 342.965 213.024C344.97 205.425 346.487 184.491 349.977 182.987C350.821 182.622 355.496 183.491 363.28 178.892C363.954 178.493 370.552 172.203 376.096 170.245C393.798 164.003 420.76 173.268 418.91 139.981C412.538 129.416 389.934 150.838 390.851 143.167C403.984 122.313 386.647 108.457 369.806 129.741C365.747 117.649 352.534 123.565 351.422 123.37C351 123.297 347.323 116.722 347.307 116.316C347.266 115.243 349.628 113.463 349.239 110.4C348.606 105.345 342.072 103.159 336.658 106.531H336.675Z" fill="#100E0D"/>
<path d="M385.048 144.759C368.247 137.705 350.245 151.253 347.315 161.598C347.21 161.972 347.38 162.533 347.315 162.963C354.798 164.597 357.168 166.198 357.712 166.149C358.28 166.092 363.077 162.378 367.874 161.143C378.863 158.315 406.743 159.956 410.688 146.807C411.175 145.19 408.967 142.817 411.175 142.939L410.931 141.574C391.639 154.796 389.058 146.442 385.048 144.759Z" fill="#6F6360"/>
<path d="M346.836 161.143C346.836 161.143 346.715 161.647 347.323 161.598C350.253 151.253 368.255 137.697 385.056 144.759L385.543 143.394C385.121 143.215 380.608 140.2 377.078 139.753C362.128 137.852 351.454 149.018 346.844 161.143H346.836Z" fill="#C2C1BC"/>
<path d="M385.535 143.394L385.048 144.759C389.058 146.442 391.639 154.788 410.931 141.574L411.175 142.939L413.837 143.394C417.668 132.098 397.336 146.222 394 146.58C390.543 146.954 388.498 144.646 385.535 143.394Z" fill="#C2C1BC"/>
<path d="M326.034 132.017C334.378 136.868 340.441 144.312 346.836 151.131C349.263 142.086 350.505 138.738 345.383 129.969C343.103 126.068 332.641 117.6 340.059 115.178C341.707 113.333 345.903 112.895 346.349 111.765C345.335 99.2174 323.794 115.633 326.034 132.017Z" fill="#7E7172"/>
<path d="M326.034 132.017C327.706 144.256 340.619 148.433 334.743 160.46C334.97 161.07 345.643 162.598 347.323 162.963C347.388 162.533 347.218 161.972 347.323 161.598C346.723 161.647 346.877 161.143 346.836 161.143C344.036 160.883 346.26 156.056 346.836 153.861C346.017 153.788 346.666 151.748 346.836 151.131C340.441 144.312 334.386 136.868 326.034 132.017Z" fill="#60534F"/>
<path d="M346.836 151.131C346.666 151.748 346.017 153.788 346.836 153.861C347.689 150.635 349.693 147.303 350.221 144.077C353.622 123.435 333.607 122.403 340.059 115.178C332.641 117.6 343.103 126.068 345.383 129.969C350.505 138.738 349.263 142.086 346.836 151.131Z" fill="#D3D0BD"/>
<path d="M353.126 127.011C356.592 132.269 358.426 126.491 356.268 137.478C360.042 135.763 369.408 132.789 365.699 129.741C361.308 135.365 365.894 124.109 353.118 127.011H353.126Z" fill="#4A4D53"/>
<path d="M387.467 122.46C388.709 125.979 386.412 123.776 384.805 124.28C378.222 126.336 375.146 130.351 369.57 133.837C380.048 134.52 386.623 139.371 390.372 131.334C392.596 126.564 390.007 120.68 387.467 122.46Z" fill="#3F4D5F"/>
<path d="M369.57 133.837C375.154 130.351 378.222 126.336 384.805 124.28C386.412 123.776 388.709 125.979 387.467 122.46C381.339 118.055 372.094 129.733 366.665 133.61C367.03 134.057 368.872 133.788 369.57 133.837Z" fill="#C2C1BC"/>
<path d="M353.126 127.011C365.902 124.109 361.316 135.365 365.707 129.741C365.869 123.094 357.623 123.321 352.404 124.28C350.813 125.215 352.485 126.035 353.126 127.011Z" fill="#C2C1BC"/>
<path d="M337.405 165.239C332.706 164.881 325.003 168.091 335.473 166.604C343.387 168.286 344.085 172.626 345.148 179.347C346.13 173.512 345.148 165.824 337.405 165.239Z" fill="#C2C1BC"/>
<path d="M74.0131 59.6565C75.4253 55.7882 76.9349 50.9122 78.3634 47.369L74.0131 59.6565Z" fill="#1B161E"/>
<path d="M258.311 188.912C252.727 188.384 255 189.286 257.345 197.559C263.132 218.014 258.457 232.755 265.567 233.739C265.299 227.774 265.932 221.711 265.567 215.762C264.812 203.564 260.438 191.114 260.73 189.822C259.602 188.969 259.561 189.026 258.311 188.912Z" fill="#A9AAA8"/>
<path d="M320.231 211.667C312.009 211.813 296.336 205.157 289.275 200.744L287.822 201.427C293.699 207.587 318.916 218.834 320.231 211.667Z" fill="#4A4D53"/>
<path d="M88.5251 215.307C88.0949 230.732 106.787 248.456 93.8495 266.278C96.3737 269.651 93.0865 269.301 91.4308 273.105C115.512 250.829 95.3429 233.649 89.9779 212.122C89.0364 212.902 88.5576 214.137 88.5251 215.307Z" fill="#84150E"/>
<path d="M88.5251 269.919C88.4034 270.049 88.6712 270.918 88.5251 271.057C80.8065 278.696 77.5761 276.981 76.9187 277.2C73.5748 278.322 67.1142 281.703 64.8254 279.476C64.5413 279.793 64.241 280.289 63.8595 280.386V281.524C73.169 286.489 84.5562 279.46 91.4308 273.105C93.0865 269.301 96.3737 269.651 93.8495 266.278C93.6953 266.075 93.1839 265.571 92.8836 265.368C92.1532 267.473 89.9617 268.44 88.5332 269.919H88.5251Z" fill="#9C2315"/>
<path d="M85.1325 216.218L88.517 215.307C88.5495 214.137 89.0283 212.902 89.9698 212.122C88.6143 206.693 87.2103 200.842 88.517 195.283C87.7216 193.325 86.8287 190.553 86.0983 188.457L85.1325 188.684C84.3695 197.949 84.3533 206.978 85.1325 216.218Z" fill="#B6361B"/>
<path d="M85.1325 246.254C94.2877 246.4 87.3888 236.193 85.6194 224.182C85.2299 221.557 85.3597 218.843 85.1325 216.218C84.3533 206.978 84.3695 197.949 85.1325 188.684L86.0983 188.457C84.8646 184.922 83.6471 181.151 82.7137 177.534C73.6397 199.745 83.7852 226.157 85.1325 246.262V246.254Z" fill="#EB602C"/>
<path d="M64.8172 279.476C67.106 281.703 73.5667 278.322 76.9106 277.2C78.3391 275.811 84.2884 270.74 84.6536 269.464C84.6942 269.326 84.0286 266.993 83.6877 266.733C77.1297 269.48 69.4111 274.267 64.8254 279.476H64.8172Z" fill="#EB602C"/>
<path d="M85.6194 265.368C83.8176 265.904 83.7932 266.684 83.6877 266.733C84.0286 266.993 84.6942 269.326 84.6536 269.464L88.5251 269.919C89.9536 268.44 92.145 267.473 92.8755 265.368C90.7815 263.921 88.655 264.466 85.6194 265.368Z" fill="#E29150"/>
<path d="M76.9106 277.2C77.5681 276.981 80.7983 278.696 88.517 271.057C88.6631 270.918 88.3952 270.049 88.517 269.919L84.6454 269.464C84.2802 270.74 78.3391 275.811 76.9025 277.2H76.9106Z" fill="#B6361B"/>
<path d="M85.1325 216.218C85.3516 218.843 85.2299 221.557 85.6194 224.182C87.3888 236.193 94.2877 246.4 85.1325 246.254C85.5545 252.577 84.4182 259.062 85.6194 265.368C88.655 264.466 90.7815 263.921 92.8755 265.368C93.1758 265.571 93.6871 266.075 93.8413 266.278C106.779 248.456 88.0868 230.724 88.517 215.307L85.1325 216.218Z" fill="#DA5126"/>
<path d="M94.0848 245.799C89.215 244.377 90.7328 258.802 92.1531 258.997C95.0507 257.282 96.747 246.571 94.0848 245.799Z" fill="#EB602C"/>
<path d="M159.146 89.6929C160.899 94.0407 156.719 94.1951 156.24 97.4295C156.394 97.462 156.573 97.397 156.727 97.4295C156.849 97.4539 156.759 96.5924 159.146 97.4295C161.759 96.6331 164.941 96.4624 167.367 95.154C167.927 94.8533 168.293 94.7314 168.333 94.6989C168.504 94.5852 170.306 92.0333 170.752 91.5132C170.257 90.278 168.114 94.4226 166.637 93.7887C166.061 93.5368 167.035 92.4722 163.975 90.148C163.707 90.4974 159.982 89.8798 159.137 89.6929H159.146Z" fill="#5B5B63"/>
<path d="M85.1325 34.1631C82.3648 38.6978 80.3438 42.4523 78.3634 47.3608C76.9349 50.9041 75.4172 55.7801 74.0131 59.6484C73.518 60.9974 72.4222 62.2571 73.5261 63.7443C74.4351 63.4517 74.4432 62.8747 74.4919 62.8341C74.9221 62.5253 82.0483 56.2596 82.235 55.7801C82.6327 54.7318 81.1554 42.2979 88.0381 34.6181L86.5853 33.2529C86.2607 33.5617 85.5708 33.9355 85.1325 34.1631Z" fill="#696866"/>
<path d="M86.5853 33.2529L88.0381 34.6181C90.1808 32.2208 94.7747 29.7746 98.1998 29.6121C93.2813 27.938 105.91 24.5898 106.909 27.5642C107.25 28.5719 101.592 42.8993 101.105 34.6182C99.9611 38.4865 98.4757 42.2491 97.7209 46.2231C104.571 46.15 123.977 46.2231 122.874 56.4627C127.987 58.3644 133.465 59.4615 138.351 61.9239C138.449 60.843 142.483 62.8747 143.189 63.2892C144.504 62.2246 148.05 64.37 150.445 65.5647L155.282 62.8341C152.458 61.3794 146.93 56.1214 145.607 53.2771C145.145 52.2856 144.203 50.067 144.155 49.1812C136.184 52.5619 140.6 32.2777 153.586 26.8815C160.485 24.0128 170.005 25.2643 169.794 22.3306C168.966 21.8105 164.965 18.9417 165.679 18.6898C173.812 20.5264 174.299 22.5419 177.05 24.6061C177.886 25.2399 177.318 25.695 177.773 25.9713C179.81 27.2147 191.733 26.0038 195.426 26.4264C189.72 15.5773 178.779 9.74229 166.645 6.40221C158.472 4.15112 147.247 4.15112 148.992 1.85126C132.207 1.9244 110.115 7.11736 98.1998 18.9173L102.55 21.6479C93.1352 19.3399 92.908 27.3285 86.5853 33.2529Z" fill="#A9AAA8"/>
<path d="M148.992 1.85126C147.247 4.15112 158.472 4.15112 166.645 6.40221C178.779 9.74229 189.72 15.5854 195.426 26.4264C199.865 34.8538 202.089 45.2723 202.195 54.6424C202.3 64.0206 200.425 71.2452 196.87 79.9002C195.767 82.5901 194.963 81.6799 194.939 85.1338C213.501 66.1498 211.74 30.4735 191.067 13.6756C180.686 5.2401 162.36 1.77811 148.984 1.84313L148.992 1.85126Z" fill="#C2C1BC"/>
<path d="M186.238 56.4627C186.051 56.4952 185.921 58.8114 185.272 55.325C183.633 53.9922 183.154 57.4623 182.853 57.828C189.062 56.4221 184.168 74.9104 182.61 75.5768C174.08 75.91 167.294 71.1396 161.564 69.6605L160.111 71.4809C160.298 71.5947 161.402 72.7405 163.496 74.2115C166.523 76.3325 171.093 77.8604 173.171 80.5828C176.263 80.8591 178.081 81.3955 180.914 81.9481C187.601 83.2565 188.437 83.289 193.973 86.9541C194.078 87.0273 194.354 86.881 194.46 86.9541C194.208 85.8245 194.939 85.4832 194.947 85.1338C194.971 81.6799 195.775 82.5901 196.878 79.9002C200.433 71.2452 202.308 64.0206 202.203 54.6424C193.608 53.334 191.173 55.5038 186.238 56.4627Z" fill="#828380"/>
<path d="M155.274 74.6747C157.052 77.5678 157.733 79.5588 158.18 82.8664C174.145 87.0598 161.045 83.9066 161.085 88.3276C162.035 88.9289 163.106 89.4816 163.991 90.1479C167.051 92.4722 166.077 93.5368 166.653 93.7887C168.122 94.4226 170.273 90.278 170.768 91.5132C172.781 89.1402 174.672 87.7262 174.64 84.2317C174.494 87.8725 161.345 83.0777 162.79 79.6807C166.109 81.0948 169.802 80.2821 173.187 80.5909C171.109 77.8685 166.54 76.3407 163.512 74.2196C160.16 75.7637 157.587 72.0254 155.29 74.6747H155.274Z" fill="#6F6360"/>
<path d="M143.181 63.2973C146.005 64.9633 153.618 71.9766 155.274 74.6747C157.571 72.0254 160.144 75.7637 163.496 74.2196C161.402 72.7487 160.298 71.6028 160.111 71.489C158.35 70.3675 157.823 69.7499 157.693 69.6686C155.347 68.2221 152.92 66.808 150.437 65.5728C148.042 64.3781 144.495 62.2327 143.181 63.2973Z" fill="#5F6A69"/>
<path d="M156.248 97.4295C156.719 94.1951 160.899 94.0325 159.154 89.6929C159.008 89.6604 157.482 88.1082 156.491 88.3276C155.915 88.4576 153.326 93.3336 147.539 95.3816C150.209 96.9338 153.318 96.8037 156.248 97.4295Z" fill="#4A4D53"/>
<path d="M158.18 82.8664C158.212 83.1346 157.157 86.109 157.214 86.2796C157.482 87.1492 160.404 87.8968 161.085 88.3276C161.045 83.9066 174.145 87.0598 158.18 82.8664Z" fill="#534B4E"/>
<path d="M144.155 49.1812C143.968 45.6217 145.039 46.1581 145.12 45.9955C145.267 45.7111 144.601 45.0853 146.086 44.1752C146.021 44.102 145.331 44.3702 145.12 43.9476C144.666 43.0537 149.633 31.8226 159.633 31.4325C153.415 27.6942 165.135 29.7909 162.538 31.4325C170.736 32.1639 180.305 40.2662 180.922 48.271C183.844 48.7342 185.848 53.6265 186.246 56.4627C191.181 55.5038 193.608 53.334 202.211 54.6424C202.105 45.2723 199.873 34.8538 195.442 26.4264C191.749 26.0038 179.826 27.2147 177.789 25.9713C177.334 25.695 177.902 25.2399 177.066 24.6061C177.602 26.5727 172.562 24.0616 169.81 22.3306C170.03 25.2643 160.501 24.0128 153.602 26.8815C140.616 32.2777 136.201 52.5619 144.171 49.1812H144.155Z" fill="#99999A"/>
<path d="M155.274 62.8422L150.437 65.5728C152.92 66.808 155.347 68.2221 157.693 69.6686C159.105 68.7259 160.144 69.3029 161.564 69.6686C167.286 71.1477 174.08 75.9181 182.61 75.5849C184.16 74.9185 189.062 56.4302 182.853 57.8362C175.865 66.2554 165.249 67.9702 155.282 62.8422H155.274Z" fill="#A9AAA8"/>
<path d="M180.914 48.271C182.139 64.3213 158.959 65.5484 145.599 53.2771C146.922 56.1214 152.45 61.3794 155.274 62.8341C165.241 67.962 175.857 66.2473 182.845 57.828C183.146 57.4623 183.624 53.9922 185.264 55.325C185.913 58.8114 186.043 56.4953 186.23 56.4627C185.84 53.6265 183.827 48.7342 180.905 48.271H180.914Z" fill="#5F6A69"/>
<path d="M169.786 22.3306C172.537 24.0616 177.578 26.5727 177.042 24.6061C174.299 22.5419 173.804 20.5264 165.671 18.6898C164.949 18.9417 168.95 21.8105 169.786 22.3306Z" fill="#100E0D"/>
<path d="M157.693 69.6686C157.823 69.7499 158.35 70.3675 160.111 71.489L161.564 69.6686C160.144 69.3029 159.105 68.7259 157.693 69.6686Z" fill="#99999A"/>
<path d="M174.623 84.2317C174.607 82.3626 174.258 82.005 173.171 80.591C169.778 80.2821 166.093 81.0948 162.774 79.6808C161.329 83.0777 174.477 87.8725 174.623 84.2317Z" fill="#938079"/>
<path d="M159.633 31.4325C160.558 31.4 161.621 31.3512 162.538 31.4325C165.135 29.7909 153.424 27.6942 159.633 31.4325Z" fill="#828380"/>
<path d="M159.633 31.4325C149.633 31.8226 144.666 43.0537 145.12 43.9476C145.34 44.3702 146.021 44.102 146.086 44.1752C146.249 44.3621 149.528 43.8989 146.33 47.3608L145.12 45.9955C145.039 46.1581 143.968 45.6217 144.155 49.1812C144.203 50.067 145.145 52.2856 145.607 53.2771C158.967 65.5484 182.147 64.3213 180.922 48.271C180.305 40.2662 170.736 32.1639 162.538 31.4325C161.629 31.3512 160.558 31.4 159.633 31.4325Z" fill="#081212"/>
<path d="M146.086 44.1752C144.601 45.0853 145.267 45.7111 145.12 45.9955L146.33 47.3608C149.528 43.8989 146.249 44.3621 146.086 44.1752Z" fill="#D5D5D3"/>
<path d="M168.098 35.9834C159.308 34.5369 165.403 46.5482 171.726 41.6721C173.43 39.5755 170.184 36.3248 168.098 35.9834Z" fill="#FDFDFD"/>
<path d="M163.739 41.4446C157.685 43.2487 165.225 49.49 165.436 43.0374L163.739 41.4446Z" fill="#EBE1E3"/>
<path d="M94.8072 92.8785C95.3104 92.7891 96.4305 92.5616 96.7389 92.4234C99.2144 91.3101 99.0358 90.7412 102.542 90.148C111.6 88.6201 120.633 94.2276 129.634 96.5193C140.478 99.2824 139.009 94.9021 145.599 102.436C148.789 106.084 148.667 106.58 150.437 110.627C151.159 112.285 154.446 116.966 152.612 118.364C129.318 125.353 100.359 121.135 87.5511 99.705C85.6113 99.7943 84.3695 99.0223 82.7137 98.3397C82.6326 98.9492 82.8517 99.9 82.7137 100.16C88.9633 102.501 84.5724 108.441 82.7137 117.681C79.9217 131.57 76.6914 146.791 77.3895 160.915C77.6086 165.279 79.7838 173.999 79.8081 176.389C79.8325 178.762 78.9965 180.054 78.8423 182.532C78.8098 183.02 78.4527 183.759 78.3553 185.718C78.1767 189.359 77.4787 192.951 77.3895 196.64C77.3895 196.941 77.3895 197.25 77.3895 197.551C77.1216 214.869 79.9867 224.946 81.7398 239.874C82.5433 246.717 82.8842 248.708 82.7056 255.803C82.6001 259.842 83.2576 261.776 81.7398 265.36C81.5612 265.782 82.6651 265.563 81.4963 266.725C80.6928 267.522 63.7864 275.185 63.8432 280.378C64.2247 280.28 64.5331 279.785 64.8091 279.468C69.3948 274.259 77.1216 269.472 83.6715 266.725C83.7851 266.676 83.8095 265.896 85.6032 265.36C84.4101 259.053 85.5464 252.568 85.1162 246.246C83.7689 226.148 73.6235 199.737 82.6976 177.518C82.3486 176.177 82.032 174.771 81.7317 173.422C77.982 156.421 79.0533 147.978 81.7317 131.098C82.2187 128.027 83.1926 125.068 83.6634 121.997C88.4845 102.622 84.962 102.549 90.9194 108.799C91.9421 109.871 93.5978 110.587 94.304 111.984C96.3412 112.821 101.868 117.332 106.641 119.266C121.25 125.198 139.001 124.865 153.561 119.266C154.065 119.396 154.568 120.973 154.771 121.541C155.68 124.044 155.988 127.978 156.224 130.643C156.305 131.545 156.175 132.472 156.224 133.374C156.516 138.542 156.565 149.814 157.189 137.47C157.814 125.182 155.469 119.932 155.737 119.038C155.915 118.453 162.774 115.585 163.715 114.26C168.674 119.266 171.904 129.79 173.146 136.56C173.357 137.705 173.463 139.022 173.633 140.2C173.893 141.988 174.153 143.849 174.12 145.661C174.859 166.376 176.166 151.472 175.086 141.111C173.357 124.491 165.363 114.195 166.134 112.895C166.255 112.691 170.005 110.489 170.484 110.619C180.573 130.448 179.047 121.476 172.18 110.164C171.263 108.661 169.924 106.483 168.796 105.158C167.546 103.695 160.882 98.039 159.121 97.4214C156.735 96.5843 156.824 97.4457 156.702 97.4214V97.8764C160.193 98.6241 164.77 102.915 166.864 105.613C167.643 106.621 168.658 107.45 169.283 108.571C162.684 113.789 165.168 111.391 161.54 107.433C159.624 105.337 153.683 99.2499 151.378 98.3315C150.445 97.9577 140.892 96.438 144.609 98.3315C147.961 99.1036 150.729 96.7143 159.121 107.433C159.941 108.482 160.363 108.994 161.053 110.164C162.603 112.805 165.874 111.806 155.972 116.99C154.308 116.893 154.284 114.284 153.797 113.35C153.245 112.301 152.896 111.188 152.344 110.164C150.055 105.906 147.791 102.07 144.601 98.3315C136.209 96.3974 132.702 96.5924 130.332 96.0561C120.341 93.805 110.407 86.5803 99.8555 89.6847C97.2664 90.4486 95.0425 92.7322 94.7747 92.8704L94.8072 92.8785Z" fill="#342525"/>
<path d="M224.937 235.332C224.498 246.498 229.49 245.823 216.471 251.26C184.144 264.767 143.367 255.543 118.515 232.601C117.663 235.64 119.708 235.616 115.609 237.152C145.234 268.797 198.826 278.298 240.415 265.14C238.937 259.59 240.139 252.877 239.928 251.943C239.814 251.431 236.348 247.343 234.603 242.841C233.532 240.078 233.183 236.933 232.185 234.194C231.267 231.675 227.859 227.774 226.86 218.493C226.536 218.493 225.976 218.379 225.894 218.721C225.61 219.858 225.058 232.089 224.929 235.332H224.937Z" fill="#B6361B"/>
<path d="M224.45 203.475C220.903 223.41 211.317 237.575 190.101 243.978C184.882 247.457 196.197 247.343 203.891 245.344C213.395 242.873 218.078 235.51 224.937 235.332C225.067 232.089 225.618 219.858 225.903 218.721C225.992 218.379 226.544 218.485 226.868 218.493C226.097 211.317 227.583 204.93 226.868 193.918C226.852 193.617 226.893 193.308 226.868 193.008C224.336 194.633 225.237 199.062 224.45 203.475Z" fill="#EB602C"/>
<path d="M115.609 237.152C119.708 235.616 117.663 235.64 118.515 232.601C117.833 231.975 117.241 230.984 116.583 230.326C107.542 221.329 102.574 212.374 98.6868 208.026C97.4774 206.669 96.2194 209.757 89.9779 198.014C96.1869 212.179 104.855 225.661 115.618 237.152L115.609 237.152Z" fill="#B6361B"/>
<path d="M86.1064 188.457C86.8369 190.553 87.7297 193.325 88.5251 195.283C88.9715 196.388 89.564 197.079 89.9779 198.014C96.2194 209.757 97.4774 206.669 98.6868 208.026L101.105 203.93C98.9465 200.533 94.7016 192.146 93.3624 188.457C90.2295 189.546 91.098 186.482 86.1064 188.457Z" fill="#D37243"/>
<path d="M175.11 141.119C176.19 151.48 174.883 166.385 174.145 145.67C163.228 157.063 149.511 162.232 132.305 161.143C116.299 159.843 100.48 155.414 90.9438 141.574C89.913 144.727 89.0851 155.015 89.0121 158.867C88.9796 160.379 88.9796 161.907 89.0121 163.418C92.2262 167.766 91.7635 173.244 93.8495 178.209C94.9776 180.899 108.775 203.223 111.267 206.425C121.64 219.777 130.649 226.14 146.338 233.048C146.841 233.267 146.322 234.202 146.825 234.413C147.101 234.535 147.986 233.609 152.628 235.323C152.985 235.454 152.45 236.51 154.081 237.144C155.169 237.566 157.758 236.274 157.465 238.054C161.605 237.607 160.509 238.842 160.85 238.964C167.156 241.24 170.062 240.687 170.768 241.24C187.553 240.46 203.55 232.723 213.338 219.85C210.879 218.062 215.278 215.502 217.21 209.611C218.509 205.645 218.517 200.476 220.116 196.413C221.309 193.382 224.133 191.724 224.466 189.131C225.026 184.759 220.724 173.626 223.5 172.52C222.916 168.433 221.731 164.329 221.081 160.233C218.314 142.809 219.539 134.853 212.86 116.544C212.73 116.186 212.511 115.991 212.373 115.633C208.639 120.062 206.212 125.223 202.211 129.514C196.132 136.039 184.899 143.02 176.815 147.49C175.695 147.449 177.31 141.98 175.119 141.119H175.11Z" fill="#FAC287"/>
<path d="M180.435 105.621C182.618 109.424 180.605 107.295 178.982 105.621L172.213 110.172C179.079 121.485 180.605 130.456 170.517 110.627C170.038 110.497 166.288 112.7 166.166 112.903C165.395 114.203 173.382 124.5 175.119 141.119C177.302 141.98 175.687 147.449 176.815 147.49C184.899 143.02 196.132 136.039 202.211 129.514C206.204 125.223 208.639 120.062 212.373 115.633C209.069 106.913 203.712 94.6989 196.408 88.3276C191.489 94.5282 186.701 100.542 180.443 105.621H180.435Z" fill="#E29150"/>
<path d="M83.6877 122.005C86.5772 120.225 83.6391 113.805 89.4909 118.136C87.9407 125.491 85.4003 132.805 84.1667 140.208C83.3469 145.133 82.6732 150.261 82.235 155.227C82.8924 158.55 85.6032 159.233 89.004 158.867C89.0851 155.015 89.9049 144.727 90.9356 141.574C92.5346 136.714 95.424 142.655 101.333 145.67C102.363 146.198 115.991 151.448 116.811 151.586C117.793 151.748 116.997 150.367 119.229 150.676C141.793 153.813 155.591 154.772 173.649 140.208C173.479 139.03 173.374 137.714 173.162 136.568C162.798 140.387 157.141 134.487 157.928 140.664L157.206 137.478C156.581 149.822 156.524 138.551 156.24 133.382C156.078 135.127 155.915 136.871 155.753 138.616C139.439 144.191 106.698 145.808 95.773 130.651C92.5995 126.255 91.8203 122.809 90.9356 117.681C90.8464 117.169 89.5072 116.95 89.4828 116.771C89.4423 116.373 90.9438 110.31 90.9356 108.807C84.9782 102.557 88.5007 102.631 83.6796 122.005H83.6877Z" fill="#DA9D76"/>
<path d="M90.9438 141.574C100.472 155.414 116.299 159.843 132.305 161.143C149.511 162.232 163.228 157.063 174.145 145.67C174.177 143.857 173.917 141.996 173.658 140.208C155.599 154.772 141.801 153.813 119.237 150.676C117.005 150.367 117.801 151.748 116.819 151.586C115.999 151.448 102.372 146.198 101.341 145.67C95.4321 142.655 92.5346 136.714 90.9438 141.574Z" fill="#FCAB6E"/>
<path d="M95.7812 130.651C115.585 135.609 136.753 137.128 156.248 130.651C156.013 127.986 155.704 124.053 154.795 121.55C139.837 128.254 122.224 131.123 106.665 124.28C97.5343 120.266 87.5593 109.213 94.3283 111.993C93.6222 110.595 91.9664 109.88 90.9438 108.807C90.9519 110.31 89.4504 116.373 89.4909 116.771C89.5072 116.95 90.8545 117.169 90.9438 117.681C91.8285 122.809 92.6077 126.255 95.7812 130.651Z" fill="#D37243"/>
<path d="M96.747 92.4234C95.7811 95.5035 90.7815 99.5668 87.5593 99.705C100.367 121.135 129.334 125.353 152.62 118.364C154.446 116.966 151.167 112.285 150.445 110.627C141.712 114.008 124.091 117.502 117.549 111.993C102.932 110.587 93.2326 92.716 102.55 90.6031V90.148C99.0358 90.7412 99.2225 91.3101 96.747 92.4234Z" fill="#B55A2B"/>
<path d="M95.7812 130.651C106.706 145.808 139.455 144.191 155.761 138.616C155.923 136.871 156.086 135.127 156.248 133.382C156.199 132.48 156.329 131.554 156.248 130.651C136.753 137.128 115.585 135.609 95.7812 130.651Z" fill="#D37243"/>
<path d="M157.214 137.478L157.936 140.664C157.149 134.487 162.806 140.387 173.171 136.568C171.929 129.798 168.698 119.274 163.739 114.268C162.79 115.593 155.931 118.461 155.761 119.047C155.493 119.94 157.839 125.198 157.214 137.478Z" fill="#D37243"/>
<path d="M154.795 121.55C154.592 120.981 154.089 119.404 153.586 119.274C139.017 124.873 121.266 125.207 106.665 119.274C101.893 117.332 96.3655 112.83 94.3283 111.993C87.5511 109.213 97.5343 120.266 106.665 124.28C122.224 131.123 139.845 128.254 154.795 121.55Z" fill="#C74520"/>
<path d="M81.7479 173.43C82.0482 174.78 82.3729 176.185 82.7138 177.526C83.6472 181.143 84.8646 184.914 86.0983 188.449C91.0898 186.474 90.2214 189.538 93.3543 188.449C90.4405 180.387 89.1825 171.903 89.004 163.418C88.9715 161.907 88.9715 160.379 89.004 158.867C85.5951 159.233 82.8924 158.55 82.235 155.227C81.6912 161.314 81.5207 167.335 81.7479 173.43Z" fill="#D37243"/>
<path d="M136.899 101.07C137.012 108.514 124.091 112.618 117.549 111.993C124.083 117.502 141.712 114.008 150.445 110.627C148.675 106.58 148.797 106.084 145.607 102.436C142.694 102.078 139.739 101.834 136.899 101.07Z" fill="#C08866"/>
<path d="M81.7479 173.43C81.5207 167.335 81.6912 161.314 82.235 155.227C82.6814 150.261 83.3469 145.133 84.1667 140.208C79.0777 138.713 83.0222 134.512 81.7479 131.107C79.0695 147.986 77.9982 156.429 81.7479 173.43Z" fill="#FAD7AA"/>
<path d="M83.6877 122.005C83.217 125.077 82.243 128.043 81.756 131.107C83.0303 134.512 79.0858 138.713 84.1747 140.208C85.4084 132.805 87.9407 125.491 89.499 118.136C83.6472 113.805 86.5772 120.225 83.6959 122.005H83.6877Z" fill="#FCAB6E"/>
<path d="M159.146 97.4295C160.907 98.0471 167.57 103.703 168.82 105.166C170.638 104.085 174.802 102.858 175.11 101.07C172.757 98.8679 170.021 97.015 167.367 95.154C164.932 96.4624 161.759 96.6331 159.146 97.4295Z" fill="#FEA344"/>
<path d="M144.633 98.3397C147.815 102.078 150.088 105.914 152.376 110.172C154.649 109.782 159.081 108.661 159.146 107.442C150.753 96.7225 147.986 99.1117 144.633 98.3397Z" fill="#E29150"/>
<path d="M102.55 90.148V90.6031C105.642 89.9042 111.438 94.3169 117.306 96.0642C121.064 97.1857 125.373 97.3726 129.156 98.3397L129.643 96.5193C120.65 94.2276 111.616 88.6201 102.55 90.148Z" fill="#E5815E"/>
<path d="M75.9448 91.9683C73.031 93.0655 80.92 97.6002 82.7137 98.3397C84.3695 99.0223 85.6113 99.7943 87.5511 99.705C90.7733 99.5587 95.7811 95.5035 96.7389 92.4234C96.4305 92.5616 95.3104 92.7891 94.8072 92.8785C90.5055 95.024 89.1582 96.5112 83.4362 95.6091C82.9573 95.536 76.2532 92.2284 75.9366 91.9683H75.9448Z" fill="#883D25"/>
<path d="M156.727 97.8846C156.467 97.8277 151.776 97.8602 151.403 98.3397C153.708 99.2661 159.641 105.345 161.564 107.442C163.339 106.835 165.114 106.228 166.889 105.621C164.795 102.923 160.225 98.6322 156.727 97.8846Z" fill="#E29150"/>
<path d="M129.643 96.5193L129.156 98.3397C132.751 99.2661 134.813 100.51 136.899 101.07C139.731 101.834 142.694 102.078 145.607 102.436C139.017 94.9021 140.486 99.2824 129.643 96.5193Z" fill="#CD6546"/>
<path d="M168.82 105.166C169.948 106.491 171.288 108.669 172.205 110.172L178.974 105.621C177.797 104.402 176.571 102.452 175.102 101.07C174.794 102.858 170.638 104.085 168.812 105.166H168.82Z" fill="#B55A2B"/>
<path d="M153.829 113.358C154.316 114.292 154.341 116.909 156.005 116.999C165.898 111.814 162.636 112.813 161.085 110.172L153.829 113.358Z" fill="#874F3C"/>
<path d="M161.564 107.442C165.192 111.399 162.7 113.797 169.307 108.579C168.682 107.458 167.668 106.629 166.889 105.621C165.114 106.228 163.339 106.835 161.564 107.442Z" fill="#B55A2B"/>
<path d="M152.376 110.172C152.928 111.196 153.277 112.309 153.829 113.358L161.085 110.172C160.395 108.994 159.973 108.49 159.154 107.442C159.081 108.661 154.657 109.782 152.385 110.172H152.376Z" fill="#9D4C2F"/>
<path d="M193.973 86.9623C189.338 92.7973 183.486 97.7789 176.555 101.07C177.61 102.143 179.753 104.459 180.427 105.621C186.684 100.542 191.473 94.5283 196.391 88.3276C195.775 87.7912 195.117 87.4255 194.46 86.9623C194.354 86.8891 194.086 87.0354 193.973 86.9623Z" fill="#CD6546"/>
<path d="M116.575 230.326C117.233 230.984 117.833 231.975 118.507 232.601C143.359 255.543 184.136 264.775 216.463 251.26C229.482 245.815 224.49 246.498 224.929 235.332C218.078 235.51 213.387 242.873 203.883 245.344C196.189 247.343 184.874 247.457 190.093 243.978C187.52 244.759 184.55 245.384 181.871 245.799C160.704 249.082 137.126 243.621 123.336 227.14C123.231 227.067 122.955 227.213 122.849 227.14C120.869 229.651 120.455 231.634 116.559 230.326H116.575Z" fill="#DA5126"/>
<path d="M213.322 219.858C203.534 232.731 187.537 240.476 170.752 241.248C170.857 241.329 170.46 242.849 171.961 243.523C174.315 244.58 178.617 242.946 181.879 245.799C184.558 245.384 187.528 244.759 190.101 243.978C211.317 237.575 220.903 223.402 224.45 203.475C213.825 207.546 219.442 209.497 219.612 210.074C219.832 210.821 214.264 218.623 213.322 219.858Z" fill="#FA8235"/>
<path d="M213.322 219.858C214.264 218.623 219.832 210.821 219.612 210.074C219.442 209.497 213.825 207.546 224.45 203.475C225.237 199.062 224.336 194.633 226.868 193.008C226.333 186.043 224.466 179.395 223.484 172.528C220.708 173.634 225.01 184.767 224.45 189.139C224.117 191.732 221.284 193.39 220.099 196.421C218.5 200.492 218.5 205.653 217.194 209.619C215.262 215.511 210.871 218.07 213.322 219.858Z" fill="#EAB48C"/>
<path d="M98.6786 208.026C102.566 212.374 107.534 221.329 116.575 230.326C120.463 231.634 120.885 229.651 122.865 227.14C116.965 223.052 104.936 209.976 101.097 203.93L98.6786 208.026Z" fill="#D37243"/>
<path d="M89.004 163.418C89.1906 171.911 90.4406 180.387 93.3543 188.449C94.6854 192.138 98.9384 200.525 101.097 203.922C104.936 209.968 116.965 223.044 122.865 227.132C122.971 227.205 123.247 227.059 123.352 227.132C136.639 236.152 154.389 241.996 170.76 241.24C170.062 240.687 167.148 241.24 160.842 238.964C160.493 238.842 161.589 237.607 157.457 238.054C157.75 236.274 155.16 237.566 154.073 237.144C152.441 236.51 152.977 235.454 152.62 235.324C147.977 233.609 147.093 234.535 146.817 234.413C146.314 234.202 146.833 233.267 146.33 233.048C130.641 226.14 121.64 219.777 111.259 206.425C108.767 203.223 94.9776 180.899 93.8413 178.209C91.7554 173.244 92.218 167.758 89.004 163.418Z" fill="#EAB48C"/>
<path d="M167.367 95.154C170.021 97.015 172.757 98.8679 175.11 101.07C176.579 102.452 177.805 104.402 178.982 105.621C180.597 107.295 182.618 109.424 180.435 105.621C179.761 104.459 177.626 102.143 176.563 101.07C174.688 99.1686 172.059 97.08 169.794 95.6091C169.332 95.3084 168.536 95.2922 168.341 94.6989C168.301 94.7314 167.927 94.8533 167.375 95.154H167.367Z" fill="#6B1D0E"/>
<path d="M102.55 90.6031C93.2245 92.716 102.932 110.595 117.549 111.993C124.091 112.618 137.012 108.514 136.899 101.07C134.821 100.51 132.759 99.2661 129.156 98.3397C125.373 97.3726 121.064 97.1857 117.306 96.0642C111.446 94.3169 105.642 89.9042 102.55 90.6031Z" fill="#FCAB6E"/>
<path d="M173.179 80.591C174.258 82.005 174.615 82.3626 174.632 84.2317C174.664 87.7262 172.773 89.1402 170.76 91.5132C170.314 92.0415 168.512 94.5851 168.341 94.6989C168.536 95.2922 169.332 95.3084 169.794 95.6091C175.045 92.4884 178.73 87.3524 180.922 81.9562C178.089 81.4036 176.279 80.8673 173.179 80.591Z" fill="#FCAB6E"/>
<path d="M180.914 81.9562C178.722 87.3524 175.037 92.4884 169.786 95.6091C172.059 97.08 174.688 99.1767 176.555 101.07C183.478 97.7789 189.33 92.7891 193.973 86.9623C188.429 83.2971 187.601 83.2646 180.914 81.9562Z" fill="#FAC287"/>
<path d="M181.879 245.799C178.617 242.946 174.315 244.58 171.961 243.523C170.46 242.849 170.857 241.329 170.752 241.248C154.389 242.004 136.631 236.152 123.344 227.14C137.134 243.629 160.712 249.082 181.879 245.799Z" fill="#E29150"/>
<path d="M67.2359 61.0218V61.4769C68.7617 62.3627 70.4094 63.1023 71.5863 64.4351C70.1578 71.8791 66.8788 67.0925 55.1425 66.0279V66.9381C57.1392 67.1819 68.2829 69.3923 68.6888 70.8064C68.7699 71.0908 66.822 75.7312 66.757 76.4951C66.7408 76.6495 66.7651 76.7958 66.757 76.9502C68.8267 77.324 67.8284 78.6487 68.6888 80.1358C69.4517 81.4442 69.9468 83.1102 70.6205 84.2317C71.708 86.0277 74.078 89.7579 75.4578 91.0581C75.4984 91.0907 75.2061 91.367 75.9448 91.9683C76.2613 92.2284 82.9654 95.536 83.4443 95.6091C89.1582 96.5112 90.5136 95.024 94.8153 92.8785C95.0831 92.7404 97.307 90.4568 99.8961 89.6929C110.447 86.5885 120.382 93.8131 130.373 96.0642C132.743 96.6006 136.249 96.4055 144.642 98.3397C140.932 96.4462 150.485 97.9659 151.411 98.3397C151.784 97.8602 156.467 97.8277 156.735 97.8846V97.4295C156.581 97.397 156.402 97.462 156.248 97.4295C153.326 96.8037 150.209 96.9338 147.539 95.3816C153.318 93.3336 155.915 88.4576 156.491 88.3276C157.482 88.1082 159.008 89.6604 159.154 89.6929C159.998 89.8798 163.723 90.4974 163.991 90.1479C163.106 89.4816 162.035 88.9289 161.085 88.3276C160.404 87.8968 157.482 87.1492 157.214 86.2796C157.165 86.109 158.22 83.1346 158.18 82.8664C157.733 79.5588 157.052 77.5678 155.274 74.6747C153.618 71.9685 146.005 64.9633 143.181 63.2973C142.475 62.8828 138.441 60.8512 138.343 61.932C142.734 64.1425 148.546 68.5634 151.403 72.3992C154.324 76.3163 155.867 79.2744 154.787 84.2317C152.912 92.846 142.572 93.9431 134.951 92.8785C123.636 91.3019 114.449 84.3861 109.311 81.9562C107.858 81.2736 106.349 80.1358 106.17 80.1358C102.81 80.1358 86.8125 96.4462 80.287 90.148C78.0388 90.1154 80.8714 88.9371 82.2187 87.4174C75.3928 89.124 77.8116 88.1082 72.544 82.6389L77.3813 81.9562C76.9106 81.6962 76.7563 81.6637 76.4155 81.5011C74.8896 80.7779 67.3658 81.2086 73.031 76.04C72.8362 75.8612 72.5765 75.6093 72.544 75.5849C72.1869 75.3086 67.9339 76.8689 71.3347 71.489L72.544 72.3992C72.5765 72.2042 72.8443 71.3428 73.031 70.5788C71.2779 70.0669 72.9173 68.791 73.5179 67.8483C73.7858 67.4257 74.8085 66.7268 74.9708 66.483C75.1007 66.2879 75.4091 64.6707 77.3895 62.3871C76.1639 60.5505 76.3262 62.8178 74.4838 62.8422C74.427 62.8828 74.427 63.4598 73.5179 63.7524C73.031 63.9068 68.3153 61.4769 67.2278 61.0218H67.2359Z" fill="#1B161E"/>
<path d="M75.4659 91.0581C74.0861 89.7579 71.7161 86.0277 70.6285 84.2317C66.684 83.5653 73.4124 94.4063 75.4659 91.0581Z" fill="#7C4840"/>
<path d="M102.55 76.04C95.0506 80.339 88.4115 86.6047 80.2951 90.148C86.8206 96.4462 102.818 80.1358 106.178 80.1358C106.365 80.1358 107.866 81.2736 109.319 81.9562L111.738 80.1358C110.488 79.3475 105.261 76.3651 104.969 75.5849C104.457 75.8206 102.656 75.9831 102.55 76.04Z" fill="#CD6546"/>
<path d="M82.2349 87.4174H82.7219C81.5694 86.2796 77.8521 82.2082 77.3976 81.9562L72.5602 82.6389C77.8277 88.1081 75.4091 89.124 82.2349 87.4174Z" fill="#B49386"/>
<path d="M76.4317 81.5011C76.383 80.339 73.729 76.6495 73.0472 76.04C67.382 81.2086 74.9058 80.7779 76.4317 81.5011Z" fill="#938079"/>
<path d="M72.5602 75.5849C72.6657 74.5609 72.406 73.3988 72.5602 72.3992L71.3509 71.489C67.9501 76.8689 72.2031 75.3086 72.5602 75.5849Z" fill="#A77152"/>
<path d="M73.0472 70.5788C73.242 69.7662 74.2646 68.8072 73.5342 67.8483C72.9417 68.791 71.3022 70.075 73.0472 70.5788Z" fill="#6B524E"/>
<path d="M142.215 77.8604L142.937 77.4053C147.653 90.3267 146.516 93.1305 139.796 79.2257C132.037 69.6118 142.905 85.5238 141.728 88.5551C136.55 91.5864 140.218 76.6739 124.31 72.8543C140.113 81.5336 141.809 97.2019 132.775 84.2317L132.532 88.3276C133.06 88.742 135.722 86.8485 134.951 92.8785C142.564 93.935 152.904 92.846 154.787 84.2317C152.969 82.7445 152.165 86.4747 149.463 86.5072C148.773 86.5153 143.221 76.0156 143.173 75.3573C143.14 74.8697 145.567 71.8954 143.173 65.8003C141.216 64.0693 143.457 66.4505 143.173 71.7166C143.156 72.0254 141.777 75.0404 142.207 77.8604H142.215Z" fill="#7C7068"/>
<path d="M122.865 83.7766C122.435 84.9712 124.278 85.8002 122.143 85.597C118.621 83.8091 115.09 82.2407 111.746 80.1358L109.327 81.9562C114.465 84.3861 123.653 91.3019 134.967 92.8785C135.738 86.8485 133.076 88.742 132.548 88.3276C129.44 85.8733 130.203 82.9396 127.954 79.6807C128.517 82.1838 129.083 84.6868 129.651 87.1898C121.664 87.0436 125.43 84.6706 125.3 81.7287C124.943 73.7239 124.018 80.6316 122.882 83.7766H122.865Z" fill="#9E756A"/>
<path d="M149.471 86.5072C152.174 86.4747 152.977 82.7445 154.795 84.2317C155.875 79.2663 154.333 76.3163 151.411 72.3992C148.205 72.5374 141.793 77.7304 147.783 74.6747C149.771 74.6259 148.781 81.428 149.479 86.5072H149.471Z" fill="#938079"/>
<path d="M104.969 73.3094C105.034 74.1465 104.831 75.2273 104.969 75.5849C105.261 76.3651 110.496 79.3475 111.738 80.1358C115.082 82.2407 118.621 83.8091 122.135 85.597C124.278 85.8002 122.427 84.9712 122.857 83.7766C119.01 83.606 120.593 77.4784 120.195 77.4053C117.598 86.9948 100.886 71.2777 119.952 72.3992C113.004 69.4655 109.652 74.1708 109.068 74.2196C108.167 74.2846 105.935 71.1965 104.953 73.3094H104.969Z" fill="#E1C8A7"/>
<path d="M119.968 72.3992C100.903 71.2777 117.614 86.9948 120.211 77.4053C120.609 77.4784 119.018 83.6059 122.874 83.7766C124.01 80.6316 124.935 73.7239 125.292 81.7287C125.422 84.6706 121.656 87.0435 129.643 87.1898C129.08 84.6868 128.514 82.1838 127.946 79.6807C130.194 82.9477 129.432 85.8733 132.54 88.3276L132.784 84.2317C141.817 97.2019 140.121 81.5336 124.318 72.8543C121.315 72.131 122.37 72.5374 119.968 72.3992Z" fill="#F9F1DA"/>
<path d="M142.215 77.8604L139.796 79.2257C146.516 93.1305 147.653 90.3267 142.937 77.4053L142.215 77.8604Z" fill="#E8E2D7"/>
<path d="M104.969 73.3094C105.951 71.1965 108.183 74.2846 109.084 74.2196C109.668 74.1708 113.02 69.4655 119.968 72.3992C122.37 72.5374 121.323 72.131 124.318 72.8543C140.218 76.682 136.55 91.5945 141.736 88.5551C142.913 85.5238 132.045 69.6118 139.804 79.2257L142.223 77.8604C141.793 75.0404 143.173 72.0254 143.189 71.7166C143.473 66.4505 141.233 64.0693 143.189 65.8003C145.583 71.8954 143.156 74.8698 143.189 75.3574C143.237 76.0237 148.789 86.5153 149.479 86.5072C148.781 81.428 149.771 74.6259 147.783 74.6747C141.793 77.7304 148.205 72.5374 151.411 72.3992C148.554 68.5634 142.734 64.1425 138.351 61.932C133.465 59.4696 127.987 58.3725 122.874 56.4709C121.559 68.7503 103.833 58.6488 104.977 73.3094H104.969Z" fill="#FDFDFD"/>
<path d="M138.587 63.7524C136.03 78.0229 135.6 71.3753 129.156 66.2554L134.715 73.7645C138.668 72.4805 140.665 67.1819 138.587 63.7524Z" fill="#696866"/>
<path d="M77.3976 62.3871C75.4172 64.6707 75.1088 66.2879 74.9789 66.483C76.3019 71.8872 78.956 76.6251 81.2691 81.5011L88.5251 81.7287C80.7902 72.3505 90.9925 81.8506 94.8153 77.6328C85.7656 72.318 106.901 79.2094 94.093 73.3094H86.1146C81.9915 73.1631 96.4629 76.5601 83.6959 73.9921V71.7166C89.9374 68.9047 85.7574 70.1969 80.3114 72.3992C81.7805 75.268 76.2938 72.001 79.3456 66.483C81.6344 62.3384 87.5674 62.7284 81.2773 58.7464C79.9056 59.9897 78.6394 60.9649 77.4057 62.3871H77.3976Z" fill="#E8E2D7"/>
<path d="M86.1064 73.3094H94.0848C106.892 79.2094 85.7655 72.318 94.8072 77.6328C90.9844 81.8506 80.7821 72.3505 88.517 81.7287L81.261 81.5011C82.1051 83.2728 85.0269 87.5068 82.7138 87.4174H82.2268C80.8714 88.9371 78.0388 90.1154 80.2951 90.148C88.4115 86.6047 95.0425 80.3309 102.55 76.04C102.274 74.1708 101.617 73.8783 101.584 73.7645C96.1626 73.7645 92.3154 70.7983 86.1064 73.3094Z" fill="#C2AA99"/>
<path d="M73.526 67.8483C74.2646 68.8072 73.2339 69.7662 73.0391 70.5788C72.8605 71.3428 72.5846 72.2042 72.5521 72.3992C72.3979 73.3988 72.6576 74.5609 72.5521 75.5849C72.5765 75.6093 72.8443 75.8612 73.0391 76.04C73.7209 76.6495 76.3749 80.339 76.4236 81.5011C76.7645 81.6637 76.9187 81.6962 77.3894 81.9562C77.8358 82.2082 81.5532 86.2796 82.7138 87.4174C85.0269 87.5068 82.1051 83.2728 81.261 81.5011C78.9478 76.6251 76.3019 71.8791 74.9708 66.483C74.8085 66.7268 73.7858 67.4257 73.5179 67.8483L73.526 67.8483Z" fill="#BDB4A0"/>
<path d="M81.2691 58.7382C87.5593 62.7203 81.6262 62.3302 79.3374 66.4748C78.7287 68.8235 78.5988 70.4 80.3033 72.3911C85.7493 70.1888 89.9292 68.8966 83.6877 71.7085V73.9839C96.4548 76.552 81.9833 73.155 86.1064 73.3013C92.3154 70.7901 96.1626 73.7483 101.584 73.7564C100.545 70.2944 100.732 67.0844 96.9905 64.6545C95.2536 63.5249 89.3205 65.4102 89.2474 52.3669C86.6015 54.5367 83.8014 56.4384 81.2691 58.7382Z" fill="#E8E2D7"/>
<path d="M80.2951 72.3992C78.5907 70.4001 78.7206 68.8316 79.3293 66.483C76.2775 72.001 81.7642 75.268 80.2951 72.3992Z" fill="#AC9D92"/>
<path d="M98.1998 29.6121C94.7828 29.7746 90.1889 32.2208 88.0381 34.6181C81.1554 42.2979 82.6245 54.7318 82.235 55.7801C82.0564 56.2596 74.9221 62.5253 74.4919 62.8341C76.3343 62.8097 76.172 60.5424 77.3976 62.379C78.6313 60.9568 79.8893 59.9816 81.2691 58.7382C83.8095 56.4384 86.6015 54.5286 89.2474 52.3669C89.3123 65.4102 95.2455 63.5249 96.9905 64.6545C100.74 67.0844 100.545 70.2944 101.584 73.7564C101.617 73.8783 102.274 74.1627 102.55 76.0319C102.656 75.975 104.457 75.8124 104.969 75.5768C104.831 75.2192 105.034 74.1384 104.969 73.3013C103.824 58.6407 121.551 68.7422 122.865 56.4628C123.961 46.2231 104.563 46.15 97.7129 46.2231C98.4677 42.2491 99.9529 38.4865 101.097 34.6182C103.321 27.1172 97.8021 39.9655 93.3543 38.0314C97.9076 30.8961 107.72 29.157 98.1917 29.6121L98.1998 29.6121Z" fill="#342525"/>
<path d="M98.1998 29.6121C107.728 29.157 97.9157 30.8961 93.3625 38.0314C97.8021 39.9655 103.321 27.1172 101.105 34.6182C101.592 42.8993 107.25 28.5719 106.909 27.5642C105.91 24.5898 93.2813 27.938 98.1998 29.6121Z" fill="#A9AAA8"/>
<path d="M97.4693 39.1691L92.3885 43.4925C91.4875 46.1174 96.5116 41.729 97.4693 39.1691Z" fill="#828380"/>
<path d="M98.1998 47.3608C98.7761 50.2133 108.451 45.6867 115.131 51.0016C119.854 54.7561 116.908 58.145 111.746 56.9178L114.887 59.1933C128.531 54.1141 113.515 44.7034 98.1998 47.3608Z" fill="#AE6357"/>
<path d="M97.2258 47.8159V50.0914C107.939 45.9712 101 62.0621 107.144 50.0914C110.269 49.7176 112.014 50.514 114.644 51.9118C114.644 51.863 115.309 52.0824 115.131 51.0016C108.451 45.6867 98.7761 50.2133 98.1998 47.3608C97.7697 47.434 97.6803 47.7022 97.2339 47.8159H97.2258Z" fill="#E69C8C"/>
<path d="M94.3283 56.4627C93.8251 54.0735 93.4599 53.9435 94.8153 51.9118C95.5214 50.8472 96.0327 50.5546 97.2339 50.0914V47.8159C91.5444 49.2219 87.5674 52.8139 94.3283 56.4627Z" fill="#CF816D"/>
<path d="M114.644 51.9118C114.692 52.4563 115.666 52.952 115.609 53.0495C115.366 53.4802 111.072 51.798 111.738 56.9178C116.9 58.145 119.846 54.7561 115.122 51.0016C115.301 52.0825 114.635 51.863 114.635 51.9118H114.644Z" fill="#F6CBB6"/>
<path d="M101.097 59.6565C102.396 59.1446 104.336 59.1608 104.482 61.0218C105.862 61.8751 103.808 64.557 102.063 63.2973C100.618 63.3705 100.521 61.5013 100.61 60.5667C99.5146 71.294 110.188 65.5322 103.751 58.7464L101.089 59.6565H101.097Z" fill="#3F1710"/>
<path d="M94.3283 56.4627C98.3297 58.6245 96.9742 53.7484 94.8153 51.9118C93.468 53.9435 93.8251 54.0735 94.3283 56.4627Z" fill="#F6CBB6"/>
<path d="M101.097 59.6565L100.61 60.5667C100.521 61.5013 100.61 63.3705 102.063 63.2973C101.925 60.9324 102.039 60.1523 104.482 61.0218C104.336 59.1608 102.396 59.1446 101.097 59.6565Z" fill="#AB5242"/>
<path d="M104.482 61.0218C105.862 61.8751 103.808 64.557 102.063 63.2973C101.925 60.9324 102.039 60.1523 104.482 61.0218Z" fill="#E69C8C"/>
</svg>
